<?xml version="1.0" standalone="no"?>
  <!DOCTYPE svg PUBLIC "-//W3C//DTD SVG 1.1//EN" "http://www.w3.org/Graphics/SVG/1.1/DTD/svg11.dtd" >
  <svg>
  <metadata>
  Created by font-carrier
  </metadata>
  <defs>
  <font id="EMprint-BoldItalic" horiz-adv-x="1313" vert-adv-y="1313" >
    <font-face
      
      font-family="EMprint-BoldItalic"
      
      font-weight="400"
      
      font-stretch="normal"
      
      units-per-em="1000"
      
      ascent="960"
      
      descent="-267"
      
    />
      <missing-glyph />

      

      
      <glyph glyph-name="uni21" unicode="&#x21;" d="M64 230L136 695L286 695L195 230L64 230M9 0L36 157L193 157L166 0L9 0Z"  horiz-adv-x="260" vert-adv-y="1000"  />

      
      <glyph glyph-name="uni22" unicode="&#x22;" d="M72 415L112 714L241 714L176 415L72 415M256 415L296 714L425 714L360 415L256 415Z"  horiz-adv-x="371" vert-adv-y="1000"  />

      
      <glyph glyph-name="uni23" unicode="&#x23;" d="M561 521L553 411L449 411L417 281L508 281L500 171L389 171L346 0L250 0L293 171L194 171L151 0L55 0L98 171L16 171L24 281L126 281L158 411L69 411L77 521L185 521L229 695L325 695L281 521L380 521L424 695L520 695L476 521L561 521M222 281L321 281L353 411L254 411L222 281Z"  horiz-adv-x="540" vert-adv-y="1000"  />

      
      <glyph glyph-name="uni24" unicode="&#x24;" d="M553 519Q477 545 399 551L372 399Q463 365 505 326.50Q547 288 547 220Q547 134 484 76Q421 18 305 12L286-96L206-96L225 14Q170 18 122.50 30Q75 42 48 56L69 189Q96 173 146 159Q196 145 247 141L274 291Q188 323 145.50 363.50Q103 404 103 476Q103 561 166.50 619Q230 677 343 684L361 788L441 788L422 683Q470 679 513 669.50Q556 660 577 652L553 519M297 426L319 550Q280 545 264 528.50Q248 512 248 483Q248 462 259.50 449.50Q271 437 297 426M349 264L328 143Q366 148 383.50 164Q401 180 401 208Q401 228 388 240.50Q375 253 349 264Z"  horiz-adv-x="614" vert-adv-y="1000"  />

      
      <glyph glyph-name="uni25" unicode="&#x25;" d="M242 331Q163 331 119 376.50Q75 422 75 504Q75 593 130 650Q185 707 274 707Q349 707 393 664Q437 621 437 546Q437 458 386 394.50Q335 331 242 331M88 0L724 695L868 695L232 0L88 0M250 430Q326 430 326 537Q326 571 310 589.50Q294 608 263 608Q227 608 206.50 581Q186 554 186 506Q186 430 250 430M688-12Q609-12 565 33.50Q521 79 521 161Q521 250 576 307Q631 364 720 364Q795 364 839 321Q883 278 883 203Q883 115 832 51.50Q781-12 688-12M696 87Q772 87 772 194Q772 228 756 246.50Q740 265 709 265Q673 265 652.50 238Q632 211 632 163Q632 87 696 87Z"  horiz-adv-x="919" vert-adv-y="1000"  />

      
      <glyph glyph-name="uni26" unicode="&#x26;" d="M449 362L514 267Q540 296 565.50 330Q591 364 600 375L761 375Q740 346 678.50 266.50Q617 187 589 157L705 0L526 0L479 66Q399-14 272-14Q156-14 101.50 40.50Q47 95 47 177Q47 265 95.50 316.50Q144 368 249 409Q211 472 211 535Q211 614 269.50 664Q328 714 432 714Q522 714 572 669.50Q622 625 622 560Q622 489 579.50 444.50Q537 400 449 362M378 458Q426 476 449 494.50Q472 513 472 544Q472 569 456.50 583Q441 597 418 597Q388 597 369.50 579Q351 561 351 530Q351 495 378 458M280 111Q316 111 349 126Q382 141 408 169L310 309Q253 287 225.50 260.50Q198 234 198 192Q198 153 221.50 132Q245 111 280 111Z"  horiz-adv-x="756" vert-adv-y="1000"  />

      
      <glyph glyph-name="uni27" unicode="&#x27;" d="M72 415L112 714L241 714L176 415L72 415Z"  horiz-adv-x="187" vert-adv-y="1000"  />

      
      <glyph glyph-name="uni28" unicode="&#x28;" d="M256-160L118-160Q79-88 55.50 11Q32 110 32 207Q32 528 276 770L433 770Q312 647 242.50 504Q173 361 173 205Q173 13 256-160Z"  horiz-adv-x="345" vert-adv-y="1000"  />

      
      <glyph glyph-name="uni29" unicode="&#x29;" d="M111 770L249 770Q288 698 311.50 599Q335 500 335 403Q335 82 91-160L-66-160Q55-37 124.50 106Q194 249 194 405Q194 597 111 770Z"  horiz-adv-x="345" vert-adv-y="1000"  />

      
      <glyph glyph-name="uni2a" unicode="&#x2a;" d="M469 619L502 518L350 486L454 364L364 302L285 440L205 302L114 364L219 486L68 516L100 621L244 560L234 712L337 712L323 560L469 619Z"  horiz-adv-x="474" vert-adv-y="1000"  />

      
      <glyph glyph-name="uni2b" unicode="&#x2b;" d="M536 371L536 235L361 235L361 60L225 60L225 235L50 235L50 371L225 371L225 546L361 546L361 371L536 371Z"  horiz-adv-x="586" vert-adv-y="1000"  />

      
      <glyph glyph-name="uni2c" unicode="&#x2c;" d="M-101-129L64 157L217 157L31-129L-101-129Z"  horiz-adv-x="254" vert-adv-y="1000"  />

      
      <glyph glyph-name="uni2d" unicode="&#x2d;" d="M31 204L55 337L369 337L345 204L31 204Z"  horiz-adv-x="391" vert-adv-y="1000"  />

      
      <glyph glyph-name="uni2e" unicode="&#x2e;" d="M4 0L31 157L188 157L161 0L4 0Z"  horiz-adv-x="251" vert-adv-y="1000"  />

      
      <glyph glyph-name="uni2f" unicode="&#x2f;" d="M-59-49L423 750L548 750L65-49L-59-49Z"  horiz-adv-x="452" vert-adv-y="1000"  />

      
      <glyph glyph-name="uni30" unicode="&#x30;" d="M279-12Q167-12 108.50 59.50Q50 131 50 262Q50 360 76.50 461Q103 562 171 634.50Q239 707 356 707Q465 707 521.50 640.50Q578 574 578 451Q578 352 553 247Q528 142 461 65Q394-12 279-12M282 127Q348 127 384.50 230.50Q421 334 421 449Q421 515 402.50 544.50Q384 574 344 574Q278 574 240 473Q202 372 202 257Q202 186 222.50 156.50Q243 127 282 127Z"  horiz-adv-x="589" vert-adv-y="1000"  />

      
      <glyph glyph-name="uni31" unicode="&#x31;" d="M210 0L302 520L102 432L131 595L401 712L489 712L364 0L210 0Z"  horiz-adv-x="586" vert-adv-y="1000"  />

      
      <glyph glyph-name="uni32" unicode="&#x32;" d="M363 236L231 141L511 141L487 0L7 0L31 135L282 331Q350 384 378 419.50Q406 455 406 491Q406 527 384 548Q362 569 308 569Q264 569 216 552Q168 535 127 512L154 664Q191 683 243.50 695Q296 707 353 707Q456 707 509.50 657Q563 607 563 521Q563 445 522.50 383Q482 321 363 236Z"  horiz-adv-x="586" vert-adv-y="1000"  />

      
      <glyph glyph-name="uni33" unicode="&#x33;" d="M399 351L399 349Q445 336 480 300.50Q515 265 515 204Q515 108 439 48Q363-12 222-12Q155-12 101.50 0.50Q48 13 16 31L40 165Q65 150 112 135.50Q159 121 213 121Q285 121 317.50 144Q350 167 350 205Q350 248 314.50 265Q279 282 211 282L140 282L165 421L242 421Q389 421 389 501Q389 537 362 554Q335 571 286 571Q242 571 194.50 559Q147 547 118 533L142 675Q176 688 226 697.50Q276 707 330 707Q444 707 500 658Q556 609 556 533Q556 461 516 414Q476 367 399 351Z"  horiz-adv-x="592" vert-adv-y="1000"  />

      
      <glyph glyph-name="uni34" unicode="&#x34;" d="M575 267L552 140L445 140L421 0L275 0L299 140L-7 140L18 282L377 695L543 695L468 267L575 267M164 267L322 267L364 506L361 506Q340 476 298 426L164 267Z"  horiz-adv-x="587" vert-adv-y="1000"  />

      
      <glyph glyph-name="uni35" unicode="&#x35;" d="M291 554L265 447Q285 449 300 449Q415 449 469 393Q523 337 523 246Q523 128 443 58Q363-12 225-12Q115-12 27 31L50 163Q124 126 215 126Q290 126 327.50 153Q365 180 365 230Q365 323 219 323Q170 323 133 319L87 314L178 695L578 695L553 554L291 554Z"  horiz-adv-x="591" vert-adv-y="1000"  />

      
      <glyph glyph-name="uni36" unicode="&#x36;" d="M313 431Q340 437 365 437Q445 437 498 388.50Q551 340 551 246Q551 138 477.50 63Q404-12 279-12Q171-12 107.50 48.50Q44 109 44 210Q44 319 130 426L346 695L533 695L312 433L313 431M290 126Q341 126 366 157.50Q391 189 391 232Q391 271 369 296Q347 321 302 321Q251 321 225.50 290.50Q200 260 200 215Q200 174 224 150Q248 126 290 126Z"  horiz-adv-x="595" vert-adv-y="1000"  />

      
      <glyph glyph-name="uni37" unicode="&#x37;" d="M216 0L42 0L408 554L96 554L121 695L619 695L601 592L216 0Z"  horiz-adv-x="587" vert-adv-y="1000"  />

      
      <glyph glyph-name="uni38" unicode="&#x38;" d="M432 350L432 348Q481 332 509.50 295Q538 258 538 203Q538 108 467.50 47.50Q397-13 270-13Q160-13 96.50 39Q33 91 33 177Q33 257 74.50 305Q116 353 194 370L194 372Q158 389 133.50 427.50Q109 466 109 513Q109 601 174 654Q239 707 351 707Q464 707 520.50 657.50Q577 608 577 532Q577 389 432 350M336 430Q370 430 394.50 450Q419 470 419 509Q419 541 399 559Q379 577 345 577Q309 577 285.50 557Q262 537 262 499Q262 470 282.50 450Q303 430 336 430M284 118Q330 118 355.50 141Q381 164 381 202Q381 238 357.50 260Q334 282 290 282Q242 282 216 258Q190 234 190 195Q190 163 214 140.50Q238 118 284 118Z"  horiz-adv-x="590" vert-adv-y="1000"  />

      
      <glyph glyph-name="uni39" unicode="&#x39;" d="M496 260L285 0L98 0L319 262L318 264Q300 260 269 260Q188 260 134 308Q80 356 80 449Q80 557 153.50 632Q227 707 352 707Q460 707 523.50 646.50Q587 586 587 485Q587 373 496 260M329 374Q380 374 405.50 404.50Q431 435 431 480Q431 521 407 545Q383 569 341 569Q290 569 265 537.50Q240 506 240 463Q240 424 262 399Q284 374 329 374Z"  horiz-adv-x="596" vert-adv-y="1000"  />

      
      <glyph glyph-name="uni3a" unicode="&#x3a;" d="M4 0L31 157L188 157L161 0L4 0M62 330L89 487L246 487L219 330L62 330Z"  horiz-adv-x="251" vert-adv-y="1000"  />

      
      <glyph glyph-name="uni3b" unicode="&#x3b;" d="M-101-129L64 157L217 157L31-129L-101-129M62 330L89 487L246 487L219 330L62 330Z"  horiz-adv-x="254" vert-adv-y="1000"  />

      
      <glyph glyph-name="uni3c" unicode="&#x3c;" d="M214 284L536 153L536 0L50 215L50 353L536 569L536 415L214 284Z"  horiz-adv-x="586" vert-adv-y="1000"  />

      
      <glyph glyph-name="uni3d" unicode="&#x3d;" d="M50 358L50 494L536 494L536 358L50 358M50 112L50 248L536 248L536 112L50 112Z"  horiz-adv-x="586" vert-adv-y="1000"  />

      
      <glyph glyph-name="uni3e" unicode="&#x3e;" d="M536 216L50 0L50 154L372 285L50 416L50 569L536 354L536 216Z"  horiz-adv-x="586" vert-adv-y="1000"  />

      
      <glyph glyph-name="uni3f" unicode="&#x3f;" d="M270 275L262 230L137 230L159 349Q249 386 291.50 423.50Q334 461 334 507Q334 541 311.50 560.50Q289 580 244 580Q180 580 99 550L120 674Q159 689 197.50 697Q236 705 288 705Q382 705 433 658Q484 611 484 530Q484 450 436 389Q388 328 270 275M81 0L108 157L265 157L238 0L81 0Z"  horiz-adv-x="459" vert-adv-y="1000"  />

      
      <glyph glyph-name="uni40" unicode="&#x40;" d="M648 227Q679 227 706 270.50Q733 314 733 386Q733 493 664.50 550Q596 607 472 607Q337 607 253.50 525Q170 443 170 318Q170 193 242.50 124.50Q315 56 445 56Q542 56 623 82L623-30Q541-54 451-54Q263-54 155.50 43Q48 140 48 310Q48 495 166.50 604.50Q285 714 472 714Q649 714 752 626Q855 538 855 387Q855 273 787 200.50Q719 128 622 128Q582 128 556.50 140Q531 152 520 171Q493 154 462 143Q431 132 402 132Q339 132 297.50 177Q256 222 256 297Q256 413 321.50 475Q387 537 499 537Q582 537 659 505L622 274Q622 269 621 259Q621 227 648 227M371 315Q371 280 390 259Q409 238 446 238Q470 238 487 242L507 247L536 424Q510 431 481 431Q432 431 401.50 400Q371 369 371 315Z"  horiz-adv-x="865" vert-adv-y="1000"  />

      
      <glyph glyph-name="uni41" unicode="&#x41;" d="M518 0L485 151L220 151L136 0L-39 0L370 695L514 695L675 0L518 0M289 276L455 276L410 495L408 495L289 276Z"  horiz-adv-x="722" vert-adv-y="1000"  />

      
      <glyph glyph-name="uni42" unicode="&#x42;" d="M488 359L488 357Q545 348 580.50 311.50Q616 275 616 210Q616 115 539.50 57.50Q463 0 319 0L26 0L148 695L422 695Q544 695 596.50 648.50Q649 602 649 528Q649 458 605.50 414.50Q562 371 488 359M258 423L360 423Q472 423 472 500Q472 568 373 568L284 568L258 423M207 134L335 134Q392 134 419.50 155.50Q447 177 447 214Q447 252 422 271.50Q397 291 343 291L235 291L207 134Z"  horiz-adv-x="657" vert-adv-y="1000"  />

      
      <glyph glyph-name="uni43" unicode="&#x43;" d="M638 517Q603 534 553 548Q503 562 451 562Q341 562 280 498.50Q219 435 219 322Q219 229 270.50 183Q322 137 403 137Q463 137 509 152Q555 167 598 188L575 29Q535 11 483-0.50Q431-12 377-12Q230-12 141.50 75Q53 162 53 317Q53 494 158 600.50Q263 707 432 707Q513 707 561 696.50Q609 686 662 664L638 517Z"  horiz-adv-x="644" vert-adv-y="1000"  />

      
      <glyph glyph-name="uni44" unicode="&#x44;" d="M319 0L26 0L148 695L366 695Q544 695 631 610.50Q718 526 718 371Q718 294 687.50 219.50Q657 145 599 94.50Q541 44 473 22Q405 0 319 0M205 141L328 141Q438 141 494 205Q550 269 550 370Q550 461 497.50 507.50Q445 554 359 554L278 554L205 141Z"  horiz-adv-x="734" vert-adv-y="1000"  />

      
      <glyph glyph-name="uni45" unicode="&#x45;" d="M277 553L254 423L537 423L512 281L229 281L205 142L530 142L505 0L26 0L148 695L613 695L588 553L277 553Z"  horiz-adv-x="579" vert-adv-y="1000"  />

      
      <glyph glyph-name="uni46" unicode="&#x46;" d="M278 553L252 404L544 404L519 262L227 262L181 0L26 0L148 695L611 695L586 553L278 553Z"  horiz-adv-x="548" vert-adv-y="1000"  />

      
      <glyph glyph-name="uni47" unicode="&#x47;" d="M669 524Q629 540 573 553Q517 566 464 566Q341 566 279.50 500Q218 434 218 316Q218 224 265 176.50Q312 129 387 129Q415 129 435.50 132.50Q456 136 479 142L500 262L346 262L368 391L673 391L613 43Q507-12 376-12Q221-12 136.50 76.50Q52 165 52 307Q52 494 162.50 600.50Q273 707 465 707Q588 707 693 665L669 524Z"  horiz-adv-x="702" vert-adv-y="1000"  />

      
      <glyph glyph-name="uni48" unicode="&#x48;" d="M485 0L534 278L228 278L179 0L26 0L148 695L301 695L252 419L558 419L607 695L761 695L639 0L485 0Z"  horiz-adv-x="750" vert-adv-y="1000"  />

      
      <glyph glyph-name="uni49" unicode="&#x49;" d="M26 0L148 695L302 695L180 0L26 0Z"  horiz-adv-x="291" vert-adv-y="1000"  />

      
      <glyph glyph-name="uni4a" unicode="&#x4a;" d="M-25 18L-7 157Q12 148 52 139.50Q92 131 124 131Q202 131 240.50 168Q279 205 294 293L365 695L520 695L445 269Q418 115 342.50 52Q267-11 128-11Q86-11 43-2.50Q0 6-25 18Z"  horiz-adv-x="507" vert-adv-y="1000"  />

      
      <glyph glyph-name="uni4b" unicode="&#x4b;" d="M636 0L449 0L243 346L241 346L180 0L26 0L148 695L302 695L243 359L245 359L554 695L765 695L418 343L636 0Z"  horiz-adv-x="685" vert-adv-y="1000"  />

      
      <glyph glyph-name="uni4c" unicode="&#x4c;" d="M525 140L501 0L26 0L148 695L302 695L204 140L525 140Z"  horiz-adv-x="554" vert-adv-y="1000"  />

      
      <glyph glyph-name="uni4d" unicode="&#x4d;" d="M650 0L728 457L726 457L471 0L349 0L253 456L251 456L171 0L26 0L148 695L333 695L436 208L438 208L714 695L917 695L795 0L650 0Z"  horiz-adv-x="906" vert-adv-y="1000"  />

      
      <glyph glyph-name="uni4e" unicode="&#x4e;" d="M524 0L252 430L250 430Q248 410 239 355L235 330L177 0L26 0L148 695L271 695L541 263L543 263Q546 293 557 362L616 695L767 695L645 0L524 0Z"  horiz-adv-x="756" vert-adv-y="1000"  />

      
      <glyph glyph-name="uni4f" unicode="&#x4f;" d="M380-12Q224-12 138 73.50Q52 159 52 311Q52 398 80.50 477Q109 556 164.50 608.50Q220 661 286 684Q352 707 437 707Q593 707 679 623Q765 539 765 396Q765 275 716.50 180.50Q668 86 583 37Q498-12 380-12M391 133Q493 133 549.50 204.50Q606 276 606 384Q606 466 560 514Q514 562 424 562Q323 562 267.50 493Q212 424 212 315Q212 229 257 181Q302 133 391 133Z"  horiz-adv-x="778" vert-adv-y="1000"  />

      
      <glyph glyph-name="uni50" unicode="&#x50;" d="M334 203L215 203L180 0L26 0L148 695L368 695Q524 695 589 637Q654 579 654 477Q654 351 572.50 277Q491 203 334 203M240 344L341 344Q411 344 450 374Q489 404 489 457Q489 504 461 529Q433 554 370 554L277 554L240 344Z"  horiz-adv-x="651" vert-adv-y="1000"  />

      
      <glyph glyph-name="uni51" unicode="&#x51;" d="M705-34L586-115L508 6Q451-12 380-12Q224-12 138 73.50Q52 159 52 311Q52 398 80.50 477Q109 556 164.50 608.50Q220 661 286 684Q352 707 437 707Q593 707 679 623Q765 539 765 396Q765 301 732 216.50Q699 132 634 75L705-34M362 231L480 312L550 205Q579 240 592.50 287Q606 334 606 384Q606 466 560 514Q514 562 424 562Q323 562 267.50 493Q212 424 212 315Q212 229 257 181Q302 133 391 133Q404 133 424 135L362 231Z"  horiz-adv-x="780" vert-adv-y="1000"  />

      
      <glyph glyph-name="uni52" unicode="&#x52;" d="M463 260L600 0L419 0L310 233L221 233L180 0L26 0L148 695L389 695Q516 695 581.50 641.50Q647 588 647 488Q647 394 595.50 337Q544 280 463 260M245 373L367 373Q423 373 454 399.50Q485 426 485 472Q485 562 376 562L279 562L245 373Z"  horiz-adv-x="651" vert-adv-y="1000"  />

      
      <glyph glyph-name="uni53" unicode="&#x53;" d="M556 530Q454 566 363 566Q247 566 247 491Q247 450 294.50 429.50Q342 409 404.50 384Q467 359 503 318.50Q539 278 539 210Q539 110 466 49Q393-12 260-12Q184-12 120 2Q56 16 17 35L40 177Q76 157 133.50 141Q191 125 248 125Q311 125 344 142.50Q377 160 377 199Q377 226 353 242.50Q329 259 266.50 282Q204 305 162 333.50Q120 362 103.50 398.50Q87 435 87 484Q87 584 162 645.50Q237 707 374 707Q436 707 494 695.50Q552 684 582 672L556 530Z"  horiz-adv-x="575" vert-adv-y="1000"  />

      
      <glyph glyph-name="uni54" unicode="&#x54;" d="M422 555L325 0L171 0L268 555L63 555L88 695L652 695L627 555L422 555Z"  horiz-adv-x="580" vert-adv-y="1000"  />

      
      <glyph glyph-name="uni55" unicode="&#x55;" d="M70 202Q70 262 88 366L146 695L299 695L236 334Q224 270 224 226Q224 181 254.50 154.50Q285 128 361 128Q414 128 447 135Q480 142 489 143L586 695L739 695L621 33Q539 9 483-1.50Q427-12 346-12Q199-12 134.50 42.50Q70 97 70 202Z"  horiz-adv-x="727" vert-adv-y="1000"  />

      
      <glyph glyph-name="uni56" unicode="&#x56;" d="M228 0L84 695L238 695L333 203L335 203L597 695L773 695L384 0L228 0Z"  horiz-adv-x="697" vert-adv-y="1000"  />

      
      <glyph glyph-name="uni57" unicode="&#x57;" d="M599 0L554 323Q554 334 549 375Q544 416 543 446L541 446Q520 394 485 326L323 0L177 0L96 695L252 695L285 329Q289 287 289 247Q289 231 288 215L290 215Q305 254 345 334L532 695L649 695L693 319Q700 253 700 217L700 209L702 209Q719 257 751 325L922 695L1093 695L744 0L599 0Z"  horiz-adv-x="1029" vert-adv-y="1000"  />

      
      <glyph glyph-name="uni58" unicode="&#x58;" d="M649 0L472 0L349 231L159 0L-40 0L268 356L83 695L259 695L380 458L574 695L777 695L464 338L649 0Z"  horiz-adv-x="700" vert-adv-y="1000"  />

      
      <glyph glyph-name="uni59" unicode="&#x59;" d="M357 0L202 0L242 229L72 695L238 695L337 384L550 695L738 695L397 232L357 0Z"  horiz-adv-x="650" vert-adv-y="1000"  />

      
      <glyph glyph-name="uni5a" unicode="&#x5a;" d="M237 140L607 140L583 0L-12 0L8 114L443 555L106 555L131 695L693 695L672 577L237 140Z"  horiz-adv-x="653" vert-adv-y="1000"  />

      
      <glyph glyph-name="uni5b" unicode="&#x5b;" d="M237 654L114-44L247-44L226-160L-36-160L128 770L390 770L370 654L237 654Z"  horiz-adv-x="308" vert-adv-y="1000"  />

      
      <glyph glyph-name="uni5c" unicode="&#x5c;" d="M283-49L82 750L201 750L402-49L283-49Z"  horiz-adv-x="447" vert-adv-y="1000"  />

      
      <glyph glyph-name="uni5d" unicode="&#x5d;" d="M92-44L215 654L82 654L103 770L365 770L201-160L-61-160L-41-44L92-44Z"  horiz-adv-x="307" vert-adv-y="1000"  />

      
      <glyph glyph-name="uni5e" unicode="&#x5e;" d="M423 298L293 553L291 553L161 298L8 298L223 707L361 707L577 298L423 298Z"  horiz-adv-x="586" vert-adv-y="1000"  />

      
      <glyph glyph-name="uni5f" unicode="&#x5f;" d="M-82-180L-74-135L450-135L442-180L-82-180Z"  horiz-adv-x="510" vert-adv-y="1000"  />

      
      <glyph glyph-name="uni60" unicode="&#x60;" d="M217 554L95 723L232 723L321 554L217 554Z"  horiz-adv-x="276" vert-adv-y="1000"  />

      
      <glyph glyph-name="uni61" unicode="&#x61;" d="M453 221L418 15Q308-13 220-13Q18-13 18 139Q18 298 235 298Q264 298 320 294Q324 314 324 325Q324 376 244 376Q180 376 90 351L113 475Q145 485 190.50 492.50Q236 500 281 500Q375 500 422 460.50Q469 421 469 347Q469 317 453 221M228 99Q256 99 288 105L305 201Q273 206 237 206Q199 206 180.50 192.50Q162 179 162 150Q162 125 179 112Q196 99 228 99Z"  horiz-adv-x="511" vert-adv-y="1000"  />

      
      <glyph glyph-name="uni62" unicode="&#x62;" d="M545 276Q545 191 507.50 122.50Q470 54 404 20Q338-14 246-14Q176-14 118.50 1Q61 16 23 40L145 738L291 738L246 484Q262 490 286.50 495Q311 500 336 500Q438 500 491.50 439Q545 378 545 276M184 133Q214 120 259 120Q324 120 359 159Q394 198 394 263Q394 314 367.50 340.50Q341 367 290 367Q261 367 244 361L223 354L184 133Z"  horiz-adv-x="573" vert-adv-y="1000"  />

      
      <glyph glyph-name="uni63" unicode="&#x63;" d="M430 349Q407 359 381 365Q355 371 320 371Q252 371 215.50 331.50Q179 292 179 227Q179 172 211 144Q243 116 296 116Q341 116 400 137L379 4Q323-14 261-14Q156-14 92.50 49Q29 112 29 219Q29 345 110.50 422.50Q192 500 320 500Q357 500 393.50 493.50Q430 487 451 478L430 349Z"  horiz-adv-x="441" vert-adv-y="1000"  />

      
      <glyph glyph-name="uni64" unicode="&#x64;" d="M28 214Q28 339 110.50 419.50Q193 500 317 500Q369 500 417 484L462 738L608 738L484 39Q431 15 385 1Q339-13 273-13Q150-13 89 47.50Q28 108 28 214M285 119Q322 119 355 130L394 353Q359 366 319 366Q246 366 213.50 324.50Q181 283 181 221Q181 172 207.50 145.50Q234 119 285 119Z"  horiz-adv-x="579" vert-adv-y="1000"  />

      
      <glyph glyph-name="uni65" unicode="&#x65;" d="M496 201L182 201L182 194Q182 153 214 130.50Q246 108 302 108Q379 108 456 138L434 15Q359-14 274-14Q150-14 89.50 48.50Q29 111 29 217Q29 344 103 421.50Q177 499 306 499Q405 499 458.50 447Q512 395 512 310Q512 280 507.50 256Q503 232 496 201M366 296Q370 312 370 322Q370 352 352.50 370Q335 388 300 388Q260 388 233.50 364Q207 340 195 296L366 296Z"  horiz-adv-x="529" vert-adv-y="1000"  />

      
      <glyph glyph-name="uni66" unicode="&#x66;" d="M450 610Q439 612 417 617.50Q395 623 365 623Q294 623 283 552L272 487L401 487L380 366L251 366L187 0L41 0L105 366L40 366L61 487L126 487L140 563Q156 652 210.50 699Q265 746 367 746Q417 746 472 730L450 610Z"  horiz-adv-x="349" vert-adv-y="1000"  />

      
      <glyph glyph-name="uni67" unicode="&#x67;" d="M478 11Q457-110 388-175.50Q319-241 183-241Q84-241-4-209L18-78Q98-107 182-107Q242-107 280.50-85Q319-63 328-16L332 6Q292-11 237-11Q138-11 82.50 49.50Q27 110 27 214Q27 297 66.50 364.50Q106 432 174 466Q242 500 336 500Q399 500 459 486Q519 472 555 450L478 11M279 119Q317 119 353 131L393 353Q363 366 324 366Q254 366 217 327.50Q180 289 180 221Q180 173 206 146Q232 119 279 119Z"  horiz-adv-x="577" vert-adv-y="1000"  />

      
      <glyph glyph-name="uni68" unicode="&#x68;" d="M527 354Q527 328 516 262L470 0L324 0L369 249Q376 289 376 308Q376 339 360.50 352.50Q345 366 307 366Q267 366 223 354L161 0L15 0L145 738L291 738L244 478Q308 500 371 500Q445 500 486 463.50Q527 427 527 354Z"  horiz-adv-x="569" vert-adv-y="1000"  />

      
      <glyph glyph-name="uni69" unicode="&#x69;" d="M116 589L143 741L295 741L268 589L116 589M16 0L101 487L247 487L162 0L16 0Z"  horiz-adv-x="262" vert-adv-y="1000"  />

      
      <glyph glyph-name="uni6a" unicode="&#x6a;" d="M115 589L142 741L294 741L267 589L115 589M-161-226L-139-101L-119-106Q-103-110-77-110Q-5-110 9-31L100 487L246 487L153-47Q137-139 86-189.50Q35-240-61-240Q-91-240-118.50-235.50Q-146-231-161-226Z"  horiz-adv-x="261" vert-adv-y="1000"  />

      
      <glyph glyph-name="uni6b" unicode="&#x6b;" d="M210 267L419 487L611 487L374 252L518 0L344 0L208 258L206 258L161 0L15 0L145 738L291 738L208 267L210 267Z"  horiz-adv-x="569" vert-adv-y="1000"  />

      
      <glyph glyph-name="uni6c" unicode="&#x6c;" d="M15 0L145 738L291 738L161 0L15 0Z"  horiz-adv-x="262" vert-adv-y="1000"  />

      
      <glyph glyph-name="uni6d" unicode="&#x6d;" d="M800 312L746 0L600 0L649 283Q652 298 652 311Q652 340 636 353Q620 366 586 366Q551 366 510 354L510 348Q510 325 504 285L454 0L308 0L357 280Q360 297 360 309Q360 339 343.50 352.50Q327 366 292 366Q265 366 225 359L162 0L16 0L98 468Q231 500 322 500Q430 500 473 460Q516 479 555.50 489.50Q595 500 644 500Q724 500 764.50 467.50Q805 435 805 366Q805 345 800 312Z"  horiz-adv-x="845" vert-adv-y="1000"  />

      
      <glyph glyph-name="uni6e" unicode="&#x6e;" d="M517 262L471 0L325 0L370 249Q377 289 377 308Q377 336 358.50 351Q340 366 303 366Q262 366 225 358L162 0L16 0L98 469Q157 483 209 491.50Q261 500 320 500Q527 500 527 350Q527 322 517 262Z"  horiz-adv-x="570" vert-adv-y="1000"  />

      
      <glyph glyph-name="uni6f" unicode="&#x6f;" d="M258-14Q153-14 91 49Q29 112 29 223Q29 342 103 421Q177 500 313 500Q415 500 478 438Q541 376 541 274Q541 144 468.50 65Q396-14 258-14M272 121Q335 121 362 164.50Q389 208 389 264Q389 308 366 336.50Q343 365 297 365Q245 365 212.50 328.50Q180 292 180 230Q180 178 205 149.50Q230 121 272 121Z"  horiz-adv-x="570" vert-adv-y="1000"  />

      
      <glyph glyph-name="uni70" unicode="&#x70;" d="M260-14Q209-14 161 2L119-235L-27-235L94 447Q148 473 192.50 486Q237 499 302 499Q425 499 485.50 438.50Q546 378 546 272Q546 145 463.50 65.50Q381-14 260-14M184 133Q219 120 258 120Q331 120 362 161Q393 202 393 265Q393 314 367 340.50Q341 367 290 367Q268 367 254 364.50Q240 362 223 356L184 133Z"  horiz-adv-x="574" vert-adv-y="1000"  />

      
      <glyph glyph-name="uni71" unicode="&#x71;" d="M430-235L284-235L326 2Q310-4 285.50-9Q261-14 236-14Q134-14 80.50 47Q27 108 27 210Q27 295 64.50 363.50Q102 432 168 466Q234 500 326 500Q396 500 453.50 485Q511 470 549 446L430-235M274 118Q309 118 328 125L349 132L388 353Q358 366 313 366Q249 366 213.50 327Q178 288 178 219Q178 171 202.50 144.50Q227 118 274 118Z"  horiz-adv-x="572" vert-adv-y="1000"  />

      
      <glyph glyph-name="uni72" unicode="&#x72;" d="M390 360Q356 369 306 369Q267 369 226 360L163 0L17 0L98 468Q194 500 307 500Q358 500 413 489L390 360Z"  horiz-adv-x="377" vert-adv-y="1000"  />

      
      <glyph glyph-name="uni73" unicode="&#x73;" d="M419 364Q344 389 272 389Q238 389 218 378.50Q198 368 198 347Q198 326 231 315Q264 304 311 285.50Q358 267 384.50 238Q411 209 411 157Q411 82 358 34.50Q305-13 183-13Q133-13 85-4.50Q37 4 5 14L22 131Q104 100 176 100Q263 100 263 143Q263 166 225 179Q187 192 144.50 209Q102 226 78.50 257Q55 288 55 340Q55 415 112.50 460Q170 505 274 505Q323 505 366.50 498.50Q410 492 439 482L419 364Z"  horiz-adv-x="457" vert-adv-y="1000"  />

      
      <glyph glyph-name="uni74" unicode="&#x74;" d="M392 487L371 366L242 366L218 226Q209 174 209 158Q209 116 253 116Q271 116 293.50 120Q316 124 330 129L310 8Q257-8 203-8Q134-8 97 25.50Q60 59 60 128Q60 161 73 236L96 366L31 366L52 487L117 487L141 622L287 622L263 487L392 487Z"  horiz-adv-x="372" vert-adv-y="1000"  />

      
      <glyph glyph-name="uni75" unicode="&#x75;" d="M43 137Q43 165 53 225L99 487L245 487L200 238Q193 198 193 179Q193 151 211.50 136Q230 121 267 121Q308 121 345 129L408 487L554 487L472 18Q413 4 361-4.50Q309-13 250-13Q43-13 43 137Z"  horiz-adv-x="570" vert-adv-y="1000"  />

      
      <glyph glyph-name="uni76" unicode="&#x76;" d="M131 0L36 487L187 487L221 292Q234 209 237 167L238 167Q281 261 298 291L400 487L568 487L292 0L131 0Z"  horiz-adv-x="518" vert-adv-y="1000"  />

      
      <glyph glyph-name="uni77" unicode="&#x77;" d="M444 0L412 198Q401 264 401 297L399 297Q380 250 354 197L254 0L116 0L54 487L199 487L218 277Q223 220 223 182L225 182Q245 234 265 275L373 487L501 487L529 271Q536 223 538 185L540 185Q561 244 574 272L675 487L835 487L584 0L444 0Z"  horiz-adv-x="803" vert-adv-y="1000"  />

      
      <glyph glyph-name="uni78" unicode="&#x78;" d="M529 0L350 0L264 143L141 0L-49 0L183 247L38 487L216 487L294 348L415 487L606 487L374 246L529 0Z"  horiz-adv-x="566" vert-adv-y="1000"  />

      
      <glyph glyph-name="uni79" unicode="&#x79;" d="M-11-235L139 18L36 487L189 487L230 251Q238 201 238 180L240 180Q254 212 273 245L402 487L575 487L153-235L-11-235Z"  horiz-adv-x="525" vert-adv-y="1000"  />

      
      <glyph glyph-name="uni7a" unicode="&#x7a;" d="M219 132L446 132L423 0L-22 0L-6 95L260 356L51 356L74 487L499 487L483 392L219 132Z"  horiz-adv-x="486" vert-adv-y="1000"  />

      
      <glyph glyph-name="uni7b" unicode="&#x7b;" d="M290 416Q272 323 182 308L182 306Q210 297 230 272Q250 247 250 202Q250 187 247 167L224 24Q222 10 222 4Q222-21 237.50-32.50Q253-44 287-44L266-160Q90-160 90-16Q90 4 95 34L119 175Q121 191 121 198Q121 231 99 246Q77 261 34 263L52 368Q102 370 130.50 389.50Q159 409 167 452L196 606Q213 699 268 734.50Q323 770 430 770L410 654Q367 654 348 637Q329 620 321 580L290 416Z"  horiz-adv-x="348" vert-adv-y="1000"  />

      
      <glyph glyph-name="uni7c" unicode="&#x7c;" d="M194 750L194-250L93-250L93 750L194 750Z"  horiz-adv-x="287" vert-adv-y="1000"  />

      
      <glyph glyph-name="uni7d" unicode="&#x7d;" d="M79 194Q97 287 187 302L187 304Q159 313 139 338Q119 363 119 408Q119 424 122 443L145 586Q147 600 147 606Q147 631 131.50 642.50Q116 654 82 654L103 770Q279 770 279 626Q279 606 274 576L250 435Q248 419 248 412Q248 379 270 364Q292 349 335 347L317 242Q267 240 238.50 220.50Q210 201 202 158L173 4Q156-89 101-124.50Q46-160-61-160L-41-44Q2-44 21-27Q40-10 48 30L79 194Z"  horiz-adv-x="347" vert-adv-y="1000"  />

      
      <glyph glyph-name="uni7e" unicode="&#x7e;" d="M396 331Q446 331 486 395L579 321Q541 265 493 236Q445 207 391 207Q353 207 320 221Q287 235 256 254.50Q225 274 190 274Q140 274 100 210L7 284Q45 340 93 369Q141 398 195 398Q233 398 266 384Q299 370 330 350.50Q361 331 396 331Z"  horiz-adv-x="586" vert-adv-y="1000"  />

      
      <glyph glyph-name="unia1" unicode="&#xa1;" d="M251 487L224 330L67 330L94 487L251 487M196 257L124-208L-26-208L65 257L196 257Z"  horiz-adv-x="260" vert-adv-y="1000"  />

      
      <glyph glyph-name="unia2" unicode="&#xa2;" d="M509 456Q476 469 429 475L384 221Q431 225 479 242L458 111Q412 96 362 93L343-14L263-14L283 98Q200 114 152.50 174Q105 234 105 326Q105 445 178 521Q251 597 372 606L391 714L471 714L451 603Q494 598 530 585L509 456M306 232L349 476Q296 467 269.50 429.50Q243 392 243 334Q243 296 259.50 270Q276 244 306 232Z"  horiz-adv-x="587" vert-adv-y="1000"  />

      
      <glyph glyph-name="unia3" unicode="&#xa3;" d="M594 570Q566 577 540.50 581.50Q515 586 482 586Q420 586 390.50 556.50Q361 527 352 476L340 406L511 406L491 291L320 291L315 263Q307 219 287 184.50Q267 150 238 131L527 131L504 0L6 0L29 131Q72 133 105 163Q138 193 147 249L155 291L59 291L79 406L175 406L191 492Q213 610 281 668.50Q349 727 471 727Q554 727 619 708L594 570Z"  horiz-adv-x="586" vert-adv-y="1000"  />

      
      <glyph glyph-name="unia4" unicode="&#xa4;" d="M506 405Q530 355 530 303Q530 250 506 200L571 135L466 30L400 95Q352 72 298 72Q242 72 196 95L130 30L25 135L90 201Q67 247 67 303Q67 357 90 405L25 471L130 576L195 511Q245 535 298 535Q350 535 400 511L466 576L571 471L506 405M298 199Q341 199 372 230Q403 261 403 304Q403 347 372 377.50Q341 408 298 408Q255 408 224.50 377.50Q194 347 194 304Q194 261 224.50 230Q255 199 298 199Z"  horiz-adv-x="586" vert-adv-y="1000"  />

      
      <glyph glyph-name="unia5" unicode="&#xa5;" d="M390 357L528 357L509 249L371 249L363 203L501 203L482 95L344 95L328 0L177 0L193 95L55 95L74 203L212 203L220 249L82 249L101 357L239 357L240 360L85 695L251 695L330 500L473 695L661 695L391 360L390 357Z"  horiz-adv-x="586" vert-adv-y="1000"  />

      
      <glyph glyph-name="unia6" unicode="&#xa6;" d="M194 750L194 338L93 338L93 750L194 750M194 162L194-250L93-250L93 162L194 162Z"  horiz-adv-x="287" vert-adv-y="1000"  />

      
      <glyph glyph-name="unia7" unicode="&#xa7;" d="M455 576L432 586Q413 594 391 599Q369 604 346 604Q304 604 282.50 587.50Q261 571 261 540Q261 508 287 488Q313 468 354 441Q395 414 418.50 384.50Q442 355 442 305Q442 253 415 218Q388 183 347 158Q375 114 375 64Q375-12 325.50-61.50Q276-111 180-111Q102-111 42-83L62 27L85 17Q104 9 126 4Q148-1 171-1Q212-1 234 14.50Q256 30 256 57Q256 100 202.50 127Q149 154 115 191.50Q81 229 81 291Q81 339 103 374Q125 409 165 436Q154 450 146 475Q138 500 138 528Q138 612 193.50 663Q249 714 347 714Q389 714 422 706Q455 698 476 689L455 576M200 306Q200 281 217.50 264.50Q235 248 254 238L278 224Q293 234 305.50 254.50Q318 275 318 294Q318 321 301 336.50Q284 352 265 362L240 375Q225 364 212.50 346Q200 328 200 306Z"  horiz-adv-x="505" vert-adv-y="1000"  />

      
      <glyph glyph-name="unia8" unicode="&#xa8;" d="M83 576L104 693L220 693L199 576L83 576M260 576L281 693L397 693L376 576L260 576Z"  horiz-adv-x="342" vert-adv-y="1000"  />

      
      <glyph glyph-name="unia9" unicode="&#xa9;" d="M420-15Q321-15 237 33.50Q153 82 104 165Q55 248 55 347Q55 497 163 603.50Q271 710 420 710Q519 710 603 661Q687 612 735.50 528.50Q784 445 784 347Q784 197 677 91Q570-15 420-15M420 71Q534 71 615 152Q696 233 696 347Q696 461 615 542Q534 623 420 623Q306 623 225 542Q144 461 144 347Q144 233 225 152Q306 71 420 71M555 444Q506 465 461 465Q400 465 371.50 434.50Q343 404 343 352Q343 295 374 263Q405 231 462 231Q490 231 517 238.50Q544 246 561 256L561 161Q537 150 511 143Q485 136 451 136Q352 136 292.50 193.50Q233 251 233 347Q233 444 289.50 500.50Q346 557 452 557Q505 557 555 539L555 444Z"  horiz-adv-x="808" vert-adv-y="1000"  />

      
      <glyph glyph-name="uniaa" unicode="&#xaa;" d="M373 557L346 404Q269 383 198 383Q131 383 102.50 407Q74 431 74 479Q74 531 112 559Q150 587 225 587Q243 587 265 585Q265 593 266 602Q266 627 222 627Q189 627 125 611L141 699Q162 706 195.50 712Q229 718 264 718Q380 718 380 624Q380 595 373 557M221 464Q230 464 244 466L253 518Q235 520 225 520Q185 520 185 490Q185 464 221 464Z"  horiz-adv-x="365" vert-adv-y="1000"  />

      
      <glyph glyph-name="uniab" unicode="&#xab;" d="M234 55L111 55L14 243L168 413L309 413L140 230L234 55M446 55L323 55L226 243L380 413L521 413L352 230L446 55Z"  horiz-adv-x="511" vert-adv-y="1000"  />

      
      <glyph glyph-name="uniac" unicode="&#xac;" d="M400 95L400 268L50 268L50 404L536 404L536 95L400 95Z"  horiz-adv-x="586" vert-adv-y="1000"  />

      
      <glyph glyph-name="uniad" unicode="&#xad;" d="M31 204L55 337L369 337L345 204L31 204Z"  horiz-adv-x="391" vert-adv-y="1000"  />

      
      <glyph glyph-name="uniae" unicode="&#xae;" d="M303 257Q209 257 142 323.50Q75 390 75 484Q75 578 142.50 645Q210 712 303 712Q395 712 462.50 644.50Q530 577 530 484Q530 390 463.50 323.50Q397 257 303 257M303 323Q369 323 417.50 371Q466 419 466 484Q466 549 417.50 597Q369 645 303 645Q235 645 187 597Q139 549 139 484Q139 419 187 371Q235 323 303 323M355 452L406 364L338 364L300 441L275 441L275 364L214 364L214 603L308 603Q409 603 409 528Q409 501 394 481Q379 461 355 452M275 494L307 494Q328 494 338 501Q348 508 348 524Q348 552 306 552L275 552L275 494Z"  horiz-adv-x="525" vert-adv-y="1000"  />

      
      <glyph glyph-name="uniaf" unicode="&#xaf;" d="M72 568L89 666L338 666L321 568L72 568Z"  horiz-adv-x="279" vert-adv-y="1000"  />

      
      <glyph glyph-name="unib0" unicode="&#xb0;" d="M271 416Q197 416 146 467Q95 518 95 590Q95 663 146 713Q197 763 270 763Q342 763 393 713Q444 663 444 590Q444 517 394.50 466.50Q345 416 271 416M270 497Q308 497 334.50 524Q361 551 361 590Q361 629 335 656Q309 683 271 683Q233 683 205.50 656Q178 629 178 590Q178 551 205 524Q232 497 270 497Z"  horiz-adv-x="418" vert-adv-y="1000"  />

      
      <glyph glyph-name="unib1" unicode="&#xb1;" d="M536 486L536 350L361 350L361 175L225 175L225 350L50 350L50 486L225 486L225 661L361 661L361 486L536 486M50 0L50 136L536 136L536 0L50 0Z"  horiz-adv-x="586" vert-adv-y="1000"  />

      
      <glyph glyph-name="unib2" unicode="&#xb2;" d="M302 489L226 438L399 438L381 332L57 332L75 432L243 562Q281 591 297 611.50Q313 632 313 651Q313 671 300.50 683Q288 695 255 695Q227 695 195 684Q163 673 137 659L158 772Q181 784 216.50 791.50Q252 799 290 799Q359 799 395.50 765.50Q432 732 432 674Q432 618 401 577.50Q370 537 302 489Z"  horiz-adv-x="417" vert-adv-y="1000"  />

      
      <glyph glyph-name="unib3" unicode="&#xb3;" d="M326 562L326 561Q356 553 378 530Q400 507 400 467Q400 404 350 363Q300 322 202 322Q156 322 120.50 330.50Q85 339 63 351L81 451Q98 441 128 431.50Q158 422 194 422Q237 422 256 434.50Q275 447 275 467Q275 492 254 501Q233 510 191 510L143 510L162 615L213 615Q257 615 278.50 624.50Q300 634 300 656Q300 677 284 685.50Q268 694 238 694Q209 694 177.50 686Q146 678 128 670L146 776Q168 785 202 791Q236 797 273 797Q350 797 388 764.50Q426 732 426 681Q426 635 401 604.50Q376 574 326 562Z"  horiz-adv-x="419" vert-adv-y="1000"  />

      
      <glyph glyph-name="unib4" unicode="&#xb4;" d="M65 554L174 723L318 723L176 554L65 554Z"  horiz-adv-x="243" vert-adv-y="1000"  />

      
      <glyph glyph-name="unib5" unicode="&#xb5;" d="M164 11L117-251L-29-251L99 487L245 487L200 238Q193 196 193 179Q193 147 213 134Q233 121 272 121Q308 121 345 129L408 487L554 487L472 18Q360-13 275-13Q237-13 205.50-6Q174 1 164 11Z"  horiz-adv-x="570" vert-adv-y="1000"  />

      
      <glyph glyph-name="unib6" unicode="&#xb6;" d="M316-63L433 599L387 599L270-63L176-63L249 349Q175 349 131.50 387Q88 425 88 487Q88 529 110.50 578.50Q133 628 188.50 661.50Q244 695 319 695L544 695L410-63L316-63Z"  horiz-adv-x="554" vert-adv-y="1000"  />

      
      <glyph glyph-name="unib7" unicode="&#xb7;" d="M46 237L73 394L230 394L203 237L46 237Z"  horiz-adv-x="251" vert-adv-y="1000"  />

      
      <glyph glyph-name="unib8" unicode="&#xb8;" d="M41-223Q-4-223-43-211L-30-138Q-9-143 5-146Q19-149 40-149Q71-149 82-142Q93-135 93-121Q93-108 81-101Q69-94 37-94L9-94L78 0L125 0L95-44Q134-44 156.50-65.50Q179-87 179-122Q179-165 143.50-194Q108-223 41-223Z"  horiz-adv-x="280" vert-adv-y="1000"  />

      
      <glyph glyph-name="unib9" unicode="&#xb9;" d="M193 333L250 658L118 601L140 723L326 803L392 803L309 333L193 333Z"  horiz-adv-x="406" vert-adv-y="1000"  />

      
      <glyph glyph-name="uniba" unicode="&#xba;" d="M238 379Q167 379 126 421Q85 463 85 535Q85 616 138 667Q191 718 274 718Q342 718 383.50 677Q425 636 425 569Q425 480 375.50 429.50Q326 379 238 379M248 476Q279 476 297.50 499Q316 522 316 561Q316 589 302 605Q288 621 262 621Q231 621 212.50 599Q194 577 194 541Q194 511 208.50 493.50Q223 476 248 476Z"  horiz-adv-x="400" vert-adv-y="1000"  />

      
      <glyph glyph-name="unibb" unicode="&#xbb;" d="M62 413L185 413L282 225L128 55L-13 55L156 238L62 413M274 413L397 413L494 225L340 55L199 55L368 238L274 413Z"  horiz-adv-x="511" vert-adv-y="1000"  />

      
      <glyph glyph-name="unibc" unicode="&#xbc;" d="M187 233L244 558L112 501L134 623L320 703L386 703L303 233L187 233M117 0L753 695L890 695L254 0L117 0M929 184L911 89L841 89L826 0L716 0L731 89L534 89L554 196L780 459L907 459L859 184L929 184M662 184L748 184L772 319L770 319Q747 286 727 264L662 184Z"  horiz-adv-x="959" vert-adv-y="1000"  />

      
      <glyph glyph-name="unibd" unicode="&#xbd;" d="M187 233L244 558L112 501L134 623L320 703L386 703L303 233L187 233M117 0L753 695L890 695L254 0L117 0M841 159L765 108L938 108L920 2L596 2L614 102L782 232Q820 261 836 281.50Q852 302 852 321Q852 341 839.50 353Q827 365 794 365Q766 365 734 354Q702 343 676 329L697 442Q720 454 755.50 461.50Q791 469 829 469Q898 469 934.50 435.50Q971 402 971 344Q971 288 940 247.50Q909 207 841 159Z"  horiz-adv-x="1009" vert-adv-y="1000"  />

      
      <glyph glyph-name="unibe" unicode="&#xbe;" d="M309 462L309 461Q339 453 361 430Q383 407 383 367Q383 304 333 263Q283 222 185 222Q139 222 103.50 230.50Q68 239 46 251L64 351Q81 341 111 331.50Q141 322 177 322Q220 322 239 334.50Q258 347 258 367Q258 392 237 401Q216 410 174 410L126 410L145 515L196 515Q240 515 261.50 524.50Q283 534 283 556Q283 577 267 585.50Q251 594 221 594Q192 594 160.50 586Q129 578 111 570L129 676Q151 685 185 691Q219 697 256 697Q333 697 371 664.50Q409 632 409 581Q409 535 384 504.50Q359 474 309 462M150 0L786 695L923 695L287 0L150 0M962 184L944 89L874 89L859 0L749 0L764 89L567 89L587 196L813 459L940 459L892 184L962 184M695 184L781 184L805 319L803 319Q779 286 760 264L695 184Z"  horiz-adv-x="992" vert-adv-y="1000"  />

      
      <glyph glyph-name="unibf" unicode="&#xbf;" d="M378 487L351 330L194 330L221 487L378 487M189 212L197 257L322 257L300 138Q210 101 167.50 63.50Q125 26 125-20Q125-54 147.50-73.50Q170-93 215-93Q279-93 360-63L339-187Q300-202 261.50-210Q223-218 171-218Q77-218 26-171Q-25-124-25-43Q-25 37 23 98Q71 159 189 212Z"  horiz-adv-x="459" vert-adv-y="1000"  />

      
      <glyph glyph-name="unic0" unicode="&#xc0;" d="M518 0L485 151L220 151L136 0L-39 0L370 695L514 695L675 0L518 0M289 276L455 276L410 495L408 495L289 276M412 756L296 893L435 893L517 756L412 756Z"  horiz-adv-x="722" vert-adv-y="1000"  />

      
      <glyph glyph-name="unic1" unicode="&#xc1;" d="M518 0L485 151L220 151L136 0L-39 0L370 695L514 695L675 0L518 0M289 276L455 276L410 495L408 495L289 276M379 756L471 893L614 893L488 756L379 756Z"  horiz-adv-x="722" vert-adv-y="1000"  />

      
      <glyph glyph-name="unic2" unicode="&#xc2;" d="M518 0L485 151L220 151L136 0L-39 0L370 695L514 695L675 0L518 0M289 276L455 276L410 495L408 495L289 276M494 754L459 823L400 754L276 754L433 925L505 925L603 754L494 754Z"  horiz-adv-x="722" vert-adv-y="1000"  />

      
      <glyph glyph-name="unic3" unicode="&#xc3;" d="M518 0L485 151L220 151L136 0L-39 0L370 695L514 695L675 0L518 0M289 276L455 276L410 495L408 495L289 276M511 827Q525 827 537 842.50Q549 858 555 882L634 882Q615 812 586 777.50Q557 743 512 743Q488 743 469.50 754Q451 765 432.50 784Q414 803 397 803Q381 803 369.50 785.50Q358 768 354 746L277 746Q290 811 319 848Q348 885 401 885Q442 885 469.50 856Q497 827 511 827Z"  horiz-adv-x="722" vert-adv-y="1000"  />

      
      <glyph glyph-name="unic4" unicode="&#xc4;" d="M518 0L485 151L220 151L136 0L-39 0L370 695L514 695L675 0L518 0M289 276L455 276L410 495L408 495L289 276M301 747L322 864L438 864L417 747L301 747M478 747L499 864L615 864L594 747L478 747Z"  horiz-adv-x="722" vert-adv-y="1000"  />

      
      <glyph glyph-name="unic5" unicode="&#xc5;" d="M518 0L485 151L220 151L136 0L-39 0L370 695L514 695L675 0L518 0M289 276L455 276L410 495L408 495L289 276M455 722Q408 722 375 755Q342 788 342 835Q342 883 375 915.50Q408 948 455 948Q502 948 535 915.50Q568 883 568 835Q568 788 535 755Q502 722 455 722M455 787Q476 787 490 801Q504 815 504 835Q504 856 490 869.50Q476 883 455 883Q435 883 421 869.50Q407 856 407 835Q407 816 421.50 801.50Q436 787 455 787Z"  horiz-adv-x="722" vert-adv-y="1000"  />

      
      <glyph glyph-name="unic6" unicode="&#xc6;" d="M711 553L688 423L971 423L946 281L663 281L639 142L964 142L939 0L460 0L486 151L248 151L135 0L-49 0L493 695L1047 695L1022 553L711 553M342 276L508 276L557 554L553 554L342 276Z"  horiz-adv-x="1013" vert-adv-y="1000"  />

      
      <glyph glyph-name="unic7" unicode="&#xc7;" d="M403 137Q463 137 509 152Q555 167 598 188L575 29Q535 11 483.50-0.50Q432-12 378-12L356-44Q395-44 417.50-65.50Q440-87 440-122Q440-165 404.50-194Q369-223 302-223Q257-223 218-211L231-138Q252-143 266-146Q280-149 301-149Q332-149 343-142Q354-135 354-121Q354-108 342-101Q330-94 298-94L270-94L332-10Q204 4 128.50 89Q53 174 53 317Q53 494 158 600.50Q263 707 432 707Q513 707 561 696.50Q609 686 662 664L638 517Q603 534 553 548Q503 562 451 562Q341 562 280 498.50Q219 435 219 322Q219 229 270.50 183Q322 137 403 137Z"  horiz-adv-x="644" vert-adv-y="1000"  />

      
      <glyph glyph-name="unic8" unicode="&#xc8;" d="M277 553L254 423L537 423L512 281L229 281L205 142L530 142L505 0L26 0L148 695L613 695L588 553L277 553M352 756L236 893L375 893L457 756L352 756Z"  horiz-adv-x="579" vert-adv-y="1000"  />

      
      <glyph glyph-name="unic9" unicode="&#xc9;" d="M277 553L254 423L537 423L512 281L229 281L205 142L530 142L505 0L26 0L148 695L613 695L588 553L277 553M319 756L411 893L554 893L428 756L319 756Z"  horiz-adv-x="579" vert-adv-y="1000"  />

      
      <glyph glyph-name="unica" unicode="&#xca;" d="M277 553L254 423L537 423L512 281L229 281L205 142L530 142L505 0L26 0L148 695L613 695L588 553L277 553M434 754L399 823L340 754L216 754L373 925L445 925L543 754L434 754Z"  horiz-adv-x="579" vert-adv-y="1000"  />

      
      <glyph glyph-name="unicb" unicode="&#xcb;" d="M277 553L254 423L537 423L512 281L229 281L205 142L530 142L505 0L26 0L148 695L613 695L588 553L277 553M241 747L262 864L378 864L357 747L241 747M418 747L439 864L555 864L534 747L418 747Z"  horiz-adv-x="579" vert-adv-y="1000"  />

      
      <glyph glyph-name="unicc" unicode="&#xcc;" d="M26 0L148 695L302 695L180 0L26 0M196 756L80 893L219 893L301 756L196 756Z"  horiz-adv-x="291" vert-adv-y="1000"  />

      
      <glyph glyph-name="unicd" unicode="&#xcd;" d="M26 0L148 695L302 695L180 0L26 0M163 756L255 893L398 893L272 756L163 756Z"  horiz-adv-x="291" vert-adv-y="1000"  />

      
      <glyph glyph-name="unice" unicode="&#xce;" d="M26 0L148 695L302 695L180 0L26 0M278 754L243 823L184 754L60 754L217 925L289 925L387 754L278 754Z"  horiz-adv-x="291" vert-adv-y="1000"  />

      
      <glyph glyph-name="unicf" unicode="&#xcf;" d="M26 0L148 695L302 695L180 0L26 0M85 747L106 864L222 864L201 747L85 747M262 747L283 864L399 864L378 747L262 747Z"  horiz-adv-x="291" vert-adv-y="1000"  />

      
      <glyph glyph-name="unid0" unicode="&#xd0;" d="M309 0L16 0L65 281L8 281L31 414L89 414L138 695L356 695Q534 695 621 610.50Q708 526 708 371Q708 294 677.50 219.50Q647 145 589 94.50Q531 44 463 22Q395 0 309 0M349 554L268 554L243 414L394 414L371 281L220 281L195 141L318 141Q428 141 484 205Q540 269 540 370Q540 461 487.50 507.50Q435 554 349 554Z"  horiz-adv-x="724" vert-adv-y="1000"  />

      
      <glyph glyph-name="unid1" unicode="&#xd1;" d="M524 0L252 430L250 430Q248 410 239 355L235 330L177 0L26 0L148 695L271 695L541 263L543 263Q546 293 557 362L616 695L767 695L645 0L524 0M528 827Q542 827 554 842.50Q566 858 572 882L651 882Q632 812 603 777.50Q574 743 529 743Q505 743 486.50 754Q468 765 449.50 784Q431 803 414 803Q398 803 386.50 785.50Q375 768 371 746L294 746Q307 811 336 848Q365 885 418 885Q459 885 486.50 856Q514 827 528 827Z"  horiz-adv-x="756" vert-adv-y="1000"  />

      
      <glyph glyph-name="unid2" unicode="&#xd2;" d="M380-12Q224-12 138 73.50Q52 159 52 311Q52 398 80.50 477Q109 556 164.50 608.50Q220 661 286 684Q352 707 437 707Q593 707 679 623Q765 539 765 396Q765 275 716.50 180.50Q668 86 583 37Q498-12 380-12M391 133Q493 133 549.50 204.50Q606 276 606 384Q606 466 560 514Q514 562 424 562Q323 562 267.50 493Q212 424 212 315Q212 229 257 181Q302 133 391 133M411 756L295 893L434 893L516 756L411 756Z"  horiz-adv-x="778" vert-adv-y="1000"  />

      
      <glyph glyph-name="unid3" unicode="&#xd3;" d="M380-12Q224-12 138 73.50Q52 159 52 311Q52 398 80.50 477Q109 556 164.50 608.50Q220 661 286 684Q352 707 437 707Q593 707 679 623Q765 539 765 396Q765 275 716.50 180.50Q668 86 583 37Q498-12 380-12M391 133Q493 133 549.50 204.50Q606 276 606 384Q606 466 560 514Q514 562 424 562Q323 562 267.50 493Q212 424 212 315Q212 229 257 181Q302 133 391 133M378 756L470 893L613 893L487 756L378 756Z"  horiz-adv-x="778" vert-adv-y="1000"  />

      
      <glyph glyph-name="unid4" unicode="&#xd4;" d="M380-12Q224-12 138 73.50Q52 159 52 311Q52 398 80.50 477Q109 556 164.50 608.50Q220 661 286 684Q352 707 437 707Q593 707 679 623Q765 539 765 396Q765 275 716.50 180.50Q668 86 583 37Q498-12 380-12M391 133Q493 133 549.50 204.50Q606 276 606 384Q606 466 560 514Q514 562 424 562Q323 562 267.50 493Q212 424 212 315Q212 229 257 181Q302 133 391 133M493 754L458 823L399 754L275 754L432 925L504 925L602 754L493 754Z"  horiz-adv-x="778" vert-adv-y="1000"  />

      
      <glyph glyph-name="unid5" unicode="&#xd5;" d="M380-12Q224-12 138 73.50Q52 159 52 311Q52 398 80.50 477Q109 556 164.50 608.50Q220 661 286 684Q352 707 437 707Q593 707 679 623Q765 539 765 396Q765 275 716.50 180.50Q668 86 583 37Q498-12 380-12M391 133Q493 133 549.50 204.50Q606 276 606 384Q606 466 560 514Q514 562 424 562Q323 562 267.50 493Q212 424 212 315Q212 229 257 181Q302 133 391 133M510 827Q524 827 536 842.50Q548 858 554 882L633 882Q614 812 585 777.50Q556 743 511 743Q487 743 468.50 754Q450 765 431.50 784Q413 803 396 803Q380 803 368.50 785.50Q357 768 353 746L276 746Q289 811 318 848Q347 885 400 885Q441 885 468.50 856Q496 827 510 827Z"  horiz-adv-x="778" vert-adv-y="1000"  />

      
      <glyph glyph-name="unid6" unicode="&#xd6;" d="M380-12Q224-12 138 73.50Q52 159 52 311Q52 398 80.50 477Q109 556 164.50 608.50Q220 661 286 684Q352 707 437 707Q593 707 679 623Q765 539 765 396Q765 275 716.50 180.50Q668 86 583 37Q498-12 380-12M391 133Q493 133 549.50 204.50Q606 276 606 384Q606 466 560 514Q514 562 424 562Q323 562 267.50 493Q212 424 212 315Q212 229 257 181Q302 133 391 133M300 747L321 864L437 864L416 747L300 747M477 747L498 864L614 864L593 747L477 747Z"  horiz-adv-x="778" vert-adv-y="1000"  />

      
      <glyph glyph-name="unid7" unicode="&#xd7;" d="M389 303L541 151L445 55L293 207L141 55L45 151L197 303L45 455L141 551L293 399L445 551L541 455L389 303Z"  horiz-adv-x="586" vert-adv-y="1000"  />

      
      <glyph glyph-name="unid8" unicode="&#xd8;" d="M709 589Q765 511 765 396Q765 275 716.50 180.50Q668 86 583 37Q498-12 380-12Q262-12 184 37L72-80L-3-14L111 106Q52 186 52 311Q52 398 80.50 477Q109 556 164.50 608.50Q220 661 286 684Q352 707 437 707Q555 707 635 657L761 790L837 724L709 589M227 228L524 540Q482 562 424 562Q323 562 267.50 493Q212 424 212 315Q212 266 227 228M606 384Q606 429 591 465L294 153Q334 133 391 133Q493 133 549.50 204.50Q606 276 606 384Z"  horiz-adv-x="784" vert-adv-y="1000"  />

      
      <glyph glyph-name="unid9" unicode="&#xd9;" d="M70 202Q70 262 88 366L146 695L299 695L236 334Q224 270 224 226Q224 181 254.50 154.50Q285 128 361 128Q414 128 447 135Q480 142 489 143L586 695L739 695L621 33Q539 9 483-1.50Q427-12 346-12Q199-12 134.50 42.50Q70 97 70 202M404 756L288 893L427 893L509 756L404 756Z"  horiz-adv-x="727" vert-adv-y="1000"  />

      
      <glyph glyph-name="unida" unicode="&#xda;" d="M70 202Q70 262 88 366L146 695L299 695L236 334Q224 270 224 226Q224 181 254.50 154.50Q285 128 361 128Q414 128 447 135Q480 142 489 143L586 695L739 695L621 33Q539 9 483-1.50Q427-12 346-12Q199-12 134.50 42.50Q70 97 70 202M371 756L463 893L606 893L480 756L371 756Z"  horiz-adv-x="727" vert-adv-y="1000"  />

      
      <glyph glyph-name="unidb" unicode="&#xdb;" d="M70 202Q70 262 88 366L146 695L299 695L236 334Q224 270 224 226Q224 181 254.50 154.50Q285 128 361 128Q414 128 447 135Q480 142 489 143L586 695L739 695L621 33Q539 9 483-1.50Q427-12 346-12Q199-12 134.50 42.50Q70 97 70 202M486 754L451 823L392 754L268 754L425 925L497 925L595 754L486 754Z"  horiz-adv-x="727" vert-adv-y="1000"  />

      
      <glyph glyph-name="unidc" unicode="&#xdc;" d="M70 202Q70 262 88 366L146 695L299 695L236 334Q224 270 224 226Q224 181 254.50 154.50Q285 128 361 128Q414 128 447 135Q480 142 489 143L586 695L739 695L621 33Q539 9 483-1.50Q427-12 346-12Q199-12 134.50 42.50Q70 97 70 202M293 747L314 864L430 864L409 747L293 747M470 747L491 864L607 864L586 747L470 747Z"  horiz-adv-x="727" vert-adv-y="1000"  />

      
      <glyph glyph-name="unidd" unicode="&#xdd;" d="M357 0L202 0L242 229L72 695L238 695L337 384L550 695L738 695L397 232L357 0M330 756L422 893L565 893L439 756L330 756Z"  horiz-adv-x="650" vert-adv-y="1000"  />

      
      <glyph glyph-name="unide" unicode="&#xde;" d="M363 598Q506 598 571.50 537Q637 476 637 380Q637 254 555.50 180Q474 106 317 106L198 106L180 0L26 0L148 695L302 695L285 598L363 598M223 247L324 247Q398 247 435 276Q472 305 472 360Q472 457 353 457L260 457L223 247Z"  horiz-adv-x="651" vert-adv-y="1000"  />

      
      <glyph glyph-name="unidf" unicode="&#xdf;" d="M411 353Q411 329 459 302Q507 275 531 245.50Q555 216 555 167Q555 89 498.50 41.50Q442-6 348-6Q308-6 266.50-0.50Q225 5 206 11L226 125Q277 110 322 110Q365 110 383.50 121.50Q402 133 402 157Q402 178 357.50 207Q313 236 288 265Q263 294 263 337Q263 385 282.50 414Q302 443 339 461.50Q376 480 407.50 500Q439 520 439 560Q439 589 418 606Q397 623 363 623Q307 623 283 593Q259 563 251 514L161 0L15 0L106 517Q124 624 187 685Q250 746 374 746Q479 746 537 697.50Q595 649 595 574Q595 517 565 474Q535 431 476 404Q435 386 423 376.50Q411 367 411 353Z"  horiz-adv-x="589" vert-adv-y="1000"  />

      
      <glyph glyph-name="unie0" unicode="&#xe0;" d="M453 221L418 15Q308-13 220-13Q18-13 18 139Q18 298 235 298Q264 298 320 294Q324 314 324 325Q324 376 244 376Q180 376 90 351L113 475Q145 485 190.50 492.50Q236 500 281 500Q375 500 422 460.50Q469 421 469 347Q469 317 453 221M228 99Q256 99 288 105L305 201Q273 206 237 206Q199 206 180.50 192.50Q162 179 162 150Q162 125 179 112Q196 99 228 99M290 554L168 723L305 723L394 554L290 554Z"  horiz-adv-x="511" vert-adv-y="1000"  />

      
      <glyph glyph-name="unie1" unicode="&#xe1;" d="M453 221L418 15Q308-13 220-13Q18-13 18 139Q18 298 235 298Q264 298 320 294Q324 314 324 325Q324 376 244 376Q180 376 90 351L113 475Q145 485 190.50 492.50Q236 500 281 500Q375 500 422 460.50Q469 421 469 347Q469 317 453 221M228 99Q256 99 288 105L305 201Q273 206 237 206Q199 206 180.50 192.50Q162 179 162 150Q162 125 179 112Q196 99 228 99M241 554L350 723L494 723L352 554L241 554Z"  horiz-adv-x="511" vert-adv-y="1000"  />

      
      <glyph glyph-name="unie2" unicode="&#xe2;" d="M453 221L418 15Q308-13 220-13Q18-13 18 139Q18 298 235 298Q264 298 320 294Q324 314 324 325Q324 376 244 376Q180 376 90 351L113 475Q145 485 190.50 492.50Q236 500 281 500Q375 500 422 460.50Q469 421 469 347Q469 317 453 221M228 99Q256 99 288 105L305 201Q273 206 237 206Q199 206 180.50 192.50Q162 179 162 150Q162 125 179 112Q196 99 228 99M370 554L318 641L242 554L132 554L285 742L373 742L476 554L370 554Z"  horiz-adv-x="511" vert-adv-y="1000"  />

      
      <glyph glyph-name="unie3" unicode="&#xe3;" d="M453 221L418 15Q308-13 220-13Q18-13 18 139Q18 298 235 298Q264 298 320 294Q324 314 324 325Q324 376 244 376Q180 376 90 351L113 475Q145 485 190.50 492.50Q236 500 281 500Q375 500 422 460.50Q469 421 469 347Q469 317 453 221M228 99Q256 99 288 105L305 201Q273 206 237 206Q199 206 180.50 192.50Q162 179 162 150Q162 125 179 112Q196 99 228 99M370 643Q384 643 396 658.50Q408 674 414 698L493 698Q474 628 445 593.50Q416 559 371 559Q347 559 328.50 570Q310 581 291.50 600Q273 619 256 619Q240 619 228.50 601.50Q217 584 213 562L136 562Q149 627 178 664Q207 701 260 701Q302 701 328.50 672Q355 643 370 643Z"  horiz-adv-x="511" vert-adv-y="1000"  />

      
      <glyph glyph-name="unie4" unicode="&#xe4;" d="M453 221L418 15Q308-13 220-13Q18-13 18 139Q18 298 235 298Q264 298 320 294Q324 314 324 325Q324 376 244 376Q180 376 90 351L113 475Q145 485 190.50 492.50Q236 500 281 500Q375 500 422 460.50Q469 421 469 347Q469 317 453 221M228 99Q256 99 288 105L305 201Q273 206 237 206Q199 206 180.50 192.50Q162 179 162 150Q162 125 179 112Q196 99 228 99M165 576L186 693L302 693L281 576L165 576M342 576L363 693L479 693L458 576L342 576Z"  horiz-adv-x="511" vert-adv-y="1000"  />

      
      <glyph glyph-name="unie5" unicode="&#xe5;" d="M453 221L418 15Q308-13 220-13Q18-13 18 139Q18 298 235 298Q264 298 320 294Q324 314 324 325Q324 376 244 376Q180 376 90 351L113 475Q145 485 190.50 492.50Q236 500 281 500Q375 500 422 460.50Q469 421 469 347Q469 317 453 221M228 99Q256 99 288 105L305 201Q273 206 237 206Q199 206 180.50 192.50Q162 179 162 150Q162 125 179 112Q196 99 228 99M309 542Q262 542 229 575Q196 608 196 655Q196 703 229 735.50Q262 768 309 768Q356 768 389 735.50Q422 703 422 655Q422 608 389 575Q356 542 309 542M309 607Q330 607 344 621Q358 635 358 655Q358 676 344 689.50Q330 703 309 703Q289 703 275 689.50Q261 676 261 655Q261 636 275.50 621.50Q290 607 309 607Z"  horiz-adv-x="511" vert-adv-y="1000"  />

      
      <glyph glyph-name="unie6" unicode="&#xe6;" d="M770 201L456 201L456 190Q456 151 488 129.50Q520 108 576 108Q653 108 730 138L708 15Q633-14 548-14Q448-14 389 29Q352 9 309-2Q266-13 208-13Q114-13 66 26Q18 65 18 139Q18 298 235 298Q262 298 319 293Q324 313 324 325Q324 376 244 376Q180 376 90 351L113 475Q143 484 189.50 491.50Q236 499 281 499Q383 499 427 444Q487 499 585 499Q681 499 733.50 446.50Q786 394 786 310Q786 280 781.50 256Q777 232 770 201M640 296Q644 312 644 322Q644 352 626 370Q608 388 571 388Q531 388 504.50 365Q478 342 468 296L640 296M242 99Q283 99 326 115Q312 149 311 191L311 200Q275 206 244 206Q201 206 181.50 192.50Q162 179 162 150Q162 125 181 112Q200 99 242 99Z"  horiz-adv-x="803" vert-adv-y="1000"  />

      
      <glyph glyph-name="unie7" unicode="&#xe7;" d="M296 116Q341 116 400 137L379 4Q323-14 261-14L255-14L235-44Q274-44 296.50-65.50Q319-87 319-122Q319-165 283.50-194Q248-223 181-223Q136-223 97-211L110-138Q131-143 145-146Q159-149 180-149Q211-149 222-142Q233-135 233-121Q233-108 221-101Q209-94 177-94L149-94L211-10Q126 4 77.50 64.50Q29 125 29 219Q29 345 110.50 422.50Q192 500 320 500Q357 500 393.50 493.50Q430 487 451 478L430 349Q407 359 381 365Q355 371 320 371Q252 371 215.50 331.50Q179 292 179 227Q179 172 211 144Q243 116 296 116Z"  horiz-adv-x="441" vert-adv-y="1000"  />

      
      <glyph glyph-name="unie8" unicode="&#xe8;" d="M496 201L182 201L182 194Q182 153 214 130.50Q246 108 302 108Q379 108 456 138L434 15Q359-14 274-14Q150-14 89.50 48.50Q29 111 29 217Q29 344 103 421.50Q177 499 306 499Q405 499 458.50 447Q512 395 512 310Q512 280 507.50 256Q503 232 496 201M366 296Q370 312 370 322Q370 352 352.50 370Q335 388 300 388Q260 388 233.50 364Q207 340 195 296L366 296M289 554L167 723L304 723L393 554L289 554Z"  horiz-adv-x="529" vert-adv-y="1000"  />

      
      <glyph glyph-name="unie9" unicode="&#xe9;" d="M496 201L182 201L182 194Q182 153 214 130.50Q246 108 302 108Q379 108 456 138L434 15Q359-14 274-14Q150-14 89.50 48.50Q29 111 29 217Q29 344 103 421.50Q177 499 306 499Q405 499 458.50 447Q512 395 512 310Q512 280 507.50 256Q503 232 496 201M366 296Q370 312 370 322Q370 352 352.50 370Q335 388 300 388Q260 388 233.50 364Q207 340 195 296L366 296M240 554L349 723L493 723L351 554L240 554Z"  horiz-adv-x="529" vert-adv-y="1000"  />

      
      <glyph glyph-name="uniea" unicode="&#xea;" d="M496 201L182 201L182 194Q182 153 214 130.50Q246 108 302 108Q379 108 456 138L434 15Q359-14 274-14Q150-14 89.50 48.50Q29 111 29 217Q29 344 103 421.50Q177 499 306 499Q405 499 458.50 447Q512 395 512 310Q512 280 507.50 256Q503 232 496 201M366 296Q370 312 370 322Q370 352 352.50 370Q335 388 300 388Q260 388 233.50 364Q207 340 195 296L366 296M369 554L317 641L241 554L131 554L284 742L372 742L475 554L369 554Z"  horiz-adv-x="529" vert-adv-y="1000"  />

      
      <glyph glyph-name="unieb" unicode="&#xeb;" d="M496 201L182 201L182 194Q182 153 214 130.50Q246 108 302 108Q379 108 456 138L434 15Q359-14 274-14Q150-14 89.50 48.50Q29 111 29 217Q29 344 103 421.50Q177 499 306 499Q405 499 458.50 447Q512 395 512 310Q512 280 507.50 256Q503 232 496 201M366 296Q370 312 370 322Q370 352 352.50 370Q335 388 300 388Q260 388 233.50 364Q207 340 195 296L366 296M164 576L185 693L301 693L280 576L164 576M341 576L362 693L478 693L457 576L341 576Z"  horiz-adv-x="529" vert-adv-y="1000"  />

      
      <glyph glyph-name="uniec" unicode="&#xec;" d="M16 0L101 487L247 487L162 0L16 0M165 554L43 723L180 723L269 554L165 554Z"  horiz-adv-x="263" vert-adv-y="1000"  />

      
      <glyph glyph-name="unied" unicode="&#xed;" d="M16 0L101 487L247 487L162 0L16 0M116 554L225 723L369 723L227 554L116 554Z"  horiz-adv-x="263" vert-adv-y="1000"  />

      
      <glyph glyph-name="uniee" unicode="&#xee;" d="M16 0L101 487L247 487L162 0L16 0M245 554L193 641L117 554L7 554L160 742L248 742L351 554L245 554Z"  horiz-adv-x="263" vert-adv-y="1000"  />

      
      <glyph glyph-name="unief" unicode="&#xef;" d="M16 0L101 487L247 487L162 0L16 0M40 576L61 693L177 693L156 576L40 576M217 576L238 693L354 693L333 576L217 576Z"  horiz-adv-x="263" vert-adv-y="1000"  />

      
      <glyph glyph-name="unif0" unicode="&#xf0;" d="M494 783L543 700L447 642Q540 521 540 327Q540 170 463.50 78Q387-14 257-14Q145-14 86.50 49Q28 112 28 212Q28 331 95.50 408.50Q163 486 277 486Q314 486 343 474Q372 462 387 444L389 446Q362 546 329 579L217 515L170 597L272 654Q231 695 201 713L290 799Q315 784 343 759.50Q371 735 384 719L494 783M271 121Q324 121 356 162.50Q388 204 388 260Q388 304 364.50 330.50Q341 357 293 357Q242 357 210.50 322Q179 287 179 223Q179 173 204 147Q229 121 271 121Z"  horiz-adv-x="564" vert-adv-y="1000"  />

      
      <glyph glyph-name="unif1" unicode="&#xf1;" d="M517 262L471 0L325 0L370 249Q377 289 377 308Q377 336 358.50 351Q340 366 303 366Q262 366 225 358L162 0L16 0L98 469Q157 483 209 491.50Q261 500 320 500Q527 500 527 350Q527 322 517 262M380 643Q394 643 406 658.50Q418 674 424 698L503 698Q484 628 455 593.50Q426 559 381 559Q357 559 338.50 570Q320 581 301.50 600Q283 619 266 619Q250 619 238.50 601.50Q227 584 223 562L146 562Q159 627 188 664Q217 701 270 701Q312 701 338.50 672Q365 643 380 643Z"  horiz-adv-x="570" vert-adv-y="1000"  />

      
      <glyph glyph-name="unif2" unicode="&#xf2;" d="M258-14Q153-14 91 49Q29 112 29 223Q29 342 103 421Q177 500 313 500Q415 500 478 438Q541 376 541 274Q541 144 468.50 65Q396-14 258-14M272 121Q335 121 362 164.50Q389 208 389 264Q389 308 366 336.50Q343 365 297 365Q245 365 212.50 328.50Q180 292 180 230Q180 178 205 149.50Q230 121 272 121M299 554L177 723L314 723L403 554L299 554Z"  horiz-adv-x="570" vert-adv-y="1000"  />

      
      <glyph glyph-name="unif3" unicode="&#xf3;" d="M258-14Q153-14 91 49Q29 112 29 223Q29 342 103 421Q177 500 313 500Q415 500 478 438Q541 376 541 274Q541 144 468.50 65Q396-14 258-14M272 121Q335 121 362 164.50Q389 208 389 264Q389 308 366 336.50Q343 365 297 365Q245 365 212.50 328.50Q180 292 180 230Q180 178 205 149.50Q230 121 272 121M250 554L359 723L503 723L361 554L250 554Z"  horiz-adv-x="570" vert-adv-y="1000"  />

      
      <glyph glyph-name="unif4" unicode="&#xf4;" d="M258-14Q153-14 91 49Q29 112 29 223Q29 342 103 421Q177 500 313 500Q415 500 478 438Q541 376 541 274Q541 144 468.50 65Q396-14 258-14M272 121Q335 121 362 164.50Q389 208 389 264Q389 308 366 336.50Q343 365 297 365Q245 365 212.50 328.50Q180 292 180 230Q180 178 205 149.50Q230 121 272 121M379 554L327 641L251 554L141 554L294 742L382 742L485 554L379 554Z"  horiz-adv-x="570" vert-adv-y="1000"  />

      
      <glyph glyph-name="unif5" unicode="&#xf5;" d="M258-14Q153-14 91 49Q29 112 29 223Q29 342 103 421Q177 500 313 500Q415 500 478 438Q541 376 541 274Q541 144 468.50 65Q396-14 258-14M272 121Q335 121 362 164.50Q389 208 389 264Q389 308 366 336.50Q343 365 297 365Q245 365 212.50 328.50Q180 292 180 230Q180 178 205 149.50Q230 121 272 121M379 643Q393 643 405 658.50Q417 674 423 698L502 698Q483 628 454 593.50Q425 559 380 559Q356 559 337.50 570Q319 581 300.50 600Q282 619 265 619Q249 619 237.50 601.50Q226 584 222 562L145 562Q158 627 187 664Q216 701 269 701Q311 701 337.50 672Q364 643 379 643Z"  horiz-adv-x="570" vert-adv-y="1000"  />

      
      <glyph glyph-name="unif6" unicode="&#xf6;" d="M258-14Q153-14 91 49Q29 112 29 223Q29 342 103 421Q177 500 313 500Q415 500 478 438Q541 376 541 274Q541 144 468.50 65Q396-14 258-14M272 121Q335 121 362 164.50Q389 208 389 264Q389 308 366 336.50Q343 365 297 365Q245 365 212.50 328.50Q180 292 180 230Q180 178 205 149.50Q230 121 272 121M174 576L195 693L311 693L290 576L174 576M351 576L372 693L488 693L467 576L351 576Z"  horiz-adv-x="570" vert-adv-y="1000"  />

      
      <glyph glyph-name="unif7" unicode="&#xf7;" d="M216 435L216 579L360 579L360 435L216 435M50 236L50 370L536 370L536 236L50 236M216 25L216 170L360 170L360 25L216 25Z"  horiz-adv-x="586" vert-adv-y="1000"  />

      
      <glyph glyph-name="unif8" unicode="&#xf8;" d="M505 406Q542 352 542 274Q542 144 469.50 65Q397-14 259-14Q186-14 132 17L52-66L-21-3L64 85Q30 142 30 223Q30 342 104 421Q178 500 314 500Q382 500 434 471L523 564L596 501L505 406M176 202L335 367Q319 373 299 373Q243 373 208.50 334.50Q174 296 174 229Q174 218 176 202M397 265Q397 273 395 291L231 120Q248 113 272 113Q339 113 368 159.50Q397 206 397 265Z"  horiz-adv-x="574" vert-adv-y="1000"  />

      
      <glyph glyph-name="unif9" unicode="&#xf9;" d="M43 137Q43 165 53 225L99 487L245 487L200 238Q193 198 193 179Q193 151 211.50 136Q230 121 267 121Q308 121 345 129L408 487L554 487L472 18Q413 4 361-4.50Q309-13 250-13Q43-13 43 137M318 554L196 723L333 723L422 554L318 554Z"  horiz-adv-x="570" vert-adv-y="1000"  />

      
      <glyph glyph-name="unifa" unicode="&#xfa;" d="M43 137Q43 165 53 225L99 487L245 487L200 238Q193 198 193 179Q193 151 211.50 136Q230 121 267 121Q308 121 345 129L408 487L554 487L472 18Q413 4 361-4.50Q309-13 250-13Q43-13 43 137M269 554L378 723L522 723L380 554L269 554Z"  horiz-adv-x="570" vert-adv-y="1000"  />

      
      <glyph glyph-name="unifb" unicode="&#xfb;" d="M43 137Q43 165 53 225L99 487L245 487L200 238Q193 198 193 179Q193 151 211.50 136Q230 121 267 121Q308 121 345 129L408 487L554 487L472 18Q413 4 361-4.50Q309-13 250-13Q43-13 43 137M398 554L346 641L270 554L160 554L313 742L401 742L504 554L398 554Z"  horiz-adv-x="570" vert-adv-y="1000"  />

      
      <glyph glyph-name="unifc" unicode="&#xfc;" d="M43 137Q43 165 53 225L99 487L245 487L200 238Q193 198 193 179Q193 151 211.50 136Q230 121 267 121Q308 121 345 129L408 487L554 487L472 18Q413 4 361-4.50Q309-13 250-13Q43-13 43 137M193 576L214 693L330 693L309 576L193 576M370 576L391 693L507 693L486 576L370 576Z"  horiz-adv-x="570" vert-adv-y="1000"  />

      
      <glyph glyph-name="unifd" unicode="&#xfd;" d="M-11-235L139 18L36 487L189 487L230 251Q238 201 238 180L240 180Q254 212 273 245L402 487L575 487L153-235L-11-235M229 554L338 723L482 723L340 554L229 554Z"  horiz-adv-x="525" vert-adv-y="1000"  />

      
      <glyph glyph-name="unife" unicode="&#xfe;" d="M546 272Q546 145 463.50 65.50Q381-14 260-14Q209-14 161 2L119-235L-26-235L145 738L291 738L246 484Q262 490 286.50 495Q311 500 336 500Q438 500 492 437Q546 374 546 272M184 133Q219 120 258 120Q331 120 362 161.50Q393 203 393 266Q393 315 368 341Q343 367 292 367Q256 367 223 356L184 133Z"  horiz-adv-x="574" vert-adv-y="1000"  />

      
      <glyph glyph-name="uniff" unicode="&#xff;" d="M-11-235L139 18L36 487L189 487L230 251Q238 201 238 180L240 180Q254 212 273 245L402 487L575 487L153-235L-11-235M153 576L174 693L290 693L269 576L153 576M330 576L351 693L467 693L446 576L330 576Z"  horiz-adv-x="525" vert-adv-y="1000"  />

      
      <glyph glyph-name="uni0100" unicode="&#x0100;" d="M518 0L485 151L220 151L136 0L-39 0L370 695L514 695L675 0L518 0M289 276L455 276L410 495L408 495L289 276M323 752L340 850L589 850L572 752L323 752Z"  horiz-adv-x="722" vert-adv-y="1000"  />

      
      <glyph glyph-name="uni0101" unicode="&#x0101;" d="M453 221L418 15Q308-13 220-13Q18-13 18 139Q18 298 235 298Q264 298 320 294Q324 314 324 325Q324 376 244 376Q180 376 90 351L113 475Q145 485 190.50 492.50Q236 500 281 500Q375 500 422 460.50Q469 421 469 347Q469 317 453 221M228 99Q256 99 288 105L305 201Q273 206 237 206Q199 206 180.50 192.50Q162 179 162 150Q162 125 179 112Q196 99 228 99M185 568L202 666L451 666L434 568L185 568Z"  horiz-adv-x="511" vert-adv-y="1000"  />

      
      <glyph glyph-name="uni0102" unicode="&#x0102;" d="M518 0L485 151L220 151L136 0L-39 0L370 695L514 695L675 0L518 0M289 276L455 276L410 495L408 495L289 276M299 858Q299 875 301 884L392 884L392 879Q392 829 455 829Q518 829 533 884L634 884Q622 814 572 779Q522 744 448 744Q375 744 337 775.50Q299 807 299 858Z"  horiz-adv-x="722" vert-adv-y="1000"  />

      
      <glyph glyph-name="uni0103" unicode="&#x0103;" d="M453 221L418 15Q308-13 220-13Q18-13 18 139Q18 298 235 298Q264 298 320 294Q324 314 324 325Q324 376 244 376Q180 376 90 351L113 475Q145 485 190.50 492.50Q236 500 281 500Q375 500 422 460.50Q469 421 469 347Q469 317 453 221M228 99Q256 99 288 105L305 201Q273 206 237 206Q199 206 180.50 192.50Q162 179 162 150Q162 125 179 112Q196 99 228 99M181 680Q181 687 183 705L249 705L249 698Q249 669 264.50 654.50Q280 640 315 640Q353 640 372.50 656.50Q392 673 398 705L474 705Q460 639 415.50 604.50Q371 570 311 570Q244 570 212.50 600Q181 630 181 680Z"  horiz-adv-x="511" vert-adv-y="1000"  />

      
      <glyph glyph-name="uni0104" unicode="&#x0104;" d="M518 0L485 151L220 151L136 0L-39 0L370 695L514 695L675 0L518 0M289 276L455 276L410 495L408 495L289 276M607-142Q627-142 654-134L642-205Q607-215 582-215Q536-215 513-196Q490-177 490-141Q490-65 609 0L675 0Q624-38 600.50-64Q577-90 577-115Q577-142 607-142Z"  horiz-adv-x="722" vert-adv-y="1000"  />

      
      <glyph glyph-name="uni0105" unicode="&#x0105;" d="M453 221L418 15Q365-28 341-57Q317-86 317-115Q317-142 347-142Q367-142 394-134L382-205Q347-215 322-215Q276-215 253-196Q230-177 230-141Q230-68 320-5Q270-13 220-13Q18-13 18 139Q18 298 235 298Q264 298 320 294Q324 314 324 325Q324 376 244 376Q180 376 90 351L113 475Q145 485 190.50 492.50Q236 500 281 500Q375 500 422 460.50Q469 421 469 347Q469 317 453 221M162 150Q162 125 179 112Q196 99 228 99Q256 99 288 105L305 201Q272 206 237 206Q199 206 180.50 192.50Q162 179 162 150Z"  horiz-adv-x="511" vert-adv-y="1000"  />

      
      <glyph glyph-name="uni0106" unicode="&#x0106;" d="M638 517Q603 534 553 548Q503 562 451 562Q341 562 280 498.50Q219 435 219 322Q219 229 270.50 183Q322 137 403 137Q463 137 509 152Q555 167 598 188L575 29Q535 11 483-0.50Q431-12 377-12Q230-12 141.50 75Q53 162 53 317Q53 494 158 600.50Q263 707 432 707Q513 707 561 696.50Q609 686 662 664L638 517M370 756L462 893L605 893L479 756L370 756Z"  horiz-adv-x="644" vert-adv-y="1000"  />

      
      <glyph glyph-name="uni0107" unicode="&#x0107;" d="M430 349Q407 359 381 365Q355 371 320 371Q252 371 215.50 331.50Q179 292 179 227Q179 172 211 144Q243 116 296 116Q341 116 400 137L379 4Q323-14 261-14Q156-14 92.50 49Q29 112 29 219Q29 345 110.50 422.50Q192 500 320 500Q357 500 393.50 493.50Q430 487 451 478L430 349M216 554L325 723L469 723L327 554L216 554Z"  horiz-adv-x="441" vert-adv-y="1000"  />

      
      <glyph glyph-name="uni0108" unicode="&#x0108;" d="M638 517Q603 534 553 548Q503 562 451 562Q341 562 280 498.50Q219 435 219 322Q219 229 270.50 183Q322 137 403 137Q463 137 509 152Q555 167 598 188L575 29Q535 11 483-0.50Q431-12 377-12Q230-12 141.50 75Q53 162 53 317Q53 494 158 600.50Q263 707 432 707Q513 707 561 696.50Q609 686 662 664L638 517M485 754L450 823L391 754L267 754L424 925L496 925L594 754L485 754Z"  horiz-adv-x="644" vert-adv-y="1000"  />

      
      <glyph glyph-name="uni0109" unicode="&#x0109;" d="M430 349Q407 359 381 365Q355 371 320 371Q252 371 215.50 331.50Q179 292 179 227Q179 172 211 144Q243 116 296 116Q341 116 400 137L379 4Q323-14 261-14Q156-14 92.50 49Q29 112 29 219Q29 345 110.50 422.50Q192 500 320 500Q357 500 393.50 493.50Q430 487 451 478L430 349M345 554L293 641L217 554L107 554L260 742L348 742L451 554L345 554Z"  horiz-adv-x="441" vert-adv-y="1000"  />

      
      <glyph glyph-name="uni010A" unicode="&#x010A;" d="M638 517Q603 534 553 548Q503 562 451 562Q341 562 280 498.50Q219 435 219 322Q219 229 270.50 183Q322 137 403 137Q463 137 509 152Q555 167 598 188L575 29Q535 11 483-0.50Q431-12 377-12Q230-12 141.50 75Q53 162 53 317Q53 494 158 600.50Q263 707 432 707Q513 707 561 696.50Q609 686 662 664L638 517M363 745L390 897L542 897L515 745L363 745Z"  horiz-adv-x="644" vert-adv-y="1000"  />

      
      <glyph glyph-name="uni010B" unicode="&#x010B;" d="M430 349Q407 359 381 365Q355 371 320 371Q252 371 215.50 331.50Q179 292 179 227Q179 172 211 144Q243 116 296 116Q341 116 400 137L379 4Q323-14 261-14Q156-14 92.50 49Q29 112 29 219Q29 345 110.50 422.50Q192 500 320 500Q357 500 393.50 493.50Q430 487 451 478L430 349M212 589L239 741L391 741L364 589L212 589Z"  horiz-adv-x="441" vert-adv-y="1000"  />

      
      <glyph glyph-name="uni010C" unicode="&#x010C;" d="M638 517Q603 534 553 548Q503 562 451 562Q341 562 280 498.50Q219 435 219 322Q219 229 270.50 183Q322 137 403 137Q463 137 509 152Q555 167 598 188L575 29Q535 11 483-0.50Q431-12 377-12Q230-12 141.50 75Q53 162 53 317Q53 494 158 600.50Q263 707 432 707Q513 707 561 696.50Q609 686 662 664L638 517M403 750L304 921L415 921L448 851L509 921L630 921L474 750L403 750Z"  horiz-adv-x="644" vert-adv-y="1000"  />

      
      <glyph glyph-name="uni010D" unicode="&#x010D;" d="M430 349Q407 359 381 365Q355 371 320 371Q252 371 215.50 331.50Q179 292 179 227Q179 172 211 144Q243 116 296 116Q341 116 400 137L379 4Q323-14 261-14Q156-14 92.50 49Q29 112 29 219Q29 345 110.50 422.50Q192 500 320 500Q357 500 393.50 493.50Q430 487 451 478L430 349M235 554L129 742L235 742L284 655L363 742L473 742L323 554L235 554Z"  horiz-adv-x="441" vert-adv-y="1000"  />

      
      <glyph glyph-name="uni010E" unicode="&#x010E;" d="M319 0L26 0L148 695L366 695Q544 695 631 610.50Q718 526 718 371Q718 294 687.50 219.50Q657 145 599 94.50Q541 44 473 22Q405 0 319 0M205 141L328 141Q438 141 494 205Q550 269 550 370Q550 461 497.50 507.50Q445 554 359 554L278 554L205 141M368 750L269 921L380 921L413 851L474 921L595 921L439 750L368 750Z"  horiz-adv-x="734" vert-adv-y="1000"  />

      
      <glyph glyph-name="uni010F" unicode="&#x010F;" d="M28 214Q28 339 110.50 419.50Q193 500 317 500Q369 500 417 484L462 738L608 738L484 39Q431 15 385 1Q339-13 273-13Q150-13 89 47.50Q28 108 28 214M285 119Q322 119 355 130L394 353Q359 366 319 366Q246 366 213.50 324.50Q181 283 181 221Q181 172 207.50 145.50Q234 119 285 119M610 521L697 738L826 738L719 521L610 521Z"  horiz-adv-x="579" vert-adv-y="1000"  />

      
      <glyph glyph-name="uni0110" unicode="&#x0110;" d="M309 0L16 0L65 281L8 281L31 414L89 414L138 695L356 695Q534 695 621 610.50Q708 526 708 371Q708 294 677.50 219.50Q647 145 589 94.50Q531 44 463 22Q395 0 309 0M349 554L268 554L243 414L394 414L371 281L220 281L195 141L318 141Q428 141 484 205Q540 269 540 370Q540 461 487.50 507.50Q435 554 349 554Z"  horiz-adv-x="724" vert-adv-y="1000"  />

      
      <glyph glyph-name="uni0111" unicode="&#x0111;" d="M574 547L484 39Q431 15 385 1Q339-13 273-13Q150-13 89 47.50Q28 108 28 214Q28 339 110.50 419.50Q193 500 317 500Q369 500 417 484L428 547L274 547L296 670L450 670L462 738L608 738L596 670L656 670L634 547L574 547M181 221Q181 172 207.50 145.50Q234 119 285 119Q322 119 355 130L394 353Q359 366 319 366Q246 366 213.50 324.50Q181 283 181 221Z"  horiz-adv-x="579" vert-adv-y="1000"  />

      
      <glyph glyph-name="uni0112" unicode="&#x0112;" d="M277 553L254 423L537 423L512 281L229 281L205 142L530 142L505 0L26 0L148 695L613 695L588 553L277 553M263 752L280 850L529 850L512 752L263 752Z"  horiz-adv-x="579" vert-adv-y="1000"  />

      
      <glyph glyph-name="uni0113" unicode="&#x0113;" d="M496 201L182 201L182 194Q182 153 214 130.50Q246 108 302 108Q379 108 456 138L434 15Q359-14 274-14Q150-14 89.50 48.50Q29 111 29 217Q29 344 103 421.50Q177 499 306 499Q405 499 458.50 447Q512 395 512 310Q512 280 507.50 256Q503 232 496 201M366 296Q370 312 370 322Q370 352 352.50 370Q335 388 300 388Q260 388 233.50 364Q207 340 195 296L366 296M184 568L201 666L450 666L433 568L184 568Z"  horiz-adv-x="529" vert-adv-y="1000"  />

      
      <glyph glyph-name="uni0114" unicode="&#x0114;" d="M277 553L254 423L537 423L512 281L229 281L205 142L530 142L505 0L26 0L148 695L613 695L588 553L277 553M239 858Q239 875 241 884L332 884L332 879Q332 829 395 829Q458 829 473 884L574 884Q562 814 512 779Q462 744 388 744Q315 744 277 775.50Q239 807 239 858Z"  horiz-adv-x="579" vert-adv-y="1000"  />

      
      <glyph glyph-name="uni0115" unicode="&#x0115;" d="M496 201L182 201L182 194Q182 153 214 130.50Q246 108 302 108Q379 108 456 138L434 15Q359-14 274-14Q150-14 89.50 48.50Q29 111 29 217Q29 344 103 421.50Q177 499 306 499Q405 499 458.50 447Q512 395 512 310Q512 280 507.50 256Q503 232 496 201M366 296Q370 312 370 322Q370 352 352.50 370Q335 388 300 388Q260 388 233.50 364Q207 340 195 296L366 296M180 680Q180 687 182 705L248 705L248 698Q248 669 263.50 654.50Q279 640 314 640Q352 640 371.50 656.50Q391 673 397 705L473 705Q459 639 414.50 604.50Q370 570 310 570Q243 570 211.50 600Q180 630 180 680Z"  horiz-adv-x="529" vert-adv-y="1000"  />

      
      <glyph glyph-name="uni0116" unicode="&#x0116;" d="M277 553L254 423L537 423L512 281L229 281L205 142L530 142L505 0L26 0L148 695L613 695L588 553L277 553M312 745L339 897L491 897L464 745L312 745Z"  horiz-adv-x="579" vert-adv-y="1000"  />

      
      <glyph glyph-name="uni0117" unicode="&#x0117;" d="M496 201L182 201L182 194Q182 153 214 130.50Q246 108 302 108Q379 108 456 138L434 15Q359-14 274-14Q150-14 89.50 48.50Q29 111 29 217Q29 344 103 421.50Q177 499 306 499Q405 499 458.50 447Q512 395 512 310Q512 280 507.50 256Q503 232 496 201M366 296Q370 312 370 322Q370 352 352.50 370Q335 388 300 388Q260 388 233.50 364Q207 340 195 296L366 296M236 589L263 741L415 741L388 589L236 589Z"  horiz-adv-x="529" vert-adv-y="1000"  />

      
      <glyph glyph-name="uni0118" unicode="&#x0118;" d="M277 553L254 423L537 423L512 281L229 281L205 142L530 142L505 0L26 0L148 695L613 695L588 553L277 553M437-142Q457-142 484-134L472-205Q437-215 412-215Q366-215 343-196Q320-177 320-141Q320-65 439 0L505 0Q454-38 430.50-64Q407-90 407-115Q407-142 437-142Z"  horiz-adv-x="579" vert-adv-y="1000"  />

      
      <glyph glyph-name="uni0119" unicode="&#x0119;" d="M182 194Q182 153 214 130.50Q246 108 302 108Q379 108 456 138L434 15Q381-28 357-57Q333-86 333-115Q333-142 363-142Q383-142 410-134L398-205Q363-215 338-215Q292-215 269-196Q246-177 246-141Q246-70 328-11Q303-14 274-14Q150-14 89.50 48.50Q29 111 29 217Q29 344 103 421.50Q177 499 306 499Q405 499 458.50 447Q512 395 512 310Q512 280 507.50 256Q503 232 496 201L182 201L182 194M366 296Q370 312 370 322Q370 352 352.50 370Q335 388 300 388Q260 388 233.50 364Q207 340 195 296L366 296Z"  horiz-adv-x="529" vert-adv-y="1000"  />

      
      <glyph glyph-name="uni011A" unicode="&#x011A;" d="M277 553L254 423L537 423L512 281L229 281L205 142L530 142L505 0L26 0L148 695L613 695L588 553L277 553M352 750L253 921L364 921L397 851L458 921L579 921L423 750L352 750Z"  horiz-adv-x="579" vert-adv-y="1000"  />

      
      <glyph glyph-name="uni011B" unicode="&#x011B;" d="M496 201L182 201L182 194Q182 153 214 130.50Q246 108 302 108Q379 108 456 138L434 15Q359-14 274-14Q150-14 89.50 48.50Q29 111 29 217Q29 344 103 421.50Q177 499 306 499Q405 499 458.50 447Q512 395 512 310Q512 280 507.50 256Q503 232 496 201M366 296Q370 312 370 322Q370 352 352.50 370Q335 388 300 388Q260 388 233.50 364Q207 340 195 296L366 296M259 554L153 742L259 742L308 655L387 742L497 742L347 554L259 554Z"  horiz-adv-x="529" vert-adv-y="1000"  />

      
      <glyph glyph-name="uni011C" unicode="&#x011C;" d="M669 524Q629 540 573 553Q517 566 464 566Q341 566 279.50 500Q218 434 218 316Q218 224 265 176.50Q312 129 387 129Q415 129 435.50 132.50Q456 136 479 142L500 262L346 262L368 391L673 391L613 43Q507-12 376-12Q221-12 136.50 76.50Q52 165 52 307Q52 494 162.50 600.50Q273 707 465 707Q588 707 693 665L669 524M494 754L459 823L400 754L276 754L433 925L505 925L603 754L494 754Z"  horiz-adv-x="702" vert-adv-y="1000"  />

      
      <glyph glyph-name="uni011D" unicode="&#x011D;" d="M478 11Q457-110 388-175.50Q319-241 183-241Q84-241-4-209L18-78Q98-107 182-107Q242-107 280.50-85Q319-63 328-16L332 6Q292-11 237-11Q138-11 82.50 49.50Q27 110 27 214Q27 297 66.50 364.50Q106 432 174 466Q242 500 336 500Q399 500 459 486Q519 472 555 450L478 11M279 119Q317 119 353 131L393 353Q363 366 324 366Q254 366 217 327.50Q180 289 180 221Q180 173 206 146Q232 119 279 119M392 554L340 641L264 554L154 554L307 742L395 742L498 554L392 554Z"  horiz-adv-x="577" vert-adv-y="1000"  />

      
      <glyph glyph-name="uni011E" unicode="&#x011E;" d="M669 524Q629 540 573 553Q517 566 464 566Q341 566 279.50 500Q218 434 218 316Q218 224 265 176.50Q312 129 387 129Q415 129 435.50 132.50Q456 136 479 142L500 262L346 262L368 391L673 391L613 43Q507-12 376-12Q221-12 136.50 76.50Q52 165 52 307Q52 494 162.50 600.50Q273 707 465 707Q588 707 693 665L669 524M299 858Q299 875 301 884L392 884L392 879Q392 829 455 829Q518 829 533 884L634 884Q622 814 572 779Q522 744 448 744Q375 744 337 775.50Q299 807 299 858Z"  horiz-adv-x="702" vert-adv-y="1000"  />

      
      <glyph glyph-name="uni011F" unicode="&#x011F;" d="M478 11Q457-110 388-175.50Q319-241 183-241Q84-241-4-209L18-78Q98-107 182-107Q242-107 280.50-85Q319-63 328-16L332 6Q292-11 237-11Q138-11 82.50 49.50Q27 110 27 214Q27 297 66.50 364.50Q106 432 174 466Q242 500 336 500Q399 500 459 486Q519 472 555 450L478 11M279 119Q317 119 353 131L393 353Q363 366 324 366Q254 366 217 327.50Q180 289 180 221Q180 173 206 146Q232 119 279 119M203 680Q203 687 205 705L271 705L271 698Q271 669 286.50 654.50Q302 640 337 640Q375 640 394.50 656.50Q414 673 420 705L496 705Q482 639 437.50 604.50Q393 570 333 570Q266 570 234.50 600Q203 630 203 680Z"  horiz-adv-x="577" vert-adv-y="1000"  />

      
      <glyph glyph-name="uni0120" unicode="&#x0120;" d="M669 524Q629 540 573 553Q517 566 464 566Q341 566 279.50 500Q218 434 218 316Q218 224 265 176.50Q312 129 387 129Q415 129 435.50 132.50Q456 136 479 142L500 262L346 262L368 391L673 391L613 43Q507-12 376-12Q221-12 136.50 76.50Q52 165 52 307Q52 494 162.50 600.50Q273 707 465 707Q588 707 693 665L669 524M372 745L399 897L551 897L524 745L372 745Z"  horiz-adv-x="702" vert-adv-y="1000"  />

      
      <glyph glyph-name="uni0121" unicode="&#x0121;" d="M478 11Q457-110 388-175.50Q319-241 183-241Q84-241-4-209L18-78Q98-107 182-107Q242-107 280.50-85Q319-63 328-16L332 6Q292-11 237-11Q138-11 82.50 49.50Q27 110 27 214Q27 297 66.50 364.50Q106 432 174 466Q242 500 336 500Q399 500 459 486Q519 472 555 450L478 11M279 119Q317 119 353 131L393 353Q363 366 324 366Q254 366 217 327.50Q180 289 180 221Q180 173 206 146Q232 119 279 119M259 589L286 741L438 741L411 589L259 589Z"  horiz-adv-x="577" vert-adv-y="1000"  />

      
      <glyph glyph-name="uni0122" unicode="&#x0122;" d="M669 524Q629 540 573 553Q517 566 464 566Q341 566 279.50 500Q218 434 218 316Q218 224 265 176.50Q312 129 387 129Q415 129 435.50 132.50Q456 136 479 142L500 262L346 262L368 391L673 391L613 43Q507-12 376-12Q221-12 136.50 76.50Q52 165 52 307Q52 494 162.50 600.50Q273 707 465 707Q588 707 693 665L669 524M193-231L308-44L458-44L323-231L193-231Z"  horiz-adv-x="702" vert-adv-y="1000"  />

      
      <glyph glyph-name="uni0123" unicode="&#x0123;" d="M478 11Q457-110 388-175.50Q319-241 183-241Q84-241-4-209L18-78Q98-107 182-107Q242-107 280.50-85Q319-63 328-16L332 6Q292-11 237-11Q138-11 82.50 49.50Q27 110 27 214Q27 297 66.50 364.50Q106 432 174 466Q242 500 336 500Q399 500 459 486Q519 472 555 450L478 11M279 119Q317 119 353 131L393 353Q363 366 324 366Q254 366 217 327.50Q180 289 180 221Q180 173 206 146Q232 119 279 119M239 563L374 750L501 750L386 563L239 563Z"  horiz-adv-x="577" vert-adv-y="1000"  />

      
      <glyph glyph-name="uni0124" unicode="&#x0124;" d="M485 0L534 278L228 278L179 0L26 0L148 695L301 695L252 419L558 419L607 695L761 695L639 0L485 0M508 754L473 823L414 754L290 754L447 925L519 925L617 754L508 754Z"  horiz-adv-x="750" vert-adv-y="1000"  />

      
      <glyph glyph-name="uni0125" unicode="&#x0125;" d="M527 354Q527 328 516 262L470 0L324 0L369 249Q376 289 376 308Q376 339 360.50 352.50Q345 366 307 366Q267 366 223 354L161 0L15 0L145 738L291 738L244 478Q308 500 371 500Q445 500 486 463.50Q527 427 527 354M434 789L399 858L340 789L216 789L373 960L445 960L543 789L434 789Z"  horiz-adv-x="569" vert-adv-y="1000"  />

      
      <glyph glyph-name="uni0126" unicode="&#x0126;" d="M813 598L795 495L726 495L639 0L485 0L532 268L226 268L179 0L26 0L113 495L42 495L60 598L131 598L148 695L301 695L284 598L590 598L607 695L761 695L744 598L813 598M249 402L555 402L572 495L266 495L249 402Z"  horiz-adv-x="750" vert-adv-y="1000"  />

      
      <glyph glyph-name="uni0127" unicode="&#x0127;" d="M516 262L470 0L324 0L369 249Q376 289 376 308Q376 339 360.50 352.50Q345 366 307 366Q267 366 223 354L161 0L15 0L111 547L47 547L69 670L133 670L145 738L291 738L279 670L429 670L407 547L256 547L244 478Q308 500 371 500Q445 500 486 463.50Q527 427 527 354Q527 328 516 262Z"  horiz-adv-x="569" vert-adv-y="1000"  />

      
      <glyph glyph-name="uni0128" unicode="&#x0128;" d="M26 0L148 695L302 695L180 0L26 0M295 827Q309 827 321 842.50Q333 858 339 882L418 882Q399 812 370 777.50Q341 743 296 743Q272 743 253.50 754Q235 765 216.50 784Q198 803 181 803Q165 803 153.50 785.50Q142 768 138 746L61 746Q74 811 103 848Q132 885 185 885Q226 885 253.50 856Q281 827 295 827Z"  horiz-adv-x="291" vert-adv-y="1000"  />

      
      <glyph glyph-name="uni0129" unicode="&#x0129;" d="M16 0L101 487L247 487L162 0L16 0M245 643Q259 643 271 658.50Q283 674 289 698L368 698Q349 628 320 593.50Q291 559 246 559Q222 559 203.50 570Q185 581 166.50 600Q148 619 131 619Q115 619 103.50 601.50Q92 584 88 562L11 562Q24 627 53 664Q82 701 135 701Q177 701 203.50 672Q230 643 245 643Z"  horiz-adv-x="263" vert-adv-y="1000"  />

      
      <glyph glyph-name="uni012A" unicode="&#x012A;" d="M26 0L148 695L302 695L180 0L26 0M107 752L124 850L373 850L356 752L107 752Z"  horiz-adv-x="291" vert-adv-y="1000"  />

      
      <glyph glyph-name="uni012B" unicode="&#x012B;" d="M16 0L101 487L247 487L162 0L16 0M60 568L77 666L326 666L309 568L60 568Z"  horiz-adv-x="263" vert-adv-y="1000"  />

      
      <glyph glyph-name="uni012C" unicode="&#x012C;" d="M26 0L148 695L302 695L180 0L26 0M83 858Q83 875 85 884L176 884L176 879Q176 829 239 829Q302 829 317 884L418 884Q406 814 356 779Q306 744 232 744Q159 744 121 775.50Q83 807 83 858Z"  horiz-adv-x="291" vert-adv-y="1000"  />

      
      <glyph glyph-name="uni012D" unicode="&#x012D;" d="M16 0L101 487L247 487L162 0L16 0M56 680Q56 687 58 705L124 705L124 698Q124 669 139.50 654.50Q155 640 190 640Q228 640 247.50 656.50Q267 673 273 705L349 705Q335 639 290.50 604.50Q246 570 186 570Q119 570 87.50 600Q56 630 56 680Z"  horiz-adv-x="263" vert-adv-y="1000"  />

      
      <glyph glyph-name="uni012E" unicode="&#x012E;" d="M116-142Q136-142 163-134L151-205Q116-215 91-215Q45-215 22-196Q-1-177-1-141Q-1-65 118 0L30 0L152 695L306 695L184 0Q133-38 109.50-64Q86-90 86-115Q86-142 116-142Z"  horiz-adv-x="298" vert-adv-y="1000"  />

      
      <glyph glyph-name="uni012F" unicode="&#x012F;" d="M268 589L116 589L143 741L295 741L268 589M247 487L162 0Q111-38 87.50-64Q64-90 64-115Q64-142 94-142Q114-142 141-134L129-205Q94-215 69-215Q23-215 0-196Q-23-177-23-141Q-23-65 96 0L16 0L101 487L247 487Z"  horiz-adv-x="263" vert-adv-y="1000"  />

      
      <glyph glyph-name="uni0130" unicode="&#x0130;" d="M26 0L148 695L302 695L180 0L26 0M156 745L183 897L335 897L308 745L156 745Z"  horiz-adv-x="291" vert-adv-y="1000"  />

      
      <glyph glyph-name="uni0131" unicode="&#x0131;" d="M16 0L101 487L247 487L162 0L16 0Z"  horiz-adv-x="263" vert-adv-y="1000"  />

      
      <glyph glyph-name="uni0132" unicode="&#x0132;" d="M26 0L148 695L302 695L180 0L26 0M266 18L284 157Q303 148 343 139.50Q383 131 415 131Q493 131 531.50 168Q570 205 585 293L656 695L811 695L736 269Q709 115 633.50 52Q558-11 419-11Q377-11 334-2.50Q291 6 266 18Z"  horiz-adv-x="797" vert-adv-y="1000"  />

      
      <glyph glyph-name="uni0133" unicode="&#x0133;" d="M116 589L143 741L295 741L268 589L116 589M16 0L101 487L247 487L162 0L16 0M377 589L404 741L556 741L529 589L377 589M101-226L123-101L143-106Q159-110 185-110Q257-110 271-31L362 487L508 487L415-47Q399-139 348-189.50Q297-240 201-240Q171-240 143.50-235.50Q116-231 101-226Z"  horiz-adv-x="524" vert-adv-y="1000"  />

      
      <glyph glyph-name="uni0134" unicode="&#x0134;" d="M-25 18L-7 157Q12 148 52 139.50Q92 131 124 131Q202 131 240.50 168Q279 205 294 293L365 695L520 695L445 269Q418 115 342.50 52Q267-11 128-11Q86-11 43-2.50Q0 6-25 18M496 754L461 823L402 754L278 754L435 925L507 925L605 754L496 754Z"  horiz-adv-x="507" vert-adv-y="1000"  />

      
      <glyph glyph-name="uni0135" unicode="&#x0135;" d="M-161-226L-139-101L-119-106Q-103-110-77-110Q-5-110 9-31L100 487L246 487L153-47Q137-139 86-189.50Q35-240-61-240Q-91-240-118.50-235.50Q-146-231-161-226M245 554L193 641L117 554L7 554L160 742L248 742L351 554L245 554Z"  horiz-adv-x="262" vert-adv-y="1000"  />

      
      <glyph glyph-name="uni0136" unicode="&#x0136;" d="M636 0L449 0L243 346L241 346L180 0L26 0L148 695L302 695L243 359L245 359L554 695L765 695L418 343L636 0M145-231L260-44L410-44L275-231L145-231Z"  horiz-adv-x="685" vert-adv-y="1000"  />

      
      <glyph glyph-name="uni0137" unicode="&#x0137;" d="M210 267L419 487L611 487L374 252L518 0L344 0L208 258L206 258L161 0L15 0L145 738L291 738L208 267L210 267M77-231L192-44L342-44L207-231L77-231Z"  horiz-adv-x="569" vert-adv-y="1000"  />

      
      <glyph glyph-name="uni0138" unicode="&#x0138;" d="M518 0L344 0L208 258L206 258L161 0L15 0L101 487L247 487L208 267L210 267L419 487L611 487L374 252L518 0Z"  horiz-adv-x="569" vert-adv-y="1000"  />

      
      <glyph glyph-name="uni0139" unicode="&#x0139;" d="M525 140L501 0L26 0L148 695L302 695L204 140L525 140M163 756L255 893L398 893L272 756L163 756Z"  horiz-adv-x="554" vert-adv-y="1000"  />

      
      <glyph glyph-name="uni013A" unicode="&#x013A;" d="M15 0L145 738L291 738L161 0L15 0M156 799L248 936L391 936L265 799L156 799Z"  horiz-adv-x="262" vert-adv-y="1000"  />

      
      <glyph glyph-name="uni013B" unicode="&#x013B;" d="M525 140L501 0L26 0L148 695L302 695L204 140L525 140M79-231L194-44L344-44L209-231L79-231Z"  horiz-adv-x="554" vert-adv-y="1000"  />

      
      <glyph glyph-name="uni013C" unicode="&#x013C;" d="M15 0L145 738L291 738L161 0L15 0M-67-231L48-44L198-44L63-231L-67-231Z"  horiz-adv-x="262" vert-adv-y="1000"  />

      
      <glyph glyph-name="uni013D" unicode="&#x013D;" d="M525 140L501 0L26 0L148 695L302 695L204 140L525 140M304 521L391 738L520 738L413 521L304 521Z"  horiz-adv-x="554" vert-adv-y="1000"  />

      
      <glyph glyph-name="uni013E" unicode="&#x013E;" d="M15 0L145 738L291 738L161 0L15 0M293 521L380 738L509 738L402 521L293 521Z"  horiz-adv-x="262" vert-adv-y="1000"  />

      
      <glyph glyph-name="uni013F" unicode="&#x013F;" d="M525 140L501 0L26 0L148 695L302 695L204 140L525 140M349 262L376 414L528 414L501 262L349 262Z"  horiz-adv-x="554" vert-adv-y="1000"  />

      
      <glyph glyph-name="uni0140" unicode="&#x0140;" d="M15 0L145 738L291 738L161 0L15 0M268 296L295 448L447 448L420 296L268 296Z"  horiz-adv-x="408" vert-adv-y="1000"  />

      
      <glyph glyph-name="uni0141" unicode="&#x0141;" d="M426 550L400 408L236 325L203 140L524 140L500 0L25 0L67 241L-15 200L10 342L92 383L147 695L301 695L261 467L426 550Z"  horiz-adv-x="553" vert-adv-y="1000"  />

      
      <glyph glyph-name="uni0142" unicode="&#x0142;" d="M235 350L173 0L27 0L74 264L-10 220L15 362L99 406L157 738L303 738L260 492L342 537L317 395L235 350Z"  horiz-adv-x="284" vert-adv-y="1000"  />

      
      <glyph glyph-name="uni0143" unicode="&#x0143;" d="M524 0L252 430L250 430Q248 410 239 355L235 330L177 0L26 0L148 695L271 695L541 263L543 263Q546 293 557 362L616 695L767 695L645 0L524 0M396 756L488 893L631 893L505 756L396 756Z"  horiz-adv-x="756" vert-adv-y="1000"  />

      
      <glyph glyph-name="uni0144" unicode="&#x0144;" d="M517 262L471 0L325 0L370 249Q377 289 377 308Q377 336 358.50 351Q340 366 303 366Q262 366 225 358L162 0L16 0L98 469Q157 483 209 491.50Q261 500 320 500Q527 500 527 350Q527 322 517 262M251 554L360 723L504 723L362 554L251 554Z"  horiz-adv-x="570" vert-adv-y="1000"  />

      
      <glyph glyph-name="uni0145" unicode="&#x0145;" d="M524 0L252 430L250 430Q248 410 239 355L235 330L177 0L26 0L148 695L271 695L541 263L543 263Q546 293 557 362L616 695L767 695L645 0L524 0M181-231L296-44L446-44L311-231L181-231Z"  horiz-adv-x="756" vert-adv-y="1000"  />

      
      <glyph glyph-name="uni0146" unicode="&#x0146;" d="M517 262L471 0L325 0L370 249Q377 289 377 308Q377 336 358.50 351Q340 366 303 366Q262 366 225 358L162 0L16 0L98 469Q157 483 209 491.50Q261 500 320 500Q527 500 527 350Q527 322 517 262M87-231L202-44L352-44L217-231L87-231Z"  horiz-adv-x="570" vert-adv-y="1000"  />

      
      <glyph glyph-name="uni0147" unicode="&#x0147;" d="M524 0L252 430L250 430Q248 410 239 355L235 330L177 0L26 0L148 695L271 695L541 263L543 263Q546 293 557 362L616 695L767 695L645 0L524 0M429 750L330 921L441 921L474 851L535 921L656 921L500 750L429 750Z"  horiz-adv-x="756" vert-adv-y="1000"  />

      
      <glyph glyph-name="uni0148" unicode="&#x0148;" d="M517 262L471 0L325 0L370 249Q377 289 377 308Q377 336 358.50 351Q340 366 303 366Q262 366 225 358L162 0L16 0L98 469Q157 483 209 491.50Q261 500 320 500Q527 500 527 350Q527 322 517 262M270 554L164 742L270 742L319 655L398 742L508 742L358 554L270 554Z"  horiz-adv-x="570" vert-adv-y="1000"  />

      
      <glyph glyph-name="uni0149" unicode="&#x0149;" d="M622 262L576 0L430 0L475 249Q482 289 482 308Q482 336 463.50 351Q445 366 408 366Q367 366 330 358L267 0L121 0L203 469Q262 483 314 491.50Q366 500 425 500Q632 500 632 350Q632 322 622 262M0 415L168 714L315 714L113 415L0 415Z"  horiz-adv-x="675" vert-adv-y="1000"  />

      
      <glyph glyph-name="uni014A" unicode="&#x014A;" d="M203-223L224-87Q247-99 281.50-108Q316-117 356-117Q472-117 494-1L501 36L252 430L250 430Q248 410 239 355L235 330L177 0L26 0L148 695L271 695L541 263L543 263Q546 293 557 362L616 695L767 695L646 9Q622-124 554.50-188.50Q487-253 362-253Q316-253 272-244Q228-235 203-223Z"  horiz-adv-x="755" vert-adv-y="1000"  />

      
      <glyph glyph-name="uni014B" unicode="&#x014B;" d="M517 262L463-47Q447-139 396-189.50Q345-240 249-240Q219-240 191.50-235.50Q164-231 149-226L171-101L191-106Q207-110 233-110Q305-110 319-31L370 249Q377 289 377 308Q377 336 358.50 351Q340 366 303 366Q262 366 225 358L162 0L16 0L98 469Q157 483 209 491.50Q261 500 320 500Q527 500 527 350Q527 322 517 262Z"  horiz-adv-x="570" vert-adv-y="1000"  />

      
      <glyph glyph-name="uni014C" unicode="&#x014C;" d="M380-12Q224-12 138 73.50Q52 159 52 311Q52 398 80.50 477Q109 556 164.50 608.50Q220 661 286 684Q352 707 437 707Q593 707 679 623Q765 539 765 396Q765 275 716.50 180.50Q668 86 583 37Q498-12 380-12M391 133Q493 133 549.50 204.50Q606 276 606 384Q606 466 560 514Q514 562 424 562Q323 562 267.50 493Q212 424 212 315Q212 229 257 181Q302 133 391 133M322 752L339 850L588 850L571 752L322 752Z"  horiz-adv-x="778" vert-adv-y="1000"  />

      
      <glyph glyph-name="uni014D" unicode="&#x014D;" d="M258-14Q153-14 91 49Q29 112 29 223Q29 342 103 421Q177 500 313 500Q415 500 478 438Q541 376 541 274Q541 144 468.50 65Q396-14 258-14M272 121Q335 121 362 164.50Q389 208 389 264Q389 308 366 336.50Q343 365 297 365Q245 365 212.50 328.50Q180 292 180 230Q180 178 205 149.50Q230 121 272 121M194 568L211 666L460 666L443 568L194 568Z"  horiz-adv-x="570" vert-adv-y="1000"  />

      
      <glyph glyph-name="uni014E" unicode="&#x014E;" d="M380-12Q224-12 138 73.50Q52 159 52 311Q52 398 80.50 477Q109 556 164.50 608.50Q220 661 286 684Q352 707 437 707Q593 707 679 623Q765 539 765 396Q765 275 716.50 180.50Q668 86 583 37Q498-12 380-12M391 133Q493 133 549.50 204.50Q606 276 606 384Q606 466 560 514Q514 562 424 562Q323 562 267.50 493Q212 424 212 315Q212 229 257 181Q302 133 391 133M298 858Q298 875 300 884L391 884L391 879Q391 829 454 829Q517 829 532 884L633 884Q621 814 571 779Q521 744 447 744Q374 744 336 775.50Q298 807 298 858Z"  horiz-adv-x="778" vert-adv-y="1000"  />

      
      <glyph glyph-name="uni014F" unicode="&#x014F;" d="M258-14Q153-14 91 49Q29 112 29 223Q29 342 103 421Q177 500 313 500Q415 500 478 438Q541 376 541 274Q541 144 468.50 65Q396-14 258-14M272 121Q335 121 362 164.50Q389 208 389 264Q389 308 366 336.50Q343 365 297 365Q245 365 212.50 328.50Q180 292 180 230Q180 178 205 149.50Q230 121 272 121M190 680Q190 687 192 705L258 705L258 698Q258 669 273.50 654.50Q289 640 324 640Q362 640 381.50 656.50Q401 673 407 705L483 705Q469 639 424.50 604.50Q380 570 320 570Q253 570 221.50 600Q190 630 190 680Z"  horiz-adv-x="570" vert-adv-y="1000"  />

      
      <glyph glyph-name="uni0150" unicode="&#x0150;" d="M380-12Q224-12 138 73.50Q52 159 52 311Q52 398 80.50 477Q109 556 164.50 608.50Q220 661 286 684Q352 707 437 707Q593 707 679 623Q765 539 765 396Q765 275 716.50 180.50Q668 86 583 37Q498-12 380-12M391 133Q493 133 549.50 204.50Q606 276 606 384Q606 466 560 514Q514 562 424 562Q323 562 267.50 493Q212 424 212 315Q212 229 257 181Q302 133 391 133M288 756L393 896L541 896L400 756L288 756M487 756L592 896L740 896L599 756L487 756Z"  horiz-adv-x="778" vert-adv-y="1000"  />

      
      <glyph glyph-name="uni0151" unicode="&#x0151;" d="M258-14Q153-14 91 49Q29 112 29 223Q29 342 103 421Q177 500 313 500Q415 500 478 438Q541 376 541 274Q541 144 468.50 65Q396-14 258-14M272 121Q335 121 362 164.50Q389 208 389 264Q389 308 366 336.50Q343 365 297 365Q245 365 212.50 328.50Q180 292 180 230Q180 178 205 149.50Q230 121 272 121M154 552L287 729L444 729L266 552L154 552M347 552L480 729L637 729L459 552L347 552Z"  horiz-adv-x="570" vert-adv-y="1000"  />

      
      <glyph glyph-name="uni0152" unicode="&#x0152;" d="M619 695L1084 695L1059 553L748 553L725 423L1008 423L983 281L700 281L676 142L1001 142L976 0L497 0L500 18Q437-12 354-12Q214-12 133 74.50Q52 161 52 311Q52 397 80 476.50Q108 556 162.50 608.50Q217 661 282.50 684Q348 707 431 707Q533 707 613 660L619 695M393 133Q468 133 525 164L587 516Q523 562 432 562Q326 562 269 493.50Q212 425 212 315Q212 229 257 181Q302 133 393 133Z"  horiz-adv-x="1050" vert-adv-y="1000"  />

      
      <glyph glyph-name="uni0153" unicode="&#x0153;" d="M843 201L529 201L529 194Q529 153 561 130.50Q593 108 649 108Q726 108 803 138L781 15Q706-14 621-14Q503-14 446 52Q377-14 258-14Q153-14 91 49Q29 112 29 223Q29 339 100 419Q171 499 301 499Q355 499 399 482Q443 465 472 432Q541 499 653 499Q752 499 805.50 447Q859 395 859 310Q859 280 854.50 256Q850 232 843 201M713 296Q717 312 717 322Q717 352 699.50 370Q682 388 647 388Q607 388 580.50 364Q554 340 542 296L713 296M272 121Q335 121 362 164.50Q389 208 389 264Q389 308 366 336.50Q343 365 297 365Q245 365 212.50 328.50Q180 292 180 230Q180 178 205 149.50Q230 121 272 121Z"  horiz-adv-x="876" vert-adv-y="1000"  />

      
      <glyph glyph-name="uni0154" unicode="&#x0154;" d="M463 260L600 0L419 0L310 233L221 233L180 0L26 0L148 695L389 695Q516 695 581.50 641.50Q647 588 647 488Q647 394 595.50 337Q544 280 463 260M245 373L367 373Q423 373 454 399.50Q485 426 485 472Q485 562 376 562L279 562L245 373M323 756L415 893L558 893L432 756L323 756Z"  horiz-adv-x="651" vert-adv-y="1000"  />

      
      <glyph glyph-name="uni0155" unicode="&#x0155;" d="M390 360Q356 369 306 369Q267 369 226 360L163 0L17 0L98 468Q194 500 307 500Q358 500 413 489L390 360M183 554L292 723L436 723L294 554L183 554Z"  horiz-adv-x="377" vert-adv-y="1000"  />

      
      <glyph glyph-name="uni0156" unicode="&#x0156;" d="M463 260L600 0L419 0L310 233L221 233L180 0L26 0L148 695L389 695Q516 695 581.50 641.50Q647 588 647 488Q647 394 595.50 337Q544 280 463 260M245 373L367 373Q423 373 454 399.50Q485 426 485 472Q485 562 376 562L279 562L245 373M127-231L242-44L392-44L257-231L127-231Z"  horiz-adv-x="651" vert-adv-y="1000"  />

      
      <glyph glyph-name="uni0157" unicode="&#x0157;" d="M390 360Q356 369 306 369Q267 369 226 360L163 0L17 0L98 468Q194 500 307 500Q358 500 413 489L390 360M-65-231L50-44L200-44L65-231L-65-231Z"  horiz-adv-x="377" vert-adv-y="1000"  />

      
      <glyph glyph-name="uni0158" unicode="&#x0158;" d="M463 260L600 0L419 0L310 233L221 233L180 0L26 0L148 695L389 695Q516 695 581.50 641.50Q647 588 647 488Q647 394 595.50 337Q544 280 463 260M245 373L367 373Q423 373 454 399.50Q485 426 485 472Q485 562 376 562L279 562L245 373M356 750L257 921L368 921L401 851L462 921L583 921L427 750L356 750Z"  horiz-adv-x="651" vert-adv-y="1000"  />

      
      <glyph glyph-name="uni0159" unicode="&#x0159;" d="M390 360Q356 369 306 369Q267 369 226 360L163 0L17 0L98 468Q194 500 307 500Q358 500 413 489L390 360M202 554L96 742L202 742L251 655L330 742L440 742L290 554L202 554Z"  horiz-adv-x="377" vert-adv-y="1000"  />

      
      <glyph glyph-name="uni015A" unicode="&#x015A;" d="M556 530Q454 566 363 566Q247 566 247 491Q247 450 294.50 429.50Q342 409 404.50 384Q467 359 503 318.50Q539 278 539 210Q539 110 466 49Q393-12 260-12Q184-12 120 2Q56 16 17 35L40 177Q76 157 133.50 141Q191 125 248 125Q311 125 344 142.50Q377 160 377 199Q377 226 353 242.50Q329 259 266.50 282Q204 305 162 333.50Q120 362 103.50 398.50Q87 435 87 484Q87 584 162 645.50Q237 707 374 707Q436 707 494 695.50Q552 684 582 672L556 530M295 756L387 893L530 893L404 756L295 756Z"  horiz-adv-x="575" vert-adv-y="1000"  />

      
      <glyph glyph-name="uni015B" unicode="&#x015B;" d="M419 364Q344 389 272 389Q238 389 218 378.50Q198 368 198 347Q198 326 231 315Q264 304 311 285.50Q358 267 384.50 238Q411 209 411 157Q411 82 358 34.50Q305-13 183-13Q133-13 85-4.50Q37 4 5 14L22 131Q104 100 176 100Q263 100 263 143Q263 166 225 179Q187 192 144.50 209Q102 226 78.50 257Q55 288 55 340Q55 415 112.50 460Q170 505 274 505Q323 505 366.50 498.50Q410 492 439 482L419 364M204 554L313 723L457 723L315 554L204 554Z"  horiz-adv-x="457" vert-adv-y="1000"  />

      
      <glyph glyph-name="uni015C" unicode="&#x015C;" d="M556 530Q454 566 363 566Q247 566 247 491Q247 450 294.50 429.50Q342 409 404.50 384Q467 359 503 318.50Q539 278 539 210Q539 110 466 49Q393-12 260-12Q184-12 120 2Q56 16 17 35L40 177Q76 157 133.50 141Q191 125 248 125Q311 125 344 142.50Q377 160 377 199Q377 226 353 242.50Q329 259 266.50 282Q204 305 162 333.50Q120 362 103.50 398.50Q87 435 87 484Q87 584 162 645.50Q237 707 374 707Q436 707 494 695.50Q552 684 582 672L556 530M410 754L375 823L316 754L192 754L349 925L421 925L519 754L410 754Z"  horiz-adv-x="575" vert-adv-y="1000"  />

      
      <glyph glyph-name="uni015D" unicode="&#x015D;" d="M419 364Q344 389 272 389Q238 389 218 378.50Q198 368 198 347Q198 326 231 315Q264 304 311 285.50Q358 267 384.50 238Q411 209 411 157Q411 82 358 34.50Q305-13 183-13Q133-13 85-4.50Q37 4 5 14L22 131Q104 100 176 100Q263 100 263 143Q263 166 225 179Q187 192 144.50 209Q102 226 78.50 257Q55 288 55 340Q55 415 112.50 460Q170 505 274 505Q323 505 366.50 498.50Q410 492 439 482L419 364M333 554L281 641L205 554L95 554L248 742L336 742L439 554L333 554Z"  horiz-adv-x="457" vert-adv-y="1000"  />

      
      </font>
</defs>
</svg>
