<?xml version="1.0" standalone="no"?>
  <!DOCTYPE svg PUBLIC "-//W3C//DTD SVG 1.1//EN" "http://www.w3.org/Graphics/SVG/1.1/DTD/svg11.dtd" >
  <svg>
  <metadata>
  Created by font-carrier
  </metadata>
  <defs>
  <font id="EMprint-Light" horiz-adv-x="1207" vert-adv-y="1207" >
    <font-face
      
      font-family="EMprint-Light"
      
      font-weight="400"
      
      font-stretch="normal"
      
      units-per-em="1000"
      
      ascent="960"
      
      descent="-267"
      
    />
      <missing-glyph />

      

      
      <glyph glyph-name="uni21" unicode="&#x21;" d="M106 184L104 695L147 695L144 184L106 184M156 0L89 0L89 67L156 67L156 0Z"  horiz-adv-x="245" vert-adv-y="1000"  />

      
      <glyph glyph-name="uni22" unicode="&#x22;" d="M80 428L74 714L120 714L114 428L80 428M220 428L214 714L260 714L254 428L220 428Z"  horiz-adv-x="334" vert-adv-y="1000"  />

      
      <glyph glyph-name="uni23" unicode="&#x23;" d="M415 439L383 256L495 256L495 218L377 218L338 0L302 0L341 218L216 218L177 0L141 0L181 218L49 218L49 256L187 256L219 439L85 439L85 477L226 477L264 695L300 695L262 477L386 477L424 695L460 695L422 477L530 477L530 439L415 439M348 256L379 439L255 439L223 256L348 256Z"  horiz-adv-x="540" vert-adv-y="1000"  />

      
      <glyph glyph-name="uni24" unicode="&#x24;" d="M72 108Q105 84 155.50 67Q206 50 260 49L260 334Q147 368 111 407.50Q75 447 75 511Q75 581 125.50 629Q176 677 260 684L260 788L300 788L300 685Q382 683 460 653L460 607Q431 621 389.50 632.50Q348 644 300 646L300 366Q368 344 406 325Q444 306 466.50 275Q489 244 489 194Q489 126 442 73.50Q395 21 300 12L300-96L260-96L260 11Q202 11 151.50 25.50Q101 40 72 60L72 108M260 645Q192 638 153.50 602Q115 566 115 513Q115 462 149.50 431.50Q184 401 260 378L260 645M300 50Q369 57 408 95Q447 133 447 188Q447 233 421.50 261.50Q396 290 300 321L300 50Z"  horiz-adv-x="546" vert-adv-y="1000"  />

      
      <glyph glyph-name="uni25" unicode="&#x25;" d="M354 522Q354 437 309.50 387.50Q265 338 192 338Q120 338 75 387.50Q30 437 30 522Q30 606 75.50 655.50Q121 705 192 705Q265 705 309.50 656Q354 607 354 522M117 0L623 695L670 695L164 0L117 0M316 522Q316 589 282.50 629.50Q249 670 192 670Q134 670 101 631.50Q68 593 68 522Q68 451 102 412Q136 373 192 373Q249 373 282.50 411.50Q316 450 316 522M757 172Q757 87 712.50 37.50Q668-12 595-12Q523-12 478 37.50Q433 87 433 172Q433 256 478.50 305.50Q524 355 595 355Q668 355 712.50 306Q757 257 757 172M719 172Q719 239 685.50 279.50Q652 320 595 320Q537 320 504 281.50Q471 243 471 172Q471 101 505 62Q539 23 595 23Q652 23 685.50 61.50Q719 100 719 172Z"  horiz-adv-x="787" vert-adv-y="1000"  />

      
      <glyph glyph-name="uni26" unicode="&#x26;" d="M285 377L464 172Q485 201 523 268.50Q561 336 574 360L623 360L562 255Q516 176 492 141L622 0L563 0L469 105Q418 43 363 14Q308-15 246-15Q149-15 92 36Q35 87 35 173Q35 247 81 298.50Q127 350 223 391Q180 442 158.50 479.50Q137 517 137 563Q137 628 181 671Q225 714 293 714Q357 714 401 675.50Q445 637 445 569Q445 504 404.50 457.50Q364 411 285 377M261 406Q336 440 371.50 477Q407 514 407 567Q407 613 375 643.50Q343 674 293 674Q239 674 208.50 642.50Q178 611 178 566Q178 534 189 508Q200 482 214 463.50Q228 445 261 406M245 24Q299 24 349.50 54Q400 84 439 137L247 361Q154 325 114.50 279.50Q75 234 75 172Q75 105 123 64.50Q171 24 245 24Z"  horiz-adv-x="639" vert-adv-y="1000"  />

      
      <glyph glyph-name="uni27" unicode="&#x27;" d="M80 428L74 714L120 714L114 428L80 428Z"  horiz-adv-x="194" vert-adv-y="1000"  />

      
      <glyph glyph-name="uni28" unicode="&#x28;" d="M213 770L259 770Q184 672 140 553Q96 434 96 305Q96 173 140 56Q184-61 259-160L213-160Q139-67 98 53Q57 173 57 305Q57 435 98 554.50Q139 674 213 770Z"  horiz-adv-x="293" vert-adv-y="1000"  />

      
      <glyph glyph-name="uni29" unicode="&#x29;" d="M80-160L34-160Q109-62 153 57Q197 176 197 305Q197 437 153 554Q109 671 34 770L80 770Q154 677 195 557Q236 437 236 305Q236 175 195 55.50Q154-64 80-160Z"  horiz-adv-x="293" vert-adv-y="1000"  />

      
      <glyph glyph-name="uni2a" unicode="&#x2a;" d="M356 606L370 569L218 524L316 397L283 375L192 506L104 372L68 397L169 525L14 569L27 610L179 555L173 714L214 714L208 555L356 606Z"  horiz-adv-x="385" vert-adv-y="1000"  />

      
      <glyph glyph-name="uni2b" unicode="&#x2b;" d="M506 283L293 283L293 70L253 70L253 283L40 283L40 323L253 323L253 536L293 536L293 323L506 323L506 283Z"  horiz-adv-x="546" vert-adv-y="1000"  />

      
      <glyph glyph-name="uni2c" unicode="&#x2c;" d="M63-174L23-174L113 67L164 67L63-174Z"  horiz-adv-x="231" vert-adv-y="1000"  />

      
      <glyph glyph-name="uni2d" unicode="&#x2d;" d="M353 277L353 234L49 234L49 277L353 277Z"  horiz-adv-x="402" vert-adv-y="1000"  />

      
      <glyph glyph-name="uni2e" unicode="&#x2e;" d="M149 0L82 0L82 67L149 67L149 0Z"  horiz-adv-x="231" vert-adv-y="1000"  />

      
      <glyph glyph-name="uni2f" unicode="&#x2f;" d="M3-49L345 750L387 750L45-49L3-49Z"  horiz-adv-x="389" vert-adv-y="1000"  />

      
      <glyph glyph-name="uni30" unicode="&#x30;" d="M508 351Q508 196 450.50 92Q393-12 272-12Q160-12 98.50 82Q37 176 37 353Q37 525 100 616Q163 707 274 707Q390 707 449 614.50Q508 522 508 351M83 354Q83 188 135 109.50Q187 31 273 31Q367 31 415 118.50Q463 206 463 349Q463 664 272 664Q181 664 132 584.50Q83 505 83 354Z"  horiz-adv-x="546" vert-adv-y="1000"  />

      
      <glyph glyph-name="uni31" unicode="&#x31;" d="M93 611L291 713L317 713L317 0L274 0L274 657L93 564L93 611Z"  horiz-adv-x="546" vert-adv-y="1000"  />

      
      <glyph glyph-name="uni32" unicode="&#x32;" d="M467 523Q467 456 433 396.50Q399 337 300 238L110 45L485 45L485 0L55 0L55 48L274 274Q372 375 396.50 421.50Q421 468 421 520Q421 580 382.50 622.50Q344 665 265 665Q169 665 68 586L68 636Q111 667 157 687Q203 707 270 707Q368 707 417.50 656Q467 605 467 523Z"  horiz-adv-x="546" vert-adv-y="1000"  />

      
      <glyph glyph-name="uni33" unicode="&#x33;" d="M55 22L55 75Q83 56 133.50 43Q184 30 232 30Q325 30 372.50 73.50Q420 117 420 188Q420 327 212 327L137 327L137 372L207 372Q295 372 350 415.50Q405 459 405 529Q405 591 363 628Q321 665 237 665Q194 665 149 650Q104 635 72 615L72 664Q103 681 149.50 694Q196 707 240 707Q350 707 400.50 657.50Q451 608 451 530Q451 466 407.50 418.50Q364 371 305 356L305 354Q466 324 466 190Q466 101 403.50 44.50Q341-12 229-12Q180-12 133-2Q86 8 55 22Z"  horiz-adv-x="546" vert-adv-y="1000"  />

      
      <glyph glyph-name="uni34" unicode="&#x34;" d="M363 0L363 169L15 169L15 207L370 695L404 695L404 210L515 210L515 169L404 169L404 0L363 0M68 210L363 210L363 621L360 621Q350 602 317 554L68 210Z"  horiz-adv-x="546" vert-adv-y="1000"  />

      
      <glyph glyph-name="uni35" unicode="&#x35;" d="M434 204Q434 282 386 328.50Q338 375 247 375Q160 375 88 351L111 695L452 695L452 655L148 655L131 402Q154 408 187.50 412Q221 416 252 416Q362 416 421 358Q480 300 480 208Q480 112 416.50 50Q353-12 237-12Q144-12 69 31L69 81Q99 60 143.50 44.50Q188 29 240 29Q338 29 386 79.50Q434 130 434 204Z"  horiz-adv-x="546" vert-adv-y="1000"  />

      
      <glyph glyph-name="uni36" unicode="&#x36;" d="M299 695L349 695L161 389L162 388Q184 405 218 415.50Q252 426 289 426Q389 426 445 365.50Q501 305 501 208Q501 118 438.50 53Q376-12 270-12Q175-12 114 50Q53 112 53 207Q53 251 68.50 295Q84 339 114 388L299 695M455 208Q455 288 409.50 336.50Q364 385 283 385Q197 385 147.50 334.50Q98 284 98 206Q98 129 147 79Q196 29 273 29Q357 29 406 80.50Q455 132 455 208Z"  horiz-adv-x="546" vert-adv-y="1000"  />

      
      <glyph glyph-name="uni37" unicode="&#x37;" d="M135 0L449 655L24 655L24 695L495 695L495 658L181 0L135 0Z"  horiz-adv-x="546" vert-adv-y="1000"  />

      
      <glyph glyph-name="uni38" unicode="&#x38;" d="M45 179Q45 248 81 293Q117 338 182 358L182 361Q132 375 99.50 421.50Q67 468 67 522Q67 605 124.50 656Q182 707 275 707Q368 707 423 658Q478 609 478 524Q478 471 446 425Q414 379 363 362L363 359Q499 319 499 183Q499 92 436 40Q373-12 269-12Q165-12 105 38Q45 88 45 179M432 524Q432 590 389.50 628Q347 666 275 666Q201 666 157 628Q113 590 113 524Q113 459 157.50 419.50Q202 380 272 380Q345 380 388.50 419.50Q432 459 432 524M453 182Q453 254 403.50 295Q354 336 271 336Q189 336 140 296Q91 256 91 182Q91 110 139.50 69.50Q188 29 272 29Q355 29 404 69.50Q453 110 453 182Z"  horiz-adv-x="546" vert-adv-y="1000"  />

      
      <glyph glyph-name="uni39" unicode="&#x39;" d="M247 0L195 0L384 307L383 308Q360 291 326.50 280Q293 269 257 269Q160 269 102.50 329.50Q45 390 45 487Q45 581 108.50 644Q172 707 272 707Q369 707 431 646.50Q493 586 493 490Q493 408 432 307L247 0M91 487Q91 409 137 359.50Q183 310 263 310Q348 310 398 361Q448 412 448 492Q448 569 399 617.50Q350 666 269 666Q187 666 139 615Q91 564 91 487Z"  horiz-adv-x="546" vert-adv-y="1000"  />

      
      <glyph glyph-name="uni3a" unicode="&#x3a;" d="M149 0L82 0L82 67L149 67L149 0M149 406L82 406L82 473L149 473L149 406Z"  horiz-adv-x="231" vert-adv-y="1000"  />

      
      <glyph glyph-name="uni3b" unicode="&#x3b;" d="M149 406L82 406L82 473L149 473L149 406M63-174L23-174L113 67L164 67L63-174Z"  horiz-adv-x="231" vert-adv-y="1000"  />

      
      <glyph glyph-name="uni3c" unicode="&#x3c;" d="M90 284L506 73L506 31L40 265L40 303L506 537L506 495L90 284Z"  horiz-adv-x="546" vert-adv-y="1000"  />

      
      <glyph glyph-name="uni3d" unicode="&#x3d;" d="M506 423L506 383L40 383L40 423L506 423M506 223L506 183L40 183L40 223L506 223Z"  horiz-adv-x="546" vert-adv-y="1000"  />

      
      <glyph glyph-name="uni3e" unicode="&#x3e;" d="M456 284L40 495L40 537L506 303L506 265L40 31L40 73L456 284Z"  horiz-adv-x="546" vert-adv-y="1000"  />

      
      <glyph glyph-name="uni3f" unicode="&#x3f;" d="M213 666Q165 666 126.50 653.50Q88 641 53 622L53 666Q127 707 216 707Q308 707 357 657.50Q406 608 406 530Q406 454 361 395.50Q316 337 220 275L220 184L176 184L176 295Q298 376 329.50 423.50Q361 471 361 526Q361 590 322 628Q283 666 213 666M232 0L165 0L165 67L232 67L232 0Z"  horiz-adv-x="447" vert-adv-y="1000"  />

      
      <glyph glyph-name="uni40" unicode="&#x40;" d="M639 123Q581 123 556 168Q536 151 500.50 136.50Q465 122 424 122Q337 122 282 172.50Q227 223 227 323Q227 416 284 477Q341 538 440 538Q522 538 583 499L583 230Q583 201 599 182.50Q615 164 640 164Q696 164 733 216Q770 268 770 362Q770 509 682.50 592.50Q595 676 439 676Q285 676 186 577.50Q87 479 87 329Q87 178 185 81Q283-16 435-16Q573-16 664 39L664-4Q561-54 430-54Q260-54 152.50 54.50Q45 163 45 332Q45 497 158.50 606Q272 715 441 715Q618 715 714 621Q810 527 810 359Q810 251 758.50 187Q707 123 639 123M422 161Q459 161 490 174Q521 187 542 214L542 473Q493 499 437 499Q353 499 311.50 446.50Q270 394 270 322Q270 238 312.50 199.50Q355 161 422 161Z"  horiz-adv-x="856" vert-adv-y="1000"  />

      
      <glyph glyph-name="uni41" unicode="&#x41;" d="M592 0L493 230L146 230L46 0L-2 0L302 695L343 695L642 0L592 0M164 274L475 274L322 639L320 639L164 274Z"  horiz-adv-x="640" vert-adv-y="1000"  />

      
      <glyph glyph-name="uni42" unicode="&#x42;" d="M398 363L398 361Q563 339 563 198Q563 109 493.50 54.50Q424 0 288 0L86 0L86 695L298 695Q423 695 478 651Q533 607 533 523Q533 460 495 418Q457 376 398 363M130 382L287 382Q385 382 435 418.50Q485 455 485 521Q485 587 440 619.50Q395 652 293 652L130 652L130 382M130 43L287 43Q398 43 456.50 82.50Q515 122 515 196Q515 268 460.50 303.50Q406 339 285 339L130 339L130 43Z"  horiz-adv-x="607" vert-adv-y="1000"  />

      
      <glyph glyph-name="uni43" unicode="&#x43;" d="M602 618Q516 662 402 662Q265 662 185 576Q105 490 105 351Q105 208 188 120.50Q271 33 404 33Q474 33 523 47Q572 61 618 86L618 36Q579 15 528 1.50Q477-12 397-12Q249-12 153 87.50Q57 187 57 348Q57 512 152.50 609.50Q248 707 408 707Q516 707 602 670L602 618Z"  horiz-adv-x="656" vert-adv-y="1000"  />

      
      <glyph glyph-name="uni44" unicode="&#x44;" d="M291 0L86 0L86 695L278 695Q467 695 563.50 607Q660 519 660 356Q660 196 558 98Q456 0 291 0M131 44L290 44Q438 44 525 126.50Q612 209 612 351Q612 496 527 572.50Q442 649 278 651L131 651L131 44Z"  horiz-adv-x="717" vert-adv-y="1000"  />

      
      <glyph glyph-name="uni45" unicode="&#x45;" d="M130 652L130 375L464 375L464 332L130 332L130 43L514 43L514 0L86 0L86 695L497 695L497 652L130 652Z"  horiz-adv-x="555" vert-adv-y="1000"  />

      
      <glyph glyph-name="uni46" unicode="&#x46;" d="M130 652L130 351L482 351L482 308L130 308L130 0L86 0L86 695L500 695L500 652L130 652Z"  horiz-adv-x="524" vert-adv-y="1000"  />

      
      <glyph glyph-name="uni47" unicode="&#x47;" d="M623 614Q589 632 532.50 647Q476 662 415 662Q274 662 189.50 574.50Q105 487 105 349Q105 207 187.50 120Q270 33 402 33Q509 33 596 80L596 309L396 309L396 352L640 352L640 57Q536-12 395-12Q248-12 152.50 87Q57 186 57 346Q57 507 156 607Q255 707 419 707Q481 707 533 695.50Q585 684 623 667L623 614Z"  horiz-adv-x="709" vert-adv-y="1000"  />

      
      <glyph glyph-name="uni48" unicode="&#x48;" d="M576 0L576 340L130 340L130 0L86 0L86 695L130 695L130 383L576 383L576 695L620 695L620 0L576 0Z"  horiz-adv-x="706" vert-adv-y="1000"  />

      
      <glyph glyph-name="uni49" unicode="&#x49;" d="M86 0L86 695L130 695L130 0L86 0Z"  horiz-adv-x="216" vert-adv-y="1000"  />

      
      <glyph glyph-name="uni4a" unicode="&#x4a;" d="M11 24L11 71Q36 56 81 43Q126 30 177 30Q277 30 318.50 85.50Q360 141 360 240L360 695L404 695L404 239Q404 124 347.50 56Q291-12 177-12Q123-12 80-1Q37 10 11 24Z"  horiz-adv-x="485" vert-adv-y="1000"  />

      
      <glyph glyph-name="uni4b" unicode="&#x4b;" d="M565 0L495 0L131 347L130 347L130 0L86 0L86 695L130 695L130 352L131 352L489 695L556 695L192 351L565 0Z"  horiz-adv-x="574" vert-adv-y="1000"  />

      
      <glyph glyph-name="uni4c" unicode="&#x4c;" d="M510 43L510 0L86 0L86 695L130 695L130 43L510 43Z"  horiz-adv-x="515" vert-adv-y="1000"  />

      
      <glyph glyph-name="uni4d" unicode="&#x4d;" d="M724 0L724 596L722 596L441 37L411 37L129 596L127 596L127 0L86 0L86 695L126 695L424 100L426 100L728 695L765 695L765 0L724 0Z"  horiz-adv-x="851" vert-adv-y="1000"  />

      
      <glyph glyph-name="uni4e" unicode="&#x4e;" d="M624 0L129 611L127 611Q127 550 128 427L128 0L86 0L86 695L118 695L611 81L615 81Q615 120 614 211L614 695L656 695L656 0L624 0Z"  horiz-adv-x="743" vert-adv-y="1000"  />

      
      <glyph glyph-name="uni4f" unicode="&#x4f;" d="M405-12Q244-12 150.50 89Q57 190 57 347Q57 503 155 605Q253 707 405 707Q567 707 660 607.50Q753 508 753 347Q753 193 654.50 90.50Q556-12 405-12M404 33Q537 33 621 121Q705 209 705 347Q705 490 624.50 576Q544 662 404 662Q272 662 188.50 574.50Q105 487 105 347Q105 206 188 119.50Q271 33 404 33Z"  horiz-adv-x="810" vert-adv-y="1000"  />

      
      <glyph glyph-name="uni50" unicode="&#x50;" d="M282 259L130 259L130 0L86 0L86 695L288 695Q423 695 486 641Q549 587 549 489Q549 382 481 320.50Q413 259 282 259M130 302L279 302Q390 302 445.50 349.50Q501 397 501 486Q501 652 285 652L130 652L130 302Z"  horiz-adv-x="582" vert-adv-y="1000"  />

      
      <glyph glyph-name="uni51" unicode="&#x51;" d="M740-85L708-112L588 37Q506-12 405-12Q244-12 150.50 89Q57 190 57 347Q57 503 155 605Q253 707 405 707Q567 707 660 607.50Q753 508 753 347Q753 259 718.50 184.50Q684 110 622 61L740-85M453 203L486 230L594 96Q647 138 676 202.50Q705 267 705 347Q705 490 624.50 576Q544 662 404 662Q272 662 188.50 574.50Q105 487 105 347Q105 206 188 119.50Q271 33 404 33Q490 33 559 72L453 203Z"  horiz-adv-x="810" vert-adv-y="1000"  />

      
      <glyph glyph-name="uni52" unicode="&#x52;" d="M364 294L582 0L526 0L311 290L130 290L130 0L86 0L86 695L307 695Q435 695 492 643.50Q549 592 549 496Q549 416 501 362.50Q453 309 364 294M130 333L314 333Q413 333 457 380Q501 427 501 495Q501 572 453.50 611.50Q406 651 299 651L130 651L130 333Z"  horiz-adv-x="609" vert-adv-y="1000"  />

      
      <glyph glyph-name="uni53" unicode="&#x53;" d="M475 620Q429 640 388.50 651Q348 662 290 662Q202 662 152.50 624Q103 586 103 524Q103 465 146 432.50Q189 400 304 368.50Q419 337 464.50 295Q510 253 510 183Q510 99 446 43.50Q382-12 265-12Q133-12 54 40L54 94Q146 33 270 33Q362 33 412.50 73Q463 113 463 177Q463 235 425 266.50Q387 298 269.50 329.50Q152 361 104 403.50Q56 446 56 522Q56 602 122.50 654.50Q189 707 293 707Q386 707 475 672L475 620Z"  horiz-adv-x="562" vert-adv-y="1000"  />

      
      <glyph glyph-name="uni54" unicode="&#x54;" d="M290 652L290 0L246 0L246 652L3 652L3 695L533 695L533 652L290 652Z"  horiz-adv-x="536" vert-adv-y="1000"  />

      
      <glyph glyph-name="uni55" unicode="&#x55;" d="M81 229L81 695L125 695L125 236Q125 129 179 81Q233 33 355 33Q411 33 467 42.50Q523 52 561 64L561 695L605 695L605 32Q477-12 358-12Q217-12 149 45.50Q81 103 81 229Z"  horiz-adv-x="691" vert-adv-y="1000"  />

      
      <glyph glyph-name="uni56" unicode="&#x56;" d="M285-6L6 695L55 695L305 56L307 56L574 695L621 695L327-6L285-6Z"  horiz-adv-x="627" vert-adv-y="1000"  />

      
      <glyph glyph-name="uni57" unicode="&#x57;" d="M695-6L545 463Q511 566 494 627L492 627L468 554L443 483L434 459L267-6L234-6L20 695L66 695L223 173Q240 119 252 73L254 73Q273 133 290 178L477 695L514 695L680 177L690 147Q708 93 714 68L716 68Q732 121 750 174L921 695L966 695L734-6L695-6Z"  horiz-adv-x="986" vert-adv-y="1000"  />

      
      <glyph glyph-name="uni58" unicode="&#x58;" d="M572 0L515 0L289 310L64 0L9 0L261 344L11 695L68 695L291 377L519 695L574 695L320 344L572 0Z"  horiz-adv-x="582" vert-adv-y="1000"  />

      
      <glyph glyph-name="uni59" unicode="&#x59;" d="M285 0L241 0L241 269L-20 695L32 695L263 315L498 695L550 695L285 269L285 0Z"  horiz-adv-x="530" vert-adv-y="1000"  />

      
      <glyph glyph-name="uni5a" unicode="&#x5a;" d="M84 43L593 43L593 0L26 0L26 37L517 652L52 652L52 695L578 695L578 661L84 43Z"  horiz-adv-x="615" vert-adv-y="1000"  />

      
      <glyph glyph-name="uni5b" unicode="&#x5b;" d="M101-124L234-124L234-160L62-160L62 770L234 770L234 734L101 734L101-124Z"  horiz-adv-x="293" vert-adv-y="1000"  />

      
      <glyph glyph-name="uni5c" unicode="&#x5c;" d="M14 750L356-49L314-49L-28 750L14 750Z"  horiz-adv-x="331" vert-adv-y="1000"  />

      
      <glyph glyph-name="uni5d" unicode="&#x5d;" d="M192 734L59 734L59 770L231 770L231-160L59-160L59-124L192-124L192 734Z"  horiz-adv-x="293" vert-adv-y="1000"  />

      
      <glyph glyph-name="uni5e" unicode="&#x5e;" d="M272 653L69 300L23 300L258 706L288 706L523 300L477 300L274 653L272 653Z"  horiz-adv-x="546" vert-adv-y="1000"  />

      
      <glyph glyph-name="uni5f" unicode="&#x5f;" d="M511-180L-14-180L-14-145L511-145L511-180Z"  horiz-adv-x="497" vert-adv-y="1000"  />

      
      <glyph glyph-name="uni60" unicode="&#x60;" d="M123 560L10 707L66 707L170 560L123 560Z"  horiz-adv-x="180" vert-adv-y="1000"  />

      
      <glyph glyph-name="uni61" unicode="&#x61;" d="M430 24Q397 9 347.50-2Q298-13 238-13Q147-13 98.50 23Q50 59 50 133Q50 203 100.50 244Q151 285 258 285Q326 285 389 272L389 296Q389 378 354 410Q319 442 246 442Q175 442 86 401L86 445Q115 460 160.50 472.50Q206 485 249 485Q346 485 388 440.50Q430 396 430 303L430 24M243 29Q312 29 389 53L389 230L367 233Q302 242 254 242Q175 242 134.50 212.50Q94 183 94 136Q94 29 243 29Z"  horiz-adv-x="504" vert-adv-y="1000"  />

      
      <glyph glyph-name="uni62" unicode="&#x62;" d="M508 244Q508 124 437 55Q366-14 250-14Q149-14 79 16L79 738L122 738L122 438Q154 460 193 472.50Q232 485 285 485Q385 485 446.50 417.50Q508 350 508 244M122 49Q145 39 179 33.50Q213 28 247 28Q349 28 405.50 84.50Q462 141 462 243Q462 330 414 386.50Q366 443 278 443Q234 443 194 429Q154 415 122 394L122 49Z"  horiz-adv-x="554" vert-adv-y="1000"  />

      
      <glyph glyph-name="uni63" unicode="&#x63;" d="M430 408Q404 423 367 433Q330 443 289 443Q199 443 145.50 388.50Q92 334 92 238Q92 146 146 87Q200 28 290 28Q338 28 378 38.50Q418 49 442 62L442 17Q415 4 376-5Q337-14 291-14Q181-14 113.50 54.50Q46 123 46 234Q46 347 114 416Q182 485 294 485Q372 485 430 457L430 408Z"  horiz-adv-x="476" vert-adv-y="1000"  />

      
      <glyph glyph-name="uni64" unicode="&#x64;" d="M46 227Q46 344 114 414.50Q182 485 300 485Q340 485 371.50 478Q403 471 432 460L432 738L475 738L475 28Q391-14 290-14Q176-14 111 50.50Q46 115 46 227M293 28Q331 28 368 35Q405 42 432 54L432 414Q361 443 298 443Q203 443 147.50 385.50Q92 328 92 230Q92 141 141.50 84.50Q191 28 293 28Z"  horiz-adv-x="554" vert-adv-y="1000"  />

      
      <glyph glyph-name="uni65" unicode="&#x65;" d="M472 226L91 226L91 221Q91 138 142 83Q193 28 281 28Q328 28 371 42Q414 56 442 75L442 29Q366-14 273-14Q170-14 108 50Q46 114 46 227Q46 343 108.50 414Q171 485 275 485Q375 485 424.50 421.50Q474 358 474 258L472 226M429 268Q429 346 389.50 394.50Q350 443 272 443Q197 443 149 395.50Q101 348 93 268L429 268Z"  horiz-adv-x="511" vert-adv-y="1000"  />

      
      <glyph glyph-name="uni66" unicode="&#x66;" d="M343 696Q306 706 274 706Q150 706 150 563L150 473L306 473L306 433L150 433L150 0L107 0L107 433L28 433L28 473L107 473L107 566Q107 649 151.50 697.50Q196 746 275 746Q312 746 343 737L343 696Z"  horiz-adv-x="289" vert-adv-y="1000"  />

      
      <glyph glyph-name="uni67" unicode="&#x67;" d="M474-3Q474-115 416-182Q358-249 236-249Q184-249 147-240Q110-231 70-217L70-168Q153-207 238-207Q333-207 382-158.50Q431-110 431-5L431 28Q400 10 360-2Q320-14 275-14Q173-14 109.50 52.50Q46 119 46 228Q46 342 115.50 413.50Q185 485 303 485Q354 485 393.50 476.50Q433 468 474 453L474-3M280 28Q321 28 361 40.50Q401 53 431 73L431 421Q365 443 300 443Q194 443 143 381Q92 319 92 230Q92 135 143 81.50Q194 28 280 28Z"  horiz-adv-x="553" vert-adv-y="1000"  />

      
      <glyph glyph-name="uni68" unicode="&#x68;" d="M466 303L466 0L423 0L423 291Q423 370 391.50 407Q360 444 289 444Q246 444 201 428.50Q156 413 122 391L122 0L79 0L79 738L122 738L122 435Q151 455 200 470Q249 485 295 485Q378 485 422 441.50Q466 398 466 303Z"  horiz-adv-x="540" vert-adv-y="1000"  />

      
      <glyph glyph-name="uni69" unicode="&#x69;" d="M72 591L72 648L128 648L128 591L72 591M78 0L78 473L121 473L121 0L78 0Z"  horiz-adv-x="200" vert-adv-y="1000"  />

      
      <glyph glyph-name="uni6a" unicode="&#x6a;" d="M72 591L72 648L128 648L128 591L72 591M-82-241L-82-198Q-64-204-39-204Q21-204 49.50-164Q78-124 78-44L78 473L121 473L121-55Q121-152 76-198.50Q31-245-40-245Q-62-245-82-241Z"  horiz-adv-x="200" vert-adv-y="1000"  />

      
      <glyph glyph-name="uni6b" unicode="&#x6b;" d="M124 252L369 473L436 473L183 249L434 0L371 0L124 247L122 247L122 0L79 0L79 738L122 738L122 252L124 252Z"  horiz-adv-x="456" vert-adv-y="1000"  />

      
      <glyph glyph-name="uni6c" unicode="&#x6c;" d="M79 0L79 738L122 738L122 0L79 0Z"  horiz-adv-x="201" vert-adv-y="1000"  />

      
      <glyph glyph-name="uni6d" unicode="&#x6d;" d="M762 0L719 0L719 323Q719 381 688.50 412.50Q658 444 586 444Q545 444 500.50 432.50Q456 421 430 406Q435 395 438.50 373Q442 351 442 329L442 0L399 0L399 326Q399 392 366.50 418Q334 444 259 444Q193 444 122 425L122 0L79 0L79 455Q181 485 266 485Q313 485 351 473Q389 461 408 441Q442 458 489.50 471.50Q537 485 592 485Q685 485 723.50 443.50Q762 402 762 330L762 0Z"  horiz-adv-x="836" vert-adv-y="1000"  />

      
      <glyph glyph-name="uni6e" unicode="&#x6e;" d="M466 0L423 0L423 311Q423 386 390.50 415Q358 444 278 444Q237 444 194 436.50Q151 429 122 421L122 0L79 0L79 455Q194 485 281 485Q380 485 423 445.50Q466 406 466 322L466 0Z"  horiz-adv-x="540" vert-adv-y="1000"  />

      
      <glyph glyph-name="uni6f" unicode="&#x6f;" d="M287-14Q181-14 113.50 57Q46 128 46 236Q46 344 114 414.50Q182 485 287 485Q393 485 460.50 415Q528 345 528 236Q528 128 460.50 57Q393-14 287-14M287 28Q378 28 430 85.50Q482 143 482 236Q482 328 429 385.50Q376 443 287 443Q196 443 144 386Q92 329 92 236Q92 144 146 86Q200 28 287 28Z"  horiz-adv-x="574" vert-adv-y="1000"  />

      
      <glyph glyph-name="uni70" unicode="&#x70;" d="M255-14Q212-14 180.50-6.50Q149 1 122 15L122-235L79-235L79 439Q167 485 271 485Q381 485 444.50 419.50Q508 354 508 243Q508 129 438 57.50Q368-14 255-14M122 61Q183 28 260 28Q350 28 406 84.50Q462 141 462 242Q462 334 409.50 388.50Q357 443 266 443Q225 443 185.50 434Q146 425 122 413L122 61Z"  horiz-adv-x="552" vert-adv-y="1000"  />

      
      <glyph glyph-name="uni71" unicode="&#x71;" d="M474-235L431-235L431 28Q400 10 360-2Q320-14 275-14Q173-14 109.50 52.50Q46 119 46 228Q46 342 115.50 413.50Q185 485 303 485Q392 485 474 456L474-235M280 28Q321 28 361 40.50Q401 53 431 73L431 424Q374 443 300 443Q194 443 143 381Q92 319 92 230Q92 135 143 81.50Q194 28 280 28Z"  horiz-adv-x="553" vert-adv-y="1000"  />

      
      <glyph glyph-name="uni72" unicode="&#x72;" d="M331 436Q294 444 247 444Q214 444 178.50 437.50Q143 431 122 423L122 0L79 0L79 453Q161 485 248 485Q294 485 331 477L331 436Z"  horiz-adv-x="342" vert-adv-y="1000"  />

      
      <glyph glyph-name="uni73" unicode="&#x73;" d="M349 414Q289 443 217 443Q155 443 124.50 418.50Q94 394 94 350Q94 315 123 295Q152 275 234 249.50Q316 224 345.50 195Q375 166 375 118Q375 64 331.50 26Q288-12 202-12Q158-12 118.50-4Q79 4 54 18L54 66Q82 50 124.50 39.50Q167 29 206 29Q267 29 299 52.50Q331 76 331 117Q331 169 276.50 189Q222 209 181.50 220.50Q141 232 95.50 260Q50 288 50 350Q50 407 96 445.50Q142 484 225 484Q261 484 295.50 477.50Q330 471 349 461L349 414Z"  horiz-adv-x="421" vert-adv-y="1000"  />

      
      <glyph glyph-name="uni74" unicode="&#x74;" d="M296 473L296 433L136 433L136 154Q136 89 161 60Q186 31 235 31Q266 31 296 39L296 1Q266-9 228-9Q93-9 93 148L93 433L3 433L3 473L93 473L93 615L136 615L136 473L296 473Z"  horiz-adv-x="326" vert-adv-y="1000"  />

      
      <glyph glyph-name="uni75" unicode="&#x75;" d="M74 168L74 473L117 473L117 179Q117 104 152.50 66.50Q188 29 282 29Q316 29 354.50 35Q393 41 418 48L418 473L461 473L461 16Q412 3 368-4.50Q324-12 277-12Q167-12 120.50 35.50Q74 83 74 168Z"  horiz-adv-x="540" vert-adv-y="1000"  />

      
      <glyph glyph-name="uni76" unicode="&#x76;" d="M192 0L-3 473L44 473L175 149Q196 97 214 49L216 49Q238 103 268 170L401 473L448 473L236 0L192 0Z"  horiz-adv-x="445" vert-adv-y="1000"  />

      
      <glyph glyph-name="uni77" unicode="&#x77;" d="M539 0L420 312Q394 380 385 417L382 417Q373 386 344 311L222 0L180 0L15 473L59 473L180 120Q192 86 201 53L204 53Q216 93 235 142L367 473L404 473L535 121Q546 91 558 53L561 53Q570 85 584 121L718 473L763 473L579 0L539 0Z"  horiz-adv-x="778" vert-adv-y="1000"  />

      
      <glyph glyph-name="uni78" unicode="&#x78;" d="M439 0L382 0L219 210L56 0L3 0L190 239L8 473L62 473L219 268L377 473L430 473L247 240L439 0Z"  horiz-adv-x="435" vert-adv-y="1000"  />

      
      <glyph glyph-name="uni79" unicode="&#x79;" d="M83-235L184-3L-11 473L36 473L149 195Q184 108 207 43L209 43Q234 111 271 194L392 473L440 473L129-235L83-235Z"  horiz-adv-x="429" vert-adv-y="1000"  />

      
      <glyph glyph-name="uni7a" unicode="&#x7a;" d="M77 38L420 38L420 0L24 0L24 36L354 435L37 435L37 473L408 473L408 437L77 38Z"  horiz-adv-x="438" vert-adv-y="1000"  />

      
      <glyph glyph-name="uni7b" unicode="&#x7b;" d="M147 429Q147 374 123.50 344Q100 314 67 305L67 303Q100 293 123.50 262Q147 231 147 174L147-18Q147-74 174-99Q201-124 264-124L264-160Q183-160 145.50-127Q108-94 108-19L108 179Q108 226 85.50 255Q63 284 17 285L17 324Q108 327 108 424L108 622Q108 700 145.50 735Q183 770 264 770L264 734Q197 734 172 707.50Q147 681 147 620L147 429Z"  horiz-adv-x="293" vert-adv-y="1000"  />

      
      <glyph glyph-name="uni7c" unicode="&#x7c;" d="M154 750L154-250L113-250L113 750L154 750Z"  horiz-adv-x="267" vert-adv-y="1000"  />

      
      <glyph glyph-name="uni7d" unicode="&#x7d;" d="M146 181Q146 236 169.50 266Q193 296 226 305L226 307Q193 317 169.50 348Q146 379 146 436L146 628Q146 684 119 709Q92 734 29 734L29 770Q110 770 147.50 737Q185 704 185 629L185 431Q185 384 207.50 355Q230 326 276 325L276 286Q185 283 185 186L185-12Q185-90 147.50-125Q110-160 29-160L29-124Q96-124 121-97.50Q146-71 146-10L146 181Z"  horiz-adv-x="293" vert-adv-y="1000"  />

      
      <glyph glyph-name="uni7e" unicode="&#x7e;" d="M163 321Q107 321 63 252L30 276Q59 317 91.50 339Q124 361 167 361Q227 361 279.50 325.50Q332 290 381 290Q413 290 439 309Q465 328 483 358L516 336Q493 297 459 273Q425 249 378 249Q340 249 307.50 264.50Q275 280 241 300.50Q207 321 163 321Z"  horiz-adv-x="546" vert-adv-y="1000"  />

      
      <glyph glyph-name="unia1" unicode="&#xa1;" d="M89 473L156 473L156 406L89 406L89 473M139 289L141-222L98-222L101 289L139 289Z"  horiz-adv-x="245" vert-adv-y="1000"  />

      
      <glyph glyph-name="unia2" unicode="&#xa2;" d="M284 601L284 714L324 714L324 603Q405 600 460 575L460 526Q435 540 399.50 550Q364 560 324 561L324 146Q399 148 460 180L460 135Q403 107 324 104L324-14L284-14L284 105Q184 113 126 179Q68 245 68 350Q68 454 128 523Q188 592 284 601M284 559Q207 549 160.50 495Q114 441 114 354Q114 270 159 213Q204 156 284 147L284 559Z"  horiz-adv-x="546" vert-adv-y="1000"  />

      
      <glyph glyph-name="unia3" unicode="&#xa3;" d="M205 464L205 362L431 362L431 322L205 322L205 223Q205 152 182 106.50Q159 61 122 41L506 41L506 0L38 0L38 41Q89 49 125.50 87Q162 125 162 221L162 322L53 322L53 362L162 362L162 462Q162 562 208.50 634.50Q255 707 378 707Q415 707 451 701Q487 695 512 686L512 638Q456 665 374 665Q205 665 205 464Z"  horiz-adv-x="546" vert-adv-y="1000"  />

      
      <glyph glyph-name="unia4" unicode="&#xa4;" d="M510 106L483 79L406 156Q346 109 272 109Q239 109 204 121Q169 133 138 157L60 79L32 106L112 185Q64 245 64 319Q64 357 76 391Q88 425 110 452L32 529L60 555L136 478Q203 528 272 528Q307 528 342.50 515Q378 502 407 478L483 555L510 529L435 453Q481 395 481 319Q481 242 433 183L510 106M107 320Q107 249 154.50 199Q202 149 272 149Q342 149 390 198.50Q438 248 438 320Q438 391 390 438.50Q342 486 272 486Q201 486 154 437.50Q107 389 107 320Z"  horiz-adv-x="546" vert-adv-y="1000"  />

      
      <glyph glyph-name="unia5" unicode="&#xa5;" d="M474 177L474 137L292 137L292 0L250 0L250 137L62 137L62 177L250 177L250 307L62 307L62 347L250 347L250 349L28 695L79 695L271 389L467 695L518 695L292 349L292 347L474 347L474 307L292 307L292 177L474 177Z"  horiz-adv-x="546" vert-adv-y="1000"  />

      
      <glyph glyph-name="unia6" unicode="&#xa6;" d="M154 750L154 338L113 338L113 750L154 750M154 162L154-250L113-250L113 162L154 162Z"  horiz-adv-x="267" vert-adv-y="1000"  />

      
      <glyph glyph-name="unia7" unicode="&#xa7;" d="M168 452Q138 472 123.50 498Q109 524 109 567Q109 628 152 669.50Q195 711 275 711Q328 711 381 694L381 649Q354 659 329 664.50Q304 670 275 670Q216 670 184.50 643Q153 616 153 570Q153 524 180 500Q207 476 278.50 450Q350 424 378.50 388.50Q407 353 407 296Q407 253 385.50 218Q364 183 323 163Q353 143 367.50 117Q382 91 382 49Q382-12 339-53.50Q296-95 216-95Q163-95 110-78L110-33Q137-43 162-48.50Q187-54 216-54Q275-54 306.50-27Q338 0 338 46Q338 92 311 116Q284 140 212.50 166Q141 192 112.50 227.50Q84 263 84 320Q84 363 105.50 398Q127 433 168 452M281 186Q363 222 363 297Q363 336 345 360Q327 384 275.50 403.50Q224 423 209 430Q128 394 128 319Q128 285 140.50 264.50Q153 244 176 231Q199 218 246 200L281 186Z"  horiz-adv-x="499" vert-adv-y="1000"  />

      
      <glyph glyph-name="unia8" unicode="&#xa8;" d="M44 591L44 648L100 648L100 591L44 591M184 591L184 648L240 648L240 591L184 591Z"  horiz-adv-x="279" vert-adv-y="1000"  />

      
      <glyph glyph-name="unia9" unicode="&#xa9;" d="M404-15Q305-15 221 33.50Q137 82 88 165Q39 248 39 347Q39 497 147 603.50Q255 710 404 710Q503 710 587 661Q671 612 719.50 528.50Q768 445 768 347Q768 197 661 91Q554-15 404-15M404 25Q536 25 631 120Q726 215 726 347Q726 479 631 574Q536 669 404 669Q272 669 177 574Q82 479 82 347Q82 215 177 120Q272 25 404 25M543 502Q482 527 422 527Q338 527 291 478Q244 429 244 350Q244 266 291.50 219.50Q339 173 417 173Q457 173 485 180.50Q513 188 543 203L543 163Q519 149 490 141.50Q461 134 413 134Q322 134 262 193Q202 252 202 348Q202 445 263 504.50Q324 564 424 564Q495 564 543 542L543 502Z"  horiz-adv-x="808" vert-adv-y="1000"  />

      
      <glyph glyph-name="uniaa" unicode="&#xaa;" d="M302 412Q244 388 173 388Q47 388 47 485Q47 532 81 559Q115 586 185 586Q222 586 264 579L264 594Q264 644 242.50 663Q221 682 175 682Q128 682 71 656L71 693Q91 702 120.50 710Q150 718 180 718Q246 718 274 688.50Q302 659 302 597L302 412M177 422Q216 422 264 436L264 545Q220 552 183 552Q135 552 110.50 534.50Q86 517 86 488Q86 422 177 422Z"  horiz-adv-x="366" vert-adv-y="1000"  />

      
      <glyph glyph-name="uniab" unicode="&#xab;" d="M93 234L222 55L170 55L42 234L170 413L222 413L93 234M254 234L383 55L331 55L203 234L331 413L383 413L254 234Z"  horiz-adv-x="436" vert-adv-y="1000"  />

      
      <glyph glyph-name="uniac" unicode="&#xac;" d="M466 120L466 313L40 313L40 353L506 353L506 120L466 120Z"  horiz-adv-x="546" vert-adv-y="1000"  />

      
      <glyph glyph-name="uniad" unicode="&#xad;" d="M353 277L353 234L49 234L49 277L353 277Z"  horiz-adv-x="402" vert-adv-y="1000"  />

      
      <glyph glyph-name="uniae" unicode="&#xae;" d="M268 257Q174 257 107 323.50Q40 390 40 484Q40 578 107.50 645Q175 712 268 712Q360 712 427.50 644.50Q495 577 495 484Q495 390 428.50 323.50Q362 257 268 257M268 292Q346 292 402.50 349Q459 406 459 484Q459 562 402.50 619Q346 676 268 676Q189 676 132.50 619.50Q76 563 76 484Q76 405 132.50 348.50Q189 292 268 292M304 459L377 358L329 358L267 451L222 451L222 358L185 358L185 614L270 614Q315 614 340 594.50Q365 575 365 535Q365 507 349 487Q333 467 304 459M222 482L270 482Q294 482 309.50 495.50Q325 509 325 531Q325 553 311.50 566.50Q298 580 273 580L222 580L222 482Z"  horiz-adv-x="535" vert-adv-y="1000"  />

      
      <glyph glyph-name="uniaf" unicode="&#xaf;" d="M25 609L25 646L254 646L254 609L25 609Z"  horiz-adv-x="279" vert-adv-y="1000"  />

      
      <glyph glyph-name="unib0" unicode="&#xb0;" d="M69 574Q69 632 108.50 671Q148 710 206 710Q264 710 303 671Q342 632 342 574Q342 516 303.50 477Q265 438 207 438Q148 438 108.50 477Q69 516 69 574M108 574Q108 532 136.50 503Q165 474 206 474Q247 474 275 503Q303 532 303 574Q303 616 275 645Q247 674 207 674Q166 674 137 645Q108 616 108 574Z"  horiz-adv-x="412" vert-adv-y="1000"  />

      
      <glyph glyph-name="unib1" unicode="&#xb1;" d="M506 396L506 356L293 356L293 143L253 143L253 356L40 356L40 396L253 396L253 609L293 609L293 396L506 396M40 0L40 40L506 40L506 0L40 0Z"  horiz-adv-x="546" vert-adv-y="1000"  />

      
      <glyph glyph-name="unib2" unicode="&#xb2;" d="M333 675Q333 627 308 587.50Q283 548 221 486L106 370L345 370L345 331L55 331L55 371L199 517Q252 571 272 602.50Q292 634 292 671Q292 709 268 735.50Q244 762 194 762Q134 762 75 719L75 761Q104 778 132.50 788.50Q161 799 201 799Q265 799 299 764.50Q333 730 333 675Z"  horiz-adv-x="400" vert-adv-y="1000"  />

      
      <glyph glyph-name="unib3" unicode="&#xb3;" d="M49 349L49 392Q66 380 100 371.50Q134 363 166 363Q225 363 254.50 389Q284 415 284 460Q284 546 152 546L103 546L103 584L149 584Q205 584 239.50 611Q274 638 274 681Q274 719 248 741.50Q222 764 170 764Q141 764 111 754Q81 744 60 731L60 772Q81 784 112.50 792.50Q144 801 176 801Q248 801 282 768.50Q316 736 316 684Q316 641 288 610Q260 579 221 569L221 568Q326 549 326 459Q326 402 285.50 364Q245 326 167 326Q133 326 101 332.50Q69 339 49 349Z"  horiz-adv-x="400" vert-adv-y="1000"  />

      
      <glyph glyph-name="unib4" unicode="&#xb4;" d="M10 560L114 707L170 707L57 560L10 560Z"  horiz-adv-x="180" vert-adv-y="1000"  />

      
      <glyph glyph-name="unib5" unicode="&#xb5;" d="M80 473L123 473L123 205Q123 106 163 66.50Q203 27 286 27Q328 27 359.50 35Q391 43 424 57L424 473L467 473L467 33Q424 11 379-1.50Q334-14 276-14Q226-14 185 2Q144 18 123 52L123-251L80-251L80 473Z"  horiz-adv-x="548" vert-adv-y="1000"  />

      
      <glyph glyph-name="unib6" unicode="&#xb6;" d="M391 659L270 659L270-63L231-63L231 349Q149 349 96 396Q43 443 43 517Q43 602 97.50 648.50Q152 695 240 695L430 695L430-63L391-63L391 659Z"  horiz-adv-x="555" vert-adv-y="1000"  />

      
      <glyph glyph-name="unib7" unicode="&#xb7;" d="M149 282L82 282L82 349L149 349L149 282Z"  horiz-adv-x="231" vert-adv-y="1000"  />

      
      <glyph glyph-name="unib8" unicode="&#xb8;" d="M231-137Q231-180 200-201.50Q169-223 121-223Q77-223 35-209L35-175Q82-192 122-192Q159-192 176.50-177.50Q194-163 194-138Q194-115 177-101.50Q160-88 127-87L89-86L118 0L152 0L131-60Q227-60 231-137Z"  horiz-adv-x="279" vert-adv-y="1000"  />

      
      <glyph glyph-name="unib9" unicode="&#xb9;" d="M89 728L231 799L252 799L252 331L213 331L213 749L88 687L89 728Z"  horiz-adv-x="400" vert-adv-y="1000"  />

      
      <glyph glyph-name="uniba" unicode="&#xba;" d="M201 387Q129 387 84.50 434Q40 481 40 553Q40 625 85 671.50Q130 718 201 718Q272 718 316.50 671.50Q361 625 361 553Q361 481 316.50 434Q272 387 201 387M201 423Q255 423 287.50 458.50Q320 494 320 553Q320 609 288 645.50Q256 682 201 682Q145 682 113 646Q81 610 81 553Q81 496 114 459.50Q147 423 201 423Z"  horiz-adv-x="401" vert-adv-y="1000"  />

      
      <glyph glyph-name="unibb" unicode="&#xbb;" d="M182 234L53 413L105 413L233 234L105 55L53 55L182 234M343 234L214 413L266 413L394 234L266 55L214 55L343 234Z"  horiz-adv-x="436" vert-adv-y="1000"  />

      
      <glyph glyph-name="unibc" unicode="&#xbc;" d="M89 628L231 699L252 699L252 231L213 231L213 649L88 587L89 628M698 695L745 695L239 0L192 0L698 695M743 0L743 117L531 117L531 148L751 459L780 459L780 153L863 153L863 117L780 117L780 0L743 0M576 153L743 153L743 390L741 390Q734 378 726 366.50Q718 355 713 347L576 153Z"  horiz-adv-x="897" vert-adv-y="1000"  />

      
      <glyph glyph-name="unibd" unicode="&#xbd;" d="M89 628L231 699L252 699L252 231L213 231L213 649L88 587L89 628M698 695L745 695L239 0L192 0L698 695M890 345Q890 297 865 257.50Q840 218 778 156L663 40L902 40L902 1L612 1L612 41L756 187Q809 241 829 272.50Q849 304 849 341Q849 379 825 405.50Q801 432 751 432Q691 432 632 389L632 431Q661 448 689.50 458.50Q718 469 758 469Q822 469 856 434.50Q890 400 890 345Z"  horiz-adv-x="957" vert-adv-y="1000"  />

      
      <glyph glyph-name="unibe" unicode="&#xbe;" d="M49 249L49 292Q66 280 100 271.50Q134 263 166 263Q225 263 254.50 289Q284 315 284 360Q284 446 152 446L103 446L103 484L149 484Q205 484 239.50 511Q274 538 274 581Q274 619 248 641.50Q222 664 170 664Q141 664 111 654Q81 644 60 631L60 672Q81 684 112.50 692.50Q144 701 176 701Q248 701 282 668.50Q316 636 316 584Q316 541 288 510Q260 479 221 469L221 468Q326 449 326 359Q326 302 285.50 264Q245 226 167 226Q133 226 101 232.50Q69 239 49 249M698 695L745 695L239 0L192 0L698 695M743 0L743 117L531 117L531 148L751 459L780 459L780 153L863 153L863 117L780 117L780 0L743 0M576 153L743 153L743 390L741 390Q734 378 726 366.50Q718 355 713 347L576 153Z"  horiz-adv-x="897" vert-adv-y="1000"  />

      
      <glyph glyph-name="unibf" unicode="&#xbf;" d="M215 473L282 473L282 406L215 406L215 473M234-193Q282-193 320.50-180.50Q359-168 394-149L394-193Q320-234 231-234Q139-234 90-184.50Q41-135 41-57Q41 19 86 77.50Q131 136 227 198L227 289L271 289L271 178Q149 97 117.50 49.50Q86 2 86-53Q86-117 125-155Q164-193 234-193Z"  horiz-adv-x="447" vert-adv-y="1000"  />

      
      <glyph glyph-name="unic0" unicode="&#xc0;" d="M592 0L493 230L146 230L46 0L-2 0L302 695L343 695L642 0L592 0M164 274L475 274L322 639L320 639L164 274M307 757L209 885L263 885L354 757L307 757Z"  horiz-adv-x="640" vert-adv-y="1000"  />

      
      <glyph glyph-name="unic1" unicode="&#xc1;" d="M592 0L493 230L146 230L46 0L-2 0L302 695L343 695L642 0L592 0M164 274L475 274L322 639L320 639L164 274M246 757L337 885L391 885L293 757L246 757Z"  horiz-adv-x="640" vert-adv-y="1000"  />

      
      <glyph glyph-name="unic2" unicode="&#xc2;" d="M592 0L493 230L146 230L46 0L-2 0L302 695L343 695L642 0L592 0M164 274L475 274L322 639L320 639L164 274M438 761L320 865L203 761L150 761L308 901L332 901L490 761L438 761Z"  horiz-adv-x="640" vert-adv-y="1000"  />

      
      <glyph glyph-name="unic3" unicode="&#xc3;" d="M592 0L493 230L146 230L46 0L-2 0L302 695L343 695L642 0L592 0M164 274L475 274L322 639L320 639L164 274M390 798Q410 798 424 816Q438 834 441 858L476 858Q471 816 449 789Q427 762 388 762Q355 762 314.50 792.50Q274 823 249 823Q229 823 216 805.50Q203 788 199 765L164 765Q169 806 190.50 833.50Q212 861 251 861Q284 861 326 829.50Q368 798 390 798Z"  horiz-adv-x="640" vert-adv-y="1000"  />

      
      <glyph glyph-name="unic4" unicode="&#xc4;" d="M592 0L493 230L146 230L46 0L-2 0L302 695L343 695L642 0L592 0M164 274L475 274L322 639L320 639L164 274M222 771L222 828L278 828L278 771L222 771M362 771L362 828L418 828L418 771L362 771Z"  horiz-adv-x="640" vert-adv-y="1000"  />

      
      <glyph glyph-name="unic5" unicode="&#xc5;" d="M592 0L493 230L146 230L46 0L-2 0L302 695L343 695L642 0L592 0M164 274L475 274L322 639L320 639L164 274M320 744Q276 744 244.50 775.50Q213 807 213 851Q213 896 244.50 927Q276 958 320 958Q364 958 395.50 927Q427 896 427 851Q427 807 395.50 775.50Q364 744 320 744M320 778Q351 778 372.50 799.50Q394 821 394 851Q394 883 373 903.50Q352 924 320 924Q289 924 268 903.50Q247 883 247 851Q247 822 268.50 800Q290 778 320 778Z"  horiz-adv-x="640" vert-adv-y="1000"  />

      
      <glyph glyph-name="unic6" unicode="&#xc6;" d="M492 652L492 375L826 375L826 332L492 332L492 43L876 43L876 0L448 0L448 230L191 230L52 0L0 0L422 695L859 695L859 652L492 652M216 274L448 274L448 652L443 652L216 274Z"  horiz-adv-x="917" vert-adv-y="1000"  />

      
      <glyph glyph-name="unic7" unicode="&#xc7;" d="M386-60Q482-60 486-137Q486-180 455-201.50Q424-223 376-223Q332-223 290-209L290-175Q337-192 377-192Q414-192 431.50-177.50Q449-163 449-138Q449-115 432-101.50Q415-88 382-87L344-86L369-11Q231 0 144 97.50Q57 195 57 348Q57 512 152.50 609.50Q248 707 408 707Q516 707 602 670L602 618Q516 662 402 662Q265 662 185 576Q105 490 105 351Q105 208 188 120.50Q271 33 404 33Q474 33 523 47Q572 61 618 86L618 36Q581 15 531 2Q481-11 403-12L386-60Z"  horiz-adv-x="656" vert-adv-y="1000"  />

      
      <glyph glyph-name="unic8" unicode="&#xc8;" d="M130 652L130 375L464 375L464 332L130 332L130 43L514 43L514 0L86 0L86 695L497 695L497 652L130 652M287 757L189 885L243 885L334 757L287 757Z"  horiz-adv-x="555" vert-adv-y="1000"  />

      
      <glyph glyph-name="unic9" unicode="&#xc9;" d="M130 652L130 375L464 375L464 332L130 332L130 43L514 43L514 0L86 0L86 695L497 695L497 652L130 652M226 757L317 885L371 885L273 757L226 757Z"  horiz-adv-x="555" vert-adv-y="1000"  />

      
      <glyph glyph-name="unica" unicode="&#xca;" d="M130 652L130 375L464 375L464 332L130 332L130 43L514 43L514 0L86 0L86 695L497 695L497 652L130 652M418 761L300 865L183 761L130 761L288 901L312 901L470 761L418 761Z"  horiz-adv-x="555" vert-adv-y="1000"  />

      
      <glyph glyph-name="unicb" unicode="&#xcb;" d="M130 652L130 375L464 375L464 332L130 332L130 43L514 43L514 0L86 0L86 695L497 695L497 652L130 652M202 771L202 828L258 828L258 771L202 771M342 771L342 828L398 828L398 771L342 771Z"  horiz-adv-x="555" vert-adv-y="1000"  />

      
      <glyph glyph-name="unicc" unicode="&#xcc;" d="M86 0L86 695L130 695L130 0L86 0M95 757L-3 885L51 885L142 757L95 757Z"  horiz-adv-x="216" vert-adv-y="1000"  />

      
      <glyph glyph-name="unicd" unicode="&#xcd;" d="M86 0L86 695L130 695L130 0L86 0M34 757L125 885L179 885L81 757L34 757Z"  horiz-adv-x="216" vert-adv-y="1000"  />

      
      <glyph glyph-name="unice" unicode="&#xce;" d="M86 0L86 695L130 695L130 0L86 0M226 761L108 865L-9 761L-62 761L96 901L120 901L278 761L226 761Z"  horiz-adv-x="216" vert-adv-y="1000"  />

      
      <glyph glyph-name="unicf" unicode="&#xcf;" d="M86 0L86 695L130 695L130 0L86 0M10 771L10 828L66 828L66 771L10 771M150 771L150 828L206 828L206 771L150 771Z"  horiz-adv-x="216" vert-adv-y="1000"  />

      
      <glyph glyph-name="unid0" unicode="&#xd0;" d="M291 0L86 0L86 324L-5 324L-5 367L86 367L86 695L278 695Q467 695 563.50 607Q660 519 660 356Q660 196 558 98Q456 0 291 0M278 651L131 651L131 367L354 367L354 324L131 324L131 44L290 44Q438 44 525 126.50Q612 209 612 351Q612 496 527 572.50Q442 649 278 651Z"  horiz-adv-x="717" vert-adv-y="1000"  />

      
      <glyph glyph-name="unid1" unicode="&#xd1;" d="M624 0L129 611L127 611Q127 550 128 427L128 0L86 0L86 695L118 695L611 81L615 81Q615 120 614 211L614 695L656 695L656 0L624 0M449 798Q469 798 483 816Q497 834 500 858L535 858Q530 816 508 789Q486 762 447 762Q414 762 373.50 792.50Q333 823 308 823Q288 823 275 805.50Q262 788 258 765L223 765Q228 806 249.50 833.50Q271 861 310 861Q343 861 385 829.50Q427 798 449 798Z"  horiz-adv-x="743" vert-adv-y="1000"  />

      
      <glyph glyph-name="unid2" unicode="&#xd2;" d="M405-12Q244-12 150.50 89Q57 190 57 347Q57 503 155 605Q253 707 405 707Q567 707 660 607.50Q753 508 753 347Q753 193 654.50 90.50Q556-12 405-12M404 33Q537 33 621 121Q705 209 705 347Q705 490 624.50 576Q544 662 404 662Q272 662 188.50 574.50Q105 487 105 347Q105 206 188 119.50Q271 33 404 33M392 757L294 885L348 885L439 757L392 757Z"  horiz-adv-x="810" vert-adv-y="1000"  />

      
      <glyph glyph-name="unid3" unicode="&#xd3;" d="M405-12Q244-12 150.50 89Q57 190 57 347Q57 503 155 605Q253 707 405 707Q567 707 660 607.50Q753 508 753 347Q753 193 654.50 90.50Q556-12 405-12M404 33Q537 33 621 121Q705 209 705 347Q705 490 624.50 576Q544 662 404 662Q272 662 188.50 574.50Q105 487 105 347Q105 206 188 119.50Q271 33 404 33M331 757L422 885L476 885L378 757L331 757Z"  horiz-adv-x="810" vert-adv-y="1000"  />

      
      <glyph glyph-name="unid4" unicode="&#xd4;" d="M405-12Q244-12 150.50 89Q57 190 57 347Q57 503 155 605Q253 707 405 707Q567 707 660 607.50Q753 508 753 347Q753 193 654.50 90.50Q556-12 405-12M404 33Q537 33 621 121Q705 209 705 347Q705 490 624.50 576Q544 662 404 662Q272 662 188.50 574.50Q105 487 105 347Q105 206 188 119.50Q271 33 404 33M523 761L405 865L288 761L235 761L393 901L417 901L575 761L523 761Z"  horiz-adv-x="810" vert-adv-y="1000"  />

      
      <glyph glyph-name="unid5" unicode="&#xd5;" d="M405-12Q244-12 150.50 89Q57 190 57 347Q57 503 155 605Q253 707 405 707Q567 707 660 607.50Q753 508 753 347Q753 193 654.50 90.50Q556-12 405-12M404 33Q537 33 621 121Q705 209 705 347Q705 490 624.50 576Q544 662 404 662Q272 662 188.50 574.50Q105 487 105 347Q105 206 188 119.50Q271 33 404 33M475 798Q495 798 509 816Q523 834 526 858L561 858Q556 816 534 789Q512 762 473 762Q440 762 399.50 792.50Q359 823 334 823Q314 823 301 805.50Q288 788 284 765L249 765Q254 806 275.50 833.50Q297 861 336 861Q369 861 411 829.50Q453 798 475 798Z"  horiz-adv-x="810" vert-adv-y="1000"  />

      
      <glyph glyph-name="unid6" unicode="&#xd6;" d="M405-12Q244-12 150.50 89Q57 190 57 347Q57 503 155 605Q253 707 405 707Q567 707 660 607.50Q753 508 753 347Q753 193 654.50 90.50Q556-12 405-12M404 33Q537 33 621 121Q705 209 705 347Q705 490 624.50 576Q544 662 404 662Q272 662 188.50 574.50Q105 487 105 347Q105 206 188 119.50Q271 33 404 33M307 771L307 828L363 828L363 771L307 771M447 771L447 828L503 828L503 771L447 771Z"  horiz-adv-x="810" vert-adv-y="1000"  />

      
      <glyph glyph-name="unid7" unicode="&#xd7;" d="M473 475L301 303L473 131L445 103L273 275L101 103L73 131L245 303L73 475L101 503L273 331L445 503L473 475Z"  horiz-adv-x="546" vert-adv-y="1000"  />

      
      <glyph glyph-name="unid8" unicode="&#xd8;" d="M633 632Q692 584 722.50 510Q753 436 753 347Q753 193 654.50 90.50Q556-12 405-12Q289-12 205 42L123-71L91-49L174 66Q117 115 87 188Q57 261 57 347Q57 503 155 605Q253 707 405 707Q518 707 602 655L684 768L716 746L633 632M202 105L574 617Q503 662 404 662Q272 662 188.50 574.50Q105 487 105 347Q105 271 130.50 209Q156 147 202 105M705 347Q705 426 679.50 489Q654 552 605 594L233 81Q306 33 404 33Q537 33 621 121Q705 209 705 347Z"  horiz-adv-x="810" vert-adv-y="1000"  />

      
      <glyph glyph-name="unid9" unicode="&#xd9;" d="M81 229L81 695L125 695L125 236Q125 129 179 81Q233 33 355 33Q411 33 467 42.50Q523 52 561 64L561 695L605 695L605 32Q477-12 358-12Q217-12 149 45.50Q81 103 81 229M330 757L232 885L286 885L377 757L330 757Z"  horiz-adv-x="691" vert-adv-y="1000"  />

      
      <glyph glyph-name="unida" unicode="&#xda;" d="M81 229L81 695L125 695L125 236Q125 129 179 81Q233 33 355 33Q411 33 467 42.50Q523 52 561 64L561 695L605 695L605 32Q477-12 358-12Q217-12 149 45.50Q81 103 81 229M269 757L360 885L414 885L316 757L269 757Z"  horiz-adv-x="691" vert-adv-y="1000"  />

      
      <glyph glyph-name="unidb" unicode="&#xdb;" d="M81 229L81 695L125 695L125 236Q125 129 179 81Q233 33 355 33Q411 33 467 42.50Q523 52 561 64L561 695L605 695L605 32Q477-12 358-12Q217-12 149 45.50Q81 103 81 229M461 761L343 865L226 761L173 761L331 901L355 901L513 761L461 761Z"  horiz-adv-x="691" vert-adv-y="1000"  />

      
      <glyph glyph-name="unidc" unicode="&#xdc;" d="M81 229L81 695L125 695L125 236Q125 129 179 81Q233 33 355 33Q411 33 467 42.50Q523 52 561 64L561 695L605 695L605 32Q477-12 358-12Q217-12 149 45.50Q81 103 81 229M245 771L245 828L301 828L301 771L245 771M385 771L385 828L441 828L441 771L385 771Z"  horiz-adv-x="691" vert-adv-y="1000"  />

      
      <glyph glyph-name="unidd" unicode="&#xdd;" d="M285 0L241 0L241 269L-20 695L32 695L263 315L498 695L550 695L285 269L285 0M191 757L282 885L336 885L238 757L191 757Z"  horiz-adv-x="530" vert-adv-y="1000"  />

      
      <glyph glyph-name="unide" unicode="&#xde;" d="M288 560Q424 560 486.50 508.50Q549 457 549 360Q549 253 481 193.50Q413 134 282 134L130 134L130 0L86 0L86 695L130 695L130 560L288 560M130 177L279 177Q390 177 445.50 223Q501 269 501 357Q501 443 446 480Q391 517 285 517L130 517L130 177Z"  horiz-adv-x="582" vert-adv-y="1000"  />

      
      <glyph glyph-name="unidf" unicode="&#xdf;" d="M291 351Q291 308 341.50 287.50Q392 267 434 250.50Q476 234 499 204Q522 174 522 124Q522 63 478 25.50Q434-12 358-12Q293-12 241 9L241 57Q274 42 298 35.50Q322 29 359 29Q419 29 448.50 54.50Q478 80 478 122Q478 159 456.50 184Q435 209 366 233Q297 257 272 283Q247 309 247 350Q247 393 269.50 418.50Q292 444 333 463.50Q374 483 394.50 512Q415 541 415 579Q415 626 381.50 656.50Q348 687 286 687Q122 687 122 483L122 0L79 0L79 488Q79 607 132.50 667.50Q186 728 287 728Q365 728 412 687.50Q459 647 459 581Q459 529 433.50 493.50Q408 458 362.50 436Q317 414 304 396.50Q291 379 291 351Z"  horiz-adv-x="559" vert-adv-y="1000"  />

      
      <glyph glyph-name="unie0" unicode="&#xe0;" d="M430 24Q397 9 347.50-2Q298-13 238-13Q147-13 98.50 23Q50 59 50 133Q50 203 100.50 244Q151 285 258 285Q326 285 389 272L389 296Q389 378 354 410Q319 442 246 442Q175 442 86 401L86 445Q115 460 160.50 472.50Q206 485 249 485Q346 485 388 440.50Q430 396 430 303L430 24M243 29Q312 29 389 53L389 230L367 233Q302 242 254 242Q175 242 134.50 212.50Q94 183 94 136Q94 29 243 29M242 560L129 707L185 707L289 560L242 560Z"  horiz-adv-x="504" vert-adv-y="1000"  />

      
      <glyph glyph-name="unie1" unicode="&#xe1;" d="M430 24Q397 9 347.50-2Q298-13 238-13Q147-13 98.50 23Q50 59 50 133Q50 203 100.50 244Q151 285 258 285Q326 285 389 272L389 296Q389 378 354 410Q319 442 246 442Q175 442 86 401L86 445Q115 460 160.50 472.50Q206 485 249 485Q346 485 388 440.50Q430 396 430 303L430 24M243 29Q312 29 389 53L389 230L367 233Q302 242 254 242Q175 242 134.50 212.50Q94 183 94 136Q94 29 243 29M212 560L316 707L372 707L259 560L212 560Z"  horiz-adv-x="504" vert-adv-y="1000"  />

      
      <glyph glyph-name="unie2" unicode="&#xe2;" d="M430 24Q397 9 347.50-2Q298-13 238-13Q147-13 98.50 23Q50 59 50 133Q50 203 100.50 244Q151 285 258 285Q326 285 389 272L389 296Q389 378 354 410Q319 442 246 442Q175 442 86 401L86 445Q115 460 160.50 472.50Q206 485 249 485Q346 485 388 440.50Q430 396 430 303L430 24M243 29Q312 29 389 53L389 230L367 233Q302 242 254 242Q175 242 134.50 212.50Q94 183 94 136Q94 29 243 29M348 551L252 668L156 551L111 551L240 707L264 707L393 551L348 551Z"  horiz-adv-x="504" vert-adv-y="1000"  />

      
      <glyph glyph-name="unie3" unicode="&#xe3;" d="M430 24Q397 9 347.50-2Q298-13 238-13Q147-13 98.50 23Q50 59 50 133Q50 203 100.50 244Q151 285 258 285Q326 285 389 272L389 296Q389 378 354 410Q319 442 246 442Q175 442 86 401L86 445Q115 460 160.50 472.50Q206 485 249 485Q346 485 388 440.50Q430 396 430 303L430 24M243 29Q312 29 389 53L389 230L367 233Q302 242 254 242Q175 242 134.50 212.50Q94 183 94 136Q94 29 243 29M322 618Q342 618 356 636Q370 654 373 678L408 678Q403 636 381 609Q359 582 320 582Q287 582 246.50 612.50Q206 643 181 643Q161 643 148 625.50Q135 608 131 585L96 585Q101 626 122.50 653.50Q144 681 183 681Q216 681 258 649.50Q300 618 322 618Z"  horiz-adv-x="504" vert-adv-y="1000"  />

      
      <glyph glyph-name="unie4" unicode="&#xe4;" d="M430 24Q397 9 347.50-2Q298-13 238-13Q147-13 98.50 23Q50 59 50 133Q50 203 100.50 244Q151 285 258 285Q326 285 389 272L389 296Q389 378 354 410Q319 442 246 442Q175 442 86 401L86 445Q115 460 160.50 472.50Q206 485 249 485Q346 485 388 440.50Q430 396 430 303L430 24M243 29Q312 29 389 53L389 230L367 233Q302 242 254 242Q175 242 134.50 212.50Q94 183 94 136Q94 29 243 29M154 591L154 648L210 648L210 591L154 591M294 591L294 648L350 648L350 591L294 591Z"  horiz-adv-x="504" vert-adv-y="1000"  />

      
      <glyph glyph-name="unie5" unicode="&#xe5;" d="M430 24Q397 9 347.50-2Q298-13 238-13Q147-13 98.50 23Q50 59 50 133Q50 203 100.50 244Q151 285 258 285Q326 285 389 272L389 296Q389 378 354 410Q319 442 246 442Q175 442 86 401L86 445Q115 460 160.50 472.50Q206 485 249 485Q346 485 388 440.50Q430 396 430 303L430 24M243 29Q312 29 389 53L389 230L367 233Q302 242 254 242Q175 242 134.50 212.50Q94 183 94 136Q94 29 243 29M252 548Q208 548 176.50 579.50Q145 611 145 655Q145 700 176.50 731Q208 762 252 762Q296 762 327.50 731Q359 700 359 655Q359 611 327.50 579.50Q296 548 252 548M252 582Q283 582 304.50 603.50Q326 625 326 655Q326 687 305 707.50Q284 728 252 728Q221 728 200 707.50Q179 687 179 655Q179 626 200.50 604Q222 582 252 582Z"  horiz-adv-x="504" vert-adv-y="1000"  />

      
      <glyph glyph-name="unie6" unicode="&#xe6;" d="M811 226L430 226L430 221Q430 138 481 83Q532 28 620 28Q667 28 710 42Q753 56 781 75L781 29Q705-14 612-14Q508-14 451 48Q396 15 347.50 1Q299-13 238-13Q147-13 98.50 23Q50 59 50 133Q50 203 100.50 244Q151 285 258 285Q326 285 389 272L389 296Q389 378 354 410Q319 442 246 442Q175 442 86 401L86 445Q115 460 160.50 472.50Q206 485 249 485Q328 485 368 456Q408 427 420 367Q448 423 498.50 454Q549 485 614 485Q714 485 763.50 421.50Q813 358 813 258L811 226M768 268Q768 346 728.50 394.50Q689 443 611 443Q536 443 488 395.50Q440 348 432 268L768 268M243 29Q290 29 339 42Q388 55 427 79Q389 137 389 230Q309 242 254 242Q175 242 134.50 212.50Q94 183 94 136Q94 29 243 29Z"  horiz-adv-x="850" vert-adv-y="1000"  />

      
      <glyph glyph-name="unie7" unicode="&#xe7;" d="M279-60Q375-60 379-137Q379-180 348-201.50Q317-223 269-223Q225-223 183-209L183-175Q230-192 270-192Q307-192 324.50-177.50Q342-163 342-138Q342-115 325-101.50Q308-88 275-87L237-86L262-13Q163-3 104.50 63.50Q46 130 46 234Q46 347 114 416Q182 485 294 485Q372 485 430 457L430 408Q404 423 367 433Q330 443 289 443Q199 443 145.50 388.50Q92 334 92 238Q92 146 146 87Q200 28 290 28Q338 28 378 38.50Q418 49 442 62L442 17Q417 4 378.50-4.50Q340-13 295-14L279-60Z"  horiz-adv-x="476" vert-adv-y="1000"  />

      
      <glyph glyph-name="unie8" unicode="&#xe8;" d="M472 226L91 226L91 221Q91 138 142 83Q193 28 281 28Q328 28 371 42Q414 56 442 75L442 29Q366-14 273-14Q170-14 108 50Q46 114 46 227Q46 343 108.50 414Q171 485 275 485Q375 485 424.50 421.50Q474 358 474 258L472 226M429 268Q429 346 389.50 394.50Q350 443 272 443Q197 443 149 395.50Q101 348 93 268L429 268M256 560L143 707L199 707L303 560L256 560Z"  horiz-adv-x="511" vert-adv-y="1000"  />

      
      <glyph glyph-name="unie9" unicode="&#xe9;" d="M472 226L91 226L91 221Q91 138 142 83Q193 28 281 28Q328 28 371 42Q414 56 442 75L442 29Q366-14 273-14Q170-14 108 50Q46 114 46 227Q46 343 108.50 414Q171 485 275 485Q375 485 424.50 421.50Q474 358 474 258L472 226M429 268Q429 346 389.50 394.50Q350 443 272 443Q197 443 149 395.50Q101 348 93 268L429 268M226 560L330 707L386 707L273 560L226 560Z"  horiz-adv-x="511" vert-adv-y="1000"  />

      
      <glyph glyph-name="uniea" unicode="&#xea;" d="M472 226L91 226L91 221Q91 138 142 83Q193 28 281 28Q328 28 371 42Q414 56 442 75L442 29Q366-14 273-14Q170-14 108 50Q46 114 46 227Q46 343 108.50 414Q171 485 275 485Q375 485 424.50 421.50Q474 358 474 258L472 226M429 268Q429 346 389.50 394.50Q350 443 272 443Q197 443 149 395.50Q101 348 93 268L429 268M362 551L266 668L170 551L125 551L254 707L278 707L407 551L362 551Z"  horiz-adv-x="511" vert-adv-y="1000"  />

      
      <glyph glyph-name="unieb" unicode="&#xeb;" d="M472 226L91 226L91 221Q91 138 142 83Q193 28 281 28Q328 28 371 42Q414 56 442 75L442 29Q366-14 273-14Q170-14 108 50Q46 114 46 227Q46 343 108.50 414Q171 485 275 485Q375 485 424.50 421.50Q474 358 474 258L472 226M429 268Q429 346 389.50 394.50Q350 443 272 443Q197 443 149 395.50Q101 348 93 268L429 268M168 591L168 648L224 648L224 591L168 591M308 591L308 648L364 648L364 591L308 591Z"  horiz-adv-x="511" vert-adv-y="1000"  />

      
      <glyph glyph-name="uniec" unicode="&#xec;" d="M79 0L79 473L122 473L122 0L79 0M91 560L-22 707L34 707L138 560L91 560Z"  horiz-adv-x="201" vert-adv-y="1000"  />

      
      <glyph glyph-name="unied" unicode="&#xed;" d="M79 0L79 473L122 473L122 0L79 0M61 560L165 707L221 707L108 560L61 560Z"  horiz-adv-x="201" vert-adv-y="1000"  />

      
      <glyph glyph-name="uniee" unicode="&#xee;" d="M79 0L79 473L122 473L122 0L79 0M197 551L101 668L5 551L-40 551L89 707L113 707L242 551L197 551Z"  horiz-adv-x="201" vert-adv-y="1000"  />

      
      <glyph glyph-name="unief" unicode="&#xef;" d="M79 0L79 473L122 473L122 0L79 0M3 591L3 648L59 648L59 591L3 591M143 591L143 648L199 648L199 591L143 591Z"  horiz-adv-x="201" vert-adv-y="1000"  />

      
      <glyph glyph-name="unif0" unicode="&#xf0;" d="M410 737L430 705L347 652Q432 576 480 471.50Q528 367 528 256Q528 130 461 58Q394-14 287-14Q182-14 114 57Q46 128 46 236Q46 344 113.50 414.50Q181 485 285 485Q386 485 450 419L452 421Q409 542 309 628L184 549L163 582L279 654Q241 688 163 733L187 767Q218 748 257.50 721.50Q297 695 316 678L410 737M287 27Q379 27 430.50 89.50Q482 152 482 243Q482 337 427 390.50Q372 444 287 444Q197 444 144.50 386Q92 328 92 236Q92 147 145.50 87Q199 27 287 27Z"  horiz-adv-x="574" vert-adv-y="1000"  />

      
      <glyph glyph-name="unif1" unicode="&#xf1;" d="M466 0L423 0L423 311Q423 386 390.50 415Q358 444 278 444Q237 444 194 436.50Q151 429 122 421L122 0L79 0L79 455Q194 485 281 485Q380 485 423 445.50Q466 406 466 322L466 0M340 618Q360 618 374 636Q388 654 391 678L426 678Q421 636 399 609Q377 582 338 582Q305 582 264.50 612.50Q224 643 199 643Q179 643 166 625.50Q153 608 149 585L114 585Q119 626 140.50 653.50Q162 681 201 681Q234 681 276 649.50Q318 618 340 618Z"  horiz-adv-x="540" vert-adv-y="1000"  />

      
      <glyph glyph-name="unif2" unicode="&#xf2;" d="M287-14Q181-14 113.50 57Q46 128 46 236Q46 344 114 414.50Q182 485 287 485Q393 485 460.50 415Q528 345 528 236Q528 128 460.50 57Q393-14 287-14M287 28Q378 28 430 85.50Q482 143 482 236Q482 328 429 385.50Q376 443 287 443Q196 443 144 386Q92 329 92 236Q92 144 146 86Q200 28 287 28M277 560L164 707L220 707L324 560L277 560Z"  horiz-adv-x="574" vert-adv-y="1000"  />

      
      <glyph glyph-name="unif3" unicode="&#xf3;" d="M287-14Q181-14 113.50 57Q46 128 46 236Q46 344 114 414.50Q182 485 287 485Q393 485 460.50 415Q528 345 528 236Q528 128 460.50 57Q393-14 287-14M287 28Q378 28 430 85.50Q482 143 482 236Q482 328 429 385.50Q376 443 287 443Q196 443 144 386Q92 329 92 236Q92 144 146 86Q200 28 287 28M247 560L351 707L407 707L294 560L247 560Z"  horiz-adv-x="574" vert-adv-y="1000"  />

      
      <glyph glyph-name="unif4" unicode="&#xf4;" d="M287-14Q181-14 113.50 57Q46 128 46 236Q46 344 114 414.50Q182 485 287 485Q393 485 460.50 415Q528 345 528 236Q528 128 460.50 57Q393-14 287-14M287 28Q378 28 430 85.50Q482 143 482 236Q482 328 429 385.50Q376 443 287 443Q196 443 144 386Q92 329 92 236Q92 144 146 86Q200 28 287 28M383 551L287 668L191 551L146 551L275 707L299 707L428 551L383 551Z"  horiz-adv-x="574" vert-adv-y="1000"  />

      
      <glyph glyph-name="unif5" unicode="&#xf5;" d="M287-14Q181-14 113.50 57Q46 128 46 236Q46 344 114 414.50Q182 485 287 485Q393 485 460.50 415Q528 345 528 236Q528 128 460.50 57Q393-14 287-14M287 28Q378 28 430 85.50Q482 143 482 236Q482 328 429 385.50Q376 443 287 443Q196 443 144 386Q92 329 92 236Q92 144 146 86Q200 28 287 28M357 618Q377 618 391 636Q405 654 408 678L443 678Q438 636 416 609Q394 582 355 582Q322 582 281.50 612.50Q241 643 216 643Q196 643 183 625.50Q170 608 166 585L131 585Q136 626 157.50 653.50Q179 681 218 681Q251 681 293 649.50Q335 618 357 618Z"  horiz-adv-x="574" vert-adv-y="1000"  />

      
      <glyph glyph-name="unif6" unicode="&#xf6;" d="M287-14Q181-14 113.50 57Q46 128 46 236Q46 344 114 414.50Q182 485 287 485Q393 485 460.50 415Q528 345 528 236Q528 128 460.50 57Q393-14 287-14M287 28Q378 28 430 85.50Q482 143 482 236Q482 328 429 385.50Q376 443 287 443Q196 443 144 386Q92 329 92 236Q92 144 146 86Q200 28 287 28M189 591L189 648L245 648L245 591L189 591M329 591L329 648L385 648L385 591L329 591Z"  horiz-adv-x="574" vert-adv-y="1000"  />

      
      <glyph glyph-name="unif7" unicode="&#xf7;" d="M240 460L240 527L307 527L307 460L240 460M40 283L40 323L506 323L506 283L40 283M240 80L240 147L307 147L307 80L240 80Z"  horiz-adv-x="546" vert-adv-y="1000"  />

      
      <glyph glyph-name="unif8" unicode="&#xf8;" d="M447 427Q486 393 507 343.50Q528 294 528 236Q528 128 460.50 57Q393-14 287-14Q212-14 154 22L87-71L55-49L124 46Q86 80 66 129Q46 178 46 236Q46 344 114 414.50Q182 485 287 485Q359 485 416 450L485 546L517 524L447 427M149 82L392 417Q346 444 287 444Q196 444 144 386.50Q92 329 92 236Q92 189 107 149.50Q122 110 149 82M482 236Q482 283 466.50 324Q451 365 422 393L179 57Q224 27 287 27Q377 27 429.50 85Q482 143 482 236Z"  horiz-adv-x="574" vert-adv-y="1000"  />

      
      <glyph glyph-name="unif9" unicode="&#xf9;" d="M74 168L74 473L117 473L117 179Q117 104 152.50 66.50Q188 29 282 29Q316 29 354.50 35Q393 41 418 48L418 473L461 473L461 16Q412 3 368-4.50Q324-12 277-12Q167-12 120.50 35.50Q74 83 74 168M260 560L147 707L203 707L307 560L260 560Z"  horiz-adv-x="540" vert-adv-y="1000"  />

      
      <glyph glyph-name="unifa" unicode="&#xfa;" d="M74 168L74 473L117 473L117 179Q117 104 152.50 66.50Q188 29 282 29Q316 29 354.50 35Q393 41 418 48L418 473L461 473L461 16Q412 3 368-4.50Q324-12 277-12Q167-12 120.50 35.50Q74 83 74 168M230 560L334 707L390 707L277 560L230 560Z"  horiz-adv-x="540" vert-adv-y="1000"  />

      
      <glyph glyph-name="unifb" unicode="&#xfb;" d="M74 168L74 473L117 473L117 179Q117 104 152.50 66.50Q188 29 282 29Q316 29 354.50 35Q393 41 418 48L418 473L461 473L461 16Q412 3 368-4.50Q324-12 277-12Q167-12 120.50 35.50Q74 83 74 168M366 551L270 668L174 551L129 551L258 707L282 707L411 551L366 551Z"  horiz-adv-x="540" vert-adv-y="1000"  />

      
      <glyph glyph-name="unifc" unicode="&#xfc;" d="M74 168L74 473L117 473L117 179Q117 104 152.50 66.50Q188 29 282 29Q316 29 354.50 35Q393 41 418 48L418 473L461 473L461 16Q412 3 368-4.50Q324-12 277-12Q167-12 120.50 35.50Q74 83 74 168M172 591L172 648L228 648L228 591L172 591M312 591L312 648L368 648L368 591L312 591Z"  horiz-adv-x="540" vert-adv-y="1000"  />

      
      <glyph glyph-name="unifd" unicode="&#xfd;" d="M83-235L184-3L-11 473L36 473L149 195Q184 108 207 43L209 43Q234 111 271 194L392 473L440 473L129-235L83-235M170 560L274 707L330 707L217 560L170 560Z"  horiz-adv-x="429" vert-adv-y="1000"  />

      
      <glyph glyph-name="unife" unicode="&#xfe;" d="M508 243Q508 129 438 57.50Q368-14 255-14Q212-14 180.50-6.50Q149 1 122 15L122-251L79-251L79 738L122 738L122 452Q192 485 271 485Q381 485 444.50 419.50Q508 354 508 243M122 61Q185 27 260 27Q351 27 406.50 85.50Q462 144 462 242Q462 335 409 389.50Q356 444 266 444Q226 444 187 433.50Q148 423 122 410L122 61Z"  horiz-adv-x="554" vert-adv-y="1000"  />

      
      <glyph glyph-name="uniff" unicode="&#xff;" d="M83-235L184-3L-11 473L36 473L149 195Q184 108 207 43L209 43Q234 111 271 194L392 473L440 473L129-235L83-235M119 591L119 648L175 648L175 591L119 591M259 591L259 648L315 648L315 591L259 591Z"  horiz-adv-x="429" vert-adv-y="1000"  />

      
      <glyph glyph-name="uni0100" unicode="&#x0100;" d="M592 0L493 230L146 230L46 0L-2 0L302 695L343 695L642 0L592 0M164 274L475 274L322 639L320 639L164 274M205 787L205 824L434 824L434 787L205 787Z"  horiz-adv-x="640" vert-adv-y="1000"  />

      
      <glyph glyph-name="uni0101" unicode="&#x0101;" d="M430 24Q397 9 347.50-2Q298-13 238-13Q147-13 98.50 23Q50 59 50 133Q50 203 100.50 244Q151 285 258 285Q326 285 389 272L389 296Q389 378 354 410Q319 442 246 442Q175 442 86 401L86 445Q115 460 160.50 472.50Q206 485 249 485Q346 485 388 440.50Q430 396 430 303L430 24M243 29Q312 29 389 53L389 230L367 233Q302 242 254 242Q175 242 134.50 212.50Q94 183 94 136Q94 29 243 29M137 609L137 646L366 646L366 609L137 609Z"  horiz-adv-x="504" vert-adv-y="1000"  />

      
      <glyph glyph-name="uni0102" unicode="&#x0102;" d="M592 0L493 230L146 230L46 0L-2 0L302 695L343 695L642 0L592 0M164 274L475 274L322 639L320 639L164 274M175 890L212 890Q223 800 320 800Q367 800 395.50 823.50Q424 847 428 890L465 890Q461 828 422.50 796.50Q384 765 320 765Q255 765 217 796.50Q179 828 175 890Z"  horiz-adv-x="640" vert-adv-y="1000"  />

      
      <glyph glyph-name="uni0103" unicode="&#x0103;" d="M430 24Q397 9 347.50-2Q298-13 238-13Q147-13 98.50 23Q50 59 50 133Q50 203 100.50 244Q151 285 258 285Q326 285 389 272L389 296Q389 378 354 410Q319 442 246 442Q175 442 86 401L86 445Q115 460 160.50 472.50Q206 485 249 485Q346 485 388 440.50Q430 396 430 303L430 24M243 29Q312 29 389 53L389 230L367 233Q302 242 254 242Q175 242 134.50 212.50Q94 183 94 136Q94 29 243 29M117 705L154 705Q160 658 182 631.50Q204 605 252 605Q297 605 321 632Q345 659 350 705L387 705Q382 641 347.50 605.50Q313 570 252 570Q190 570 156 605.50Q122 641 117 705Z"  horiz-adv-x="504" vert-adv-y="1000"  />

      
      <glyph glyph-name="uni0104" unicode="&#x0104;" d="M592 0L493 230L146 230L46 0L-2 0L302 695L343 695L642 0L592 0M164 274L475 274L322 639L320 639L164 274M580-182Q609-182 641-167L641-201Q613-215 577-215Q540-215 521-193.50Q502-172 502-136Q502-68 598 0L642 0Q587-42 562-70Q537-98 537-134Q537-156 548-169Q559-182 580-182Z"  horiz-adv-x="640" vert-adv-y="1000"  />

      
      <glyph glyph-name="uni0105" unicode="&#x0105;" d="M368-182Q397-182 429-167L429-201Q401-215 365-215Q328-215 309-193.50Q290-172 290-136Q290-67 361 1Q302-13 238-13Q147-13 98.50 23Q50 59 50 133Q50 203 100.50 244Q151 285 258 285Q326 285 389 272L389 296Q389 378 354 410Q319 442 246 442Q175 442 86 401L86 445Q115 460 160.50 472.50Q206 485 249 485Q346 485 388 440.50Q430 396 430 303L430 24Q375-26 350-59Q325-92 325-134Q325-156 336-169Q347-182 368-182M389 53L389 230L367 233Q302 242 254 242Q175 242 134.50 212.50Q94 183 94 136Q94 29 243 29Q312 29 389 53Z"  horiz-adv-x="504" vert-adv-y="1000"  />

      
      <glyph glyph-name="uni0106" unicode="&#x0106;" d="M602 618Q516 662 402 662Q265 662 185 576Q105 490 105 351Q105 208 188 120.50Q271 33 404 33Q474 33 523 47Q572 61 618 86L618 36Q579 15 528 1.50Q477-12 397-12Q249-12 153 87.50Q57 187 57 348Q57 512 152.50 609.50Q248 707 408 707Q516 707 602 670L602 618M314 757L405 885L459 885L361 757L314 757Z"  horiz-adv-x="656" vert-adv-y="1000"  />

      
      <glyph glyph-name="uni0107" unicode="&#x0107;" d="M430 408Q404 423 367 433Q330 443 289 443Q199 443 145.50 388.50Q92 334 92 238Q92 146 146 87Q200 28 290 28Q338 28 378 38.50Q418 49 442 62L442 17Q415 4 376-5Q337-14 291-14Q181-14 113.50 54.50Q46 123 46 234Q46 347 114 416Q182 485 294 485Q372 485 430 457L430 408M228 560L332 707L388 707L275 560L228 560Z"  horiz-adv-x="476" vert-adv-y="1000"  />

      
      <glyph glyph-name="uni0108" unicode="&#x0108;" d="M602 618Q516 662 402 662Q265 662 185 576Q105 490 105 351Q105 208 188 120.50Q271 33 404 33Q474 33 523 47Q572 61 618 86L618 36Q579 15 528 1.50Q477-12 397-12Q249-12 153 87.50Q57 187 57 348Q57 512 152.50 609.50Q248 707 408 707Q516 707 602 670L602 618M506 761L388 865L271 761L218 761L376 901L400 901L558 761L506 761Z"  horiz-adv-x="656" vert-adv-y="1000"  />

      
      <glyph glyph-name="uni0109" unicode="&#x0109;" d="M430 408Q404 423 367 433Q330 443 289 443Q199 443 145.50 388.50Q92 334 92 238Q92 146 146 87Q200 28 290 28Q338 28 378 38.50Q418 49 442 62L442 17Q415 4 376-5Q337-14 291-14Q181-14 113.50 54.50Q46 123 46 234Q46 347 114 416Q182 485 294 485Q372 485 430 457L430 408M364 551L268 668L172 551L127 551L256 707L280 707L409 551L364 551Z"  horiz-adv-x="476" vert-adv-y="1000"  />

      
      <glyph glyph-name="uni010A" unicode="&#x010A;" d="M602 618Q516 662 402 662Q265 662 185 576Q105 490 105 351Q105 208 188 120.50Q271 33 404 33Q474 33 523 47Q572 61 618 86L618 36Q579 15 528 1.50Q477-12 397-12Q249-12 153 87.50Q57 187 57 348Q57 512 152.50 609.50Q248 707 408 707Q516 707 602 670L602 618M360 768L360 825L416 825L416 768L360 768Z"  horiz-adv-x="656" vert-adv-y="1000"  />

      
      <glyph glyph-name="uni010B" unicode="&#x010B;" d="M430 408Q404 423 367 433Q330 443 289 443Q199 443 145.50 388.50Q92 334 92 238Q92 146 146 87Q200 28 290 28Q338 28 378 38.50Q418 49 442 62L442 17Q415 4 376-5Q337-14 291-14Q181-14 113.50 54.50Q46 123 46 234Q46 347 114 416Q182 485 294 485Q372 485 430 457L430 408M240 591L240 648L296 648L296 591L240 591Z"  horiz-adv-x="476" vert-adv-y="1000"  />

      
      <glyph glyph-name="uni010C" unicode="&#x010C;" d="M602 618Q516 662 402 662Q265 662 185 576Q105 490 105 351Q105 208 188 120.50Q271 33 404 33Q474 33 523 47Q572 61 618 86L618 36Q579 15 528 1.50Q477-12 397-12Q249-12 153 87.50Q57 187 57 348Q57 512 152.50 609.50Q248 707 408 707Q516 707 602 670L602 618M376 761L218 901L270 901L388 797L506 901L558 901L400 761L376 761Z"  horiz-adv-x="656" vert-adv-y="1000"  />

      
      <glyph glyph-name="uni010D" unicode="&#x010D;" d="M430 408Q404 423 367 433Q330 443 289 443Q199 443 145.50 388.50Q92 334 92 238Q92 146 146 87Q200 28 290 28Q338 28 378 38.50Q418 49 442 62L442 17Q415 4 376-5Q337-14 291-14Q181-14 113.50 54.50Q46 123 46 234Q46 347 114 416Q182 485 294 485Q372 485 430 457L430 408M256 551L127 707L172 707L268 590L364 707L409 707L280 551L256 551Z"  horiz-adv-x="476" vert-adv-y="1000"  />

      
      <glyph glyph-name="uni010E" unicode="&#x010E;" d="M291 0L86 0L86 695L278 695Q467 695 563.50 607Q660 519 660 356Q660 196 558 98Q456 0 291 0M131 44L290 44Q438 44 525 126.50Q612 209 612 351Q612 496 527 572.50Q442 649 278 651L131 651L131 44M307 761L149 901L201 901L319 797L437 901L489 901L331 761L307 761Z"  horiz-adv-x="717" vert-adv-y="1000"  />

      
      <glyph glyph-name="uni010F" unicode="&#x010F;" d="M46 227Q46 344 114 414.50Q182 485 300 485Q340 485 371.50 478Q403 471 432 460L432 738L475 738L475 28Q391-14 290-14Q176-14 111 50.50Q46 115 46 227M293 28Q331 28 368 35Q405 42 432 54L432 414Q361 443 298 443Q203 443 147.50 385.50Q92 328 92 230Q92 141 141.50 84.50Q191 28 293 28M525 521L575 738L619 738L558 521L525 521Z"  horiz-adv-x="554" vert-adv-y="1000"  />

      
      <glyph glyph-name="uni0110" unicode="&#x0110;" d="M291 0L86 0L86 324L-5 324L-5 367L86 367L86 695L278 695Q467 695 563.50 607Q660 519 660 356Q660 196 558 98Q456 0 291 0M278 651L131 651L131 367L354 367L354 324L131 324L131 44L290 44Q438 44 525 126.50Q612 209 612 351Q612 496 527 572.50Q442 649 278 651Z"  horiz-adv-x="717" vert-adv-y="1000"  />

      
      <glyph glyph-name="uni0111" unicode="&#x0111;" d="M475 590L475 28Q391-14 290-14Q176-14 111 50.50Q46 115 46 227Q46 344 114 414.50Q182 485 300 485Q340 485 371.50 478Q403 471 432 460L432 590L243 590L243 630L432 630L432 738L475 738L475 630L567 630L567 590L475 590M92 230Q92 141 141.50 84.50Q191 28 293 28Q331 28 368 35Q405 42 432 54L432 414Q361 443 298 443Q203 443 147.50 385.50Q92 328 92 230Z"  horiz-adv-x="554" vert-adv-y="1000"  />

      
      <glyph glyph-name="uni0112" unicode="&#x0112;" d="M130 652L130 375L464 375L464 332L130 332L130 43L514 43L514 0L86 0L86 695L497 695L497 652L130 652M185 787L185 824L414 824L414 787L185 787Z"  horiz-adv-x="555" vert-adv-y="1000"  />

      
      <glyph glyph-name="uni0113" unicode="&#x0113;" d="M472 226L91 226L91 221Q91 138 142 83Q193 28 281 28Q328 28 371 42Q414 56 442 75L442 29Q366-14 273-14Q170-14 108 50Q46 114 46 227Q46 343 108.50 414Q171 485 275 485Q375 485 424.50 421.50Q474 358 474 258L472 226M429 268Q429 346 389.50 394.50Q350 443 272 443Q197 443 149 395.50Q101 348 93 268L429 268M151 609L151 646L380 646L380 609L151 609Z"  horiz-adv-x="511" vert-adv-y="1000"  />

      
      <glyph glyph-name="uni0114" unicode="&#x0114;" d="M130 652L130 375L464 375L464 332L130 332L130 43L514 43L514 0L86 0L86 695L497 695L497 652L130 652M155 890L192 890Q203 800 300 800Q347 800 375.50 823.50Q404 847 408 890L445 890Q441 828 402.50 796.50Q364 765 300 765Q235 765 197 796.50Q159 828 155 890Z"  horiz-adv-x="555" vert-adv-y="1000"  />

      
      <glyph glyph-name="uni0115" unicode="&#x0115;" d="M472 226L91 226L91 221Q91 138 142 83Q193 28 281 28Q328 28 371 42Q414 56 442 75L442 29Q366-14 273-14Q170-14 108 50Q46 114 46 227Q46 343 108.50 414Q171 485 275 485Q375 485 424.50 421.50Q474 358 474 258L472 226M429 268Q429 346 389.50 394.50Q350 443 272 443Q197 443 149 395.50Q101 348 93 268L429 268M131 705L168 705Q174 658 196 631.50Q218 605 266 605Q311 605 335 632Q359 659 364 705L401 705Q396 641 361.50 605.50Q327 570 266 570Q204 570 170 605.50Q136 641 131 705Z"  horiz-adv-x="511" vert-adv-y="1000"  />

      
      <glyph glyph-name="uni0116" unicode="&#x0116;" d="M130 652L130 375L464 375L464 332L130 332L130 43L514 43L514 0L86 0L86 695L497 695L497 652L130 652M272 768L272 825L328 825L328 768L272 768Z"  horiz-adv-x="555" vert-adv-y="1000"  />

      
      <glyph glyph-name="uni0117" unicode="&#x0117;" d="M472 226L91 226L91 221Q91 138 142 83Q193 28 281 28Q328 28 371 42Q414 56 442 75L442 29Q366-14 273-14Q170-14 108 50Q46 114 46 227Q46 343 108.50 414Q171 485 275 485Q375 485 424.50 421.50Q474 358 474 258L472 226M429 268Q429 346 389.50 394.50Q350 443 272 443Q197 443 149 395.50Q101 348 93 268L429 268M238 591L238 648L294 648L294 591L238 591Z"  horiz-adv-x="511" vert-adv-y="1000"  />

      
      <glyph glyph-name="uni0118" unicode="&#x0118;" d="M130 652L130 375L464 375L464 332L130 332L130 43L514 43L514 0L86 0L86 695L497 695L497 652L130 652M452-182Q481-182 513-167L513-201Q485-215 449-215Q412-215 393-193.50Q374-172 374-136Q374-68 470 0L514 0Q459-42 434-70Q409-98 409-134Q409-156 420-169Q431-182 452-182Z"  horiz-adv-x="555" vert-adv-y="1000"  />

      
      <glyph glyph-name="uni0119" unicode="&#x0119;" d="M442 75L442 29Q386-22 361.50-56.50Q337-91 337-134Q337-156 348-169Q359-182 380-182Q409-182 441-167L441-201Q413-215 377-215Q340-215 321-193.50Q302-172 302-136Q302-70 365-2Q319-14 273-14Q170-14 108 50Q46 114 46 227Q46 343 108.50 414Q171 485 275 485Q375 485 424.50 421.50Q474 358 474 258L472 226L91 226L91 221Q91 138 142 83Q193 28 281 28Q328 28 371 42Q414 56 442 75M429 268Q429 346 389.50 394.50Q350 443 272 443Q197 443 149 395.50Q101 348 93 268L429 268Z"  horiz-adv-x="511" vert-adv-y="1000"  />

      
      <glyph glyph-name="uni011A" unicode="&#x011A;" d="M130 652L130 375L464 375L464 332L130 332L130 43L514 43L514 0L86 0L86 695L497 695L497 652L130 652M288 761L130 901L182 901L300 797L418 901L470 901L312 761L288 761Z"  horiz-adv-x="555" vert-adv-y="1000"  />

      
      <glyph glyph-name="uni011B" unicode="&#x011B;" d="M472 226L91 226L91 221Q91 138 142 83Q193 28 281 28Q328 28 371 42Q414 56 442 75L442 29Q366-14 273-14Q170-14 108 50Q46 114 46 227Q46 343 108.50 414Q171 485 275 485Q375 485 424.50 421.50Q474 358 474 258L472 226M429 268Q429 346 389.50 394.50Q350 443 272 443Q197 443 149 395.50Q101 348 93 268L429 268M254 551L125 707L170 707L266 590L362 707L407 707L278 551L254 551Z"  horiz-adv-x="511" vert-adv-y="1000"  />

      
      <glyph glyph-name="uni011C" unicode="&#x011C;" d="M623 614Q589 632 532.50 647Q476 662 415 662Q274 662 189.50 574.50Q105 487 105 349Q105 207 187.50 120Q270 33 402 33Q509 33 596 80L596 309L396 309L396 352L640 352L640 57Q536-12 395-12Q248-12 152.50 87Q57 186 57 346Q57 507 156 607Q255 707 419 707Q481 707 533 695.50Q585 684 623 667L623 614M513 761L395 865L278 761L225 761L383 901L407 901L565 761L513 761Z"  horiz-adv-x="709" vert-adv-y="1000"  />

      
      <glyph glyph-name="uni011D" unicode="&#x011D;" d="M474-3Q474-115 416-182Q358-249 236-249Q184-249 147-240Q110-231 70-217L70-168Q153-207 238-207Q333-207 382-158.50Q431-110 431-5L431 28Q400 10 360-2Q320-14 275-14Q173-14 109.50 52.50Q46 119 46 228Q46 342 115.50 413.50Q185 485 303 485Q354 485 393.50 476.50Q433 468 474 453L474-3M280 28Q321 28 361 40.50Q401 53 431 73L431 421Q365 443 300 443Q194 443 143 381Q92 319 92 230Q92 135 143 81.50Q194 28 280 28M384 551L288 668L192 551L147 551L276 707L300 707L429 551L384 551Z"  horiz-adv-x="553" vert-adv-y="1000"  />

      
      <glyph glyph-name="uni011E" unicode="&#x011E;" d="M623 614Q589 632 532.50 647Q476 662 415 662Q274 662 189.50 574.50Q105 487 105 349Q105 207 187.50 120Q270 33 402 33Q509 33 596 80L596 309L396 309L396 352L640 352L640 57Q536-12 395-12Q248-12 152.50 87Q57 186 57 346Q57 507 156 607Q255 707 419 707Q481 707 533 695.50Q585 684 623 667L623 614M250 890L287 890Q298 800 395 800Q442 800 470.50 823.50Q499 847 503 890L540 890Q536 828 497.50 796.50Q459 765 395 765Q330 765 292 796.50Q254 828 250 890Z"  horiz-adv-x="709" vert-adv-y="1000"  />

      
      <glyph glyph-name="uni011F" unicode="&#x011F;" d="M474-3Q474-115 416-182Q358-249 236-249Q184-249 147-240Q110-231 70-217L70-168Q153-207 238-207Q333-207 382-158.50Q431-110 431-5L431 28Q400 10 360-2Q320-14 275-14Q173-14 109.50 52.50Q46 119 46 228Q46 342 115.50 413.50Q185 485 303 485Q354 485 393.50 476.50Q433 468 474 453L474-3M280 28Q321 28 361 40.50Q401 53 431 73L431 421Q365 443 300 443Q194 443 143 381Q92 319 92 230Q92 135 143 81.50Q194 28 280 28M153 705L190 705Q196 658 218 631.50Q240 605 288 605Q333 605 357 632Q381 659 386 705L423 705Q418 641 383.50 605.50Q349 570 288 570Q226 570 192 605.50Q158 641 153 705Z"  horiz-adv-x="553" vert-adv-y="1000"  />

      
      <glyph glyph-name="uni0120" unicode="&#x0120;" d="M623 614Q589 632 532.50 647Q476 662 415 662Q274 662 189.50 574.50Q105 487 105 349Q105 207 187.50 120Q270 33 402 33Q509 33 596 80L596 309L396 309L396 352L640 352L640 57Q536-12 395-12Q248-12 152.50 87Q57 186 57 346Q57 507 156 607Q255 707 419 707Q481 707 533 695.50Q585 684 623 667L623 614M367 768L367 825L423 825L423 768L367 768Z"  horiz-adv-x="709" vert-adv-y="1000"  />

      
      <glyph glyph-name="uni0121" unicode="&#x0121;" d="M474-3Q474-115 416-182Q358-249 236-249Q184-249 147-240Q110-231 70-217L70-168Q153-207 238-207Q333-207 382-158.50Q431-110 431-5L431 28Q400 10 360-2Q320-14 275-14Q173-14 109.50 52.50Q46 119 46 228Q46 342 115.50 413.50Q185 485 303 485Q354 485 393.50 476.50Q433 468 474 453L474-3M280 28Q321 28 361 40.50Q401 53 431 73L431 421Q365 443 300 443Q194 443 143 381Q92 319 92 230Q92 135 143 81.50Q194 28 280 28M260 591L260 648L316 648L316 591L260 591Z"  horiz-adv-x="553" vert-adv-y="1000"  />

      
      <glyph glyph-name="uni0122" unicode="&#x0122;" d="M623 614Q589 632 532.50 647Q476 662 415 662Q274 662 189.50 574.50Q105 487 105 349Q105 207 187.50 120Q270 33 402 33Q509 33 596 80L596 309L396 309L396 352L640 352L640 57Q536-12 395-12Q248-12 152.50 87Q57 186 57 346Q57 507 156 607Q255 707 419 707Q481 707 533 695.50Q585 684 623 667L623 614M333-231L408-64L457-64L370-231L333-231Z"  horiz-adv-x="709" vert-adv-y="1000"  />

      
      <glyph glyph-name="uni0123" unicode="&#x0123;" d="M474-3Q474-115 416-182Q358-249 236-249Q184-249 147-240Q110-231 70-217L70-168Q153-207 238-207Q333-207 382-158.50Q431-110 431-5L431 28Q400 10 360-2Q320-14 275-14Q173-14 109.50 52.50Q46 119 46 228Q46 342 115.50 413.50Q185 485 303 485Q354 485 393.50 476.50Q433 468 474 453L474-3M280 28Q321 28 361 40.50Q401 53 431 73L431 421Q365 443 300 443Q194 443 143 381Q92 319 92 230Q92 135 143 81.50Q194 28 280 28M226 558L310 725L350 725L277 558L226 558Z"  horiz-adv-x="553" vert-adv-y="1000"  />

      
      <glyph glyph-name="uni0124" unicode="&#x0124;" d="M576 0L576 340L130 340L130 0L86 0L86 695L130 695L130 383L576 383L576 695L620 695L620 0L576 0M471 761L353 865L236 761L183 761L341 901L365 901L523 761L471 761Z"  horiz-adv-x="706" vert-adv-y="1000"  />

      
      <glyph glyph-name="uni0125" unicode="&#x0125;" d="M466 303L466 0L423 0L423 291Q423 370 391.50 407Q360 444 289 444Q246 444 201 428.50Q156 413 122 391L122 0L79 0L79 738L122 738L122 435Q151 455 200 470Q249 485 295 485Q378 485 422 441.50Q466 398 466 303M388 804L270 908L153 804L100 804L258 944L282 944L440 804L388 804Z"  horiz-adv-x="540" vert-adv-y="1000"  />

      
      <glyph glyph-name="uni0126" unicode="&#x0126;" d="M708 563L708 520L620 520L620 0L576 0L576 330L130 330L130 0L86 0L86 520L-2 520L-2 563L86 563L86 695L130 695L130 563L576 563L576 695L620 695L620 563L708 563M130 373L576 373L576 520L130 520L130 373Z"  horiz-adv-x="706" vert-adv-y="1000"  />

      
      <glyph glyph-name="uni0127" unicode="&#x0127;" d="M466 0L423 0L423 291Q423 370 391.50 407Q360 444 289 444Q246 444 201 428.50Q156 413 122 391L122 0L79 0L79 590L-20 590L-20 630L79 630L79 738L122 738L122 630L304 630L304 590L122 590L122 435Q151 455 200 470Q249 485 295 485Q378 485 422 441.50Q466 398 466 303L466 0Z"  horiz-adv-x="540" vert-adv-y="1000"  />

      
      <glyph glyph-name="uni0128" unicode="&#x0128;" d="M86 0L86 695L130 695L130 0L86 0M178 798Q198 798 212 816Q226 834 229 858L264 858Q259 816 237 789Q215 762 176 762Q143 762 102.50 792.50Q62 823 37 823Q17 823 4 805.50Q-9 788-13 765L-48 765Q-43 806-21.50 833.50Q0 861 39 861Q72 861 114 829.50Q156 798 178 798Z"  horiz-adv-x="216" vert-adv-y="1000"  />

      
      <glyph glyph-name="uni0129" unicode="&#x0129;" d="M79 0L79 473L122 473L122 0L79 0M171 618Q191 618 205 636Q219 654 222 678L257 678Q252 636 230 609Q208 582 169 582Q136 582 95.50 612.50Q55 643 30 643Q10 643-3 625.50Q-16 608-20 585L-55 585Q-50 626-28.50 653.50Q-7 681 32 681Q65 681 107 649.50Q149 618 171 618Z"  horiz-adv-x="201" vert-adv-y="1000"  />

      
      <glyph glyph-name="uni012A" unicode="&#x012A;" d="M86 0L86 695L130 695L130 0L86 0M-7 787L-7 824L222 824L222 787L-7 787Z"  horiz-adv-x="216" vert-adv-y="1000"  />

      
      <glyph glyph-name="uni012B" unicode="&#x012B;" d="M79 0L79 473L122 473L122 0L79 0M-14 609L-14 646L215 646L215 609L-14 609Z"  horiz-adv-x="201" vert-adv-y="1000"  />

      
      <glyph glyph-name="uni012C" unicode="&#x012C;" d="M86 0L86 695L130 695L130 0L86 0M-37 890L0 890Q11 800 108 800Q155 800 183.50 823.50Q212 847 216 890L253 890Q249 828 210.50 796.50Q172 765 108 765Q43 765 5 796.50Q-33 828-37 890Z"  horiz-adv-x="216" vert-adv-y="1000"  />

      
      <glyph glyph-name="uni012D" unicode="&#x012D;" d="M79 0L79 473L122 473L122 0L79 0M-34 705L3 705Q9 658 31 631.50Q53 605 101 605Q146 605 170 632Q194 659 199 705L236 705Q231 641 196.50 605.50Q162 570 101 570Q39 570 5 605.50Q-29 641-34 705Z"  horiz-adv-x="201" vert-adv-y="1000"  />

      
      <glyph glyph-name="uni012E" unicode="&#x012E;" d="M149-201Q121-215 85-215Q48-215 29-193.50Q10-172 10-136Q10-67 86 0L86 695L130 695L130 0Q85-42 65-70Q45-98 45-134Q45-156 56-169Q67-182 88-182Q117-182 149-167L149-201Z"  horiz-adv-x="216" vert-adv-y="1000"  />

      
      <glyph glyph-name="uni012F" unicode="&#x012F;" d="M72 591L72 648L128 648L128 591L72 591M140-201Q112-215 76-215Q39-215 20-193.50Q1-172 1-136Q1-68 78 0L78 473L121 473L121 0Q76-42 56-70Q36-98 36-134Q36-156 47-169Q58-182 79-182Q108-182 140-167L140-201Z"  horiz-adv-x="200" vert-adv-y="1000"  />

      
      <glyph glyph-name="uni0130" unicode="&#x0130;" d="M86 0L86 695L130 695L130 0L86 0M80 768L80 825L136 825L136 768L80 768Z"  horiz-adv-x="216" vert-adv-y="1000"  />

      
      <glyph glyph-name="uni0131" unicode="&#x0131;" d="M79 0L79 473L122 473L122 0L79 0Z"  horiz-adv-x="201" vert-adv-y="1000"  />

      
      <glyph glyph-name="uni0132" unicode="&#x0132;" d="M86 0L86 695L130 695L130 0L86 0M227 24L227 71Q252 56 297 43Q342 30 393 30Q493 30 534.50 85.50Q576 141 576 240L576 695L620 695L620 239Q620 124 563.50 56Q507-12 393-12Q339-12 296-1Q253 10 227 24Z"  horiz-adv-x="701" vert-adv-y="1000"  />

      
      <glyph glyph-name="uni0133" unicode="&#x0133;" d="M72 591L72 648L128 648L128 591L72 591M78 0L78 473L121 473L121 0L78 0M272 591L272 648L328 648L328 591L272 591M118-241L118-198Q136-204 161-204Q221-204 249.50-164Q278-124 278-44L278 473L321 473L321-55Q321-152 276-198.50Q231-245 160-245Q138-245 118-241Z"  horiz-adv-x="400" vert-adv-y="1000"  />

      
      <glyph glyph-name="uni0134" unicode="&#x0134;" d="M11 24L11 71Q36 56 81 43Q126 30 177 30Q277 30 318.50 85.50Q360 141 360 240L360 695L404 695L404 239Q404 124 347.50 56Q291-12 177-12Q123-12 80-1Q37 10 11 24M500 761L382 865L265 761L212 761L370 901L394 901L552 761L500 761Z"  horiz-adv-x="485" vert-adv-y="1000"  />

      
      <glyph glyph-name="uni0135" unicode="&#x0135;" d="M-82-241L-82-198Q-64-204-39-204Q21-204 49.50-164Q78-124 78-44L78 473L121 473L121-55Q121-152 76-198.50Q31-245-40-245Q-62-245-82-241M196 551L100 668L4 551L-41 551L88 707L112 707L241 551L196 551Z"  horiz-adv-x="200" vert-adv-y="1000"  />

      
      <glyph glyph-name="uni0136" unicode="&#x0136;" d="M565 0L495 0L131 347L130 347L130 0L86 0L86 695L130 695L130 352L131 352L489 695L556 695L192 351L565 0M225-231L300-64L349-64L262-231L225-231Z"  horiz-adv-x="574" vert-adv-y="1000"  />

      
      <glyph glyph-name="uni0137" unicode="&#x0137;" d="M124 252L369 473L436 473L183 249L434 0L371 0L124 247L122 247L122 0L79 0L79 738L122 738L122 252L124 252M156-231L231-64L280-64L193-231L156-231Z"  horiz-adv-x="456" vert-adv-y="1000"  />

      
      <glyph glyph-name="uni0138" unicode="&#x0138;" d="M434 0L371 0L124 247L122 247L122 0L79 0L79 473L122 473L122 252L124 252L369 473L436 473L183 249L434 0Z"  horiz-adv-x="456" vert-adv-y="1000"  />

      
      <glyph glyph-name="uni0139" unicode="&#x0139;" d="M510 43L510 0L86 0L86 695L130 695L130 43L510 43M74 757L165 885L219 885L121 757L74 757Z"  horiz-adv-x="515" vert-adv-y="1000"  />

      
      <glyph glyph-name="uni013A" unicode="&#x013A;" d="M79 0L79 738L122 738L122 0L79 0M56 800L147 928L201 928L103 800L56 800Z"  horiz-adv-x="201" vert-adv-y="1000"  />

      
      <glyph glyph-name="uni013B" unicode="&#x013B;" d="M510 43L510 0L86 0L86 695L130 695L130 43L510 43M236-231L311-64L360-64L273-231L236-231Z"  horiz-adv-x="515" vert-adv-y="1000"  />

      
      <glyph glyph-name="uni013C" unicode="&#x013C;" d="M79 0L79 738L122 738L122 0L79 0M38-231L113-64L162-64L75-231L38-231Z"  horiz-adv-x="201" vert-adv-y="1000"  />

      
      <glyph glyph-name="uni013D" unicode="&#x013D;" d="M510 43L510 0L86 0L86 695L130 695L130 43L510 43M180 478L230 695L274 695L213 478L180 478Z"  horiz-adv-x="515" vert-adv-y="1000"  />

      
      <glyph glyph-name="uni013E" unicode="&#x013E;" d="M79 0L79 738L122 738L122 0L79 0M172 521L222 738L266 738L205 521L172 521Z"  horiz-adv-x="201" vert-adv-y="1000"  />

      
      <glyph glyph-name="uni013F" unicode="&#x013F;" d="M510 43L510 0L86 0L86 695L130 695L130 43L510 43M338 342L338 399L394 399L394 342L338 342Z"  horiz-adv-x="515" vert-adv-y="1000"  />

      
      <glyph glyph-name="uni0140" unicode="&#x0140;" d="M79 0L79 738L122 738L122 0L79 0M202 298L202 355L258 355L258 298L202 298Z"  horiz-adv-x="259" vert-adv-y="1000"  />

      
      <glyph glyph-name="uni0141" unicode="&#x0141;" d="M307 483L307 435L136 317L136 43L516 43L516 0L92 0L92 287L-6 220L-6 268L92 335L92 695L136 695L136 365L307 483Z"  horiz-adv-x="527" vert-adv-y="1000"  />

      
      <glyph glyph-name="uni0142" unicode="&#x0142;" d="M223 478L223 430L128 363L128 0L85 0L85 332L-8 267L-8 315L85 380L85 738L128 738L128 411L223 478Z"  horiz-adv-x="212" vert-adv-y="1000"  />

      
      <glyph glyph-name="uni0143" unicode="&#x0143;" d="M624 0L129 611L127 611Q127 550 128 427L128 0L86 0L86 695L118 695L611 81L615 81Q615 120 614 211L614 695L656 695L656 0L624 0M305 757L396 885L450 885L352 757L305 757Z"  horiz-adv-x="743" vert-adv-y="1000"  />

      
      <glyph glyph-name="uni0144" unicode="&#x0144;" d="M466 0L423 0L423 311Q423 386 390.50 415Q358 444 278 444Q237 444 194 436.50Q151 429 122 421L122 0L79 0L79 455Q194 485 281 485Q380 485 423 445.50Q466 406 466 322L466 0M230 560L334 707L390 707L277 560L230 560Z"  horiz-adv-x="540" vert-adv-y="1000"  />

      
      <glyph glyph-name="uni0145" unicode="&#x0145;" d="M624 0L129 611L127 611Q127 550 128 427L128 0L86 0L86 695L118 695L611 81L615 81Q615 120 614 211L614 695L656 695L656 0L624 0M309-231L384-64L433-64L346-231L309-231Z"  horiz-adv-x="743" vert-adv-y="1000"  />

      
      <glyph glyph-name="uni0146" unicode="&#x0146;" d="M466 0L423 0L423 311Q423 386 390.50 415Q358 444 278 444Q237 444 194 436.50Q151 429 122 421L122 0L79 0L79 455Q194 485 281 485Q380 485 423 445.50Q466 406 466 322L466 0M208-231L283-64L332-64L245-231L208-231Z"  horiz-adv-x="540" vert-adv-y="1000"  />

      
      <glyph glyph-name="uni0147" unicode="&#x0147;" d="M624 0L129 611L127 611Q127 550 128 427L128 0L86 0L86 695L118 695L611 81L615 81Q615 120 614 211L614 695L656 695L656 0L624 0M367 761L209 901L261 901L379 797L497 901L549 901L391 761L367 761Z"  horiz-adv-x="743" vert-adv-y="1000"  />

      
      <glyph glyph-name="uni0148" unicode="&#x0148;" d="M466 0L423 0L423 311Q423 386 390.50 415Q358 444 278 444Q237 444 194 436.50Q151 429 122 421L122 0L79 0L79 455Q194 485 281 485Q380 485 423 445.50Q466 406 466 322L466 0M258 551L129 707L174 707L270 590L366 707L411 707L282 551L258 551Z"  horiz-adv-x="540" vert-adv-y="1000"  />

      
      <glyph glyph-name="uni0149" unicode="&#x0149;" d="M466 0L423 0L423 311Q423 386 390.50 415Q358 444 278 444Q237 444 194 436.50Q151 429 122 421L122 0L79 0L79 455Q194 485 281 485Q380 485 423 445.50Q466 406 466 322L466 0M18 431L-20 431L91 716L143 716L18 431Z"  horiz-adv-x="540" vert-adv-y="1000"  />

      
      <glyph glyph-name="uni014A" unicode="&#x014A;" d="M313-222L313-175Q372-217 453-217Q534-217 574-169Q614-121 614-46L614 12L129 611L127 611Q127 550 128 427L128 0L86 0L86 695L118 695L611 81L615 81Q615 120 614 211L614 695L656 695L656-50Q656-143 604-201Q552-259 454-259Q380-259 313-222Z"  horiz-adv-x="742" vert-adv-y="1000"  />

      
      <glyph glyph-name="uni014B" unicode="&#x014B;" d="M466-55Q466-152 421-198.50Q376-245 305-245Q283-245 263-241L263-198Q281-204 306-204Q366-204 394.50-164Q423-124 423-44L423 311Q423 386 390.50 415Q358 444 278 444Q237 444 194 436.50Q151 429 122 421L122 0L79 0L79 455Q194 485 281 485Q380 485 423 445.50Q466 406 466 322L466-55Z"  horiz-adv-x="540" vert-adv-y="1000"  />

      
      <glyph glyph-name="uni014C" unicode="&#x014C;" d="M405-12Q244-12 150.50 89Q57 190 57 347Q57 503 155 605Q253 707 405 707Q567 707 660 607.50Q753 508 753 347Q753 193 654.50 90.50Q556-12 405-12M404 33Q537 33 621 121Q705 209 705 347Q705 490 624.50 576Q544 662 404 662Q272 662 188.50 574.50Q105 487 105 347Q105 206 188 119.50Q271 33 404 33M290 787L290 824L519 824L519 787L290 787Z"  horiz-adv-x="810" vert-adv-y="1000"  />

      
      <glyph glyph-name="uni014D" unicode="&#x014D;" d="M287-14Q181-14 113.50 57Q46 128 46 236Q46 344 114 414.50Q182 485 287 485Q393 485 460.50 415Q528 345 528 236Q528 128 460.50 57Q393-14 287-14M287 28Q378 28 430 85.50Q482 143 482 236Q482 328 429 385.50Q376 443 287 443Q196 443 144 386Q92 329 92 236Q92 144 146 86Q200 28 287 28M172 609L172 646L401 646L401 609L172 609Z"  horiz-adv-x="574" vert-adv-y="1000"  />

      
      <glyph glyph-name="uni014E" unicode="&#x014E;" d="M405-12Q244-12 150.50 89Q57 190 57 347Q57 503 155 605Q253 707 405 707Q567 707 660 607.50Q753 508 753 347Q753 193 654.50 90.50Q556-12 405-12M404 33Q537 33 621 121Q705 209 705 347Q705 490 624.50 576Q544 662 404 662Q272 662 188.50 574.50Q105 487 105 347Q105 206 188 119.50Q271 33 404 33M260 890L297 890Q308 800 405 800Q452 800 480.50 823.50Q509 847 513 890L550 890Q546 828 507.50 796.50Q469 765 405 765Q340 765 302 796.50Q264 828 260 890Z"  horiz-adv-x="810" vert-adv-y="1000"  />

      
      <glyph glyph-name="uni014F" unicode="&#x014F;" d="M287-14Q181-14 113.50 57Q46 128 46 236Q46 344 114 414.50Q182 485 287 485Q393 485 460.50 415Q528 345 528 236Q528 128 460.50 57Q393-14 287-14M287 28Q378 28 430 85.50Q482 143 482 236Q482 328 429 385.50Q376 443 287 443Q196 443 144 386Q92 329 92 236Q92 144 146 86Q200 28 287 28M152 705L189 705Q195 658 217 631.50Q239 605 287 605Q332 605 356 632Q380 659 385 705L422 705Q417 641 382.50 605.50Q348 570 287 570Q225 570 191 605.50Q157 641 152 705Z"  horiz-adv-x="574" vert-adv-y="1000"  />

      
      <glyph glyph-name="uni0150" unicode="&#x0150;" d="M405-12Q244-12 150.50 89Q57 190 57 347Q57 503 155 605Q253 707 405 707Q567 707 660 607.50Q753 508 753 347Q753 193 654.50 90.50Q556-12 405-12M404 33Q537 33 621 121Q705 209 705 347Q705 490 624.50 576Q544 662 404 662Q272 662 188.50 574.50Q105 487 105 347Q105 206 188 119.50Q271 33 404 33M294 757L385 885L439 885L341 757L294 757M421 757L512 885L566 885L468 757L421 757Z"  horiz-adv-x="810" vert-adv-y="1000"  />

      
      <glyph glyph-name="uni0151" unicode="&#x0151;" d="M287-14Q181-14 113.50 57Q46 128 46 236Q46 344 114 414.50Q182 485 287 485Q393 485 460.50 415Q528 345 528 236Q528 128 460.50 57Q393-14 287-14M287 28Q378 28 430 85.50Q482 143 482 236Q482 328 429 385.50Q376 443 287 443Q196 443 144 386Q92 329 92 236Q92 144 146 86Q200 28 287 28M177 560L281 707L337 707L224 560L177 560M304 560L408 707L464 707L351 560L304 560Z"  horiz-adv-x="574" vert-adv-y="1000"  />

      
      <glyph glyph-name="uni0152" unicode="&#x0152;" d="M592 695L1003 695L1003 652L636 652L636 375L970 375L970 332L636 332L636 43L1020 43L1020 0L592 0L592 49Q548 19 499.50 3.50Q451-12 393-12Q239-12 148 89Q57 190 57 345Q57 503 152 605Q247 707 398 707Q453 707 503 692.50Q553 678 592 649L592 695M399 33Q508 33 592 99L592 598Q511 662 401 662Q266 662 185.50 574.50Q105 487 105 346Q105 205 186 119Q267 33 399 33Z"  horiz-adv-x="1061" vert-adv-y="1000"  />

      
      <glyph glyph-name="uni0153" unicode="&#x0153;" d="M905 226L524 226L524 221Q524 138 575 83Q626 28 714 28Q761 28 804 42Q847 56 875 75L875 29Q799-14 706-14Q630-14 576.50 22Q523 58 500 125Q474 61 418.50 23.50Q363-14 287-14Q181-14 113.50 57Q46 128 46 236Q46 344 114 414.50Q182 485 287 485Q365 485 421.50 446Q478 407 503 340Q527 409 580.50 447Q634 485 708 485Q808 485 857.50 421.50Q907 358 907 258L905 226M287 27Q377 27 429.50 85Q482 143 482 236Q482 328 429.50 386Q377 444 287 444Q196 444 144 386.50Q92 329 92 236Q92 144 146 85.50Q200 27 287 27M862 268Q862 346 822.50 394.50Q783 443 705 443Q630 443 582 395.50Q534 348 526 268L862 268Z"  horiz-adv-x="944" vert-adv-y="1000"  />

      
      <glyph glyph-name="uni0154" unicode="&#x0154;" d="M364 294L582 0L526 0L311 290L130 290L130 0L86 0L86 695L307 695Q435 695 492 643.50Q549 592 549 496Q549 416 501 362.50Q453 309 364 294M130 333L314 333Q413 333 457 380Q501 427 501 495Q501 572 453.50 611.50Q406 651 299 651L130 651L130 333M221 757L312 885L366 885L268 757L221 757Z"  horiz-adv-x="609" vert-adv-y="1000"  />

      
      <glyph glyph-name="uni0155" unicode="&#x0155;" d="M331 436Q294 444 247 444Q214 444 178.50 437.50Q143 431 122 423L122 0L79 0L79 453Q161 485 248 485Q294 485 331 477L331 436M161 560L265 707L321 707L208 560L161 560Z"  horiz-adv-x="342" vert-adv-y="1000"  />

      
      <glyph glyph-name="uni0156" unicode="&#x0156;" d="M364 294L582 0L526 0L311 290L130 290L130 0L86 0L86 695L307 695Q435 695 492 643.50Q549 592 549 496Q549 416 501 362.50Q453 309 364 294M130 333L314 333Q413 333 457 380Q501 427 501 495Q501 572 453.50 611.50Q406 651 299 651L130 651L130 333M233-231L308-64L357-64L270-231L233-231Z"  horiz-adv-x="609" vert-adv-y="1000"  />

      
      <glyph glyph-name="uni0157" unicode="&#x0157;" d="M331 436Q294 444 247 444Q214 444 178.50 437.50Q143 431 122 423L122 0L79 0L79 453Q161 485 248 485Q294 485 331 477L331 436M39-231L114-64L163-64L76-231L39-231Z"  horiz-adv-x="342" vert-adv-y="1000"  />

      
      <glyph glyph-name="uni0158" unicode="&#x0158;" d="M364 294L582 0L526 0L311 290L130 290L130 0L86 0L86 695L307 695Q435 695 492 643.50Q549 592 549 496Q549 416 501 362.50Q453 309 364 294M130 333L314 333Q413 333 457 380Q501 427 501 495Q501 572 453.50 611.50Q406 651 299 651L130 651L130 333M283 761L125 901L177 901L295 797L413 901L465 901L307 761L283 761Z"  horiz-adv-x="609" vert-adv-y="1000"  />

      
      <glyph glyph-name="uni0159" unicode="&#x0159;" d="M331 436Q294 444 247 444Q214 444 178.50 437.50Q143 431 122 423L122 0L79 0L79 453Q161 485 248 485Q294 485 331 477L331 436M189 551L60 707L105 707L201 590L297 707L342 707L213 551L189 551Z"  horiz-adv-x="342" vert-adv-y="1000"  />

      
      <glyph glyph-name="uni015A" unicode="&#x015A;" d="M475 620Q429 640 388.50 651Q348 662 290 662Q202 662 152.50 624Q103 586 103 524Q103 465 146 432.50Q189 400 304 368.50Q419 337 464.50 295Q510 253 510 183Q510 99 446 43.50Q382-12 265-12Q133-12 54 40L54 94Q146 33 270 33Q362 33 412.50 73Q463 113 463 177Q463 235 425 266.50Q387 298 269.50 329.50Q152 361 104 403.50Q56 446 56 522Q56 602 122.50 654.50Q189 707 293 707Q386 707 475 672L475 620M207 757L298 885L352 885L254 757L207 757Z"  horiz-adv-x="562" vert-adv-y="1000"  />

      
      <glyph glyph-name="uni015B" unicode="&#x015B;" d="M349 414Q289 443 217 443Q155 443 124.50 418.50Q94 394 94 350Q94 315 123 295Q152 275 234 249.50Q316 224 345.50 195Q375 166 375 118Q375 64 331.50 26Q288-12 202-12Q158-12 118.50-4Q79 4 54 18L54 66Q82 50 124.50 39.50Q167 29 206 29Q267 29 299 52.50Q331 76 331 117Q331 169 276.50 189Q222 209 181.50 220.50Q141 232 95.50 260Q50 288 50 350Q50 407 96 445.50Q142 484 225 484Q261 484 295.50 477.50Q330 471 349 461L349 414M171 560L275 707L331 707L218 560L171 560Z"  horiz-adv-x="421" vert-adv-y="1000"  />

      
      <glyph glyph-name="uni015C" unicode="&#x015C;" d="M475 620Q429 640 388.50 651Q348 662 290 662Q202 662 152.50 624Q103 586 103 524Q103 465 146 432.50Q189 400 304 368.50Q419 337 464.50 295Q510 253 510 183Q510 99 446 43.50Q382-12 265-12Q133-12 54 40L54 94Q146 33 270 33Q362 33 412.50 73Q463 113 463 177Q463 235 425 266.50Q387 298 269.50 329.50Q152 361 104 403.50Q56 446 56 522Q56 602 122.50 654.50Q189 707 293 707Q386 707 475 672L475 620M399 761L281 865L164 761L111 761L269 901L293 901L451 761L399 761Z"  horiz-adv-x="562" vert-adv-y="1000"  />

      
      <glyph glyph-name="uni015D" unicode="&#x015D;" d="M349 414Q289 443 217 443Q155 443 124.50 418.50Q94 394 94 350Q94 315 123 295Q152 275 234 249.50Q316 224 345.50 195Q375 166 375 118Q375 64 331.50 26Q288-12 202-12Q158-12 118.50-4Q79 4 54 18L54 66Q82 50 124.50 39.50Q167 29 206 29Q267 29 299 52.50Q331 76 331 117Q331 169 276.50 189Q222 209 181.50 220.50Q141 232 95.50 260Q50 288 50 350Q50 407 96 445.50Q142 484 225 484Q261 484 295.50 477.50Q330 471 349 461L349 414M307 551L211 668L115 551L70 551L199 707L223 707L352 551L307 551Z"  horiz-adv-x="421" vert-adv-y="1000"  />

      
      <glyph glyph-name="uni015E" unicode="&#x015E;" d="M269-60Q365-60 369-137Q369-180 338-201.50Q307-223 259-223Q215-223 173-209L173-175Q220-192 260-192Q297-192 314.50-177.50Q332-163 332-138Q332-115 315-101.50Q298-88 265-87L227-86L252-12Q128-9 54 40L54 94Q146 33 270 33Q362 33 412.50 73Q463 113 463 177Q463 235 425 266.50Q387 298 269.50 329.50Q152 361 104 403.50Q56 446 56 522Q56 602 122.50 654.50Q189 707 293 707Q386 707 475 672L475 620Q429 640 388.50 651Q348 662 290 662Q202 662 152.50 624Q103 586 103 524Q103 465 146 432.50Q189 400 304 368.50Q419 337 464.50 295Q510 253 510 183Q510 105 452.50 49.50Q395-6 286-12L269-60Z"  horiz-adv-x="562" vert-adv-y="1000"  />

      
      <glyph glyph-name="uni015F" unicode="&#x015F;" d="M209-60Q305-60 309-137Q309-180 278-201.50Q247-223 199-223Q155-223 113-209L113-175Q160-192 200-192Q237-192 254.50-177.50Q272-163 272-138Q272-115 255-101.50Q238-88 205-87L167-86L192-12Q151-12 114.50-3.50Q78 5 54 18L54 66Q82 50 124.50 39.50Q167 29 206 29Q267 29 299 52.50Q331 76 331 117Q331 169 276.50 189Q222 209 181.50 220.50Q141 232 95.50 260Q50 288 50 350Q50 407 96 445.50Q142 484 225 484Q261 484 295.50 477.50Q330 471 349 461L349 414Q289 443 217 443Q155 443 124.50 418.50Q94 394 94 350Q94 315 123 295Q152 275 234 249.50Q316 224 345.50 195Q375 166 375 118Q375 68 337.50 31.50Q300-5 226-11L209-60Z"  horiz-adv-x="421" vert-adv-y="1000"  />

      
      <glyph glyph-name="uni0160" unicode="&#x0160;" d="M475 620Q429 640 388.50 651Q348 662 290 662Q202 662 152.50 624Q103 586 103 524Q103 465 146 432.50Q189 400 304 368.50Q419 337 464.50 295Q510 253 510 183Q510 99 446 43.50Q382-12 265-12Q133-12 54 40L54 94Q146 33 270 33Q362 33 412.50 73Q463 113 463 177Q463 235 425 266.50Q387 298 269.50 329.50Q152 361 104 403.50Q56 446 56 522Q56 602 122.50 654.50Q189 707 293 707Q386 707 475 672L475 620M269 761L111 901L163 901L281 797L399 901L451 901L293 761L269 761Z"  horiz-adv-x="562" vert-adv-y="1000"  />

      
      </font>
</defs>
</svg>
