<?xml version="1.0" standalone="no"?>
  <!DOCTYPE svg PUBLIC "-//W3C//DTD SVG 1.1//EN" "http://www.w3.org/Graphics/SVG/1.1/DTD/svg11.dtd" >
  <svg>
  <metadata>
  Created by font-carrier
  </metadata>
  <defs>
  <font id="EMprint-Bold" horiz-adv-x="1237" vert-adv-y="1237" >
    <font-face
      
      font-family="EMprint-Bold"
      
      font-weight="400"
      
      font-stretch="normal"
      
      units-per-em="1000"
      
      ascent="960"
      
      descent="-267"
      
    />
      <missing-glyph />

      

      
      <glyph glyph-name="uni21" unicode="&#x21;" d="M66 230L56 695L206 695L197 230L66 230M208 0L51 0L51 157L208 157L208 0Z"  horiz-adv-x="259" vert-adv-y="1000"  />

      
      <glyph glyph-name="uni22" unicode="&#x22;" d="M41 415L29 714L157 714L145 415L41 415M224 415L212 714L340 714L328 415L224 415Z"  horiz-adv-x="369" vert-adv-y="1000"  />

      
      <glyph glyph-name="uni23" unicode="&#x23;" d="M433 411L410 281L501 281L501 171L390 171L360 0L264 0L294 171L195 171L165 0L69 0L99 171L17 171L17 281L119 281L142 411L53 411L53 521L161 521L192 695L288 695L257 521L356 521L387 695L483 695L452 521L537 521L537 411L433 411M314 281L337 411L238 411L215 281L314 281Z"  horiz-adv-x="554" vert-adv-y="1000"  />

      
      <glyph glyph-name="uni24" unicode="&#x24;" d="M76 184Q106 167 155 153.50Q204 140 252 138L252 292Q141 323 100 368.50Q59 414 59 487Q59 559 109.50 613Q160 667 252 681L252 788L332 788L332 685Q425 682 487 661L487 523Q457 532 414.50 541Q372 550 332 553L332 405Q424 378 475 333.50Q526 289 526 211Q526 138 474 82.50Q422 27 332 14L332-96L252-96L252 10Q200 10 153.50 19.50Q107 29 76 42L76 184M252 548Q223 541 211 526Q199 511 199 489Q199 467 212 452.50Q225 438 252 428L252 548M332 144Q385 158 385 203Q385 227 372 241.50Q359 256 332 267L332 144Z"  horiz-adv-x="586" vert-adv-y="1000"  />

      
      <glyph glyph-name="uni25" unicode="&#x25;" d="M397 519Q397 436 346.50 384Q296 332 211 332Q126 332 75.50 384Q25 436 25 519Q25 603 75.50 653.50Q126 704 211 704Q295 704 346 653.50Q397 603 397 519M93 0L607 695L744 695L230 0L93 0M281 519Q281 560 263 583.50Q245 607 211 607Q177 607 158 583Q139 559 139 519Q139 478 158 454Q177 430 211 430Q245 430 263 453.50Q281 477 281 519M817 175Q817 92 766.50 40Q716-12 631-12Q546-12 495.50 40Q445 92 445 175Q445 259 495.50 309.50Q546 360 631 360Q715 360 766 309.50Q817 259 817 175M701 175Q701 216 683 239.50Q665 263 631 263Q597 263 578 239Q559 215 559 175Q559 134 578 110Q597 86 631 86Q665 86 683 109.50Q701 133 701 175Z"  horiz-adv-x="842" vert-adv-y="1000"  />

      
      <glyph glyph-name="uni26" unicode="&#x26;" d="M420 366L509 263L573 375L725 375Q710 347 663.50 269Q617 191 596 161L737 0L546 0L492 68Q421-14 292-14Q180-14 117 43.50Q54 101 54 195Q54 268 88.50 316.50Q123 365 207 406Q178 443 163.50 473.50Q149 504 149 543Q149 618 206.50 666Q264 714 361 714Q464 714 512 665.50Q560 617 560 547Q560 487 525 443Q490 399 420 366M336 457Q376 476 392.50 495.50Q409 515 409 544Q409 568 393.50 582.50Q378 597 352 597Q323 597 308.50 582.50Q294 568 294 545Q294 521 305 500.50Q316 480 336 457M308 109Q374 109 412 160L283 310Q243 293 224 266.50Q205 240 205 202Q205 159 233.50 134Q262 109 308 109Z"  horiz-adv-x="745" vert-adv-y="1000"  />

      
      <glyph glyph-name="uni27" unicode="&#x27;" d="M41 415L29 714L157 714L145 415L41 415Z"  horiz-adv-x="186" vert-adv-y="1000"  />

      
      <glyph glyph-name="uni28" unicode="&#x28;" d="M182 770L328 770Q253 672 209 553Q165 434 165 305Q165 173 209 56Q253-61 328-160L182-160Q108-67 67 53Q26 173 26 305Q26 435 67 554.50Q108 674 182 770Z"  horiz-adv-x="333" vert-adv-y="1000"  />

      
      <glyph glyph-name="uni29" unicode="&#x29;" d="M151-160L5-160Q80-62 124 57Q168 176 168 305Q168 437 124 554Q80 671 5 770L151 770Q225 677 266 557Q307 437 307 305Q307 175 266 55.50Q225-64 151-160Z"  horiz-adv-x="333" vert-adv-y="1000"  />

      
      <glyph glyph-name="uni2a" unicode="&#x2a;" d="M421 619L454 518L302 486L406 364L316 302L237 440L157 302L66 364L171 486L20 516L52 621L196 560L186 712L289 712L275 560L421 619Z"  horiz-adv-x="474" vert-adv-y="1000"  />

      
      <glyph glyph-name="uni2b" unicode="&#x2b;" d="M536 235L361 235L361 60L225 60L225 235L50 235L50 371L225 371L225 546L361 546L361 371L536 371L536 235Z"  horiz-adv-x="586" vert-adv-y="1000"  />

      
      <glyph glyph-name="uni2c" unicode="&#x2c;" d="M92-129L-35-129L81 157L228 157L92-129Z"  horiz-adv-x="250" vert-adv-y="1000"  />

      
      <glyph glyph-name="uni2d" unicode="&#x2d;" d="M352 337L352 204L38 204L38 337L352 337Z"  horiz-adv-x="390" vert-adv-y="1000"  />

      
      <glyph glyph-name="uni2e" unicode="&#x2e;" d="M203 0L46 0L46 157L203 157L203 0Z"  horiz-adv-x="250" vert-adv-y="1000"  />

      
      <glyph glyph-name="uni2f" unicode="&#x2f;" d="M-7-49L335 750L454 750L112-49L-7-49Z"  horiz-adv-x="447" vert-adv-y="1000"  />

      
      <glyph glyph-name="uni30" unicode="&#x30;" d="M551 351Q551 180 480.50 83.50Q410-13 293-13Q173-13 104 83.50Q35 180 35 352Q35 517 104.50 612Q174 707 294 707Q413 707 482 612Q551 517 551 351M191 353Q191 246 217 186Q243 126 294 126Q341 126 368 185.50Q395 245 395 349Q395 450 369.50 509Q344 568 293 568Q244 568 217.50 510.50Q191 453 191 353Z"  horiz-adv-x="586" vert-adv-y="1000"  />

      
      <glyph glyph-name="uni31" unicode="&#x31;" d="M69 590L319 712L407 712L407 0L253 0L253 524L69 432L69 590Z"  horiz-adv-x="586" vert-adv-y="1000"  />

      
      <glyph glyph-name="uni32" unicode="&#x32;" d="M521 497Q521 427 488 368.50Q455 310 348 222L250 141L530 141L530 0L50 0L50 126L261 317Q319 369 342.50 403.50Q366 438 366 473Q366 518 339 543.50Q312 569 256 569Q167 569 81 508L81 657Q117 679 169.50 693Q222 707 287 707Q406 707 463.50 648.50Q521 590 521 497Z"  horiz-adv-x="586" vert-adv-y="1000"  />

      
      <glyph glyph-name="uni33" unicode="&#x33;" d="M53 23L53 165Q79 151 132.50 136Q186 121 234 121Q356 121 356 201Q356 244 318.50 263Q281 282 209 282L133 282L133 421L200 421Q342 421 342 502Q342 536 313 553.50Q284 571 233 571Q186 571 141 557Q96 543 66 527L66 663Q100 681 153.50 694Q207 707 272 707Q386 707 445 654Q504 601 504 519Q504 457 470.50 414Q437 371 379 357L379 355Q449 339 484 301.50Q519 264 519 195Q519 105 447.50 46.50Q376-12 250-12Q187-12 135.50-2Q84 8 53 23Z"  horiz-adv-x="586" vert-adv-y="1000"  />

      
      <glyph glyph-name="uni34" unicode="&#x34;" d="M317 0L317 140L11 140L11 271L307 695L463 695L463 267L570 267L570 140L463 140L463 0L317 0M159 267L317 267L317 506L314 506Q299 476 265 426L159 267Z"  horiz-adv-x="586" vert-adv-y="1000"  />

      
      <glyph glyph-name="uni35" unicode="&#x35;" d="M366 224Q366 275 328 298Q290 321 217 321Q158 321 79 310L101 695L498 695L498 554L234 554L227 447Q247 449 274 449Q396 449 459 392.50Q522 336 522 229Q522 119 448.50 53.50Q375-12 246-12Q191-12 144-3Q97 6 64 22L64 163Q106 146 144.50 136Q183 126 237 126Q305 126 335.50 153Q366 180 366 224Z"  horiz-adv-x="586" vert-adv-y="1000"  />

      
      <glyph glyph-name="uni36" unicode="&#x36;" d="M277 695L445 695L279 431L280 429Q289 432 307 434.50Q325 437 342 437Q426 437 486 377Q546 317 546 225Q546 122 475.50 55Q405-12 298-12Q186-12 116 53.50Q46 119 46 225Q46 319 111 426L277 695M390 223Q390 266 365 293.50Q340 321 297 321Q253 321 227 293.50Q201 266 201 223Q201 176 228 151Q255 126 297 126Q340 126 365 153Q390 180 390 223Z"  horiz-adv-x="586" vert-adv-y="1000"  />

      
      <glyph glyph-name="uni37" unicode="&#x37;" d="M88 0L357 554L41 554L41 695L539 695L539 594L257 0L88 0Z"  horiz-adv-x="586" vert-adv-y="1000"  />

      
      <glyph glyph-name="uni38" unicode="&#x38;" d="M41 195Q41 254 72 297.50Q103 341 172 359L172 361Q122 378 91 416Q60 454 60 517Q60 596 126.50 651.50Q193 707 293 707Q393 707 460 653Q527 599 527 517Q527 456 494.50 416.50Q462 377 410 361L410 359Q545 325 545 195Q545 101 476 44Q407-13 293-13Q178-13 109.50 44.50Q41 102 41 195M370 503Q370 534 349 553.50Q328 573 293 573Q259 573 238 554Q217 535 217 503Q217 471 238 452Q259 433 293 433Q328 433 349 452Q370 471 370 503M387 205Q387 243 362.50 263.50Q338 284 293 284Q249 284 224 263.50Q199 243 199 205Q199 167 224 145.50Q249 124 293 124Q337 124 362 145Q387 166 387 205Z"  horiz-adv-x="586" vert-adv-y="1000"  />

      
      <glyph glyph-name="uni39" unicode="&#x39;" d="M309 0L139 0L306 264L305 266Q296 263 278 260.50Q260 258 243 258Q160 258 100 317.50Q40 377 40 470Q40 572 110 639.50Q180 707 287 707Q399 707 469 641.50Q539 576 539 470Q539 418 522.50 370Q506 322 476 272L309 0M196 472Q196 429 220.50 402Q245 375 288 375Q332 375 358 402Q384 429 384 472Q384 519 357 544.50Q330 570 288 570Q245 570 220.50 543Q196 516 196 472Z"  horiz-adv-x="586" vert-adv-y="1000"  />

      
      <glyph glyph-name="uni3a" unicode="&#x3a;" d="M203 0L46 0L46 157L203 157L203 0M203 330L46 330L46 487L203 487L203 330Z"  horiz-adv-x="250" vert-adv-y="1000"  />

      
      <glyph glyph-name="uni3b" unicode="&#x3b;" d="M203 330L46 330L46 487L203 487L203 330M92-129L-35-129L81 157L228 157L92-129Z"  horiz-adv-x="250" vert-adv-y="1000"  />

      
      <glyph glyph-name="uni3c" unicode="&#x3c;" d="M214 284L536 153L536 0L50 215L50 353L536 569L536 415L214 284Z"  horiz-adv-x="586" vert-adv-y="1000"  />

      
      <glyph glyph-name="uni3d" unicode="&#x3d;" d="M536 494L536 358L50 358L50 494L536 494M536 248L536 112L50 112L50 248L536 248Z"  horiz-adv-x="586" vert-adv-y="1000"  />

      
      <glyph glyph-name="uni3e" unicode="&#x3e;" d="M372 285L50 416L50 569L536 354L536 216L50 0L50 154L372 285Z"  horiz-adv-x="586" vert-adv-y="1000"  />

      
      <glyph glyph-name="uni3f" unicode="&#x3f;" d="M184 580Q145 580 107 569.50Q69 559 44 546L44 670Q71 683 118.50 694Q166 705 221 705Q318 705 376.50 653Q435 601 435 513Q435 441 397 386Q359 331 264 278L264 230L139 230L139 346Q218 382 253 415.50Q288 449 288 493Q288 535 261 557.50Q234 580 184 580M280 0L123 0L123 157L280 157L280 0Z"  horiz-adv-x="456" vert-adv-y="1000"  />

      
      <glyph glyph-name="uni40" unicode="&#x40;" d="M649 128Q568 128 538 171Q513 153 484 142.50Q455 132 426 132Q348 132 301.50 186Q255 240 255 326Q255 418 311.50 477.50Q368 537 468 537Q548 537 629 505L628 274Q628 227 661 227Q691 227 711 261Q731 295 731 371Q731 484 658.50 545.50Q586 607 460 607Q326 607 247 529Q168 451 168 331Q168 206 248 131Q328 56 456 56Q553 56 634 82L634-30Q552-54 462-54Q276-54 161 49Q46 152 46 323Q46 501 159.50 607.50Q273 714 460 714Q635 714 744 620Q853 526 853 372Q853 255 798 191.50Q743 128 649 128M457 238Q481 238 498 242L517 247L517 424Q491 431 465 431Q419 431 394 404Q369 377 369 334Q369 289 393.50 263.50Q418 238 457 238Z"  horiz-adv-x="899" vert-adv-y="1000"  />

      
      <glyph glyph-name="uni41" unicode="&#x41;" d="M551 0L493 151L228 151L169 0L4 0L291 695L435 695L718 0L551 0M276 276L442 276L361 495L359 495L276 276Z"  horiz-adv-x="722" vert-adv-y="1000"  />

      
      <glyph glyph-name="uni42" unicode="&#x42;" d="M465 366L465 364Q535 353 578.50 314.50Q622 276 622 201Q622 106 555 53Q488 0 349 0L68 0L68 695L349 695Q602 695 602 521Q602 462 564 420.50Q526 379 465 366M226 423L314 423Q376 423 402 443Q428 463 428 500Q428 534 405 551Q382 568 323 568L226 568L226 423M226 134L328 134Q396 134 425 154Q454 174 454 215Q454 291 324 291L226 291L226 134Z"  horiz-adv-x="654" vert-adv-y="1000"  />

      
      <glyph glyph-name="uni43" unicode="&#x43;" d="M584 523Q497 562 415 562Q305 562 252.50 506.50Q200 451 200 356Q200 254 257.50 195.50Q315 137 416 137Q466 137 514.50 150.50Q563 164 595 182L595 30Q555 10 510-1.50Q465-13 406-13Q236-13 134 85Q32 183 32 348Q32 517 131 612Q230 707 407 707Q501 707 584 676L584 523Z"  horiz-adv-x="626" vert-adv-y="1000"  />

      
      <glyph glyph-name="uni44" unicode="&#x44;" d="M309 0L68 0L68 695L319 695Q498 695 596 605.50Q694 516 694 355Q694 197 590 98.50Q486 0 309 0M223 141L308 141Q418 141 473.50 196.50Q529 252 529 348Q529 446 475 500Q421 554 310 554L223 554L223 141Z"  horiz-adv-x="726" vert-adv-y="1000"  />

      
      <glyph glyph-name="uni45" unicode="&#x45;" d="M222 553L222 423L505 423L505 281L222 281L222 142L547 142L547 0L68 0L68 695L533 695L533 553L222 553Z"  horiz-adv-x="578" vert-adv-y="1000"  />

      
      <glyph glyph-name="uni46" unicode="&#x46;" d="M223 553L223 404L515 404L515 262L223 262L223 0L68 0L68 695L531 695L531 553L223 553Z"  horiz-adv-x="548" vert-adv-y="1000"  />

      
      <glyph glyph-name="uni47" unicode="&#x47;" d="M621 530Q574 545 527 555.50Q480 566 418 566Q308 566 251.50 508Q195 450 195 349Q195 246 248.50 187.50Q302 129 405 129Q432 129 451.50 132.50Q471 136 494 142L494 262L340 262L340 391L645 391L645 48Q601 23 539.50 5.50Q478-12 400-12Q226-12 129 85Q32 182 32 347Q32 513 136 610Q240 707 430 707Q490 707 532.50 699.50Q575 692 621 678L621 530Z"  horiz-adv-x="699" vert-adv-y="1000"  />

      
      <glyph glyph-name="uni48" unicode="&#x48;" d="M527 0L527 278L221 278L221 0L68 0L68 695L221 695L221 419L527 419L527 695L681 695L681 0L527 0Z"  horiz-adv-x="749" vert-adv-y="1000"  />

      
      <glyph glyph-name="uni49" unicode="&#x49;" d="M68 0L68 695L222 695L222 0L68 0Z"  horiz-adv-x="290" vert-adv-y="1000"  />

      
      <glyph glyph-name="uni4a" unicode="&#x4a;" d="M8 13L8 157Q29 147 67.50 139Q106 131 137 131Q216 131 247.50 168.50Q279 206 279 293L279 695L434 695L434 285Q434 145 369.50 67Q305-11 154-11Q113-11 73.50-4Q34 3 8 13Z"  horiz-adv-x="500" vert-adv-y="1000"  />

      
      <glyph glyph-name="uni4b" unicode="&#x4b;" d="M683 0L483 0L224 342L222 342L222 0L68 0L68 695L222 695L222 355L224 355L479 695L682 695L401 352L683 0Z"  horiz-adv-x="683" vert-adv-y="1000"  />

      
      <glyph glyph-name="uni4c" unicode="&#x4c;" d="M543 140L543 0L68 0L68 695L222 695L222 140L543 140Z"  horiz-adv-x="553" vert-adv-y="1000"  />

      
      <glyph glyph-name="uni4d" unicode="&#x4d;" d="M692 0L690 457L688 457L513 0L391 0L215 456L213 456L213 0L68 0L68 695L263 695L452 208L454 208L644 695L837 695L837 0L692 0Z"  horiz-adv-x="905" vert-adv-y="1000"  />

      
      <glyph glyph-name="uni4e" unicode="&#x4e;" d="M547 0L219 430L217 430Q219 400 219 330L219 0L68 0L68 695L197 695L537 263L539 263Q536 310 536 362L536 695L687 695L687 0L547 0Z"  horiz-adv-x="755" vert-adv-y="1000"  />

      
      <glyph glyph-name="uni4f" unicode="&#x4f;" d="M389-12Q221-12 126.50 87Q32 186 32 347Q32 506 131 606.50Q230 707 389 707Q557 707 651.50 608.50Q746 510 746 347Q746 192 647.50 90Q549-12 389-12M388 133Q482 133 535.50 192Q589 251 589 347Q589 445 538 503.50Q487 562 388 562Q296 562 242.50 503.50Q189 445 189 347Q189 249 242 191Q295 133 388 133Z"  horiz-adv-x="778" vert-adv-y="1000"  />

      
      <glyph glyph-name="uni50" unicode="&#x50;" d="M311 203L222 203L222 0L68 0L68 695L315 695Q618 695 618 458Q618 341 538.50 272Q459 203 311 203M222 344L315 344Q449 344 449 454Q449 554 320 554L222 554L222 344Z"  horiz-adv-x="651" vert-adv-y="1000"  />

      
      <glyph glyph-name="uni51" unicode="&#x51;" d="M531 13Q465-12 389-12Q221-12 126.50 87Q32 186 32 347Q32 506 131 606.50Q230 707 389 707Q557 707 651.50 608.50Q746 510 746 347Q746 273 722 208.50Q698 144 652 95L752-22L640-115L531 13M352 224L464 317L552 213Q589 268 589 347Q589 445 538 503.50Q487 562 388 562Q296 562 242.50 503.50Q189 445 189 347Q189 249 242 191Q295 133 388 133Q409 133 427 136L352 224Z"  horiz-adv-x="778" vert-adv-y="1000"  />

      
      <glyph glyph-name="uni52" unicode="&#x52;" d="M463 264L644 0L451 0L311 233L222 233L222 0L68 0L68 695L326 695Q609 695 609 474Q609 398 570 345.50Q531 293 463 264M222 373L331 373Q386 373 415.50 398Q445 423 445 467Q445 513 416 537.50Q387 562 329 562L222 562L222 373Z"  horiz-adv-x="652" vert-adv-y="1000"  />

      
      <glyph glyph-name="uni53" unicode="&#x53;" d="M504 532Q446 549 408.50 557.50Q371 566 318 566Q252 566 226 549Q200 532 200 497Q200 471 220 455Q240 439 322.50 415.50Q405 392 451.50 365.50Q498 339 520 300.50Q542 262 542 205Q542 111 469.50 49.50Q397-12 267-12Q143-12 51 24L51 174Q90 154 146 139.50Q202 125 261 125Q382 125 382 197Q382 243 316.50 263Q251 283 180.50 308Q110 333 75.50 375.50Q41 418 41 493Q41 587 115 647Q189 707 323 707Q375 707 426 698Q477 689 504 679L504 532Z"  horiz-adv-x="568" vert-adv-y="1000"  />

      
      <glyph glyph-name="uni54" unicode="&#x54;" d="M367 555L367 0L213 0L213 555L8 555L8 695L572 695L572 555L367 555Z"  horiz-adv-x="580" vert-adv-y="1000"  />

      
      <glyph glyph-name="uni55" unicode="&#x55;" d="M66 261L66 695L219 695L219 273Q219 190 255.50 159.50Q292 129 375 129Q436 129 506 143L506 695L659 695L659 39Q580 15 514 1.50Q448-12 360-12Q199-12 132.50 56.50Q66 125 66 261Z"  horiz-adv-x="727" vert-adv-y="1000"  />

      
      <glyph glyph-name="uni56" unicode="&#x56;" d="M270 0L4 695L169 695L349 203L351 203L528 695L693 695L426 0L270 0Z"  horiz-adv-x="697" vert-adv-y="1000"  />

      
      <glyph glyph-name="uni57" unicode="&#x57;" d="M639 0L541 323Q514 415 508 446L506 446Q491 384 471 326L363 0L219 0L16 695L181 695L276 329Q292 269 300 215L302 215Q312 266 336 334L456 695L573 695L686 319Q706 255 713 209L715 209Q725 263 743 325L850 695L1013 695L784 0L639 0Z"  horiz-adv-x="1029" vert-adv-y="1000"  />

      
      <glyph glyph-name="uni58" unicode="&#x58;" d="M695 0L507 0L348 231L190 0L3 0L252 347L3 695L190 695L350 460L511 695L698 695L445 345L695 0Z"  horiz-adv-x="701" vert-adv-y="1000"  />

      
      <glyph glyph-name="uni59" unicode="&#x59;" d="M399 0L244 0L244 229L-8 695L171 695L322 384L483 695L658 695L399 232L399 0Z"  horiz-adv-x="650" vert-adv-y="1000"  />

      
      <glyph glyph-name="uni5a" unicode="&#x5a;" d="M243 140L626 140L626 0L31 0L31 114L402 555L52 555L52 695L614 695L614 577L243 140Z"  horiz-adv-x="653" vert-adv-y="1000"  />

      
      <glyph glyph-name="uni5b" unicode="&#x5b;" d="M164-44L297-44L297-160L35-160L35 770L297 770L297 654L164 654L164-44Z"  horiz-adv-x="307" vert-adv-y="1000"  />

      
      <glyph glyph-name="uni5c" unicode="&#x5c;" d="M112 750L454-49L335-49L-7 750L112 750Z"  horiz-adv-x="447" vert-adv-y="1000"  />

      
      <glyph glyph-name="uni5d" unicode="&#x5d;" d="M143 654L10 654L10 770L272 770L272-160L10-160L10-44L143-44L143 654Z"  horiz-adv-x="307" vert-adv-y="1000"  />

      
      <glyph glyph-name="uni5e" unicode="&#x5e;" d="M291 553L161 298L8 298L223 707L361 707L577 298L423 298L293 553L291 553Z"  horiz-adv-x="586" vert-adv-y="1000"  />

      
      <glyph glyph-name="uni5f" unicode="&#x5f;" d="M518-180L-7-180L-7-135L518-135L518-180Z"  horiz-adv-x="511" vert-adv-y="1000"  />

      
      <glyph glyph-name="uni60" unicode="&#x60;" d="M149 552L10 729L155 729L252 552L149 552Z"  horiz-adv-x="262" vert-adv-y="1000"  />

      
      <glyph glyph-name="uni61" unicode="&#x61;" d="M456 21Q350-12 240-12Q33-12 33 143Q33 218 86.50 258Q140 298 249 298Q280 298 310 296L310 315Q310 350 284.50 363Q259 376 218 376Q153 376 69 349L69 469Q101 480 150 490Q199 500 250 500Q358 500 407 450.50Q456 401 456 306L456 21M247 101Q282 101 310 105L310 202Q286 205 251 205Q214 205 195 191Q176 177 176 151Q176 126 192.50 113.50Q209 101 247 101Z"  horiz-adv-x="509" vert-adv-y="1000"  />

      
      <glyph glyph-name="uni62" unicode="&#x62;" d="M545 256Q545 138 470.50 62Q396-14 265-14Q153-14 58 29L58 738L204 738L204 478Q258 500 321 500Q420 500 482.50 431.50Q545 363 545 256M204 127Q232 120 267 120Q328 120 362 155.50Q396 191 396 250Q396 303 366 334Q336 365 286 365Q265 365 242.50 361Q220 357 204 351L204 127Z"  horiz-adv-x="573" vert-adv-y="1000"  />

      
      <glyph glyph-name="uni63" unicode="&#x63;" d="M421 349Q400 358 370 363.50Q340 369 311 369Q243 369 210 336Q177 303 177 244Q177 187 213 153Q249 119 317 119Q372 119 428 142L428 11Q406 1 370.50-6.50Q335-14 296-14Q173-14 100.50 56Q28 126 28 246Q28 356 102 428Q176 500 300 500Q368 500 421 483L421 349Z"  horiz-adv-x="448" vert-adv-y="1000"  />

      
      <glyph glyph-name="uni64" unicode="&#x64;" d="M28 233Q28 355 98 427.50Q168 500 272 500Q325 500 369 484L369 738L515 738L515 41Q407-14 285-14Q165-14 96.50 57.50Q28 129 28 233M297 123Q328 123 369 135L369 358L346 364Q326 369 297 369Q242 369 209.50 336Q177 303 177 243Q177 187 210 155Q243 123 297 123Z"  horiz-adv-x="573" vert-adv-y="1000"  />

      
      <glyph glyph-name="uni65" unicode="&#x65;" d="M511 202L176 202Q180 161 211 134.50Q242 108 315 108Q363 108 401 118.50Q439 129 480 146L479 26Q429 6 388.50-4Q348-14 288-14Q165-14 96.50 52.50Q28 119 28 241Q28 361 97 430Q166 499 285 499Q399 499 456.50 432.50Q514 366 514 263Q514 241 511 202M369 293Q369 335 344.50 361Q320 387 276 387Q234 387 207 362Q180 337 177 293L369 293Z"  horiz-adv-x="538" vert-adv-y="1000"  />

      
      <glyph glyph-name="uni66" unicode="&#x66;" d="M385 612Q374 614 354 618.50Q334 623 307 623Q264 623 246.50 602Q229 581 229 544L229 487L358 487L358 366L229 366L229 0L83 0L83 366L18 366L18 487L83 487L83 548Q83 637 134 691.50Q185 746 286 746Q316 746 335 743.50Q354 741 385 735L385 612Z"  horiz-adv-x="348" vert-adv-y="1000"  />

      
      <glyph glyph-name="uni67" unicode="&#x67;" d="M515 12Q515-102 452.50-171.50Q390-241 255-241Q195-241 154-234Q113-227 73-215L73-78Q109-91 148-99Q187-107 236-107Q300-107 334.50-86.50Q369-66 369-11L369 6Q320-14 255-14Q154-14 91 55.50Q28 125 28 232Q28 349 101 424.50Q174 500 306 500Q366 500 416.50 489Q467 478 515 460L515 12M292 121Q323 121 345 127L369 133L369 357Q335 366 302 366Q242 366 209.50 332.50Q177 299 177 243Q177 186 209 153.50Q241 121 292 121Z"  horiz-adv-x="573" vert-adv-y="1000"  />

      
      <glyph glyph-name="uni68" unicode="&#x68;" d="M513 318L513 0L367 0L367 296Q367 333 349.50 349.50Q332 366 293 366Q270 366 251.50 362Q233 358 204 351L204 0L58 0L58 738L204 738L204 477Q231 486 267.50 493Q304 500 338 500Q435 500 474 454.50Q513 409 513 318Z"  horiz-adv-x="569" vert-adv-y="1000"  />

      
      <glyph glyph-name="uni69" unicode="&#x69;" d="M55 589L55 741L207 741L207 589L55 589M58 0L58 487L204 487L204 0L58 0Z"  horiz-adv-x="262" vert-adv-y="1000"  />

      
      <glyph glyph-name="uni6a" unicode="&#x6a;" d="M55 589L55 741L207 741L207 589L55 589M-78-231L-78-102Q-75-102-59-106Q-43-110-17-110Q20-110 39-89.50Q58-69 58-31L58 487L204 487L204-34Q204-125 153.50-182.50Q103-240 2-240Q-40-240-78-231Z"  horiz-adv-x="262" vert-adv-y="1000"  />

      
      <glyph glyph-name="uni6b" unicode="&#x6b;" d="M206 263L378 487L564 487L374 261L567 0L384 0L206 254L204 254L204 0L58 0L58 738L204 738L204 263L206 263Z"  horiz-adv-x="568" vert-adv-y="1000"  />

      
      <glyph glyph-name="uni6c" unicode="&#x6c;" d="M58 0L58 738L204 738L204 0L58 0Z"  horiz-adv-x="262" vert-adv-y="1000"  />

      
      <glyph glyph-name="uni6d" unicode="&#x6d;" d="M788 0L642 0L642 301Q642 337 624.50 351.50Q607 366 567 366Q530 366 492 356Q496 335 496 301L496 0L350 0L350 296Q350 335 333 350.50Q316 366 274 366Q244 366 204 359L204 0L58 0L58 468Q186 500 286 500Q400 500 445 460Q486 479 523 489.50Q560 500 608 500Q700 500 744 458Q788 416 788 328L788 0Z"  horiz-adv-x="844" vert-adv-y="1000"  />

      
      <glyph glyph-name="uni6e" unicode="&#x6e;" d="M513 0L367 0L367 296Q367 334 348 350Q329 366 283 366Q241 366 204 358L204 0L58 0L58 469Q184 500 287 500Q410 500 461.50 454Q513 408 513 315L513 0Z"  horiz-adv-x="569" vert-adv-y="1000"  />

      
      <glyph glyph-name="uni6f" unicode="&#x6f;" d="M286-14Q173-14 100.50 58.50Q28 131 28 244Q28 358 100 429Q172 500 286 500Q399 500 471 428.50Q543 357 543 244Q543 130 471 58Q399-14 286-14M286 121Q333 121 363 155Q393 189 393 244Q393 299 364 332Q335 365 286 365Q237 365 207 331.50Q177 298 177 244Q177 188 208 154.50Q239 121 286 121Z"  horiz-adv-x="571" vert-adv-y="1000"  />

      
      <glyph glyph-name="uni70" unicode="&#x70;" d="M303-14Q248-14 204 2L204-235L58-235L58 449Q174 500 294 500Q413 500 479 429Q545 358 545 253Q545 131 476 58.50Q407-14 303-14M204 131Q236 119 280 119Q335 119 365.50 150.50Q396 182 396 243Q396 299 364.50 330Q333 361 282 361Q240 361 204 349L204 131Z"  horiz-adv-x="573" vert-adv-y="1000"  />

      
      <glyph glyph-name="uni71" unicode="&#x71;" d="M515-235L369-235L369 6Q320-14 255-14Q154-14 91 55.50Q28 125 28 232Q28 349 101 424.50Q174 500 306 500Q366 500 416.50 489Q467 478 515 460L515-235M292 121Q323 121 345 127L369 133L369 357Q335 366 302 366Q242 366 209.50 332.50Q177 299 177 243Q177 186 209 153.50Q241 121 292 121Z"  horiz-adv-x="573" vert-adv-y="1000"  />

      
      <glyph glyph-name="uni72" unicode="&#x72;" d="M368 362Q328 369 288 369Q244 369 204 360L204 0L58 0L58 464Q160 500 270 500Q326 500 368 492L368 362Z"  horiz-adv-x="375" vert-adv-y="1000"  />

      
      <glyph glyph-name="uni73" unicode="&#x73;" d="M394 365Q312 387 247 387Q214 387 196.50 377.50Q179 368 179 351Q179 327 212.50 317.50Q246 308 305.50 290.50Q365 273 394.50 240.50Q424 208 424 150Q424 78 374.50 32.50Q325-13 218-13Q120-13 44 8L44 129Q73 119 115.50 110.50Q158 102 200 102Q242 102 261 111Q280 120 280 138Q280 160 249.50 170Q219 180 158 201.50Q97 223 66 254.50Q35 286 35 344Q35 416 89.50 460.50Q144 505 244 505Q321 505 394 490L394 365Z"  horiz-adv-x="452" vert-adv-y="1000"  />

      
      <glyph glyph-name="uni74" unicode="&#x74;" d="M349 487L349 366L220 366L220 183Q220 145 236.50 130.50Q253 116 289 116Q321 116 351 124L351 6Q289-8 240-8Q153-8 113.50 38Q74 84 74 170L74 366L9 366L9 487L74 487L74 622L220 622L220 487L349 487Z"  horiz-adv-x="371" vert-adv-y="1000"  />

      
      <glyph glyph-name="uni75" unicode="&#x75;" d="M56 172L56 487L202 487L202 191Q202 153 222 137Q242 121 290 121Q325 121 365 129L365 487L511 487L511 18Q385-13 282-13Q159-13 107.50 33Q56 79 56 172Z"  horiz-adv-x="569" vert-adv-y="1000"  />

      
      <glyph glyph-name="uni76" unicode="&#x76;" d="M173 0L-7 487L153 487L218 293Q239 231 254 170L255 170Q271 227 295 292L366 487L525 487L334 0L173 0Z"  horiz-adv-x="518" vert-adv-y="1000"  />

      
      <glyph glyph-name="uni77" unicode="&#x77;" d="M486 0L421 198Q403 252 395 297L393 297Q384 254 364 198L296 0L158 0L11 487L162 487L218 276Q230 230 238 182L240 182Q250 227 265 274L336 487L464 487L531 270Q536 254 553 185L555 185Q560 214 576 272L638 487L792 487L626 0L486 0Z"  horiz-adv-x="803" vert-adv-y="1000"  />

      
      <glyph glyph-name="uni78" unicode="&#x78;" d="M572 0L385 0L278 141L176 0L-6 0L189 246L-4 487L181 487L280 351L380 487L564 487L370 247L572 0Z"  horiz-adv-x="566" vert-adv-y="1000"  />

      
      <glyph glyph-name="uni79" unicode="&#x79;" d="M78-235L184 4L-7 487L154 487L236 251Q251 209 257 180L259 180Q266 207 280 245L370 487L532 487L237-235L78-235Z"  horiz-adv-x="525" vert-adv-y="1000"  />

      
      <glyph glyph-name="uni7a" unicode="&#x7a;" d="M231 132L465 132L465 0L20 0L20 95L249 356L31 356L31 487L456 487L456 392L231 132Z"  horiz-adv-x="485" vert-adv-y="1000"  />

      
      <glyph glyph-name="uni7b" unicode="&#x7b;" d="M261 418Q261 329 171 305L171 303Q210 292 235.50 264.50Q261 237 261 183L262 24Q262-12 279-28Q296-44 337-44L337-160Q226-160 178.50-115Q131-70 131 11L131 164Q131 209 105.50 229.50Q80 250 30 252L30 357Q80 359 105.50 378Q131 397 131 440L131 592Q131 680 184.50 725Q238 770 337 770L337 654Q293 654 277 637Q261 620 261 580L261 418Z"  horiz-adv-x="347" vert-adv-y="1000"  />

      
      <glyph glyph-name="uni7c" unicode="&#x7c;" d="M194 750L194-250L93-250L93 750L194 750Z"  horiz-adv-x="287" vert-adv-y="1000"  />

      
      <glyph glyph-name="uni7d" unicode="&#x7d;" d="M86 192Q86 281 176 305L176 307Q137 318 111.50 345.50Q86 373 86 427L85 586Q85 622 68 638Q51 654 10 654L10 770Q121 770 168.50 725Q216 680 216 599L216 446Q216 401 241.50 380.50Q267 360 317 358L317 253Q267 251 241.50 232Q216 213 216 170L216 18Q216-70 162.50-115Q109-160 10-160L10-44Q54-44 70-27Q86-10 86 30L86 192Z"  horiz-adv-x="347" vert-adv-y="1000"  />

      
      <glyph glyph-name="uni7e" unicode="&#x7e;" d="M190 274Q140 274 100 210L7 284Q45 340 93 369Q141 398 195 398Q233 398 266 384Q299 370 330 350.50Q361 331 396 331Q446 331 486 395L579 321Q541 265 493 236Q445 207 391 207Q353 207 320 221Q287 235 256 254.50Q225 274 190 274Z"  horiz-adv-x="586" vert-adv-y="1000"  />

      
      <glyph glyph-name="unia1" unicode="&#xa1;" d="M51 487L208 487L208 330L51 330L51 487M193 257L203-208L53-208L62 257L193 257Z"  horiz-adv-x="259" vert-adv-y="1000"  />

      
      <glyph glyph-name="unia2" unicode="&#xa2;" d="M314 605L314 714L394 714L394 607Q440 603 480 593L480 460Q445 473 394 478L394 225Q437 229 480 246L480 115Q443 101 394 96L394-14L314-14L314 96Q213 107 149 176.50Q85 246 85 349Q85 449 147.50 520.50Q210 592 314 605M314 473Q269 462 247 429.50Q225 397 225 352Q225 251 314 229L314 473Z"  horiz-adv-x="586" vert-adv-y="1000"  />

      
      <glyph glyph-name="unia3" unicode="&#xa3;" d="M312 476L312 406L483 406L483 291L312 291L312 263Q312 220 295 185.50Q278 151 250 131L547 131L547 0L49 0L49 131Q91 131 119 162Q147 193 147 249L147 291L51 291L51 406L147 406L147 477Q147 595 218 661Q289 727 413 727Q473 727 537 711L537 570Q508 577 483 581.50Q458 586 426 586Q369 586 340.50 553.50Q312 521 312 476Z"  horiz-adv-x="586" vert-adv-y="1000"  />

      
      <glyph glyph-name="unia4" unicode="&#xa4;" d="M566 135L461 30L395 95Q347 72 293 72Q237 72 191 95L125 30L20 135L85 201Q62 247 62 303Q62 357 85 405L20 471L125 576L190 511Q240 535 293 535Q345 535 395 511L461 576L566 471L501 405Q525 355 525 303Q525 250 501 200L566 135M189 304Q189 261 219.50 230Q250 199 293 199Q336 199 367 230Q398 261 398 304Q398 347 367 377.50Q336 408 293 408Q250 408 219.50 377.50Q189 347 189 304Z"  horiz-adv-x="586" vert-adv-y="1000"  />

      
      <glyph glyph-name="unia5" unicode="&#xa5;" d="M508 203L508 95L370 95L370 0L219 0L219 95L81 95L81 203L219 203L219 249L81 249L81 357L219 357L219 360L5 695L184 695L295 501L406 695L581 695L370 360L370 357L508 357L508 249L370 249L370 203L508 203Z"  horiz-adv-x="586" vert-adv-y="1000"  />

      
      <glyph glyph-name="unia6" unicode="&#xa6;" d="M194 750L194 338L93 338L93 750L194 750M194 162L194-250L93-250L93 162L194 162Z"  horiz-adv-x="287" vert-adv-y="1000"  />

      
      <glyph glyph-name="unia7" unicode="&#xa7;" d="M126 429Q108 448 100 474Q92 500 92 536Q92 612 139.50 663Q187 714 276 714Q311 714 344 707Q377 700 396 692L396 576L371 586Q351 594 328 599Q305 604 282 604Q209 604 209 537Q209 493 273.50 470.50Q338 448 383 410Q428 372 428 301Q428 223 369 174Q387 154 395.50 128.50Q404 103 404 67Q404-9 356.50-60Q309-111 220-111Q185-111 152-104Q119-97 100-89L100 27L125 17Q145 9 168 4Q191-1 214-1Q287-1 287 66Q287 110 221.50 132.50Q156 155 113 195.50Q70 236 70 307Q70 381 126 429M283 232Q309 252 309 284Q309 311 290 329Q271 347 245 357L212 371Q187 351 187 318Q187 291 204.50 275Q222 259 258 243L283 232Z"  horiz-adv-x="499" vert-adv-y="1000"  />

      
      <glyph glyph-name="unia8" unicode="&#xa8;" d="M24 576L24 693L140 693L140 576L24 576M201 576L201 693L317 693L317 576L201 576Z"  horiz-adv-x="341" vert-adv-y="1000"  />

      
      <glyph glyph-name="unia9" unicode="&#xa9;" d="M404-15Q305-15 221 33.50Q137 82 88 165Q39 248 39 347Q39 497 147 603.50Q255 710 404 710Q503 710 587 661Q671 612 719.50 528.50Q768 445 768 347Q768 197 661 91Q554-15 404-15M404 71Q518 71 599 152Q680 233 680 347Q680 461 599 542Q518 623 404 623Q290 623 209 542Q128 461 128 347Q128 233 209 152Q290 71 404 71M539 444Q490 465 445 465Q384 465 355.50 434.50Q327 404 327 352Q327 295 358 263Q389 231 446 231Q474 231 501 238.50Q528 246 545 256L545 161Q521 150 495 143Q469 136 435 136Q336 136 276.50 193.50Q217 251 217 347Q217 444 273.50 500.50Q330 557 436 557Q489 557 539 539L539 444Z"  horiz-adv-x="808" vert-adv-y="1000"  />

      
      <glyph glyph-name="uniaa" unicode="&#xaa;" d="M315 404Q243 383 171 383Q97 383 64 411Q31 439 31 485Q31 534 67.50 560.50Q104 587 176 587L202 587L202 598Q202 615 188.50 621Q175 627 153 627Q119 627 58 611L58 699Q78 706 110.50 712Q143 718 178 718Q315 718 315 590L315 404M176 466L202 466L202 518Q198 520 178 520Q140 520 140 491Q140 478 148 472Q156 466 176 466Z"  horiz-adv-x="362" vert-adv-y="1000"  />

      
      <glyph glyph-name="uniab" unicode="&#xab;" d="M145 234L274 55L142 55L14 234L142 413L274 413L145 234M358 234L487 55L355 55L227 234L355 413L487 413L358 234Z"  horiz-adv-x="507" vert-adv-y="1000"  />

      
      <glyph glyph-name="uniac" unicode="&#xac;" d="M400 95L400 268L50 268L50 404L536 404L536 95L400 95Z"  horiz-adv-x="586" vert-adv-y="1000"  />

      
      <glyph glyph-name="uniad" unicode="&#xad;" d="M352 337L352 204L38 204L38 337L352 337Z"  horiz-adv-x="390" vert-adv-y="1000"  />

      
      <glyph glyph-name="uniae" unicode="&#xae;" d="M263 257Q169 257 102 323.50Q35 390 35 484Q35 578 102.50 645Q170 712 263 712Q355 712 422.50 644.50Q490 577 490 484Q490 390 423.50 323.50Q357 257 263 257M263 323Q329 323 377.50 371Q426 419 426 484Q426 549 377.50 597Q329 645 263 645Q195 645 147 597Q99 549 99 484Q99 419 147 371Q195 323 263 323M315 452L366 364L298 364L260 441L235 441L235 364L174 364L174 603L268 603Q369 603 369 528Q369 501 354 481Q339 461 315 452M235 494L267 494Q288 494 298 501Q308 508 308 524Q308 552 266 552L235 552L235 494Z"  horiz-adv-x="525" vert-adv-y="1000"  />

      
      <glyph glyph-name="uniaf" unicode="&#xaf;" d="M15 568L15 666L264 666L264 568L15 568Z"  horiz-adv-x="279" vert-adv-y="1000"  />

      
      <glyph glyph-name="unib0" unicode="&#xb0;" d="M31 590Q31 663 82 713Q133 763 206 763Q278 763 329 713Q380 663 380 590Q380 517 330.50 466.50Q281 416 207 416Q133 416 82 467Q31 518 31 590M114 590Q114 551 141 524Q168 497 206 497Q244 497 270.50 524Q297 551 297 590Q297 629 271 656Q245 683 207 683Q169 683 141.50 656Q114 629 114 590Z"  horiz-adv-x="412" vert-adv-y="1000"  />

      
      <glyph glyph-name="unib1" unicode="&#xb1;" d="M536 486L536 350L361 350L361 175L225 175L225 350L50 350L50 486L225 486L225 661L361 661L361 486L536 486M50 0L50 136L536 136L536 0L50 0Z"  horiz-adv-x="586" vert-adv-y="1000"  />

      
      <glyph glyph-name="unib2" unicode="&#xb2;" d="M357 656Q357 619 342.50 589.50Q328 560 304 536Q280 512 233 470L190 434L359 434L359 330L41 330L41 422L179 548Q211 578 226 598.50Q241 619 241 638Q241 664 225 678.50Q209 693 177 693Q119 693 62 654L62 760Q83 775 118.50 784.50Q154 794 197 794Q279 794 318 756Q357 718 357 656Z"  horiz-adv-x="411" vert-adv-y="1000"  />

      
      <glyph glyph-name="unib3" unicode="&#xb3;" d="M44 343L45 447Q63 438 97.50 428.50Q132 419 163 419Q198 419 215.50 431Q233 443 233 465Q233 489 210.50 499.50Q188 510 145 510L97 510L97 610L138 610Q225 610 225 655Q225 674 209.50 684.50Q194 695 167 695Q136 695 103.50 684.50Q71 674 54 664L54 764Q116 796 200 796Q269 796 307 761Q345 726 345 677Q345 633 322.50 601.50Q300 570 262 561L262 560Q311 551 333 524Q355 497 355 449Q355 393 306.50 354Q258 315 178 315Q135 315 99.50 323.50Q64 332 44 343Z"  horiz-adv-x="411" vert-adv-y="1000"  />

      
      <glyph glyph-name="unib4" unicode="&#xb4;" d="M10 552L110 729L255 729L122 552L10 552Z"  horiz-adv-x="265" vert-adv-y="1000"  />

      
      <glyph glyph-name="unib5" unicode="&#xb5;" d="M56 487L204 487L204 196Q204 157 223.50 138.50Q243 120 290 120Q333 120 363 133L363 487L511 487L511 35Q461 15 402.50 0.50Q344-14 298-14Q267-14 240.50-9Q214-4 202 2L202-251L56-251L56 487Z"  horiz-adv-x="569" vert-adv-y="1000"  />

      
      <glyph glyph-name="unib6" unicode="&#xb6;" d="M371 599L325 599L325-63L231-63L231 349Q149 349 96 396Q43 443 43 517Q43 602 97.50 648.50Q152 695 240 695L465 695L465-63L371-63L371 599Z"  horiz-adv-x="555" vert-adv-y="1000"  />

      
      <glyph glyph-name="unib7" unicode="&#xb7;" d="M203 237L46 237L46 394L203 394L203 237Z"  horiz-adv-x="250" vert-adv-y="1000"  />

      
      <glyph glyph-name="unib8" unicode="&#xb8;" d="M121-223Q76-223 35-211L35-138Q56-144 71-146.50Q86-149 107-149Q134-149 145-142Q156-135 156-122Q156-107 142-100.50Q128-94 94-94L66-94L119 0L166 0L143-44Q187-44 214.50-68Q242-92 242-128Q242-172 205.50-197.50Q169-223 121-223Z"  horiz-adv-x="279" vert-adv-y="1000"  />

      
      <glyph glyph-name="unib9" unicode="&#xb9;" d="M55 716L232 800L298 800L298 330L183 330L183 661L55 598L55 716Z"  horiz-adv-x="411" vert-adv-y="1000"  />

      
      <glyph glyph-name="uniba" unicode="&#xba;" d="M201 381Q126 381 78 428.50Q30 476 30 550Q30 625 77 671.50Q124 718 201 718Q275 718 322.50 671Q370 624 370 550Q370 476 322.50 428.50Q275 381 201 381M201 478Q227 478 243.50 497.50Q260 517 260 550Q260 583 244 602Q228 621 201 621Q174 621 156.50 601.50Q139 582 139 550Q139 516 156.50 497Q174 478 201 478Z"  horiz-adv-x="398" vert-adv-y="1000"  />

      
      <glyph glyph-name="unibb" unicode="&#xbb;" d="M149 234L20 413L152 413L280 234L152 55L20 55L149 234M362 234L233 413L365 413L493 234L365 55L233 55L362 234Z"  horiz-adv-x="507" vert-adv-y="1000"  />

      
      <glyph glyph-name="unibc" unicode="&#xbc;" d="M55 616L232 700L298 700L298 230L183 230L183 561L55 498L55 616M679 695L816 695L302 0L165 0L679 695M756 0L756 92L565 92L565 190L754 452L870 452L870 189L937 189L937 92L870 92L870 0L756 0M674 189L756 189L756 309L754 309Q739 285 727 268L674 189Z"  horiz-adv-x="959" vert-adv-y="1000"  />

      
      <glyph glyph-name="unibd" unicode="&#xbd;" d="M55 616L232 700L298 700L298 230L183 230L183 561L55 498L55 616M679 695L816 695L302 0L165 0L679 695M955 326Q955 289 940.50 259.50Q926 230 902 206Q878 182 831 140L788 104L957 104L957 0L639 0L639 92L777 218Q809 248 824 268.50Q839 289 839 308Q839 334 823 348.50Q807 363 775 363Q717 363 660 324L660 430Q681 445 716.50 454.50Q752 464 795 464Q877 464 916 426Q955 388 955 326Z"  horiz-adv-x="1009" vert-adv-y="1000"  />

      
      <glyph glyph-name="unibe" unicode="&#xbe;" d="M44 243L45 347Q63 338 97.50 328.50Q132 319 163 319Q198 319 215.50 331Q233 343 233 365Q233 389 210.50 399.50Q188 410 145 410L97 410L97 510L138 510Q225 510 225 555Q225 574 209.50 584.50Q194 595 167 595Q136 595 103.50 584.50Q71 574 54 564L54 664Q116 696 200 696Q269 696 307 661Q345 626 345 577Q345 533 322.50 501.50Q300 470 262 461L262 460Q311 451 333 424Q355 397 355 349Q355 293 306.50 254Q258 215 178 215Q135 215 99.50 223.50Q64 232 44 243M699 695L836 695L322 0L185 0L699 695M776 0L776 92L585 92L585 190L774 452L890 452L890 189L957 189L957 92L890 92L890 0L776 0M694 189L776 189L776 309L774 309Q759 285 747 268L694 189Z"  horiz-adv-x="979" vert-adv-y="1000"  />

      
      <glyph glyph-name="unibf" unicode="&#xbf;" d="M176 487L333 487L333 330L176 330L176 487M272-93Q311-93 349-82.50Q387-72 412-59L412-183Q385-196 337.50-207Q290-218 235-218Q138-218 79.50-166Q21-114 21-26Q21 46 59 101Q97 156 192 209L192 257L317 257L317 141Q238 105 203 71.50Q168 38 168-6Q168-48 195-70.50Q222-93 272-93Z"  horiz-adv-x="457" vert-adv-y="1000"  />

      
      <glyph glyph-name="unic0" unicode="&#xc0;" d="M551 0L493 151L228 151L169 0L4 0L291 695L435 695L718 0L551 0M276 276L442 276L361 495L359 495L276 276M339 756L220 896L373 896L451 756L339 756Z"  horiz-adv-x="722" vert-adv-y="1000"  />

      
      <glyph glyph-name="unic1" unicode="&#xc1;" d="M551 0L493 151L228 151L169 0L4 0L291 695L435 695L718 0L551 0M276 276L442 276L361 495L359 495L276 276M285 756L364 896L516 896L397 756L285 756Z"  horiz-adv-x="722" vert-adv-y="1000"  />

      
      <glyph glyph-name="unic2" unicode="&#xc2;" d="M551 0L493 151L228 151L169 0L4 0L291 695L435 695L718 0L551 0M276 276L442 276L361 495L359 495L276 276M437 754L361 832L284 754L159 754L325 923L397 923L563 754L437 754Z"  horiz-adv-x="722" vert-adv-y="1000"  />

      
      <glyph glyph-name="unic3" unicode="&#xc3;" d="M551 0L493 151L228 151L169 0L4 0L291 695L435 695L718 0L551 0M276 276L442 276L361 495L359 495L276 276M411 827Q425 827 432.50 842.50Q440 858 442 882L516 882Q509 812 485 777.50Q461 743 412 743Q386 743 367 754.50Q348 766 336 784.50Q324 803 308 803Q293 803 286 786Q279 769 278 746L206 746Q211 885 308 885Q351 885 373 856Q395 827 411 827Z"  horiz-adv-x="722" vert-adv-y="1000"  />

      
      <glyph glyph-name="unic4" unicode="&#xc4;" d="M551 0L493 151L228 151L169 0L4 0L291 695L435 695L718 0L551 0M276 276L442 276L361 495L359 495L276 276M214 747L214 864L330 864L330 747L214 747M391 747L391 864L507 864L507 747L391 747Z"  horiz-adv-x="722" vert-adv-y="1000"  />

      
      <glyph glyph-name="unic5" unicode="&#xc5;" d="M551 0L493 151L228 151L169 0L4 0L291 695L435 695L718 0L551 0M276 276L442 276L361 495L359 495L276 276M361 722Q314 722 281 755Q248 788 248 835Q248 883 281 915.50Q314 948 361 948Q408 948 441 915.50Q474 883 474 835Q474 788 441 755Q408 722 361 722M361 787Q382 787 396 801Q410 815 410 835Q410 856 396 869.50Q382 883 361 883Q341 883 327 869.50Q313 856 313 835Q313 816 327.50 801.50Q342 787 361 787Z"  horiz-adv-x="722" vert-adv-y="1000"  />

      
      <glyph glyph-name="unic6" unicode="&#xc6;" d="M648 553L648 423L931 423L931 281L648 281L648 142L973 142L973 0L494 0L494 151L256 151L169 0L-6 0L414 695L959 695L959 553L648 553M328 276L494 276L494 554L490 554L328 276Z"  horiz-adv-x="1004" vert-adv-y="1000"  />

      
      <glyph glyph-name="unic7" unicode="&#xc7;" d="M383-13L367-44Q411-44 438.50-68Q466-92 466-128Q466-172 429.50-197.50Q393-223 345-223Q300-223 259-211L259-138Q280-144 295-146.50Q310-149 331-149Q358-149 369-142Q380-135 380-122Q380-107 366-100.50Q352-94 318-94L290-94L338-9Q197 11 114.50 106.50Q32 202 32 348Q32 517 131 612Q230 707 407 707Q501 707 584 676L584 523Q497 562 415 562Q305 562 252.50 506.50Q200 451 200 356Q200 254 257.50 195.50Q315 137 416 137Q466 137 514.50 150.50Q563 164 595 182L595 30Q555 10 510-1.50Q465-13 406-13L383-13Z"  horiz-adv-x="626" vert-adv-y="1000"  />

      
      <glyph glyph-name="unic8" unicode="&#xc8;" d="M222 553L222 423L505 423L505 281L222 281L222 142L547 142L547 0L68 0L68 695L533 695L533 553L222 553M286 756L167 896L320 896L398 756L286 756Z"  horiz-adv-x="578" vert-adv-y="1000"  />

      
      <glyph glyph-name="unic9" unicode="&#xc9;" d="M222 553L222 423L505 423L505 281L222 281L222 142L547 142L547 0L68 0L68 695L533 695L533 553L222 553M232 756L311 896L463 896L344 756L232 756Z"  horiz-adv-x="578" vert-adv-y="1000"  />

      
      <glyph glyph-name="unica" unicode="&#xca;" d="M222 553L222 423L505 423L505 281L222 281L222 142L547 142L547 0L68 0L68 695L533 695L533 553L222 553M384 754L308 832L231 754L106 754L272 923L344 923L510 754L384 754Z"  horiz-adv-x="578" vert-adv-y="1000"  />

      
      <glyph glyph-name="unicb" unicode="&#xcb;" d="M222 553L222 423L505 423L505 281L222 281L222 142L547 142L547 0L68 0L68 695L533 695L533 553L222 553M161 747L161 864L277 864L277 747L161 747M338 747L338 864L454 864L454 747L338 747Z"  horiz-adv-x="578" vert-adv-y="1000"  />

      
      <glyph glyph-name="unicc" unicode="&#xcc;" d="M68 0L68 695L222 695L222 0L68 0M123 756L4 896L157 896L235 756L123 756Z"  horiz-adv-x="290" vert-adv-y="1000"  />

      
      <glyph glyph-name="unicd" unicode="&#xcd;" d="M68 0L68 695L222 695L222 0L68 0M69 756L148 896L300 896L181 756L69 756Z"  horiz-adv-x="290" vert-adv-y="1000"  />

      
      <glyph glyph-name="unice" unicode="&#xce;" d="M68 0L68 695L222 695L222 0L68 0M221 754L145 832L68 754L-57 754L109 923L181 923L347 754L221 754Z"  horiz-adv-x="290" vert-adv-y="1000"  />

      
      <glyph glyph-name="unicf" unicode="&#xcf;" d="M68 0L68 695L222 695L222 0L68 0M-2 747L-2 864L114 864L114 747L-2 747M175 747L175 864L291 864L291 747L175 747Z"  horiz-adv-x="290" vert-adv-y="1000"  />

      
      <glyph glyph-name="unid0" unicode="&#xd0;" d="M309 0L68 0L68 281L1 281L1 414L68 414L68 695L319 695Q498 695 596 605.50Q694 516 694 355Q694 197 590 98.50Q486 0 309 0M310 554L223 554L223 414L364 414L364 281L223 281L223 141L308 141Q418 141 473.50 196.50Q529 252 529 348Q529 446 475 500Q421 554 310 554Z"  horiz-adv-x="726" vert-adv-y="1000"  />

      
      <glyph glyph-name="unid1" unicode="&#xd1;" d="M547 0L219 430L217 430Q219 400 219 330L219 0L68 0L68 695L197 695L537 263L539 263Q536 310 536 362L536 695L687 695L687 0L547 0M428 827Q442 827 449.50 842.50Q457 858 459 882L533 882Q526 812 502 777.50Q478 743 429 743Q403 743 384 754.50Q365 766 353 784.50Q341 803 325 803Q310 803 303 786Q296 769 295 746L223 746Q228 885 325 885Q368 885 390 856Q412 827 428 827Z"  horiz-adv-x="755" vert-adv-y="1000"  />

      
      <glyph glyph-name="unid2" unicode="&#xd2;" d="M389-12Q221-12 126.50 87Q32 186 32 347Q32 506 131 606.50Q230 707 389 707Q557 707 651.50 608.50Q746 510 746 347Q746 192 647.50 90Q549-12 389-12M388 133Q482 133 535.50 192Q589 251 589 347Q589 445 538 503.50Q487 562 388 562Q296 562 242.50 503.50Q189 445 189 347Q189 249 242 191Q295 133 388 133M367 756L248 896L401 896L479 756L367 756Z"  horiz-adv-x="778" vert-adv-y="1000"  />

      
      <glyph glyph-name="unid3" unicode="&#xd3;" d="M389-12Q221-12 126.50 87Q32 186 32 347Q32 506 131 606.50Q230 707 389 707Q557 707 651.50 608.50Q746 510 746 347Q746 192 647.50 90Q549-12 389-12M388 133Q482 133 535.50 192Q589 251 589 347Q589 445 538 503.50Q487 562 388 562Q296 562 242.50 503.50Q189 445 189 347Q189 249 242 191Q295 133 388 133M313 756L392 896L544 896L425 756L313 756Z"  horiz-adv-x="778" vert-adv-y="1000"  />

      
      <glyph glyph-name="unid4" unicode="&#xd4;" d="M389-12Q221-12 126.50 87Q32 186 32 347Q32 506 131 606.50Q230 707 389 707Q557 707 651.50 608.50Q746 510 746 347Q746 192 647.50 90Q549-12 389-12M388 133Q482 133 535.50 192Q589 251 589 347Q589 445 538 503.50Q487 562 388 562Q296 562 242.50 503.50Q189 445 189 347Q189 249 242 191Q295 133 388 133M465 754L389 832L312 754L187 754L353 923L425 923L591 754L465 754Z"  horiz-adv-x="778" vert-adv-y="1000"  />

      
      <glyph glyph-name="unid5" unicode="&#xd5;" d="M389-12Q221-12 126.50 87Q32 186 32 347Q32 506 131 606.50Q230 707 389 707Q557 707 651.50 608.50Q746 510 746 347Q746 192 647.50 90Q549-12 389-12M388 133Q482 133 535.50 192Q589 251 589 347Q589 445 538 503.50Q487 562 388 562Q296 562 242.50 503.50Q189 445 189 347Q189 249 242 191Q295 133 388 133M439 827Q453 827 460.50 842.50Q468 858 470 882L544 882Q537 812 513 777.50Q489 743 440 743Q414 743 395 754.50Q376 766 364 784.50Q352 803 336 803Q321 803 314 786Q307 769 306 746L234 746Q239 885 336 885Q379 885 401 856Q423 827 439 827Z"  horiz-adv-x="778" vert-adv-y="1000"  />

      
      <glyph glyph-name="unid6" unicode="&#xd6;" d="M389-12Q221-12 126.50 87Q32 186 32 347Q32 506 131 606.50Q230 707 389 707Q557 707 651.50 608.50Q746 510 746 347Q746 192 647.50 90Q549-12 389-12M388 133Q482 133 535.50 192Q589 251 589 347Q589 445 538 503.50Q487 562 388 562Q296 562 242.50 503.50Q189 445 189 347Q189 249 242 191Q295 133 388 133M242 747L242 864L358 864L358 747L242 747M419 747L419 864L535 864L535 747L419 747Z"  horiz-adv-x="778" vert-adv-y="1000"  />

      
      <glyph glyph-name="unid7" unicode="&#xd7;" d="M541 455L389 303L541 151L445 55L293 207L141 55L45 151L197 303L45 455L141 551L293 399L445 551L541 455Z"  horiz-adv-x="586" vert-adv-y="1000"  />

      
      <glyph glyph-name="unid8" unicode="&#xd8;" d="M654 607Q699 559 722.50 492Q746 425 746 347Q746 192 647.50 90Q549-12 389-12Q282-12 205 28L123-78L41-17L124 90Q78 138 55 204Q32 270 32 347Q32 506 131 606.50Q230 707 389 707Q491 707 571 667L664 787L746 726L654 607M222 216L477 546Q437 562 388 562Q296 562 242.50 503.50Q189 445 189 347Q189 269 222 216M589 347Q589 427 555 480L299 150Q339 133 388 133Q482 133 535.50 192Q589 251 589 347Z"  horiz-adv-x="778" vert-adv-y="1000"  />

      
      <glyph glyph-name="unid9" unicode="&#xd9;" d="M66 261L66 695L219 695L219 273Q219 190 255.50 159.50Q292 129 375 129Q436 129 506 143L506 695L659 695L659 39Q580 15 514 1.50Q448-12 360-12Q199-12 132.50 56.50Q66 125 66 261M341 756L222 896L375 896L453 756L341 756Z"  horiz-adv-x="727" vert-adv-y="1000"  />

      
      <glyph glyph-name="unida" unicode="&#xda;" d="M66 261L66 695L219 695L219 273Q219 190 255.50 159.50Q292 129 375 129Q436 129 506 143L506 695L659 695L659 39Q580 15 514 1.50Q448-12 360-12Q199-12 132.50 56.50Q66 125 66 261M287 756L366 896L518 896L399 756L287 756Z"  horiz-adv-x="727" vert-adv-y="1000"  />

      
      <glyph glyph-name="unidb" unicode="&#xdb;" d="M66 261L66 695L219 695L219 273Q219 190 255.50 159.50Q292 129 375 129Q436 129 506 143L506 695L659 695L659 39Q580 15 514 1.50Q448-12 360-12Q199-12 132.50 56.50Q66 125 66 261M439 754L363 832L286 754L161 754L327 923L399 923L565 754L439 754Z"  horiz-adv-x="727" vert-adv-y="1000"  />

      
      <glyph glyph-name="unidc" unicode="&#xdc;" d="M66 261L66 695L219 695L219 273Q219 190 255.50 159.50Q292 129 375 129Q436 129 506 143L506 695L659 695L659 39Q580 15 514 1.50Q448-12 360-12Q199-12 132.50 56.50Q66 125 66 261M216 747L216 864L332 864L332 747L216 747M393 747L393 864L509 864L509 747L393 747Z"  horiz-adv-x="727" vert-adv-y="1000"  />

      
      <glyph glyph-name="unidd" unicode="&#xdd;" d="M399 0L244 0L244 229L-8 695L171 695L322 384L483 695L658 695L399 232L399 0M251 756L330 896L482 896L363 756L251 756Z"  horiz-adv-x="650" vert-adv-y="1000"  />

      
      <glyph glyph-name="unide" unicode="&#xde;" d="M315 599Q475 599 546.50 538Q618 477 618 364Q618 247 538.50 179.50Q459 112 311 112L222 112L222 0L68 0L68 695L222 695L222 599L315 599M222 253L315 253Q449 253 449 360Q449 410 417.50 434Q386 458 320 458L222 458L222 253Z"  horiz-adv-x="651" vert-adv-y="1000"  />

      
      <glyph glyph-name="unidf" unicode="&#xdf;" d="M392 361Q392 340 439 324.50Q486 309 527 274Q568 239 568 167Q568 94 518 44Q468-6 362-6Q305-6 248 9L248 124Q300 109 344 109Q385 109 404.50 122.50Q424 136 424 155Q424 183 392.50 195.50Q361 208 325.50 224.50Q290 241 269 270Q248 299 248 344Q248 394 272 424Q296 454 340.50 479.50Q385 505 385 550Q385 586 361 604.50Q337 623 302 623Q254 623 229 593.50Q204 564 204 514L204 0L58 0L58 508Q58 614 123 680Q188 746 310 746Q422 746 478.50 694Q535 642 535 561Q535 517 523.50 488.50Q512 460 483 436Q454 412 423 396.50Q392 381 392 361Z"  horiz-adv-x="586" vert-adv-y="1000"  />

      
      <glyph glyph-name="unie0" unicode="&#xe0;" d="M456 21Q350-12 240-12Q33-12 33 143Q33 218 86.50 258Q140 298 249 298Q280 298 310 296L310 315Q310 350 284.50 363Q259 376 218 376Q153 376 69 349L69 469Q101 480 150 490Q199 500 250 500Q358 500 407 450.50Q456 401 456 306L456 21M247 101Q282 101 310 105L310 202Q286 205 251 205Q214 205 195 191Q176 177 176 151Q176 126 192.50 113.50Q209 101 247 101M231 552L92 729L237 729L334 552L231 552Z"  horiz-adv-x="509" vert-adv-y="1000"  />

      
      <glyph glyph-name="unie1" unicode="&#xe1;" d="M456 21Q350-12 240-12Q33-12 33 143Q33 218 86.50 258Q140 298 249 298Q280 298 310 296L310 315Q310 350 284.50 363Q259 376 218 376Q153 376 69 349L69 469Q101 480 150 490Q199 500 250 500Q358 500 407 450.50Q456 401 456 306L456 21M247 101Q282 101 310 105L310 202Q286 205 251 205Q214 205 195 191Q176 177 176 151Q176 126 192.50 113.50Q209 101 247 101M184 552L284 729L429 729L296 552L184 552Z"  horiz-adv-x="509" vert-adv-y="1000"  />

      
      <glyph glyph-name="unie2" unicode="&#xe2;" d="M456 21Q350-12 240-12Q33-12 33 143Q33 218 86.50 258Q140 298 249 298Q280 298 310 296L310 315Q310 350 284.50 363Q259 376 218 376Q153 376 69 349L69 469Q101 480 150 490Q199 500 250 500Q358 500 407 450.50Q456 401 456 306L456 21M247 101Q282 101 310 105L310 202Q286 205 251 205Q214 205 195 191Q176 177 176 151Q176 126 192.50 113.50Q209 101 247 101M321 555L255 636L190 555L71 555L219 742L291 742L439 555L321 555Z"  horiz-adv-x="509" vert-adv-y="1000"  />

      
      <glyph glyph-name="unie3" unicode="&#xe3;" d="M456 21Q350-12 240-12Q33-12 33 143Q33 218 86.50 258Q140 298 249 298Q280 298 310 296L310 315Q310 350 284.50 363Q259 376 218 376Q153 376 69 349L69 469Q101 480 150 490Q199 500 250 500Q358 500 407 450.50Q456 401 456 306L456 21M247 101Q282 101 310 105L310 202Q286 205 251 205Q214 205 195 191Q176 177 176 151Q176 126 192.50 113.50Q209 101 247 101M305 643Q319 643 326.50 658.50Q334 674 336 698L410 698Q403 628 379 593.50Q355 559 306 559Q280 559 261 570.50Q242 582 230 600.50Q218 619 202 619Q187 619 180 602Q173 585 172 562L100 562Q105 701 202 701Q245 701 267 672Q289 643 305 643Z"  horiz-adv-x="509" vert-adv-y="1000"  />

      
      <glyph glyph-name="unie4" unicode="&#xe4;" d="M456 21Q350-12 240-12Q33-12 33 143Q33 218 86.50 258Q140 298 249 298Q280 298 310 296L310 315Q310 350 284.50 363Q259 376 218 376Q153 376 69 349L69 469Q101 480 150 490Q199 500 250 500Q358 500 407 450.50Q456 401 456 306L456 21M247 101Q282 101 310 105L310 202Q286 205 251 205Q214 205 195 191Q176 177 176 151Q176 126 192.50 113.50Q209 101 247 101M108 576L108 693L224 693L224 576L108 576M285 576L285 693L401 693L401 576L285 576Z"  horiz-adv-x="509" vert-adv-y="1000"  />

      
      <glyph glyph-name="unie5" unicode="&#xe5;" d="M456 21Q350-12 240-12Q33-12 33 143Q33 218 86.50 258Q140 298 249 298Q280 298 310 296L310 315Q310 350 284.50 363Q259 376 218 376Q153 376 69 349L69 469Q101 480 150 490Q199 500 250 500Q358 500 407 450.50Q456 401 456 306L456 21M247 101Q282 101 310 105L310 202Q286 205 251 205Q214 205 195 191Q176 177 176 151Q176 126 192.50 113.50Q209 101 247 101M255 542Q208 542 175 575Q142 608 142 655Q142 703 175 735.50Q208 768 255 768Q302 768 335 735.50Q368 703 368 655Q368 608 335 575Q302 542 255 542M255 607Q276 607 290 621Q304 635 304 655Q304 676 290 689.50Q276 703 255 703Q235 703 221 689.50Q207 676 207 655Q207 636 221.50 621.50Q236 607 255 607Z"  horiz-adv-x="509" vert-adv-y="1000"  />

      
      <glyph glyph-name="unie6" unicode="&#xe6;" d="M781 201L463 201Q467 161 497.50 135Q528 109 597 109Q642 109 675 118.50Q708 128 752 146L751 26L717 12Q687-1 649-7.50Q611-14 567-14Q479-14 418 21Q329-12 231-12Q127-12 80 29.50Q33 71 33 143Q33 218 86.50 258Q140 298 249 298Q280 298 310 296L310 315Q310 350 284.50 363Q259 376 218 376Q153 376 69 349L69 469Q101 480 149.50 490Q198 500 246 500Q358 500 404 437Q468 499 576 499Q675 499 729.50 432.50Q784 366 784 263Q784 240 781 201M636 296Q636 335 616 361.50Q596 388 554 388Q514 388 491.50 363Q469 338 464 296L636 296M251 101Q299 101 332 112Q315 146 310 202Q280 205 251 205Q214 205 195 191Q176 177 176 151Q176 101 251 101Z"  horiz-adv-x="808" vert-adv-y="1000"  />

      
      <glyph glyph-name="unie7" unicode="&#xe7;" d="M288-14L272-44Q316-44 343.50-68Q371-92 371-128Q371-172 334.50-197.50Q298-223 250-223Q205-223 164-211L164-138Q185-144 200-146.50Q215-149 236-149Q263-149 274-142Q285-135 285-122Q285-107 271-100.50Q257-94 223-94L195-94L242-10Q143 4 85.50 71.50Q28 139 28 246Q28 356 102 428Q176 500 300 500Q368 500 421 483L421 349Q400 358 370 363.50Q340 369 311 369Q243 369 210 336Q177 303 177 244Q177 187 213 153Q249 119 317 119Q372 119 428 142L428 11Q406 1 370.50-6.50Q335-14 296-14L288-14Z"  horiz-adv-x="448" vert-adv-y="1000"  />

      
      <glyph glyph-name="unie8" unicode="&#xe8;" d="M511 202L176 202Q180 161 211 134.50Q242 108 315 108Q363 108 401 118.50Q439 129 480 146L479 26Q429 6 388.50-4Q348-14 288-14Q165-14 96.50 52.50Q28 119 28 241Q28 361 97 430Q166 499 285 499Q399 499 456.50 432.50Q514 366 514 263Q514 241 511 202M369 293Q369 335 344.50 361Q320 387 276 387Q234 387 207 362Q180 337 177 293L369 293M248 552L109 729L254 729L351 552L248 552Z"  horiz-adv-x="538" vert-adv-y="1000"  />

      
      <glyph glyph-name="unie9" unicode="&#xe9;" d="M511 202L176 202Q180 161 211 134.50Q242 108 315 108Q363 108 401 118.50Q439 129 480 146L479 26Q429 6 388.50-4Q348-14 288-14Q165-14 96.50 52.50Q28 119 28 241Q28 361 97 430Q166 499 285 499Q399 499 456.50 432.50Q514 366 514 263Q514 241 511 202M369 293Q369 335 344.50 361Q320 387 276 387Q234 387 207 362Q180 337 177 293L369 293M201 552L301 729L446 729L313 552L201 552Z"  horiz-adv-x="538" vert-adv-y="1000"  />

      
      <glyph glyph-name="uniea" unicode="&#xea;" d="M511 202L176 202Q180 161 211 134.50Q242 108 315 108Q363 108 401 118.50Q439 129 480 146L479 26Q429 6 388.50-4Q348-14 288-14Q165-14 96.50 52.50Q28 119 28 241Q28 361 97 430Q166 499 285 499Q399 499 456.50 432.50Q514 366 514 263Q514 241 511 202M369 293Q369 335 344.50 361Q320 387 276 387Q234 387 207 362Q180 337 177 293L369 293M338 555L272 636L207 555L88 555L236 742L308 742L456 555L338 555Z"  horiz-adv-x="538" vert-adv-y="1000"  />

      
      <glyph glyph-name="unieb" unicode="&#xeb;" d="M511 202L176 202Q180 161 211 134.50Q242 108 315 108Q363 108 401 118.50Q439 129 480 146L479 26Q429 6 388.50-4Q348-14 288-14Q165-14 96.50 52.50Q28 119 28 241Q28 361 97 430Q166 499 285 499Q399 499 456.50 432.50Q514 366 514 263Q514 241 511 202M369 293Q369 335 344.50 361Q320 387 276 387Q234 387 207 362Q180 337 177 293L369 293M125 576L125 693L241 693L241 576L125 576M302 576L302 693L418 693L418 576L302 576Z"  horiz-adv-x="538" vert-adv-y="1000"  />

      
      <glyph glyph-name="uniec" unicode="&#xec;" d="M58 0L58 487L204 487L204 0L58 0M107 552L-32 729L113 729L210 552L107 552Z"  horiz-adv-x="262" vert-adv-y="1000"  />

      
      <glyph glyph-name="unied" unicode="&#xed;" d="M58 0L58 487L204 487L204 0L58 0M60 552L160 729L305 729L172 552L60 552Z"  horiz-adv-x="262" vert-adv-y="1000"  />

      
      <glyph glyph-name="uniee" unicode="&#xee;" d="M58 0L58 487L204 487L204 0L58 0M197 555L131 636L66 555L-53 555L95 742L167 742L315 555L197 555Z"  horiz-adv-x="262" vert-adv-y="1000"  />

      
      <glyph glyph-name="unief" unicode="&#xef;" d="M58 0L58 487L204 487L204 0L58 0M-16 576L-16 693L100 693L100 576L-16 576M161 576L161 693L277 693L277 576L161 576Z"  horiz-adv-x="262" vert-adv-y="1000"  />

      
      <glyph glyph-name="unif0" unicode="&#xf0;" d="M419 777L481 702L395 644Q469 565 506.50 473.50Q544 382 544 267Q544 143 476.50 64.50Q409-14 286-14Q169-14 98.50 57Q28 128 28 242Q28 351 97 418.50Q166 486 269 486Q326 486 367 456L369 458Q354 492 329 526Q304 560 280 581L179 517L120 591L212 648Q164 689 131 707L213 793Q240 778 272 754Q304 730 321 713L419 777M283 121Q335 121 364 154.50Q393 188 393 239Q393 289 364 322Q335 355 285 355Q235 355 206 322.50Q177 290 177 239Q177 187 205 154Q233 121 283 121Z"  horiz-adv-x="574" vert-adv-y="1000"  />

      
      <glyph glyph-name="unif1" unicode="&#xf1;" d="M513 0L367 0L367 296Q367 334 348 350Q329 366 283 366Q241 366 204 358L204 0L58 0L58 469Q184 500 287 500Q410 500 461.50 454Q513 408 513 315L513 0M335 643Q349 643 356.50 658.50Q364 674 366 698L440 698Q433 628 409 593.50Q385 559 336 559Q310 559 291 570.50Q272 582 260 600.50Q248 619 232 619Q217 619 210 602Q203 585 202 562L130 562Q135 701 232 701Q275 701 297 672Q319 643 335 643Z"  horiz-adv-x="569" vert-adv-y="1000"  />

      
      <glyph glyph-name="unif2" unicode="&#xf2;" d="M286-14Q173-14 100.50 58.50Q28 131 28 244Q28 358 100 429Q172 500 286 500Q399 500 471 428.50Q543 357 543 244Q543 130 471 58Q399-14 286-14M286 121Q333 121 363 155Q393 189 393 244Q393 299 364 332Q335 365 286 365Q237 365 207 331.50Q177 298 177 244Q177 188 208 154.50Q239 121 286 121M262 552L123 729L268 729L365 552L262 552Z"  horiz-adv-x="571" vert-adv-y="1000"  />

      
      <glyph glyph-name="unif3" unicode="&#xf3;" d="M286-14Q173-14 100.50 58.50Q28 131 28 244Q28 358 100 429Q172 500 286 500Q399 500 471 428.50Q543 357 543 244Q543 130 471 58Q399-14 286-14M286 121Q333 121 363 155Q393 189 393 244Q393 299 364 332Q335 365 286 365Q237 365 207 331.50Q177 298 177 244Q177 188 208 154.50Q239 121 286 121M215 552L315 729L460 729L327 552L215 552Z"  horiz-adv-x="571" vert-adv-y="1000"  />

      
      <glyph glyph-name="unif4" unicode="&#xf4;" d="M286-14Q173-14 100.50 58.50Q28 131 28 244Q28 358 100 429Q172 500 286 500Q399 500 471 428.50Q543 357 543 244Q543 130 471 58Q399-14 286-14M286 121Q333 121 363 155Q393 189 393 244Q393 299 364 332Q335 365 286 365Q237 365 207 331.50Q177 298 177 244Q177 188 208 154.50Q239 121 286 121M352 555L286 636L221 555L102 555L250 742L322 742L470 555L352 555Z"  horiz-adv-x="571" vert-adv-y="1000"  />

      
      <glyph glyph-name="unif5" unicode="&#xf5;" d="M286-14Q173-14 100.50 58.50Q28 131 28 244Q28 358 100 429Q172 500 286 500Q399 500 471 428.50Q543 357 543 244Q543 130 471 58Q399-14 286-14M286 121Q333 121 363 155Q393 189 393 244Q393 299 364 332Q335 365 286 365Q237 365 207 331.50Q177 298 177 244Q177 188 208 154.50Q239 121 286 121M336 643Q350 643 357.50 658.50Q365 674 367 698L441 698Q434 628 410 593.50Q386 559 337 559Q311 559 292 570.50Q273 582 261 600.50Q249 619 233 619Q218 619 211 602Q204 585 203 562L131 562Q136 701 233 701Q276 701 298 672Q320 643 336 643Z"  horiz-adv-x="571" vert-adv-y="1000"  />

      
      <glyph glyph-name="unif6" unicode="&#xf6;" d="M286-14Q173-14 100.50 58.50Q28 131 28 244Q28 358 100 429Q172 500 286 500Q399 500 471 428.50Q543 357 543 244Q543 130 471 58Q399-14 286-14M286 121Q333 121 363 155Q393 189 393 244Q393 299 364 332Q335 365 286 365Q237 365 207 331.50Q177 298 177 244Q177 188 208 154.50Q239 121 286 121M139 576L139 693L255 693L255 576L139 576M316 576L316 693L432 693L432 576L316 576Z"  horiz-adv-x="571" vert-adv-y="1000"  />

      
      <glyph glyph-name="unif7" unicode="&#xf7;" d="M216 435L216 579L360 579L360 435L216 435M50 236L50 370L536 370L536 236L50 236M216 25L216 170L360 170L360 25L216 25Z"  horiz-adv-x="586" vert-adv-y="1000"  />

      
      <glyph glyph-name="unif8" unicode="&#xf8;" d="M482 417Q511 383 527 339Q543 295 543 244Q543 130 471 58Q399-14 286-14Q219-14 165 12L104-66L22-5L85 75Q28 145 28 244Q28 358 100 429Q172 500 286 500Q348 500 400 477L466 562L548 501L482 417M180 196L313 367Q301 370 286 370Q235 370 204 335Q173 300 173 244Q173 216 180 196M397 244Q397 275 388 297L250 121Q264 116 286 116Q336 116 366.50 151Q397 186 397 244Z"  horiz-adv-x="571" vert-adv-y="1000"  />

      
      <glyph glyph-name="unif9" unicode="&#xf9;" d="M56 172L56 487L202 487L202 191Q202 153 222 137Q242 121 290 121Q325 121 365 129L365 487L511 487L511 18Q385-13 282-13Q159-13 107.50 33Q56 79 56 172M261 552L122 729L267 729L364 552L261 552Z"  horiz-adv-x="569" vert-adv-y="1000"  />

      
      <glyph glyph-name="unifa" unicode="&#xfa;" d="M56 172L56 487L202 487L202 191Q202 153 222 137Q242 121 290 121Q325 121 365 129L365 487L511 487L511 18Q385-13 282-13Q159-13 107.50 33Q56 79 56 172M214 552L314 729L459 729L326 552L214 552Z"  horiz-adv-x="569" vert-adv-y="1000"  />

      
      <glyph glyph-name="unifb" unicode="&#xfb;" d="M56 172L56 487L202 487L202 191Q202 153 222 137Q242 121 290 121Q325 121 365 129L365 487L511 487L511 18Q385-13 282-13Q159-13 107.50 33Q56 79 56 172M351 555L285 636L220 555L101 555L249 742L321 742L469 555L351 555Z"  horiz-adv-x="569" vert-adv-y="1000"  />

      
      <glyph glyph-name="unifc" unicode="&#xfc;" d="M56 172L56 487L202 487L202 191Q202 153 222 137Q242 121 290 121Q325 121 365 129L365 487L511 487L511 18Q385-13 282-13Q159-13 107.50 33Q56 79 56 172M138 576L138 693L254 693L254 576L138 576M315 576L315 693L431 693L431 576L315 576Z"  horiz-adv-x="569" vert-adv-y="1000"  />

      
      <glyph glyph-name="unifd" unicode="&#xfd;" d="M78-235L184 4L-7 487L154 487L236 251Q251 209 257 180L259 180Q266 207 280 245L370 487L532 487L237-235L78-235M184 552L284 729L429 729L296 552L184 552Z"  horiz-adv-x="525" vert-adv-y="1000"  />

      
      <glyph glyph-name="unife" unicode="&#xfe;" d="M545 253Q545 131 476 58.50Q407-14 303-14Q248-14 204 2L204-251L58-251L58 738L204 738L204 478Q258 500 321 500Q422 500 483.50 430.50Q545 361 545 253M204 131Q236 119 280 119Q335 119 365.50 150.50Q396 182 396 243Q396 299 364.50 330Q333 361 282 361Q240 361 204 346L204 131Z"  horiz-adv-x="573" vert-adv-y="1000"  />

      
      <glyph glyph-name="uniff" unicode="&#xff;" d="M78-235L184 4L-7 487L154 487L236 251Q251 209 257 180L259 180Q266 207 280 245L370 487L532 487L237-235L78-235M106 576L106 693L222 693L222 576L106 576M283 576L283 693L399 693L399 576L283 576Z"  horiz-adv-x="525" vert-adv-y="1000"  />

      
      <glyph glyph-name="uni0100" unicode="&#x0100;" d="M551 0L493 151L228 151L169 0L4 0L291 695L435 695L718 0L551 0M276 276L442 276L361 495L359 495L276 276M236 752L236 850L485 850L485 752L236 752Z"  horiz-adv-x="722" vert-adv-y="1000"  />

      
      <glyph glyph-name="uni0101" unicode="&#x0101;" d="M456 21Q350-12 240-12Q33-12 33 143Q33 218 86.50 258Q140 298 249 298Q280 298 310 296L310 315Q310 350 284.50 363Q259 376 218 376Q153 376 69 349L69 469Q101 480 150 490Q199 500 250 500Q358 500 407 450.50Q456 401 456 306L456 21M247 101Q282 101 310 105L310 202Q286 205 251 205Q214 205 195 191Q176 177 176 151Q176 126 192.50 113.50Q209 101 247 101M130 568L130 666L379 666L379 568L130 568Z"  horiz-adv-x="509" vert-adv-y="1000"  />

      
      <glyph glyph-name="uni0102" unicode="&#x0102;" d="M551 0L493 151L228 151L169 0L4 0L291 695L435 695L718 0L551 0M276 276L442 276L361 495L359 495L276 276M196 890L293 890Q295 865 312.50 850Q330 835 361 835Q391 835 408.50 849Q426 863 428 890L525 890Q520 823 476.50 783.50Q433 744 361 744Q285 744 243 783Q201 822 196 890Z"  horiz-adv-x="722" vert-adv-y="1000"  />

      
      <glyph glyph-name="uni0103" unicode="&#x0103;" d="M456 21Q350-12 240-12Q33-12 33 143Q33 218 86.50 258Q140 298 249 298Q280 298 310 296L310 315Q310 350 284.50 363Q259 376 218 376Q153 376 69 349L69 469Q101 480 150 490Q199 500 250 500Q358 500 407 450.50Q456 401 456 306L456 21M247 101Q282 101 310 105L310 202Q286 205 251 205Q214 205 195 191Q176 177 176 151Q176 126 192.50 113.50Q209 101 247 101M105 707L187 707Q191 679 209 663Q227 647 255 647Q282 647 301 663Q320 679 322 707L405 707Q400 643 360 606.50Q320 570 255 570Q189 570 149.50 606.50Q110 643 105 707Z"  horiz-adv-x="509" vert-adv-y="1000"  />

      
      <glyph glyph-name="uni0104" unicode="&#x0104;" d="M551 0L493 151L228 151L169 0L4 0L291 695L435 695L718 0L551 0M276 276L442 276L361 495L359 495L276 276M678-142Q701-142 718-135L718-204Q691-215 651-215Q610-215 585.50-192Q561-169 561-134Q561-95 586-63Q611-31 658 0L718 0Q681-31 662-55Q643-79 643-103Q643-121 652-131.50Q661-142 678-142Z"  horiz-adv-x="722" vert-adv-y="1000"  />

      
      <glyph glyph-name="uni0105" unicode="&#x0105;" d="M416-142Q439-142 456-135L456-204Q429-215 389-215Q348-215 323.50-192Q299-169 299-134Q299-95 317-62.50Q335-30 369 0Q307-12 240-12Q33-12 33 143Q33 218 86.50 258Q140 298 249 298Q280 298 310 296L310 315Q310 350 284.50 363Q259 376 218 376Q153 376 69 349L69 469Q101 480 150 490Q199 500 250 500Q358 500 407 450.50Q456 401 456 306L456 21Q420-15 400.50-45Q381-75 381-103Q381-121 390-131.50Q399-142 416-142M176 151Q176 126 192.50 113.50Q209 101 247 101Q282 101 310 105L310 202Q286 205 251 205Q214 205 195 191Q176 177 176 151Z"  horiz-adv-x="509" vert-adv-y="1000"  />

      
      <glyph glyph-name="uni0106" unicode="&#x0106;" d="M584 523Q497 562 415 562Q305 562 252.50 506.50Q200 451 200 356Q200 254 257.50 195.50Q315 137 416 137Q466 137 514.50 150.50Q563 164 595 182L595 30Q555 10 510-1.50Q465-13 406-13Q236-13 134 85Q32 183 32 348Q32 517 131 612Q230 707 407 707Q501 707 584 676L584 523M287 756L366 896L518 896L399 756L287 756Z"  horiz-adv-x="626" vert-adv-y="1000"  />

      
      <glyph glyph-name="uni0107" unicode="&#x0107;" d="M421 349Q400 358 370 363.50Q340 369 311 369Q243 369 210 336Q177 303 177 244Q177 187 213 153Q249 119 317 119Q372 119 428 142L428 11Q406 1 370.50-6.50Q335-14 296-14Q173-14 100.50 56Q28 126 28 246Q28 356 102 428Q176 500 300 500Q368 500 421 483L421 349M184 552L284 729L429 729L296 552L184 552Z"  horiz-adv-x="448" vert-adv-y="1000"  />

      
      <glyph glyph-name="uni0108" unicode="&#x0108;" d="M584 523Q497 562 415 562Q305 562 252.50 506.50Q200 451 200 356Q200 254 257.50 195.50Q315 137 416 137Q466 137 514.50 150.50Q563 164 595 182L595 30Q555 10 510-1.50Q465-13 406-13Q236-13 134 85Q32 183 32 348Q32 517 131 612Q230 707 407 707Q501 707 584 676L584 523M439 754L363 832L286 754L161 754L327 923L399 923L565 754L439 754Z"  horiz-adv-x="626" vert-adv-y="1000"  />

      
      <glyph glyph-name="uni0109" unicode="&#x0109;" d="M421 349Q400 358 370 363.50Q340 369 311 369Q243 369 210 336Q177 303 177 244Q177 187 213 153Q249 119 317 119Q372 119 428 142L428 11Q406 1 370.50-6.50Q335-14 296-14Q173-14 100.50 56Q28 126 28 246Q28 356 102 428Q176 500 300 500Q368 500 421 483L421 349M321 555L255 636L190 555L71 555L219 742L291 742L439 555L321 555Z"  horiz-adv-x="448" vert-adv-y="1000"  />

      
      <glyph glyph-name="uni010A" unicode="&#x010A;" d="M584 523Q497 562 415 562Q305 562 252.50 506.50Q200 451 200 356Q200 254 257.50 195.50Q315 137 416 137Q466 137 514.50 150.50Q563 164 595 182L595 30Q555 10 510-1.50Q465-13 406-13Q236-13 134 85Q32 183 32 348Q32 517 131 612Q230 707 407 707Q501 707 584 676L584 523M287 745L287 897L439 897L439 745L287 745Z"  horiz-adv-x="626" vert-adv-y="1000"  />

      
      <glyph glyph-name="uni010B" unicode="&#x010B;" d="M421 349Q400 358 370 363.50Q340 369 311 369Q243 369 210 336Q177 303 177 244Q177 187 213 153Q249 119 317 119Q372 119 428 142L428 11Q406 1 370.50-6.50Q335-14 296-14Q173-14 100.50 56Q28 126 28 246Q28 356 102 428Q176 500 300 500Q368 500 421 483L421 349M179 589L179 741L331 741L331 589L179 589Z"  horiz-adv-x="448" vert-adv-y="1000"  />

      
      <glyph glyph-name="uni010C" unicode="&#x010C;" d="M584 523Q497 562 415 562Q305 562 252.50 506.50Q200 451 200 356Q200 254 257.50 195.50Q315 137 416 137Q466 137 514.50 150.50Q563 164 595 182L595 30Q555 10 510-1.50Q465-13 406-13Q236-13 134 85Q32 183 32 348Q32 517 131 612Q230 707 407 707Q501 707 584 676L584 523M327 754L161 923L287 923L363 846L439 923L565 923L399 754L327 754Z"  horiz-adv-x="626" vert-adv-y="1000"  />

      
      <glyph glyph-name="uni010D" unicode="&#x010D;" d="M421 349Q400 358 370 363.50Q340 369 311 369Q243 369 210 336Q177 303 177 244Q177 187 213 153Q249 119 317 119Q372 119 428 142L428 11Q406 1 370.50-6.50Q335-14 296-14Q173-14 100.50 56Q28 126 28 246Q28 356 102 428Q176 500 300 500Q368 500 421 483L421 349M219 551L71 738L190 738L255 657L321 738L439 738L291 551L219 551Z"  horiz-adv-x="448" vert-adv-y="1000"  />

      
      <glyph glyph-name="uni010E" unicode="&#x010E;" d="M309 0L68 0L68 695L319 695Q498 695 596 605.50Q694 516 694 355Q694 197 590 98.50Q486 0 309 0M223 141L308 141Q418 141 473.50 196.50Q529 252 529 348Q529 446 475 500Q421 554 310 554L223 554L223 141M297 754L131 923L257 923L333 846L409 923L535 923L369 754L297 754Z"  horiz-adv-x="726" vert-adv-y="1000"  />

      
      <glyph glyph-name="uni010F" unicode="&#x010F;" d="M28 233Q28 355 98 427.50Q168 500 272 500Q325 500 369 484L369 738L515 738L515 41Q407-14 285-14Q165-14 96.50 57.50Q28 129 28 233M297 123Q328 123 369 135L369 358L346 364Q326 369 297 369Q242 369 209.50 336Q177 303 177 243Q177 187 210 155Q243 123 297 123M555 521L604 738L733 738L664 521L555 521Z"  horiz-adv-x="573" vert-adv-y="1000"  />

      
      <glyph glyph-name="uni0110" unicode="&#x0110;" d="M309 0L68 0L68 281L1 281L1 414L68 414L68 695L319 695Q498 695 596 605.50Q694 516 694 355Q694 197 590 98.50Q486 0 309 0M310 554L223 554L223 414L364 414L364 281L223 281L223 141L308 141Q418 141 473.50 196.50Q529 252 529 348Q529 446 475 500Q421 554 310 554Z"  horiz-adv-x="726" vert-adv-y="1000"  />

      
      <glyph glyph-name="uni0111" unicode="&#x0111;" d="M515 547L515 41Q407-14 285-14Q164-14 96 54Q28 122 28 223Q28 343 96.50 412Q165 481 272 481Q325 481 369 465L369 547L215 547L215 670L369 670L369 738L515 738L515 670L575 670L575 547L515 547M177 233Q177 178 209 150.50Q241 123 297 123Q328 123 369 135L369 339L346 345Q326 350 297 350Q241 350 209 321Q177 292 177 233Z"  horiz-adv-x="573" vert-adv-y="1000"  />

      
      <glyph glyph-name="uni0112" unicode="&#x0112;" d="M222 553L222 423L505 423L505 281L222 281L222 142L547 142L547 0L68 0L68 695L533 695L533 553L222 553M183 752L183 850L432 850L432 752L183 752Z"  horiz-adv-x="578" vert-adv-y="1000"  />

      
      <glyph glyph-name="uni0113" unicode="&#x0113;" d="M511 202L176 202Q180 161 211 134.50Q242 108 315 108Q363 108 401 118.50Q439 129 480 146L479 26Q429 6 388.50-4Q348-14 288-14Q165-14 96.50 52.50Q28 119 28 241Q28 361 97 430Q166 499 285 499Q399 499 456.50 432.50Q514 366 514 263Q514 241 511 202M369 293Q369 335 344.50 361Q320 387 276 387Q234 387 207 362Q180 337 177 293L369 293M147 568L147 666L396 666L396 568L147 568Z"  horiz-adv-x="538" vert-adv-y="1000"  />

      
      <glyph glyph-name="uni0114" unicode="&#x0114;" d="M222 553L222 423L505 423L505 281L222 281L222 142L547 142L547 0L68 0L68 695L533 695L533 553L222 553M143 890L240 890Q242 865 259.50 850Q277 835 308 835Q338 835 355.50 849Q373 863 375 890L472 890Q467 823 423.50 783.50Q380 744 308 744Q232 744 190 783Q148 822 143 890Z"  horiz-adv-x="578" vert-adv-y="1000"  />

      
      <glyph glyph-name="uni0115" unicode="&#x0115;" d="M511 202L176 202Q180 161 211 134.50Q242 108 315 108Q363 108 401 118.50Q439 129 480 146L479 26Q429 6 388.50-4Q348-14 288-14Q165-14 96.50 52.50Q28 119 28 241Q28 361 97 430Q166 499 285 499Q399 499 456.50 432.50Q514 366 514 263Q514 241 511 202M369 293Q369 335 344.50 361Q320 387 276 387Q234 387 207 362Q180 337 177 293L369 293M122 707L204 707Q208 679 226 663Q244 647 272 647Q299 647 318 663Q337 679 339 707L422 707Q417 643 377 606.50Q337 570 272 570Q206 570 166.50 606.50Q127 643 122 707Z"  horiz-adv-x="538" vert-adv-y="1000"  />

      
      <glyph glyph-name="uni0116" unicode="&#x0116;" d="M222 553L222 423L505 423L505 281L222 281L222 142L547 142L547 0L68 0L68 695L533 695L533 553L222 553M232 745L232 897L384 897L384 745L232 745Z"  horiz-adv-x="578" vert-adv-y="1000"  />

      
      <glyph glyph-name="uni0117" unicode="&#x0117;" d="M511 202L176 202Q180 161 211 134.50Q242 108 315 108Q363 108 401 118.50Q439 129 480 146L479 26Q429 6 388.50-4Q348-14 288-14Q165-14 96.50 52.50Q28 119 28 241Q28 361 97 430Q166 499 285 499Q399 499 456.50 432.50Q514 366 514 263Q514 241 511 202M369 293Q369 335 344.50 361Q320 387 276 387Q234 387 207 362Q180 337 177 293L369 293M196 589L196 741L348 741L348 589L196 589Z"  horiz-adv-x="538" vert-adv-y="1000"  />

      
      <glyph glyph-name="uni0118" unicode="&#x0118;" d="M222 553L222 423L505 423L505 281L222 281L222 142L547 142L547 0L68 0L68 695L533 695L533 553L222 553M507-142Q530-142 547-135L547-204Q520-215 480-215Q439-215 414.50-192Q390-169 390-134Q390-95 415-63Q440-31 487 0L547 0Q510-31 491-55Q472-79 472-103Q472-121 481-131.50Q490-142 507-142Z"  horiz-adv-x="578" vert-adv-y="1000"  />

      
      <glyph glyph-name="uni0119" unicode="&#x0119;" d="M176 202Q180 161 211 134.50Q242 108 315 108Q363 108 401 118.50Q439 129 480 146L479 26Q442-12 423-42.50Q404-73 404-103Q404-121 413-131.50Q422-142 439-142Q461-142 479-135L479-204Q451-215 412-215Q371-215 346.50-192Q322-169 322-134Q322-65 382-5Q343-14 288-14Q165-14 96.50 52.50Q28 119 28 241Q28 361 97 430Q166 499 285 499Q399 499 456.50 432.50Q514 366 514 263Q514 241 511 202L176 202M177 293L369 293Q369 335 344.50 361Q320 387 276 387Q234 387 207 362Q180 337 177 293Z"  horiz-adv-x="538" vert-adv-y="1000"  />

      
      <glyph glyph-name="uni011A" unicode="&#x011A;" d="M222 553L222 423L505 423L505 281L222 281L222 142L547 142L547 0L68 0L68 695L533 695L533 553L222 553M272 754L106 923L232 923L308 846L384 923L510 923L344 754L272 754Z"  horiz-adv-x="578" vert-adv-y="1000"  />

      
      <glyph glyph-name="uni011B" unicode="&#x011B;" d="M511 202L176 202Q180 161 211 134.50Q242 108 315 108Q363 108 401 118.50Q439 129 480 146L479 26Q429 6 388.50-4Q348-14 288-14Q165-14 96.50 52.50Q28 119 28 241Q28 361 97 430Q166 499 285 499Q399 499 456.50 432.50Q514 366 514 263Q514 241 511 202M369 293Q369 335 344.50 361Q320 387 276 387Q234 387 207 362Q180 337 177 293L369 293M236 551L88 738L207 738L272 657L338 738L456 738L308 551L236 551Z"  horiz-adv-x="538" vert-adv-y="1000"  />

      
      <glyph glyph-name="uni011C" unicode="&#x011C;" d="M621 530Q574 545 527 555.50Q480 566 418 566Q308 566 251.50 508Q195 450 195 349Q195 246 248.50 187.50Q302 129 405 129Q432 129 451.50 132.50Q471 136 494 142L494 262L340 262L340 391L645 391L645 48Q601 23 539.50 5.50Q478-12 400-12Q226-12 129 85Q32 182 32 347Q32 513 136 610Q240 707 430 707Q490 707 532.50 699.50Q575 692 621 678L621 530M466 754L390 832L313 754L188 754L354 923L426 923L592 754L466 754Z"  horiz-adv-x="699" vert-adv-y="1000"  />

      
      <glyph glyph-name="uni011D" unicode="&#x011D;" d="M515 12Q515-102 452.50-171.50Q390-241 255-241Q195-241 154-234Q113-227 73-215L73-78Q109-91 148-99Q187-107 236-107Q300-107 334.50-86.50Q369-66 369-11L369 6Q320-14 255-14Q154-14 91 55.50Q28 125 28 232Q28 349 101 424.50Q174 500 306 500Q366 500 416.50 489Q467 478 515 460L515 12M292 121Q323 121 345 127L369 133L369 357Q335 366 302 366Q242 366 209.50 332.50Q177 299 177 243Q177 186 209 153.50Q241 121 292 121M361 555L295 636L230 555L111 555L259 742L331 742L479 555L361 555Z"  horiz-adv-x="573" vert-adv-y="1000"  />

      
      <glyph glyph-name="uni011E" unicode="&#x011E;" d="M621 530Q574 545 527 555.50Q480 566 418 566Q308 566 251.50 508Q195 450 195 349Q195 246 248.50 187.50Q302 129 405 129Q432 129 451.50 132.50Q471 136 494 142L494 262L340 262L340 391L645 391L645 48Q601 23 539.50 5.50Q478-12 400-12Q226-12 129 85Q32 182 32 347Q32 513 136 610Q240 707 430 707Q490 707 532.50 699.50Q575 692 621 678L621 530M225 890L322 890Q324 865 341.50 850Q359 835 390 835Q420 835 437.50 849Q455 863 457 890L554 890Q549 823 505.50 783.50Q462 744 390 744Q314 744 272 783Q230 822 225 890Z"  horiz-adv-x="699" vert-adv-y="1000"  />

      
      <glyph glyph-name="uni011F" unicode="&#x011F;" d="M515 12Q515-102 452.50-171.50Q390-241 255-241Q195-241 154-234Q113-227 73-215L73-78Q109-91 148-99Q187-107 236-107Q300-107 334.50-86.50Q369-66 369-11L369 6Q320-14 255-14Q154-14 91 55.50Q28 125 28 232Q28 349 101 424.50Q174 500 306 500Q366 500 416.50 489Q467 478 515 460L515 12M292 121Q323 121 345 127L369 133L369 357Q335 366 302 366Q242 366 209.50 332.50Q177 299 177 243Q177 186 209 153.50Q241 121 292 121M145 707L227 707Q231 679 249 663Q267 647 295 647Q322 647 341 663Q360 679 362 707L445 707Q440 643 400 606.50Q360 570 295 570Q229 570 189.50 606.50Q150 643 145 707Z"  horiz-adv-x="573" vert-adv-y="1000"  />

      
      <glyph glyph-name="uni0120" unicode="&#x0120;" d="M621 530Q574 545 527 555.50Q480 566 418 566Q308 566 251.50 508Q195 450 195 349Q195 246 248.50 187.50Q302 129 405 129Q432 129 451.50 132.50Q471 136 494 142L494 262L340 262L340 391L645 391L645 48Q601 23 539.50 5.50Q478-12 400-12Q226-12 129 85Q32 182 32 347Q32 513 136 610Q240 707 430 707Q490 707 532.50 699.50Q575 692 621 678L621 530M314 745L314 897L466 897L466 745L314 745Z"  horiz-adv-x="699" vert-adv-y="1000"  />

      
      <glyph glyph-name="uni0121" unicode="&#x0121;" d="M515 12Q515-102 452.50-171.50Q390-241 255-241Q195-241 154-234Q113-227 73-215L73-78Q109-91 148-99Q187-107 236-107Q300-107 334.50-86.50Q369-66 369-11L369 6Q320-14 255-14Q154-14 91 55.50Q28 125 28 232Q28 349 101 424.50Q174 500 306 500Q366 500 416.50 489Q467 478 515 460L515 12M292 121Q323 121 345 127L369 133L369 357Q335 366 302 366Q242 366 209.50 332.50Q177 299 177 243Q177 186 209 153.50Q241 121 292 121M219 589L219 741L371 741L371 589L219 589Z"  horiz-adv-x="573" vert-adv-y="1000"  />

      
      <glyph glyph-name="uni0122" unicode="&#x0122;" d="M621 530Q574 545 527 555.50Q480 566 418 566Q308 566 251.50 508Q195 450 195 349Q195 246 248.50 187.50Q302 129 405 129Q432 129 451.50 132.50Q471 136 494 142L494 262L340 262L340 391L645 391L645 48Q601 23 539.50 5.50Q478-12 400-12Q226-12 129 85Q32 182 32 347Q32 513 136 610Q240 707 430 707Q490 707 532.50 699.50Q575 692 621 678L621 530M276-231L366-44L503-44L393-231L276-231Z"  horiz-adv-x="699" vert-adv-y="1000"  />

      
      <glyph glyph-name="uni0123" unicode="&#x0123;" d="M515 12Q515-102 452.50-171.50Q390-241 255-241Q195-241 154-234Q113-227 73-215L73-78Q109-91 148-99Q187-107 236-107Q300-107 334.50-86.50Q369-66 369-11L369 6Q320-14 255-14Q154-14 91 55.50Q28 125 28 232Q28 349 101 424.50Q174 500 306 500Q366 500 416.50 489Q467 478 515 460L515 12M292 121Q323 121 345 127L369 133L369 357Q335 366 302 366Q242 366 209.50 332.50Q177 299 177 243Q177 186 209 153.50Q241 121 292 121M181 563L291 750L408 750L318 563L181 563Z"  horiz-adv-x="573" vert-adv-y="1000"  />

      
      <glyph glyph-name="uni0124" unicode="&#x0124;" d="M527 0L527 278L221 278L221 0L68 0L68 695L221 695L221 419L527 419L527 695L681 695L681 0L527 0M451 754L375 832L298 754L173 754L339 923L411 923L577 754L451 754Z"  horiz-adv-x="749" vert-adv-y="1000"  />

      
      <glyph glyph-name="uni0125" unicode="&#x0125;" d="M513 318L513 0L367 0L367 296Q367 333 349.50 349.50Q332 366 293 366Q270 366 251.50 362Q233 358 204 351L204 0L58 0L58 738L204 738L204 477Q231 486 267.50 493Q304 500 338 500Q435 500 474 454.50Q513 409 513 318M361 791L285 869L208 791L83 791L249 960L321 960L487 791L361 791Z"  horiz-adv-x="569" vert-adv-y="1000"  />

      
      <glyph glyph-name="uni0126" unicode="&#x0126;" d="M750 598L750 495L681 495L681 0L527 0L527 268L221 268L221 0L68 0L68 495L-3 495L-3 598L68 598L68 695L221 695L221 598L527 598L527 695L681 695L681 598L750 598M221 402L527 402L527 495L221 495L221 402Z"  horiz-adv-x="749" vert-adv-y="1000"  />

      
      <glyph glyph-name="uni0127" unicode="&#x0127;" d="M513 0L367 0L367 296Q367 333 349.50 349.50Q332 366 293 366Q270 366 251.50 362Q233 358 204 351L204 0L58 0L58 547L-7 547L-7 670L58 670L58 738L204 738L204 670L353 670L353 547L204 547L204 477Q231 486 267.50 493Q304 500 338 500Q435 500 474 454.50Q513 409 513 318L513 0Z"  horiz-adv-x="569" vert-adv-y="1000"  />

      
      <glyph glyph-name="uni0128" unicode="&#x0128;" d="M68 0L68 695L222 695L222 0L68 0M195 827Q209 827 216.50 842.50Q224 858 226 882L300 882Q293 812 269 777.50Q245 743 196 743Q170 743 151 754.50Q132 766 120 784.50Q108 803 92 803Q77 803 70 786Q63 769 62 746L-10 746Q-5 885 92 885Q135 885 157 856Q179 827 195 827Z"  horiz-adv-x="290" vert-adv-y="1000"  />

      
      <glyph glyph-name="uni0129" unicode="&#x0129;" d="M58 0L58 487L204 487L204 0L58 0M181 643Q195 643 202.50 658.50Q210 674 212 698L286 698Q279 628 255 593.50Q231 559 182 559Q156 559 137 570.50Q118 582 106 600.50Q94 619 78 619Q63 619 56 602Q49 585 48 562L-24 562Q-19 701 78 701Q121 701 143 672Q165 643 181 643Z"  horiz-adv-x="262" vert-adv-y="1000"  />

      
      <glyph glyph-name="uni012A" unicode="&#x012A;" d="M68 0L68 695L222 695L222 0L68 0M20 752L20 850L269 850L269 752L20 752Z"  horiz-adv-x="290" vert-adv-y="1000"  />

      
      <glyph glyph-name="uni012B" unicode="&#x012B;" d="M58 0L58 487L204 487L204 0L58 0M6 568L6 666L255 666L255 568L6 568Z"  horiz-adv-x="262" vert-adv-y="1000"  />

      
      <glyph glyph-name="uni012C" unicode="&#x012C;" d="M68 0L68 695L222 695L222 0L68 0M-20 890L77 890Q79 865 96.50 850Q114 835 145 835Q175 835 192.50 849Q210 863 212 890L309 890Q304 823 260.50 783.50Q217 744 145 744Q69 744 27 783Q-15 822-20 890Z"  horiz-adv-x="290" vert-adv-y="1000"  />

      
      <glyph glyph-name="uni012D" unicode="&#x012D;" d="M58 0L58 487L204 487L204 0L58 0M-19 707L63 707Q67 679 85 663Q103 647 131 647Q158 647 177 663Q196 679 198 707L281 707Q276 643 236 606.50Q196 570 131 570Q65 570 25.50 606.50Q-14 643-19 707Z"  horiz-adv-x="262" vert-adv-y="1000"  />

      
      <glyph glyph-name="uni012E" unicode="&#x012E;" d="M182-142Q205-142 222-135L222-204Q195-215 155-215Q114-215 89.50-192Q65-169 65-134Q65-95 90-63Q115-31 162 0L68 0L68 695L222 695L222 0Q185-31 166-55Q147-79 147-103Q147-121 156-131.50Q165-142 182-142Z"  horiz-adv-x="290" vert-adv-y="1000"  />

      
      <glyph glyph-name="uni012F" unicode="&#x012F;" d="M207 589L55 589L55 741L207 741L207 589M204 487L204 0Q167-31 148-55Q129-79 129-103Q129-121 138-131.50Q147-142 164-142Q187-142 204-135L204-204Q177-215 137-215Q96-215 71.50-192Q47-169 47-134Q47-95 72-63Q97-31 144 0L58 0L58 487L204 487Z"  horiz-adv-x="262" vert-adv-y="1000"  />

      
      <glyph glyph-name="uni0130" unicode="&#x0130;" d="M68 0L68 695L222 695L222 0L68 0M69 745L69 897L221 897L221 745L69 745Z"  horiz-adv-x="290" vert-adv-y="1000"  />

      
      <glyph glyph-name="uni0131" unicode="&#x0131;" d="M58 0L58 487L204 487L204 0L58 0Z"  horiz-adv-x="262" vert-adv-y="1000"  />

      
      <glyph glyph-name="uni0132" unicode="&#x0132;" d="M68 0L68 695L222 695L222 0L68 0M298 13L298 157Q319 147 357.50 139Q396 131 427 131Q506 131 537.50 168.50Q569 206 569 293L569 695L724 695L724 285Q724 145 659.50 67Q595-11 444-11Q403-11 363.50-4Q324 3 298 13Z"  horiz-adv-x="790" vert-adv-y="1000"  />

      
      <glyph glyph-name="uni0133" unicode="&#x0133;" d="M55 589L55 741L207 741L207 589L55 589M58 0L58 487L204 487L204 0L58 0M317 589L317 741L469 741L469 589L317 589M184-231L184-102Q187-102 203-106Q219-110 245-110Q282-110 301-89.50Q320-69 320-31L320 487L466 487L466-34Q466-125 415.50-182.50Q365-240 264-240Q222-240 184-231Z"  horiz-adv-x="524" vert-adv-y="1000"  />

      
      <glyph glyph-name="uni0134" unicode="&#x0134;" d="M8 13L8 157Q29 147 67.50 139Q106 131 137 131Q216 131 247.50 168.50Q279 206 279 293L279 695L434 695L434 285Q434 145 369.50 67Q305-11 154-11Q113-11 73.50-4Q34 3 8 13M433 754L357 832L280 754L155 754L321 923L393 923L559 754L433 754Z"  horiz-adv-x="500" vert-adv-y="1000"  />

      
      <glyph glyph-name="uni0135" unicode="&#x0135;" d="M-78-228L-78-99Q-75-99-59-103Q-43-107-17-107Q14-107 36-85.50Q58-64 58-28L58 487L204 487L204-31Q204-129 147.50-183Q91-237 2-237Q-40-237-78-228M197 555L131 636L66 555L-53 555L95 742L167 742L315 555L197 555Z"  horiz-adv-x="262" vert-adv-y="1000"  />

      
      <glyph glyph-name="uni0136" unicode="&#x0136;" d="M683 0L483 0L224 342L222 342L222 0L68 0L68 695L222 695L222 355L224 355L479 695L682 695L401 352L683 0M228-231L318-44L455-44L345-231L228-231Z"  horiz-adv-x="683" vert-adv-y="1000"  />

      
      <glyph glyph-name="uni0137" unicode="&#x0137;" d="M206 263L378 487L564 487L374 261L567 0L384 0L206 254L204 254L204 0L58 0L58 738L204 738L204 263L206 263M160-231L250-44L387-44L277-231L160-231Z"  horiz-adv-x="568" vert-adv-y="1000"  />

      
      <glyph glyph-name="uni0138" unicode="&#x0138;" d="M567 0L384 0L206 254L204 254L204 0L58 0L58 487L204 487L204 263L206 263L378 487L564 487L374 261L567 0Z"  horiz-adv-x="568" vert-adv-y="1000"  />

      
      <glyph glyph-name="uni0139" unicode="&#x0139;" d="M543 140L543 0L68 0L68 695L222 695L222 140L543 140M69 756L148 896L300 896L181 756L69 756Z"  horiz-adv-x="553" vert-adv-y="1000"  />

      
      <glyph glyph-name="uni013A" unicode="&#x013A;" d="M58 0L58 738L204 738L204 0L58 0M55 799L134 939L286 939L167 799L55 799Z"  horiz-adv-x="262" vert-adv-y="1000"  />

      
      <glyph glyph-name="uni013B" unicode="&#x013B;" d="M543 140L543 0L68 0L68 695L222 695L222 140L543 140M192-231L282-44L419-44L309-231L192-231Z"  horiz-adv-x="553" vert-adv-y="1000"  />

      
      <glyph glyph-name="uni013C" unicode="&#x013C;" d="M58 0L58 738L204 738L204 0L58 0M17-231L107-44L244-44L134-231L17-231Z"  horiz-adv-x="262" vert-adv-y="1000"  />

      
      <glyph glyph-name="uni013D" unicode="&#x013D;" d="M543 140L543 0L68 0L68 695L222 695L222 140L543 140M262 521L311 738L440 738L371 521L262 521Z"  horiz-adv-x="553" vert-adv-y="1000"  />

      
      <glyph glyph-name="uni013E" unicode="&#x013E;" d="M58 0L58 738L204 738L204 0L58 0M244 521L293 738L422 738L353 521L244 521Z"  horiz-adv-x="262" vert-adv-y="1000"  />

      
      <glyph glyph-name="uni013F" unicode="&#x013F;" d="M543 140L543 0L68 0L68 695L222 695L222 140L543 140M346 360L346 512L498 512L498 360L346 360Z"  horiz-adv-x="553" vert-adv-y="1000"  />

      
      <glyph glyph-name="uni0140" unicode="&#x0140;" d="M58 0L58 738L204 738L204 0L58 0M259 296L259 448L411 448L411 296L259 296Z"  horiz-adv-x="408" vert-adv-y="1000"  />

      
      <glyph glyph-name="uni0141" unicode="&#x0141;" d="M372 545L372 408L222 325L222 140L543 140L543 0L68 0L68 241L-7 200L-7 337L68 378L68 695L222 695L222 462L372 545Z"  horiz-adv-x="553" vert-adv-y="1000"  />

      
      <glyph glyph-name="uni0142" unicode="&#x0142;" d="M290 532L290 395L215 350L215 0L69 0L69 264L-6 220L-6 357L69 401L69 738L215 738L215 487L290 532Z"  horiz-adv-x="284" vert-adv-y="1000"  />

      
      <glyph glyph-name="uni0143" unicode="&#x0143;" d="M547 0L219 430L217 430Q219 400 219 330L219 0L68 0L68 695L197 695L537 263L539 263Q536 310 536 362L536 695L687 695L687 0L547 0M302 756L381 896L533 896L414 756L302 756Z"  horiz-adv-x="755" vert-adv-y="1000"  />

      
      <glyph glyph-name="uni0144" unicode="&#x0144;" d="M513 0L367 0L367 296Q367 334 348 350Q329 366 283 366Q241 366 204 358L204 0L58 0L58 469Q184 500 287 500Q410 500 461.50 454Q513 408 513 315L513 0M214 552L314 729L459 729L326 552L214 552Z"  horiz-adv-x="569" vert-adv-y="1000"  />

      
      <glyph glyph-name="uni0145" unicode="&#x0145;" d="M547 0L219 430L217 430Q219 400 219 330L219 0L68 0L68 695L197 695L537 263L539 263Q536 310 536 362L536 695L687 695L687 0L547 0M264-231L354-44L491-44L381-231L264-231Z"  horiz-adv-x="755" vert-adv-y="1000"  />

      
      <glyph glyph-name="uni0146" unicode="&#x0146;" d="M513 0L367 0L367 296Q367 334 348 350Q329 366 283 366Q241 366 204 358L204 0L58 0L58 469Q184 500 287 500Q410 500 461.50 454Q513 408 513 315L513 0M171-231L261-44L398-44L288-231L171-231Z"  horiz-adv-x="569" vert-adv-y="1000"  />

      
      <glyph glyph-name="uni0147" unicode="&#x0147;" d="M547 0L219 430L217 430Q219 400 219 330L219 0L68 0L68 695L197 695L537 263L539 263Q536 310 536 362L536 695L687 695L687 0L547 0M342 754L176 923L302 923L378 846L454 923L580 923L414 754L342 754Z"  horiz-adv-x="755" vert-adv-y="1000"  />

      
      <glyph glyph-name="uni0148" unicode="&#x0148;" d="M513 0L367 0L367 296Q367 334 348 350Q329 366 283 366Q241 366 204 358L204 0L58 0L58 469Q184 500 287 500Q410 500 461.50 454Q513 408 513 315L513 0M249 551L101 738L220 738L285 657L351 738L469 738L321 551L249 551Z"  horiz-adv-x="569" vert-adv-y="1000"  />

      
      <glyph glyph-name="uni0149" unicode="&#x0149;" d="M618 0L472 0L472 296Q472 334 453 350Q434 366 388 366Q346 366 309 358L309 0L163 0L163 469Q289 500 392 500Q515 500 566.50 454Q618 408 618 315L618 0M83 415L-30 415L86 714L233 714L83 415Z"  horiz-adv-x="674" vert-adv-y="1000"  />

      
      <glyph glyph-name="uni014A" unicode="&#x014A;" d="M283-229L283-91Q305-101 338.50-109Q372-117 403-117Q472-117 504-84Q536-51 536 0L536 14L219 430L217 430Q219 400 219 330L219 0L68 0L68 695L197 695L537 263L539 263Q536 310 536 362L536 695L687 695L687 34Q687-101 620.50-177Q554-253 420-253Q348-253 283-229Z"  horiz-adv-x="755" vert-adv-y="1000"  />

      
      <glyph glyph-name="uni014B" unicode="&#x014B;" d="M513-31Q513-129 456.50-183Q400-237 311-237Q269-237 231-228L231-99Q234-99 250-103Q266-107 292-107Q323-107 345-85.50Q367-64 367-28L367 296Q367 334 348 350Q329 366 283 366Q241 366 204 358L204 0L58 0L58 469Q184 500 287 500Q410 500 461.50 454Q513 408 513 315L513-31Z"  horiz-adv-x="569" vert-adv-y="1000"  />

      
      <glyph glyph-name="uni014C" unicode="&#x014C;" d="M389-12Q221-12 126.50 87Q32 186 32 347Q32 506 131 606.50Q230 707 389 707Q557 707 651.50 608.50Q746 510 746 347Q746 192 647.50 90Q549-12 389-12M388 133Q482 133 535.50 192Q589 251 589 347Q589 445 538 503.50Q487 562 388 562Q296 562 242.50 503.50Q189 445 189 347Q189 249 242 191Q295 133 388 133M264 752L264 850L513 850L513 752L264 752Z"  horiz-adv-x="778" vert-adv-y="1000"  />

      
      <glyph glyph-name="uni014D" unicode="&#x014D;" d="M286-14Q173-14 100.50 58.50Q28 131 28 244Q28 358 100 429Q172 500 286 500Q399 500 471 428.50Q543 357 543 244Q543 130 471 58Q399-14 286-14M286 121Q333 121 363 155Q393 189 393 244Q393 299 364 332Q335 365 286 365Q237 365 207 331.50Q177 298 177 244Q177 188 208 154.50Q239 121 286 121M161 568L161 666L410 666L410 568L161 568Z"  horiz-adv-x="571" vert-adv-y="1000"  />

      
      <glyph glyph-name="uni014E" unicode="&#x014E;" d="M389-12Q221-12 126.50 87Q32 186 32 347Q32 506 131 606.50Q230 707 389 707Q557 707 651.50 608.50Q746 510 746 347Q746 192 647.50 90Q549-12 389-12M388 133Q482 133 535.50 192Q589 251 589 347Q589 445 538 503.50Q487 562 388 562Q296 562 242.50 503.50Q189 445 189 347Q189 249 242 191Q295 133 388 133M224 890L321 890Q323 865 340.50 850Q358 835 389 835Q419 835 436.50 849Q454 863 456 890L553 890Q548 823 504.50 783.50Q461 744 389 744Q313 744 271 783Q229 822 224 890Z"  horiz-adv-x="778" vert-adv-y="1000"  />

      
      <glyph glyph-name="uni014F" unicode="&#x014F;" d="M286-14Q173-14 100.50 58.50Q28 131 28 244Q28 358 100 429Q172 500 286 500Q399 500 471 428.50Q543 357 543 244Q543 130 471 58Q399-14 286-14M286 121Q333 121 363 155Q393 189 393 244Q393 299 364 332Q335 365 286 365Q237 365 207 331.50Q177 298 177 244Q177 188 208 154.50Q239 121 286 121M136 707L218 707Q222 679 240 663Q258 647 286 647Q313 647 332 663Q351 679 353 707L436 707Q431 643 391 606.50Q351 570 286 570Q220 570 180.50 606.50Q141 643 136 707Z"  horiz-adv-x="571" vert-adv-y="1000"  />

      
      <glyph glyph-name="uni0150" unicode="&#x0150;" d="M389-12Q221-12 126.50 87Q32 186 32 347Q32 506 131 606.50Q230 707 389 707Q557 707 651.50 608.50Q746 510 746 347Q746 192 647.50 90Q549-12 389-12M388 133Q482 133 535.50 192Q589 251 589 347Q589 445 538 503.50Q487 562 388 562Q296 562 242.50 503.50Q189 445 189 347Q189 249 242 191Q295 133 388 133M224 759L325 908L459 908L332 759L224 759M396 759L497 908L631 908L504 759L396 759Z"  horiz-adv-x="778" vert-adv-y="1000"  />

      
      <glyph glyph-name="uni0151" unicode="&#x0151;" d="M286-14Q173-14 100.50 58.50Q28 131 28 244Q28 358 100 429Q172 500 286 500Q399 500 471 428.50Q543 357 543 244Q543 130 471 58Q399-14 286-14M286 121Q333 121 363 155Q393 189 393 244Q393 299 364 332Q335 365 286 365Q237 365 207 331.50Q177 298 177 244Q177 188 208 154.50Q239 121 286 121M132 554L233 723L367 723L240 554L132 554M304 554L405 723L539 723L412 554L304 554Z"  horiz-adv-x="571" vert-adv-y="1000"  />

      
      <glyph glyph-name="uni0152" unicode="&#x0152;" d="M514 695L979 695L979 553L668 553L668 423L951 423L951 281L668 281L668 142L993 142L993 0L514 0L514 21Q461-12 375-12Q217-12 124.50 88.50Q32 189 32 347Q32 503 128.50 605Q225 707 375 707Q421 707 454 698.50Q487 690 514 674L514 695M388 133Q463 133 514 172L514 525Q465 562 388 562Q296 562 242.50 503.50Q189 445 189 347Q189 249 242 191Q295 133 388 133Z"  horiz-adv-x="1024" vert-adv-y="1000"  />

      
      <glyph glyph-name="uni0153" unicode="&#x0153;" d="M855 201L537 201Q541 161 571.50 135Q602 109 671 109Q716 109 749 118.50Q782 128 826 146L825 26Q770 3 736.50-5.50Q703-14 648-14Q527-14 460 55Q391-14 286-14Q173-14 100.50 58.50Q28 131 28 244Q28 358 100 429Q172 500 286 500Q340 500 385.50 481Q431 462 464 427Q530 499 636 499Q742 499 800 433.50Q858 368 858 263Q858 240 855 201M710 296Q710 335 690 361.50Q670 388 628 388Q588 388 565.50 363Q543 338 538 296L710 296M286 121Q333 121 363 155Q393 189 393 244Q393 299 364 332Q335 365 286 365Q237 365 207 331.50Q177 298 177 244Q177 188 208 154.50Q239 121 286 121Z"  horiz-adv-x="882" vert-adv-y="1000"  />

      
      <glyph glyph-name="uni0154" unicode="&#x0154;" d="M463 264L644 0L451 0L311 233L222 233L222 0L68 0L68 695L326 695Q609 695 609 474Q609 398 570 345.50Q531 293 463 264M222 373L331 373Q386 373 415.50 398Q445 423 445 467Q445 513 416 537.50Q387 562 329 562L222 562L222 373M240 756L319 896L471 896L352 756L240 756Z"  horiz-adv-x="652" vert-adv-y="1000"  />

      
      <glyph glyph-name="uni0155" unicode="&#x0155;" d="M368 362Q328 369 288 369Q244 369 204 360L204 0L58 0L58 464Q160 500 270 500Q326 500 368 492L368 362M137 552L237 729L382 729L249 552L137 552Z"  horiz-adv-x="375" vert-adv-y="1000"  />

      
      <glyph glyph-name="uni0156" unicode="&#x0156;" d="M463 264L644 0L451 0L311 233L222 233L222 0L68 0L68 695L326 695Q609 695 609 474Q609 398 570 345.50Q531 293 463 264M222 373L331 373Q386 373 415.50 398Q445 423 445 467Q445 513 416 537.50Q387 562 329 562L222 562L222 373M202-231L292-44L429-44L319-231L202-231Z"  horiz-adv-x="652" vert-adv-y="1000"  />

      
      <glyph glyph-name="uni0157" unicode="&#x0157;" d="M368 362Q328 369 288 369Q244 369 204 360L204 0L58 0L58 464Q160 500 270 500Q326 500 368 492L368 362M17-231L107-44L244-44L134-231L17-231Z"  horiz-adv-x="375" vert-adv-y="1000"  />

      
      <glyph glyph-name="uni0158" unicode="&#x0158;" d="M463 264L644 0L451 0L311 233L222 233L222 0L68 0L68 695L326 695Q609 695 609 474Q609 398 570 345.50Q531 293 463 264M222 373L331 373Q386 373 415.50 398Q445 423 445 467Q445 513 416 537.50Q387 562 329 562L222 562L222 373M280 754L114 923L240 923L316 846L392 923L518 923L352 754L280 754Z"  horiz-adv-x="652" vert-adv-y="1000"  />

      
      <glyph glyph-name="uni0159" unicode="&#x0159;" d="M368 362Q328 369 288 369Q244 369 204 360L204 0L58 0L58 464Q160 500 270 500Q326 500 368 492L368 362M172 551L24 738L143 738L208 657L274 738L392 738L244 551L172 551Z"  horiz-adv-x="375" vert-adv-y="1000"  />

      
      <glyph glyph-name="uni015A" unicode="&#x015A;" d="M504 532Q446 549 408.50 557.50Q371 566 318 566Q252 566 226 549Q200 532 200 497Q200 471 220 455Q240 439 322.50 415.50Q405 392 451.50 365.50Q498 339 520 300.50Q542 262 542 205Q542 111 469.50 49.50Q397-12 267-12Q143-12 51 24L51 174Q90 154 146 139.50Q202 125 261 125Q382 125 382 197Q382 243 316.50 263Q251 283 180.50 308Q110 333 75.50 375.50Q41 418 41 493Q41 587 115 647Q189 707 323 707Q375 707 426 698Q477 689 504 679L504 532M208 756L287 896L439 896L320 756L208 756Z"  horiz-adv-x="568" vert-adv-y="1000"  />

      
      <glyph glyph-name="uni015B" unicode="&#x015B;" d="M394 365Q312 387 247 387Q214 387 196.50 377.50Q179 368 179 351Q179 327 212.50 317.50Q246 308 305.50 290.50Q365 273 394.50 240.50Q424 208 424 150Q424 78 374.50 32.50Q325-13 218-13Q120-13 44 8L44 129Q73 119 115.50 110.50Q158 102 200 102Q242 102 261 111Q280 120 280 138Q280 160 249.50 170Q219 180 158 201.50Q97 223 66 254.50Q35 286 35 344Q35 416 89.50 460.50Q144 505 244 505Q321 505 394 490L394 365M155 552L255 729L400 729L267 552L155 552Z"  horiz-adv-x="452" vert-adv-y="1000"  />

      
      <glyph glyph-name="uni015C" unicode="&#x015C;" d="M504 532Q446 549 408.50 557.50Q371 566 318 566Q252 566 226 549Q200 532 200 497Q200 471 220 455Q240 439 322.50 415.50Q405 392 451.50 365.50Q498 339 520 300.50Q542 262 542 205Q542 111 469.50 49.50Q397-12 267-12Q143-12 51 24L51 174Q90 154 146 139.50Q202 125 261 125Q382 125 382 197Q382 243 316.50 263Q251 283 180.50 308Q110 333 75.50 375.50Q41 418 41 493Q41 587 115 647Q189 707 323 707Q375 707 426 698Q477 689 504 679L504 532M360 754L284 832L207 754L82 754L248 923L320 923L486 754L360 754Z"  horiz-adv-x="568" vert-adv-y="1000"  />

      
      <glyph glyph-name="uni015D" unicode="&#x015D;" d="M394 365Q312 387 247 387Q214 387 196.50 377.50Q179 368 179 351Q179 327 212.50 317.50Q246 308 305.50 290.50Q365 273 394.50 240.50Q424 208 424 150Q424 78 374.50 32.50Q325-13 218-13Q120-13 44 8L44 129Q73 119 115.50 110.50Q158 102 200 102Q242 102 261 111Q280 120 280 138Q280 160 249.50 170Q219 180 158 201.50Q97 223 66 254.50Q35 286 35 344Q35 416 89.50 460.50Q144 505 244 505Q321 505 394 490L394 365M292 555L226 636L161 555L42 555L190 742L262 742L410 555L292 555Z"  horiz-adv-x="452" vert-adv-y="1000"  />

      
      <glyph glyph-name="uni015E" unicode="&#x015E;" d="M278-44Q322-44 349.50-68Q377-92 377-128Q377-172 340.50-197.50Q304-223 256-223Q211-223 170-211L170-138Q191-144 206-146.50Q221-149 242-149Q269-149 280-142Q291-135 291-122Q291-107 277-100.50Q263-94 229-94L201-94L247-12Q133-9 51 24L51 174Q90 154 146 139.50Q202 125 261 125Q382 125 382 197Q382 243 316.50 263Q251 283 180.50 308Q110 333 75.50 375.50Q41 418 41 493Q41 587 115 647Q189 707 323 707Q375 707 426 698Q477 689 504 679L504 532Q446 549 408.50 557.50Q371 566 318 566Q252 566 226 549Q200 532 200 497Q200 471 220 455Q240 439 322.50 415.50Q405 392 451.50 365.50Q498 339 520 300.50Q542 262 542 205Q542 115 477.50 55.50Q413-4 295-11L278-44Z"  horiz-adv-x="568" vert-adv-y="1000"  />

      
      <glyph glyph-name="uni015F" unicode="&#x015F;" d="M230-44Q274-44 301.50-68Q329-92 329-128Q329-172 292.50-197.50Q256-223 208-223Q163-223 122-211L122-138Q143-144 158-146.50Q173-149 194-149Q221-149 232-142Q243-135 243-122Q243-107 229-100.50Q215-94 181-94L153-94L199-13Q112-10 44 8L44 129Q73 119 115.50 110.50Q158 102 200 102Q242 102 261 111Q280 120 280 138Q280 160 249.50 170Q219 180 158 201.50Q97 223 66 254.50Q35 286 35 344Q35 416 89.50 460.50Q144 505 244 505Q321 505 394 490L394 365Q312 387 247 387Q214 387 196.50 377.50Q179 368 179 351Q179 327 212.50 317.50Q246 308 305.50 290.50Q365 273 394.50 240.50Q424 208 424 150Q424 83 381 38.50Q338-6 247-12L230-44Z"  horiz-adv-x="452" vert-adv-y="1000"  />

      
      <glyph glyph-name="uni0160" unicode="&#x0160;" d="M504 532Q446 549 408.50 557.50Q371 566 318 566Q252 566 226 549Q200 532 200 497Q200 471 220 455Q240 439 322.50 415.50Q405 392 451.50 365.50Q498 339 520 300.50Q542 262 542 205Q542 111 469.50 49.50Q397-12 267-12Q143-12 51 24L51 174Q90 154 146 139.50Q202 125 261 125Q382 125 382 197Q382 243 316.50 263Q251 283 180.50 308Q110 333 75.50 375.50Q41 418 41 493Q41 587 115 647Q189 707 323 707Q375 707 426 698Q477 689 504 679L504 532M248 754L82 923L208 923L284 846L360 923L486 923L320 754L248 754Z"  horiz-adv-x="568" vert-adv-y="1000"  />

      
      </font>
</defs>
</svg>
