<?xml version="1.0" standalone="no"?>
  <!DOCTYPE svg PUBLIC "-//W3C//DTD SVG 1.1//EN" "http://www.w3.org/Graphics/SVG/1.1/DTD/svg11.dtd" >
  <svg>
  <metadata>
  Created by font-carrier
  </metadata>
  <defs>
  <font id="EMprint-LightItalic" horiz-adv-x="1218" vert-adv-y="1218" >
    <font-face
      
      font-family="EMprint-LightItalic"
      
      font-weight="400"
      
      font-stretch="normal"
      
      units-per-em="1000"
      
      ascent="960"
      
      descent="-267"
      
    />
      <missing-glyph />

      

      
      <glyph glyph-name="uni21" unicode="&#x21;" d="M97 184L185 695L228 695L135 184L97 184M48 0L59 67L126 67L115 0L48 0Z"  horiz-adv-x="246" vert-adv-y="1000"  />

      
      <glyph glyph-name="uni22" unicode="&#x22;" d="M112 428L158 714L202 714L148 428L112 428M252 428L298 714L342 714L288 428L252 428Z"  horiz-adv-x="332" vert-adv-y="1000"  />

      
      <glyph glyph-name="uni23" unicode="&#x23;" d="M549 477L546 439L431 439L386 256L498 256L495 218L377 218L323 0L287 0L341 218L216 218L162 0L126 0L181 218L49 218L52 256L190 256L235 439L101 439L104 477L245 477L298 695L334 695L281 477L405 477L458 695L494 695L441 477L549 477M226 256L351 256L395 439L271 439L226 256Z"  horiz-adv-x="520" vert-adv-y="1000"  />

      
      <glyph glyph-name="uni24" unicode="&#x24;" d="M534 610Q466 636 378 640L330 365Q428 332 462 294.50Q496 257 496 199Q496 119 439 67Q382 15 267 10L249-96L209-96L227 10Q169 10 120.50 23Q72 36 43 52L51 100Q83 81 131 67Q179 53 235 52L284 335Q181 370 151 406.50Q121 443 121 500Q121 578 178.50 629Q236 680 345 683L364 788L404 788L385 682Q470 679 541 654L534 610M292 377L338 640Q252 637 209 599.50Q166 562 166 502Q166 454 195.50 426.50Q225 399 292 377M322 323L275 53Q358 58 404.50 93.50Q451 129 451 195Q451 244 422 271Q393 298 322 323Z"  horiz-adv-x="563" vert-adv-y="1000"  />

      
      <glyph glyph-name="uni25" unicode="&#x25;" d="M231 338Q165 338 123 378Q81 418 81 498Q81 589 130 648Q179 707 258 707Q335 707 371 662.50Q407 618 407 553Q407 464 360.50 401Q314 338 231 338M97 0L725 695L776 695L148 0L97 0M232 373Q296 373 332 424.50Q368 476 368 548Q368 609 337.50 640.50Q307 672 257 672Q194 672 156.50 624Q119 576 119 499Q119 437 150 405Q181 373 232 373M614-12Q548-12 506 28Q464 68 464 148Q464 239 513 298Q562 357 641 357Q718 357 754 312.50Q790 268 790 203Q790 114 743.50 51Q697-12 614-12M615 23Q679 23 715 74.50Q751 126 751 198Q751 259 720.50 290.50Q690 322 640 322Q577 322 539.50 274Q502 226 502 149Q502 87 533 55Q564 23 615 23Z"  horiz-adv-x="830" vert-adv-y="1000"  />

      
      <glyph glyph-name="uni26" unicode="&#x26;" d="M315 377L458 166Q490 202 539.50 269Q589 336 605 360L656 360Q656 358 589 268Q522 178 482 134L575 0L525 0L452 106Q391 44 334.50 14.50Q278-15 213-15Q125-15 75.50 35.50Q26 86 26 164Q26 251 83.50 304Q141 357 255 396Q228 436 213.50 473Q199 510 199 553Q199 625 244 669.50Q289 714 366 714Q437 714 476.50 673Q516 632 516 571Q516 500 465.50 456Q415 412 315 377M294 409Q387 440 430.50 475.50Q474 511 474 567Q474 614 445.50 644.50Q417 675 361 675Q305 675 273 641Q241 607 241 552Q241 514 254.50 480.50Q268 447 294 409M219 25Q272 25 325 54Q378 83 429 139L276 363Q164 327 116 280Q68 233 68 164Q68 105 107 65Q146 25 219 25Z"  horiz-adv-x="650" vert-adv-y="1000"  />

      
      <glyph glyph-name="uni27" unicode="&#x27;" d="M112 428L158 714L202 714L148 428L112 428Z"  horiz-adv-x="192" vert-adv-y="1000"  />

      
      <glyph glyph-name="uni28" unicode="&#x28;" d="M195-160L150-160Q112-91 87 8Q62 107 62 199Q62 360 127 500.50Q192 641 308 770L358 770Q240 637 171 498.50Q102 360 102 203Q102 108 128 11Q154-86 195-160Z"  horiz-adv-x="299" vert-adv-y="1000"  />

      
      <glyph glyph-name="uni29" unicode="&#x29;" d="M128 770L173 770Q211 701 236 602Q261 503 261 411Q261 250 196 109.50Q131-31 15-160L-35-160Q83-27 152 111.50Q221 250 221 407Q221 502 195 599Q169 696 128 770Z"  horiz-adv-x="299" vert-adv-y="1000"  />

      
      <glyph glyph-name="uni2a" unicode="&#x2a;" d="M415 606L429 569L277 524L375 397L342 375L251 506L163 372L127 397L228 525L73 569L86 610L238 555L232 714L273 714L267 555L415 606Z"  horiz-adv-x="385" vert-adv-y="1000"  />

      
      <glyph glyph-name="uni2b" unicode="&#x2b;" d="M506 323L506 283L293 283L293 70L253 70L253 283L40 283L40 323L253 323L253 536L293 536L293 323L506 323Z"  horiz-adv-x="546" vert-adv-y="1000"  />

      
      <glyph glyph-name="uni2c" unicode="&#x2c;" d="M-49-174L80 67L134 67L-7-174L-49-174Z"  horiz-adv-x="231" vert-adv-y="1000"  />

      
      <glyph glyph-name="uni2d" unicode="&#x2d;" d="M49 234L56 277L360 277L353 234L49 234Z"  horiz-adv-x="402" vert-adv-y="1000"  />

      
      <glyph glyph-name="uni2e" unicode="&#x2e;" d="M41 0L52 67L119 67L108 0L41 0Z"  horiz-adv-x="232" vert-adv-y="1000"  />

      
      <glyph glyph-name="uni2f" unicode="&#x2f;" d="M-47-49L435 750L477 750L-6-49L-47-49Z"  horiz-adv-x="388" vert-adv-y="1000"  />

      
      <glyph glyph-name="uni30" unicode="&#x30;" d="M250-12Q155-12 102.50 53Q50 118 50 237Q50 340 78 448Q106 556 173 631.50Q240 707 349 707Q446 707 496 645Q546 583 546 469Q546 367 520.50 257.50Q495 148 429 68Q363-12 250-12M254 30Q346 30 401 105Q456 180 478 280.50Q500 381 500 468Q500 563 460 614Q420 665 347 665Q257 665 201 595Q145 525 121 426.50Q97 328 97 236Q97 134 140 82Q183 30 254 30Z"  horiz-adv-x="557" vert-adv-y="1000"  />

      
      <glyph glyph-name="uni31" unicode="&#x31;" d="M233 0L348 657L151 564L159 613L374 713L401 713L276 0L233 0Z"  horiz-adv-x="547" vert-adv-y="1000"  />

      
      <glyph glyph-name="uni32" unicode="&#x32;" d="M303 229L79 45L451 45L444 0L14 0L23 54L259 247Q396 359 434.50 416.50Q473 474 473 533Q473 596 434.50 630.50Q396 665 325 665Q273 665 226.50 646.50Q180 628 130 595L139 651Q186 677 230.50 692Q275 707 332 707Q424 707 471.50 662.50Q519 618 519 536Q519 477 496 430.50Q473 384 431 341.50Q389 299 303 229Z"  horiz-adv-x="547" vert-adv-y="1000"  />

      
      <glyph glyph-name="uni33" unicode="&#x33;" d="M331 346L331 344Q389 331 425 292.50Q461 254 461 191Q461 102 397.50 45Q334-12 203-12Q151-12 98.50 0Q46 12 18 27L27 74Q54 57 105 43.50Q156 30 208 30Q315 30 364.50 73.50Q414 117 414 188Q414 258 361 292.50Q308 327 219 327L153 327L161 372L239 372Q345 372 402.50 415Q460 458 460 535Q460 594 421.50 629.50Q383 665 311 665Q221 665 139 624L148 674Q226 707 317 707Q412 707 459 660Q506 613 506 541Q506 463 458.50 411Q411 359 331 346Z"  horiz-adv-x="553" vert-adv-y="1000"  />

      
      <glyph glyph-name="uni34" unicode="&#x34;" d="M512 210L504 169L393 169L364 0L323 0L352 169L4 169L11 211L449 695L486 695L401 210L512 210M65 210L360 210L432 621L429 621Q412 596 374 554L65 210Z"  horiz-adv-x="548" vert-adv-y="1000"  />

      
      <glyph glyph-name="uni35" unicode="&#x35;" d="M223 655L161 403Q217 416 269 416Q366 416 423 366Q480 316 480 229Q480 118 408.50 53Q337-12 218-12Q156-12 109.50 1.50Q63 15 34 32L42 81Q70 61 117.50 45Q165 29 225 29Q328 29 380 84Q432 139 432 225Q432 294 388 334.50Q344 375 258 375Q186 375 106 352L190 695L534 695L527 655L223 655Z"  horiz-adv-x="552" vert-adv-y="1000"  />

      
      <glyph glyph-name="uni36" unicode="&#x36;" d="M194 402Q238 426 301 426Q401 426 453 371.50Q505 317 505 231Q505 129 436 58.50Q367-12 254-12Q161-12 105 43.50Q49 99 49 185Q49 244 69.50 293.50Q90 343 138 401L380 695L437 695L193 403L194 402M261 29Q350 29 404.50 86.50Q459 144 459 229Q459 298 416.50 341.50Q374 385 291 385Q196 385 145.50 330.50Q95 276 95 186Q95 117 139 73Q183 29 261 29Z"  horiz-adv-x="555" vert-adv-y="1000"  />

      
      <glyph glyph-name="uni37" unicode="&#x37;" d="M140 0L89 0L520 655L98 655L105 695L576 695L570 658L140 0Z"  horiz-adv-x="547" vert-adv-y="1000"  />

      
      <glyph glyph-name="uni38" unicode="&#x38;" d="M385 355L385 352Q492 307 492 187Q492 99 430.50 43.50Q369-12 258-12Q151-12 94.50 38.50Q38 89 38 177Q38 251 82 300Q126 349 202 366L202 369Q161 387 138.50 424Q116 461 116 513Q116 597 174 652Q232 707 334 707Q428 707 476 659Q524 611 524 535Q524 469 489 422.50Q454 376 385 355M312 380Q386 380 432 419.50Q478 459 478 531Q478 594 437 630Q396 666 326 666Q248 666 205 623Q162 580 162 514Q162 453 201 416.50Q240 380 312 380M261 29Q349 29 397.50 72.50Q446 116 446 182Q446 256 401 296Q356 336 271 336Q179 336 131.50 292Q84 248 84 179Q84 113 128.50 71Q173 29 261 29Z"  horiz-adv-x="551" vert-adv-y="1000"  />

      
      <glyph glyph-name="uni39" unicode="&#x39;" d="M456 294L214 0L157 0L401 292L400 293Q357 269 293 269Q193 269 141 323.50Q89 378 89 464Q89 566 158 636.50Q227 707 340 707Q433 707 489 651.50Q545 596 545 510Q545 451 524.50 401.50Q504 352 456 294M303 310Q398 310 448.50 364.50Q499 419 499 509Q499 578 455 622Q411 666 333 666Q244 666 189.50 608.50Q135 551 135 466Q135 397 177.50 353.50Q220 310 303 310Z"  horiz-adv-x="555" vert-adv-y="1000"  />

      
      <glyph glyph-name="uni3a" unicode="&#x3a;" d="M42 0L53 67L120 67L109 0L42 0M113 406L124 473L191 473L180 406L113 406Z"  horiz-adv-x="233" vert-adv-y="1000"  />

      
      <glyph glyph-name="uni3b" unicode="&#x3b;" d="M-49-174L80 67L134 67L-7-174L-49-174M113 406L124 473L191 473L180 406L113 406Z"  horiz-adv-x="231" vert-adv-y="1000"  />

      
      <glyph glyph-name="uni3c" unicode="&#x3c;" d="M90 284L506 73L506 31L40 265L40 303L506 537L506 495L90 284Z"  horiz-adv-x="546" vert-adv-y="1000"  />

      
      <glyph glyph-name="uni3d" unicode="&#x3d;" d="M40 383L40 423L506 423L506 383L40 383M40 183L40 223L506 223L506 183L40 183Z"  horiz-adv-x="546" vert-adv-y="1000"  />

      
      <glyph glyph-name="uni3e" unicode="&#x3e;" d="M506 265L40 31L40 73L456 284L40 495L40 537L506 303L506 265Z"  horiz-adv-x="546" vert-adv-y="1000"  />

      
      <glyph glyph-name="uni3f" unicode="&#x3f;" d="M228 272L212 184L168 184L190 299Q308 350 362.50 406.50Q417 463 417 544Q417 598 381.50 632Q346 666 276 666Q233 666 200.50 656Q168 646 122 626L131 673Q207 707 281 707Q373 707 417.50 660.50Q462 614 462 545Q462 459 404 392Q346 325 228 272M125 0L136 67L203 67L192 0L125 0Z"  horiz-adv-x="452" vert-adv-y="1000"  />

      
      <glyph glyph-name="uni40" unicode="&#x40;" d="M635 164Q692 164 738.50 224Q785 284 785 375Q785 518 698 597Q611 676 457 676Q303 676 202.50 573Q102 470 102 319Q102 168 195 76Q288-16 440-16Q578-16 669 39L669-4Q566-54 435-54Q265-54 162.50 49.50Q60 153 60 322Q60 433 111.50 523Q163 613 254 664Q345 715 459 715Q633 715 729 624.50Q825 534 825 372Q825 264 763.50 193.50Q702 123 634 123Q600 123 573 133.50Q546 144 536 161Q482 124 409 124Q326 124 278.50 170Q231 216 231 298Q231 400 293 469.50Q355 539 470 539Q517 539 557.50 528.50Q598 518 624 503L575 231Q573 217 573 212Q573 164 635 164M272 300Q272 234 310 198Q348 162 411 162Q475 162 530 203L579 475Q531 501 469 501Q378 501 325 447Q272 393 272 300Z"  horiz-adv-x="856" vert-adv-y="1000"  />

      
      <glyph glyph-name="uni41" unicode="&#x41;" d="M553 0L494 230L147 230L7 0L-44 0L382 695L423 695L600 0L553 0M173 274L484 274L395 639L393 639L173 274Z"  horiz-adv-x="640" vert-adv-y="1000"  />

      
      <glyph glyph-name="uni42" unicode="&#x42;" d="M422 359L422 357Q482 346 517.50 307.50Q553 269 553 208Q553 98 473.50 49Q394 0 259 0L45 0L167 695L366 695Q477 695 529 651Q581 607 581 533Q581 468 539.50 421Q498 374 422 359M156 382L320 382Q407 382 469.50 416.50Q532 451 532 531Q532 652 359 652L203 652L156 382M96 43L257 43Q372 43 438.50 78Q505 113 505 208Q505 269 457 304Q409 339 317 339L148 339L96 43Z"  horiz-adv-x="606" vert-adv-y="1000"  />

      
      <glyph glyph-name="uni43" unicode="&#x43;" d="M677 612Q577 662 451 662Q303 662 214.50 565.50Q126 469 126 311Q126 180 201 106Q276 32 400 32Q462 32 510 45.50Q558 59 609 82L600 32Q556 12 506 0Q456-12 388-12Q244-12 161 75.50Q78 163 78 310Q78 486 181 596.50Q284 707 457 707Q535 707 593.50 692.50Q652 678 686 660L677 612Z"  horiz-adv-x="674" vert-adv-y="1000"  />

      
      <glyph glyph-name="uni44" unicode="&#x44;" d="M284 0L45 0L167 695L349 695Q507 695 597.50 619.50Q688 544 688 399Q688 216 581.50 108Q475 0 284 0M97 44L286 44Q454 44 546.50 138Q639 232 639 396Q639 526 559 588.50Q479 651 344 651L204 651L97 44Z"  horiz-adv-x="725" vert-adv-y="1000"  />

      
      <glyph glyph-name="uni45" unicode="&#x45;" d="M203 652L155 375L489 375L481 332L147 332L96 43L480 43L473 0L45 0L167 695L578 695L570 652L203 652Z"  horiz-adv-x="556" vert-adv-y="1000"  />

      
      <glyph glyph-name="uni46" unicode="&#x46;" d="M203 652L150 351L502 351L495 308L143 308L89 0L45 0L167 695L581 695L573 652L203 652Z"  horiz-adv-x="524" vert-adv-y="1000"  />

      
      <glyph glyph-name="uni47" unicode="&#x47;" d="M677 612Q577 662 451 662Q303 662 214.50 565.50Q126 469 126 311Q126 180 201 106Q276 32 400 32Q485 32 561 62L605 309L405 309L413 352L657 352L600 32Q556 12 506 0Q456-12 388-12Q244-12 161 75.50Q78 163 78 310Q78 486 181 596.50Q284 707 457 707Q535 707 593.50 692.50Q652 678 686 660L677 612Z"  horiz-adv-x="706" vert-adv-y="1000"  />

      
      <glyph glyph-name="uni48" unicode="&#x48;" d="M535 0L594 340L148 340L89 0L45 0L167 695L211 695L156 383L602 383L657 695L701 695L579 0L535 0Z"  horiz-adv-x="707" vert-adv-y="1000"  />

      
      <glyph glyph-name="uni49" unicode="&#x49;" d="M45 0L167 695L211 695L89 0L45 0Z"  horiz-adv-x="217" vert-adv-y="1000"  />

      
      <glyph glyph-name="uni4a" unicode="&#x4a;" d="M-25 26L-18 71Q6 55 48 42.50Q90 30 141 30Q241 30 292.50 85.50Q344 141 361 240L441 695L485 695L405 239Q383 115 319 51.50Q255-12 139-12Q85-12 43 0Q1 12-25 26Z"  horiz-adv-x="486" vert-adv-y="1000"  />

      
      <glyph glyph-name="uni4b" unicode="&#x4b;" d="M519 0L456 0L151 347L150 347L89 0L45 0L167 695L211 695L151 352L152 352L569 695L638 695L210 347L519 0Z"  horiz-adv-x="570" vert-adv-y="1000"  />

      
      <glyph glyph-name="uni4c" unicode="&#x4c;" d="M476 43L469 0L45 0L167 695L211 695L96 43L476 43Z"  horiz-adv-x="516" vert-adv-y="1000"  />

      
      <glyph glyph-name="uni4d" unicode="&#x4d;" d="M683 0L788 596L786 596L406 37L376 37L193 596L191 596L86 0L45 0L167 695L204 695L398 100L400 100L806 695L846 695L724 0L683 0Z"  horiz-adv-x="852" vert-adv-y="1000"  />

      
      <glyph glyph-name="uni4e" unicode="&#x4e;" d="M586 0L195 611L193 611Q173 489 162 427L87 0L45 0L167 695L194 695L584 81L588 81Q596 133 610 211L695 695L737 695L615 0L586 0Z"  horiz-adv-x="743" vert-adv-y="1000"  />

      
      <glyph glyph-name="uni4f" unicode="&#x4f;" d="M388-12Q250-12 163.50 73Q77 158 77 307Q77 484 180 595.50Q283 707 457 707Q603 707 686.50 623Q770 539 770 393Q770 283 727.50 191Q685 99 598.50 43.50Q512-12 388-12M393 33Q544 33 633 133.50Q722 234 722 386Q722 518 649.50 590Q577 662 455 662Q301 662 213 564.50Q125 467 125 313Q125 181 198.50 107Q272 33 393 33Z"  horiz-adv-x="808" vert-adv-y="1000"  />

      
      <glyph glyph-name="uni50" unicode="&#x50;" d="M298 259L134 259L89 0L45 0L167 695L359 695Q467 695 527.50 643Q588 591 588 502Q588 393 514 326Q440 259 298 259M142 302L296 302Q425 302 481.50 357.50Q538 413 538 497Q538 568 493 610Q448 652 351 652L203 652L142 302Z"  horiz-adv-x="579" vert-adv-y="1000"  />

      
      <glyph glyph-name="uni51" unicode="&#x51;" d="M691-99L655-122L565 25Q488-12 388-12Q250-12 163.50 73Q77 158 77 307Q77 484 180 595.50Q283 707 457 707Q603 707 686.50 623Q770 539 770 393Q770 284 727 191.50Q684 99 602 46L691-99M455 203L492 226L578 85Q648 132 685 212Q722 292 722 386Q722 518 649.50 590Q577 662 455 662Q301 662 213 564.50Q125 467 125 313Q125 181 198.50 107Q272 33 393 33Q476 33 541 64L455 203Z"  horiz-adv-x="808" vert-adv-y="1000"  />

      
      <glyph glyph-name="uni52" unicode="&#x52;" d="M374 294L541 0L488 0L324 290L140 290L89 0L45 0L167 695L378 695Q485 695 542 649Q599 603 599 519Q599 426 540.50 366.50Q482 307 374 294M147 333L331 333Q422 333 486 376Q550 419 550 516Q550 579 505.50 615Q461 651 368 651L203 651L147 333Z"  horiz-adv-x="610" vert-adv-y="1000"  />

      
      <glyph glyph-name="uni53" unicode="&#x53;" d="M547 629Q462 662 355 662Q255 662 204.50 621.50Q154 581 154 513Q154 459 191 429Q228 399 328.50 367Q429 335 468 295.50Q507 256 507 190Q507 100 439.50 44Q372-12 238-12Q171-12 113.50 2Q56 16 23 33L31 84Q67 63 123 48Q179 33 244 33Q344 33 401 71.50Q458 110 458 186Q458 240 424.50 270Q391 300 287.50 333Q184 366 145 405.50Q106 445 106 511Q106 599 172 653Q238 707 358 707Q421 707 471.50 697.50Q522 688 555 676L547 629Z"  horiz-adv-x="571" vert-adv-y="1000"  />

      
      <glyph glyph-name="uni54" unicode="&#x54;" d="M363 652L249 0L205 0L319 652L76 652L84 695L614 695L606 652L363 652Z"  horiz-adv-x="536" vert-adv-y="1000"  />

      
      <glyph glyph-name="uni55" unicode="&#x55;" d="M78 178Q78 205 80.50 224.50Q83 244 93 302L162 695L206 695L136 295Q124 227 124 183Q124 32 332 32Q431 32 529 61L642 695L686 695L568 29Q512 10 454-1Q396-12 326-12Q203-12 140.50 36Q78 84 78 178Z"  horiz-adv-x="691" vert-adv-y="1000"  />

      
      <glyph glyph-name="uni56" unicode="&#x56;" d="M242-6L87 695L133 695L270 56L272 56L652 695L702 695L284-6L242-6Z"  horiz-adv-x="627" vert-adv-y="1000"  />

      
      <glyph glyph-name="uni57" unicode="&#x57;" d="M651-6L585 463Q569 570 563 627L561 627Q540 583 473 459L224-6L191-6L101 695L144 695L209 173Q217 111 220 73L222 73L232 92Q257 142 277 178L555 695L592 695L667 177Q667 173 673.50 135Q680 97 681 68L683 68L736 174L999 695L1047 695L690-6L651-6Z"  horiz-adv-x="986" vert-adv-y="1000"  />

      
      <glyph glyph-name="uni58" unicode="&#x58;" d="M531 0L478 0L303 310L27 0L-33 0L278 349L92 695L145 695L313 377L596 695L655 695L339 340L531 0Z"  horiz-adv-x="582" vert-adv-y="1000"  />

      
      <glyph glyph-name="uni59" unicode="&#x59;" d="M244 0L200 0L247 269L61 695L110 695L273 315L576 695L631 695L291 269L244 0Z"  horiz-adv-x="530" vert-adv-y="1000"  />

      
      <glyph glyph-name="uni5a" unicode="&#x5a;" d="M56 43L559 43L552 0L-15 0L-9 37L583 652L125 652L133 695L659 695L653 661L56 43Z"  horiz-adv-x="616" vert-adv-y="1000"  />

      
      <glyph glyph-name="uni5b" unicode="&#x5b;" d="M189 734L38-124L171-124L164-160L-8-160L156 770L328 770L322 734L189 734Z"  horiz-adv-x="294" vert-adv-y="1000"  />

      
      <glyph glyph-name="uni5c" unicode="&#x5c;" d="M264-49L63 750L105 750L306-49L264-49Z"  horiz-adv-x="331" vert-adv-y="1000"  />

      
      <glyph glyph-name="uni5d" unicode="&#x5d;" d="M129-124L280 734L147 734L154 770L326 770L162-160L-10-160L-4-124L129-124Z"  horiz-adv-x="294" vert-adv-y="1000"  />

      
      <glyph glyph-name="uni5e" unicode="&#x5e;" d="M477 300L274 653L272 653L69 300L23 300L258 706L288 706L523 300L477 300Z"  horiz-adv-x="546" vert-adv-y="1000"  />

      
      <glyph glyph-name="uni5f" unicode="&#x5f;" d="M-87-180L-81-145L443-145L437-180L-87-180Z"  horiz-adv-x="496" vert-adv-y="1000"  />

      
      <glyph glyph-name="uni60" unicode="&#x60;" d="M183 560L93 707L143 707L227 560L183 560Z"  horiz-adv-x="180" vert-adv-y="1000"  />

      
      <glyph glyph-name="uni61" unicode="&#x61;" d="M439 258L398 24Q363 10 312.50-1.50Q262-13 211-13Q118-13 76 26.50Q34 66 34 128Q34 204 90 244.50Q146 285 255 285Q312 285 399 270Q406 313 406 331Q406 382 375 412Q344 442 278 442Q235 442 198 432.50Q161 423 121 407L129 454Q203 485 285 485Q362 485 405 447Q448 409 448 339Q448 310 439 258M220 29Q279 29 362 53L393 230L346 237Q307 242 250 242Q157 242 117.50 211.50Q78 181 78 131Q78 80 115.50 54.50Q153 29 220 29Z"  horiz-adv-x="509" vert-adv-y="1000"  />

      
      <glyph glyph-name="uni62" unicode="&#x62;" d="M515 275Q515 191 479.50 122.50Q444 54 381 20Q318-14 229-14Q173-14 123-1Q73 12 42 29L169 738L212 738L160 446Q191 464 226.50 474.50Q262 485 309 485Q407 485 461 430Q515 375 515 275M91 59Q114 47 150.50 37.50Q187 28 228 28Q345 28 407 99.50Q469 171 469 274Q469 355 424 399Q379 443 303 443Q220 443 151 399L91 59Z"  horiz-adv-x="560" vert-adv-y="1000"  />

      
      <glyph glyph-name="uni63" unicode="&#x63;" d="M465 404Q403 443 316 443Q217 443 155 377Q93 311 93 208Q93 125 143 76.50Q193 28 266 28Q314 28 353.50 38.50Q393 49 419 62L411 16Q347-14 260-14Q168-14 107 45.50Q46 105 46 208Q46 333 125.50 409Q205 485 326 485Q411 485 474 451L465 404Z"  horiz-adv-x="484" vert-adv-y="1000"  />

      
      <glyph glyph-name="uni64" unicode="&#x64;" d="M45 201Q45 283 81.50 350.50Q118 418 182 451.50Q246 485 335 485Q376 485 414 477.50Q452 470 478 460L527 738L570 738L443 24Q411 9 365-2.50Q319-14 273-14Q163-14 104 42.50Q45 99 45 201M278 28Q311 28 346 35.50Q381 43 405 54L469 412Q446 424 409.50 433.50Q373 443 332 443Q219 443 155 379Q91 315 91 202Q91 118 138.50 73Q186 28 278 28Z"  horiz-adv-x="561" vert-adv-y="1000"  />

      
      <glyph glyph-name="uni65" unicode="&#x65;" d="M471 226L96 226Q96 218 95 200Q95 124 137.50 76.50Q180 29 269 29Q343 29 423 68L414 18Q378 2 343-6Q308-14 262-14Q156-14 101.50 45Q47 104 47 206Q47 327 116 406Q185 485 296 485Q382 485 433.50 440Q485 395 485 312Q485 288 481 264.50Q477 241 471 226M434 268Q439 285 439 309Q439 370 402 406.50Q365 443 295 443Q217 443 166.50 394.50Q116 346 101 268L434 268Z"  horiz-adv-x="512" vert-adv-y="1000"  />

      
      <glyph glyph-name="uni66" unicode="&#x66;" d="M425 697Q415 700 394 703Q373 706 353 706Q291 706 255.50 670Q220 634 208 563L192 473L348 473L341 433L185 433L109 0L66 0L142 433L63 433L70 473L149 473L165 566Q181 656 229.50 701Q278 746 358 746Q378 746 398.50 743Q419 740 431 736L425 697Z"  horiz-adv-x="290" vert-adv-y="1000"  />

      
      <glyph glyph-name="uni67" unicode="&#x67;" d="M436-12Q413-137 351.50-193Q290-249 171-249Q118-249 73-238.50Q28-228-4-214L3-167Q33-182 81.50-195Q130-208 174-208Q279-208 328-157Q377-106 394-7L400 28Q367 9 332-2.50Q297-14 251-14Q153-14 98.50 41.50Q44 97 44 196Q44 280 79.50 348.50Q115 417 178 451Q241 485 330 485Q386 485 436 472Q486 459 517 442L436-12M258 28Q333 28 408 74L468 412Q445 424 408.50 433.50Q372 443 331 443Q219 443 154.50 376.50Q90 310 90 197Q90 116 136 72Q182 28 258 28Z"  horiz-adv-x="560" vert-adv-y="1000"  />

      
      <glyph glyph-name="uni68" unicode="&#x68;" d="M480 348Q480 316 467 243L424 0L381 0L424 245Q435 309 435 342Q435 390 402 417Q369 444 311 444Q231 444 151 402L80 0L37 0L167 738L210 738L158 447Q201 466 237 475.50Q273 485 320 485Q393 485 436.50 449.50Q480 414 480 348Z"  horiz-adv-x="540" vert-adv-y="1000"  />

      
      <glyph glyph-name="uni69" unicode="&#x69;" d="M135 591L145 648L201 648L191 591L135 591M37 0L120 473L163 473L80 0L37 0Z"  horiz-adv-x="200" vert-adv-y="1000"  />

      
      <glyph glyph-name="uni6a" unicode="&#x6a;" d="M136 591L146 648L202 648L192 591L136 591M-165-240L-159-198Q-143-204-114-204Q-54-204-19.50-164Q15-124 30-44L121 473L164 473L71-55Q55-149 7.50-197Q-40-245-116-245Q-143-245-165-240Z"  horiz-adv-x="201" vert-adv-y="1000"  />

      
      <glyph glyph-name="uni6b" unicode="&#x6b;" d="M126 253L407 473L476 473L184 247L390 0L331 0L125 248L123 248L80 0L37 0L167 738L210 738L124 253L126 253Z"  horiz-adv-x="454" vert-adv-y="1000"  />

      
      <glyph glyph-name="uni6c" unicode="&#x6c;" d="M37 0L167 738L210 738L80 0L37 0Z"  horiz-adv-x="201" vert-adv-y="1000"  />

      
      <glyph glyph-name="uni6d" unicode="&#x6d;" d="M776 315L721 0L678 0L732 309Q736 329 736 351Q736 396 708.50 420Q681 444 615 444Q573 444 531 431.50Q489 419 457 403Q461 387 461 365Q461 342 457 318L401 0L358 0L410 300Q416 330 416 353Q416 401 387.50 422.50Q359 444 291 444Q231 444 155 425L81 0L38 0L118 457Q217 485 300 485Q349 485 385.50 473.50Q422 462 439 442Q478 460 521.50 472.50Q565 485 618 485Q698 485 739 455Q780 425 780 361Q780 338 776 315Z"  horiz-adv-x="837" vert-adv-y="1000"  />

      
      <glyph glyph-name="uni6e" unicode="&#x6e;" d="M469 254L424 0L381 0L426 259L431 290Q435 315 435 339Q435 393 403 418.50Q371 444 303 444Q232 444 156 423L80 0L37 0L119 458Q227 485 306 485Q399 485 439.50 450.50Q480 416 480 349Q480 320 469 254Z"  horiz-adv-x="540" vert-adv-y="1000"  />

      
      <glyph glyph-name="uni6f" unicode="&#x6f;" d="M269-14Q171-14 109 43.50Q47 101 47 211Q47 332 118 408.50Q189 485 308 485Q415 485 471 424Q527 363 527 268Q527 146 460.50 66Q394-14 269-14M271 27Q370 27 425.50 94Q481 161 481 263Q481 348 433 396Q385 444 306 444Q209 444 151 381Q93 318 93 211Q93 124 142 75.50Q191 27 271 27Z"  horiz-adv-x="573" vert-adv-y="1000"  />

      
      <glyph glyph-name="uni70" unicode="&#x70;" d="M225-14Q184-14 146-6.50Q108 1 82 11L33-267L-10-267L117 447Q149 462 195 473.50Q241 485 287 485Q398 485 456.50 429Q515 373 515 272Q515 189 478.50 121.50Q442 54 378 20Q314-14 225-14M91 59Q114 47 150.50 37.50Q187 28 228 28Q340 28 404.50 93Q469 158 469 271Q469 355 420.50 399Q372 443 283 443Q248 443 213.50 435.50Q179 428 155 417L91 59Z"  horiz-adv-x="560" vert-adv-y="1000"  />

      
      <glyph glyph-name="uni71" unicode="&#x71;" d="M390-267L347-267L399 24Q368 6 334-4Q300-14 253-14Q155-14 99.50 41.50Q44 97 44 196Q44 255 64.50 313Q85 371 127 411Q169 451 218.50 468Q268 485 332 485Q388 485 436.50 472.50Q485 460 517 442L390-267M257 28Q338 28 407 70L468 412Q445 424 408.50 433.50Q372 443 331 443Q219 443 154.50 376.50Q90 310 90 197Q90 116 135.50 72Q181 28 257 28Z"  horiz-adv-x="560" vert-adv-y="1000"  />

      
      <glyph glyph-name="uni72" unicode="&#x72;" d="M367 434Q324 444 277 444Q243 444 210.50 438Q178 432 156 423L80 0L37 0L118 454Q196 485 281 485Q307 485 333.50 481.50Q360 478 374 474L367 434Z"  horiz-adv-x="343" vert-adv-y="1000"  />

      
      <glyph glyph-name="uni73" unicode="&#x73;" d="M386 418Q363 428 328.50 435.50Q294 443 254 443Q181 443 149.50 416Q118 389 118 347Q118 309 148.50 289Q179 269 244 247.50Q309 226 335.50 197.50Q362 169 362 124Q362 61 313.50 24.50Q265-12 173-12Q126-12 85.50-2.50Q45 7 21 20L26 67Q53 51 92.50 40Q132 29 175 29Q315 29 315 121Q315 171 261 193.50Q207 216 178.50 225.50Q150 235 111 262Q72 289 72 345Q72 407 117 445.50Q162 484 257 484Q297 484 336 477.50Q375 471 393 463L386 418Z"  horiz-adv-x="430" vert-adv-y="1000"  />

      
      <glyph glyph-name="uni74" unicode="&#x74;" d="M338 473L331 433L171 433L134 225Q121 150 121 117Q121 31 193 31Q221 31 261 41L255 1Q221-9 188-9Q134-9 106 22Q78 53 78 112Q78 149 92 230L128 433L38 433L45 473L135 473L160 615L203 615L178 473L338 473Z"  horiz-adv-x="327" vert-adv-y="1000"  />

      
      <glyph glyph-name="uni75" unicode="&#x75;" d="M62 128Q62 165 71 219L116 473L159 473L116 221Q111 196 108.50 175.50Q106 155 106 134Q106 29 244 29Q283 29 322 35.50Q361 42 384 50L460 473L503 473L421 16Q330-12 239-12Q150-12 106 25Q62 62 62 128Z"  horiz-adv-x="540" vert-adv-y="1000"  />

      
      <glyph glyph-name="uni76" unicode="&#x76;" d="M151 0L39 473L84 473L153 169Q173 79 179 49L181 49Q233 137 254 170L441 473L490 473L195 0L151 0Z"  horiz-adv-x="445" vert-adv-y="1000"  />

      
      <glyph glyph-name="uni77" unicode="&#x77;" d="M498 0L435 312Q419 394 417 417L414 417Q403 393 357 311L181 0L139 0L57 473L99 473L158 120Q162 95 167 53L170 53Q187 88 218 143L406 473L443 473L513 121Q521 79 524 53L527 53Q538 77 562 121L758 473L805 473L538 0L498 0Z"  horiz-adv-x="778" vert-adv-y="1000"  />

      
      <glyph glyph-name="uni78" unicode="&#x78;" d="M397 0L344 0L215 207L18 0L-39 0L193 242L49 473L99 473L223 271L414 473L471 473L244 237L397 0Z"  horiz-adv-x="435" vert-adv-y="1000"  />

      
      <glyph glyph-name="uni79" unicode="&#x79;" d="M-2-235L141 1L31 473L76 473L140 195Q163 90 171 43L173 43Q205 102 262 194L432 473L482 473L46-235L-2-235Z"  horiz-adv-x="429" vert-adv-y="1000"  />

      
      <glyph glyph-name="uni7a" unicode="&#x7a;" d="M45 38L385 38L379 0L-17 0L-11 36L388 435L72 435L79 473L450 473L444 437L45 38Z"  horiz-adv-x="439" vert-adv-y="1000"  />

      
      <glyph glyph-name="uni7b" unicode="&#x7b;" d="M181 429Q171 372 143.50 340.50Q116 309 79 302L79 300Q104 292 121 269Q138 246 138 205Q138 188 135 167L102-17Q99-35 99-50Q99-88 123-106Q147-124 201-124L194-160Q126-160 93.50-135Q61-110 61-54Q61-34 66-4L98 179Q101 194 101 208Q101 243 82.50 263.50Q64 284 26 285L33 324Q80 324 106.50 351Q133 378 141 424L178 630Q192 707 233.50 738.50Q275 770 358 770L352 734Q285 734 255.50 707.50Q226 681 215 620L181 429Z"  horiz-adv-x="294" vert-adv-y="1000"  />

      
      <glyph glyph-name="uni7c" unicode="&#x7c;" d="M113-250L113 750L154 750L154-250L113-250Z"  horiz-adv-x="268" vert-adv-y="1000"  />

      
      <glyph glyph-name="uni7d" unicode="&#x7d;" d="M136 181Q146 238 173.50 269.50Q201 301 238 308L238 310Q213 318 196 341Q179 364 179 405Q179 422 182 443L215 627Q218 645 218 660Q218 698 194 716Q170 734 116 734L123 770Q191 770 223.50 745Q256 720 256 664Q256 644 251 614L219 431Q216 416 216 402Q216 367 234.50 346.50Q253 326 291 325L284 286Q237 286 210.50 259Q184 232 176 186L139-20Q125-97 83.50-128.50Q42-160-41-160L-35-124Q32-124 61.50-97.50Q91-71 102-10L136 181Z"  horiz-adv-x="293" vert-adv-y="1000"  />

      
      <glyph glyph-name="uni7e" unicode="&#x7e;" d="M381 290Q413 290 439 309Q465 328 483 358L516 336Q493 297 459 273Q425 249 378 249Q340 249 307.50 264.50Q275 280 241 300.50Q207 321 163 321Q107 321 63 252L30 276Q59 317 91.50 339Q124 361 167 361Q227 361 279.50 325.50Q332 290 381 290Z"  horiz-adv-x="546" vert-adv-y="1000"  />

      
      <glyph glyph-name="unia1" unicode="&#xa1;" d="M198 473L187 406L120 406L131 473L198 473M149 289L61-222L18-222L111 289L149 289Z"  horiz-adv-x="246" vert-adv-y="1000"  />

      
      <glyph glyph-name="unia2" unicode="&#xa2;" d="M508 520Q455 553 383 558L311 144Q360 144 398.50 154.50Q437 165 462 178L454 132Q395 103 303 102L283-14L243-14L264 104Q189 115 139 171Q89 227 89 324Q89 444 162 519.50Q235 595 351 601L371 714L411 714L391 600Q460 597 517 567L508 520M271 147L344 558Q252 553 194 488Q136 423 136 324Q136 249 175 203.50Q214 158 271 147Z"  horiz-adv-x="558" vert-adv-y="1000"  />

      
      <glyph glyph-name="unia3" unicode="&#xa3;" d="M584 639Q562 650 524.50 657.50Q487 665 447 665Q357 665 310 615.50Q263 566 245 464L227 362L453 362L446 322L220 322L201 206Q190 144 162.50 102Q135 60 98 41L472 41L465 0L-3 0L4 41Q76 54 110.50 98.50Q145 143 159 221L177 322L68 322L75 362L184 362L204 475Q224 588 280.50 647.50Q337 707 449 707Q524 707 591 684L584 639Z"  horiz-adv-x="547" vert-adv-y="1000"  />

      
      <glyph glyph-name="unia4" unicode="&#xa4;" d="M447 453Q493 395 493 319Q493 242 445 183L522 106L495 79L418 156Q358 109 284 109Q251 109 216 121Q181 133 150 157L72 79L44 106L124 185Q76 245 76 319Q76 357 88 391Q100 425 122 452L44 529L72 555L148 478Q215 528 284 528Q319 528 354.50 515Q390 502 419 478L495 555L522 529L447 453M284 149Q354 149 402 198.50Q450 248 450 320Q450 391 402 438.50Q354 486 284 486Q213 486 166 437.50Q119 389 119 320Q119 249 166.50 199Q214 149 284 149Z"  horiz-adv-x="546" vert-adv-y="1000"  />

      
      <glyph glyph-name="unia5" unicode="&#xa5;" d="M312 347L494 347L487 307L305 307L282 177L464 177L457 137L275 137L251 0L209 0L233 137L45 137L52 177L240 177L263 307L75 307L82 347L270 347L270 349L109 695L156 695L295 389L544 695L599 695L312 349L312 347Z"  horiz-adv-x="546" vert-adv-y="1000"  />

      
      <glyph glyph-name="unia6" unicode="&#xa6;" d="M113 338L113 750L154 750L154 338L113 338M113-250L113 162L154 162L154-250L113-250Z"  horiz-adv-x="268" vert-adv-y="1000"  />

      
      <glyph glyph-name="unia7" unicode="&#xa7;" d="M448 632Q416 652 389 661Q362 670 322 670Q269 670 237 641Q205 612 205 562Q205 524 225 501Q245 478 295 447.50Q345 417 370 385.50Q395 354 395 301Q395 255 367.50 219.50Q340 184 291 160Q314 139 325.50 114Q337 89 337 57Q337-9 293-52Q249-95 171-95Q126-95 96.50-87Q67-79 40-64L47-16Q79-36 106-45Q133-54 173-54Q226-54 258-25Q290 4 290 54Q290 92 270 115Q250 138 200 168.50Q150 199 125 230.50Q100 262 100 315Q100 366 128 401Q156 436 205 453Q158 497 158 559Q158 625 202 668Q246 711 324 711Q369 711 398.50 703Q428 695 455 680L448 632M253 189Q292 198 320.50 228.50Q349 259 349 297Q349 339 325 366.50Q301 394 242 426Q199 413 172.50 387Q146 361 146 319Q146 259 190 229.50Q234 200 253 189Z"  horiz-adv-x="478" vert-adv-y="1000"  />

      
      <glyph glyph-name="unia8" unicode="&#xa8;" d="M107 591L117 648L173 648L163 591L107 591M247 591L257 648L313 648L303 591L247 591Z"  horiz-adv-x="279" vert-adv-y="1000"  />

      
      <glyph glyph-name="unia9" unicode="&#xa9;" d="M420-15Q321-15 237 33.50Q153 82 104 165Q55 248 55 347Q55 497 163 603.50Q271 710 420 710Q519 710 603 661Q687 612 735.50 528.50Q784 445 784 347Q784 197 677 91Q570-15 420-15M420 25Q552 25 647 120Q742 215 742 347Q742 479 647 574Q552 669 420 669Q288 669 193 574Q98 479 98 347Q98 215 193 120Q288 25 420 25M559 502Q498 527 438 527Q354 527 307 478Q260 429 260 350Q260 266 307.50 219.50Q355 173 433 173Q473 173 501 180.50Q529 188 559 203L559 163Q535 149 506 141.50Q477 134 429 134Q338 134 278 193Q218 252 218 348Q218 445 279 504.50Q340 564 440 564Q511 564 559 542L559 502Z"  horiz-adv-x="808" vert-adv-y="1000"  />

      
      <glyph glyph-name="uniaa" unicode="&#xaa;" d="M363 563L335 409Q266 388 210 388Q153 388 122.50 412.50Q92 437 92 482Q92 531 128.50 558.50Q165 586 243 586Q286 586 328 579Q332 602 332 623Q332 655 310 668.50Q288 682 249 682Q222 682 201.50 676.50Q181 671 148 660L155 698Q183 707 207 712.50Q231 718 260 718Q315 718 342.50 694.50Q370 671 370 628Q370 604 363 563M216 422Q259 422 302 434L322 545Q278 552 240 552Q184 552 158 534.50Q132 517 132 483Q132 457 152 439.50Q172 422 216 422Z"  horiz-adv-x="369" vert-adv-y="1000"  />

      
      <glyph glyph-name="uniab" unicode="&#xab;" d="M186 55L139 55L42 237L199 413L255 413L91 232L186 55M350 55L303 55L206 237L363 413L419 413L255 232L350 55Z"  horiz-adv-x="441" vert-adv-y="1000"  />

      
      <glyph glyph-name="uniac" unicode="&#xac;" d="M466 120L466 313L40 313L40 353L506 353L506 120L466 120Z"  horiz-adv-x="546" vert-adv-y="1000"  />

      
      <glyph glyph-name="uniad" unicode="&#xad;" d="M49 234L56 277L360 277L353 234L49 234Z"  horiz-adv-x="402" vert-adv-y="1000"  />

      
      <glyph glyph-name="uniae" unicode="&#xae;" d="M309 257Q215 257 148 323.50Q81 390 81 484Q81 578 148.50 645Q216 712 309 712Q401 712 468.50 644.50Q536 577 536 484Q536 390 469.50 323.50Q403 257 309 257M309 292Q387 292 443.50 349Q500 406 500 484Q500 562 443.50 619Q387 676 309 676Q230 676 173.50 619.50Q117 563 117 484Q117 405 173.50 348.50Q230 292 309 292M345 459L418 358L370 358L308 451L263 451L263 358L226 358L226 614L311 614Q356 614 381 594.50Q406 575 406 535Q406 507 390 487Q374 467 345 459M263 482L311 482Q335 482 350.50 495.50Q366 509 366 531Q366 553 352.50 566.50Q339 580 314 580L263 580L263 482Z"  horiz-adv-x="535" vert-adv-y="1000"  />

      
      <glyph glyph-name="uniaf" unicode="&#xaf;" d="M91 609L97 646L326 646L320 609L91 609Z"  horiz-adv-x="279" vert-adv-y="1000"  />

      
      <glyph glyph-name="unib0" unicode="&#xb0;" d="M269 438Q210 438 170.50 477Q131 516 131 574Q131 632 170.50 671Q210 710 268 710Q326 710 365 671Q404 632 404 574Q404 516 365.50 477Q327 438 269 438M268 474Q309 474 337 503Q365 532 365 574Q365 616 337 645Q309 674 269 674Q228 674 199 645Q170 616 170 574Q170 532 198.50 503Q227 474 268 474Z"  horiz-adv-x="417" vert-adv-y="1000"  />

      
      <glyph glyph-name="unib1" unicode="&#xb1;" d="M506 396L506 356L293 356L293 143L253 143L253 356L40 356L40 396L253 396L253 609L293 609L293 396L506 396M40 0L40 40L506 40L506 0L40 0Z"  horiz-adv-x="546" vert-adv-y="1000"  />

      
      <glyph glyph-name="unib2" unicode="&#xb2;" d="M270 482L132 370L368 370L361 330L71 330L79 375L236 502Q309 562 338.50 597.50Q368 633 368 675Q368 714 344.50 735Q321 756 276 756Q243 756 212.50 744Q182 732 149 711L157 758Q186 775 216.50 784.50Q247 794 285 794Q347 794 379 764.50Q411 735 411 680Q411 634 387.50 595.50Q364 557 270 482Z"  horiz-adv-x="400" vert-adv-y="1000"  />

      
      <glyph glyph-name="unib3" unicode="&#xb3;" d="M282 555L282 554Q320 545 343.50 520Q367 495 367 454Q367 394 323.50 355Q280 316 192 316Q156 316 121.50 324Q87 332 68 343L76 383Q93 372 126 363Q159 354 194 354Q261 354 291.50 381Q322 408 322 452Q322 496 289 516.50Q256 537 200 537L156 537L163 577L214 577Q280 577 316 602.50Q352 628 352 675Q352 712 328 734Q304 756 259 756Q198 756 146 730L153 773Q207 795 267 795Q332 795 364 763Q396 731 396 683Q396 632 365 598Q334 564 282 555Z"  horiz-adv-x="405" vert-adv-y="1000"  />

      
      <glyph glyph-name="unib4" unicode="&#xb4;" d="M67 560L221 707L281 707L114 560L67 560Z"  horiz-adv-x="208" vert-adv-y="1000"  />

      
      <glyph glyph-name="unib5" unicode="&#xb5;" d="M92 54L37-251L-6-251L122 473L165 473L122 221Q112 159 112 134Q112 29 250 29Q289 29 328 35.50Q367 42 390 50L466 473L509 473L427 16Q336-12 245-12Q194-12 150.50 4Q107 20 92 54Z"  horiz-adv-x="548" vert-adv-y="1000"  />

      
      <glyph glyph-name="unib6" unicode="&#xb6;" d="M338-63L465 659L344 659L217-63L178-63L250 349Q176 349 132.50 387Q89 425 89 487Q89 529 111.50 578.50Q134 628 189.50 661.50Q245 695 320 695L510 695L377-63L338-63Z"  horiz-adv-x="555" vert-adv-y="1000"  />

      
      <glyph glyph-name="unib7" unicode="&#xb7;" d="M91 282L102 349L169 349L158 282L91 282Z"  horiz-adv-x="232" vert-adv-y="1000"  />

      
      <glyph glyph-name="unib8" unicode="&#xb8;" d="M44-223Q0-223-40-209L-34-175Q11-192 50-192Q90-192 111-175.50Q132-159 132-135Q132-113 117.50-100.50Q103-88 74-87L36-86L80 0L114 0L83-60Q123-60 146-77.50Q169-95 169-130Q169-169 137-196Q105-223 44-223Z"  horiz-adv-x="278" vert-adv-y="1000"  />

      
      <glyph glyph-name="unib9" unicode="&#xb9;" d="M229 331L303 749L167 687L176 730L330 799L352 799L270 331L229 331Z"  horiz-adv-x="401" vert-adv-y="1000"  />

      
      <glyph glyph-name="uniba" unicode="&#xba;" d="M244 386Q176 386 136.50 426Q97 466 97 536Q97 618 144.50 668Q192 718 270 718Q337 718 376 679Q415 640 415 574Q415 489 369 437.50Q323 386 244 386M246 421Q305 421 340 461.50Q375 502 375 569Q375 622 346.50 652.50Q318 683 268 683Q206 683 171.50 643.50Q137 604 137 537Q137 483 165.50 452Q194 421 246 421Z"  horiz-adv-x="400" vert-adv-y="1000"  />

      
      <glyph glyph-name="unibb" unicode="&#xbb;" d="M90 413L137 413L234 231L77 55L21 55L185 236L90 413M254 413L301 413L398 231L241 55L185 55L349 236L254 413Z"  horiz-adv-x="441" vert-adv-y="1000"  />

      
      <glyph glyph-name="unibc" unicode="&#xbc;" d="M227 231L301 649L165 587L174 630L328 699L350 699L268 231L227 231M151 0L779 695L826 695L198 0L151 0M863 145L856 108L783 108L764 0L725 0L744 108L519 108L525 148L805 459L845 459L790 145L863 145M572 145L750 145L795 396L793 396Q765 361 755 351L572 145Z"  horiz-adv-x="904" vert-adv-y="1000"  />

      
      <glyph glyph-name="unibd" unicode="&#xbd;" d="M227 231L301 649L165 587L174 630L328 699L350 699L268 231L227 231M151 0L779 695L826 695L198 0L151 0M769 152L631 40L867 40L860 0L570 0L578 45L735 172Q808 232 837.50 267.50Q867 303 867 345Q867 384 843.50 405Q820 426 775 426Q742 426 711.50 414Q681 402 648 381L656 428Q685 445 715.50 454.50Q746 464 784 464Q846 464 878 434.50Q910 405 910 350Q910 304 886.50 265.50Q863 227 769 152Z"  horiz-adv-x="957" vert-adv-y="1000"  />

      
      <glyph glyph-name="unibe" unicode="&#xbe;" d="M268 455L268 454Q306 445 329.50 420Q353 395 353 354Q353 294 309.50 255Q266 216 178 216Q142 216 107.50 224Q73 232 54 243L62 283Q79 272 112 263Q145 254 180 254Q247 254 277.50 281Q308 308 308 352Q308 396 275 416.50Q242 437 186 437L142 437L149 477L200 477Q266 477 302 502.50Q338 528 338 575Q338 612 314 634Q290 656 245 656Q184 656 132 630L139 673Q193 695 253 695Q318 695 350 663Q382 631 382 583Q382 532 351 498Q320 464 268 455M155 0L783 695L830 695L202 0L155 0M867 145L860 108L787 108L768 0L729 0L748 108L523 108L529 148L809 459L849 459L794 145L867 145M576 145L754 145L799 396L797 396Q769 361 759 351L576 145Z"  horiz-adv-x="908" vert-adv-y="1000"  />

      
      <glyph glyph-name="unibf" unicode="&#xbf;" d="M327 473L316 406L249 406L260 473L327 473M224 201L240 289L284 289L262 174Q144 123 89.50 66.50Q35 10 35-71Q35-125 70.50-159Q106-193 176-193Q219-193 251.50-183Q284-173 330-153L321-200Q245-234 171-234Q79-234 34.50-187.50Q-10-141-10-72Q-10 14 48 81Q106 148 224 201Z"  horiz-adv-x="452" vert-adv-y="1000"  />

      
      <glyph glyph-name="unic0" unicode="&#xc0;" d="M553 0L494 230L147 230L7 0L-44 0L382 695L423 695L600 0L553 0M173 274L484 274L395 639L393 639L173 274M425 757L337 885L396 885L469 757L425 757Z"  horiz-adv-x="640" vert-adv-y="1000"  />

      
      <glyph glyph-name="unic1" unicode="&#xc1;" d="M553 0L494 230L147 230L7 0L-44 0L382 695L423 695L600 0L553 0M173 274L484 274L395 639L393 639L173 274M336 757L470 885L531 885L383 757L336 757Z"  horiz-adv-x="640" vert-adv-y="1000"  />

      
      <glyph glyph-name="unic2" unicode="&#xc2;" d="M553 0L494 230L147 230L7 0L-44 0L382 695L423 695L600 0L553 0M173 274L484 274L395 639L393 639L173 274M514 761L433 858L320 761L267 761L424 897L447 897L558 761L514 761Z"  horiz-adv-x="640" vert-adv-y="1000"  />

      
      <glyph glyph-name="unic3" unicode="&#xc3;" d="M553 0L494 230L147 230L7 0L-44 0L382 695L423 695L600 0L553 0M173 274L484 274L395 639L393 639L173 274M489 798Q509 798 524.50 815Q540 832 549 858L588 858Q576 817 549 789.50Q522 762 487 762Q449 762 415 792.50Q381 823 353 823Q309 823 293 765L256 765Q265 810 291.50 835.50Q318 861 355 861Q383 861 404.50 847Q426 833 447 815.50Q468 798 489 798Z"  horiz-adv-x="640" vert-adv-y="1000"  />

      
      <glyph glyph-name="unic4" unicode="&#xc4;" d="M553 0L494 230L147 230L7 0L-44 0L382 695L423 695L600 0L553 0M173 274L484 274L395 639L393 639L173 274M316 771L326 828L382 828L372 771L316 771M456 771L466 828L522 828L512 771L456 771Z"  horiz-adv-x="640" vert-adv-y="1000"  />

      
      <glyph glyph-name="unic5" unicode="&#xc5;" d="M553 0L494 230L147 230L7 0L-44 0L382 695L423 695L600 0L553 0M173 274L484 274L395 639L393 639L173 274M419 744Q375 744 343.50 775.50Q312 807 312 851Q312 896 343.50 927Q375 958 419 958Q463 958 494.50 927Q526 896 526 851Q526 807 494.50 775.50Q463 744 419 744M419 778Q450 778 471.50 799.50Q493 821 493 851Q493 883 472 903.50Q451 924 419 924Q388 924 367 903.50Q346 883 346 851Q346 822 367.50 800Q389 778 419 778Z"  horiz-adv-x="640" vert-adv-y="1000"  />

      
      <glyph glyph-name="unic6" unicode="&#xc6;" d="M568 652L520 375L854 375L846 332L512 332L461 43L845 43L838 0L410 0L450 230L193 230L14 0L-42 0L502 695L943 695L935 652L568 652M226 274L458 274L524 652L519 652L226 274Z"  horiz-adv-x="921" vert-adv-y="1000"  />

      
      <glyph glyph-name="unic7" unicode="&#xc7;" d="M400 32Q462 32 510 45.50Q558 59 609 82L600 32Q556 12 506 0Q456-12 388-12L363-60Q403-60 426-77.50Q449-95 449-130Q449-169 417-196Q385-223 324-223Q280-223 240-209L246-175Q291-192 330-192Q370-192 391-175.50Q412-159 412-135Q412-113 397.50-100.50Q383-88 354-87L316-86L355-11Q223-1 150.50 85.50Q78 172 78 310Q78 486 181 596.50Q284 707 457 707Q535 707 593.50 692.50Q652 678 686 660L677 612Q577 662 451 662Q303 662 214.50 565.50Q126 469 126 311Q126 180 201 106Q276 32 400 32Z"  horiz-adv-x="674" vert-adv-y="1000"  />

      
      <glyph glyph-name="unic8" unicode="&#xc8;" d="M203 652L155 375L489 375L481 332L147 332L96 43L480 43L473 0L45 0L167 695L578 695L570 652L203 652M397 757L309 885L368 885L441 757L397 757Z"  horiz-adv-x="556" vert-adv-y="1000"  />

      
      <glyph glyph-name="unic9" unicode="&#xc9;" d="M203 652L155 375L489 375L481 332L147 332L96 43L480 43L473 0L45 0L167 695L578 695L570 652L203 652M308 757L442 885L503 885L355 757L308 757Z"  horiz-adv-x="556" vert-adv-y="1000"  />

      
      <glyph glyph-name="unica" unicode="&#xca;" d="M203 652L155 375L489 375L481 332L147 332L96 43L480 43L473 0L45 0L167 695L578 695L570 652L203 652M486 761L405 858L292 761L239 761L396 897L419 897L530 761L486 761Z"  horiz-adv-x="556" vert-adv-y="1000"  />

      
      <glyph glyph-name="unicb" unicode="&#xcb;" d="M203 652L155 375L489 375L481 332L147 332L96 43L480 43L473 0L45 0L167 695L578 695L570 652L203 652M288 771L298 828L354 828L344 771L288 771M428 771L438 828L494 828L484 771L428 771Z"  horiz-adv-x="556" vert-adv-y="1000"  />

      
      <glyph glyph-name="unicc" unicode="&#xcc;" d="M45 0L167 695L211 695L89 0L45 0M213 757L125 885L184 885L257 757L213 757Z"  horiz-adv-x="217" vert-adv-y="1000"  />

      
      <glyph glyph-name="unicd" unicode="&#xcd;" d="M45 0L167 695L211 695L89 0L45 0M124 757L258 885L319 885L171 757L124 757Z"  horiz-adv-x="217" vert-adv-y="1000"  />

      
      <glyph glyph-name="unice" unicode="&#xce;" d="M45 0L167 695L211 695L89 0L45 0M302 761L221 858L108 761L55 761L212 897L235 897L346 761L302 761Z"  horiz-adv-x="217" vert-adv-y="1000"  />

      
      <glyph glyph-name="unicf" unicode="&#xcf;" d="M45 0L167 695L211 695L89 0L45 0M104 771L114 828L170 828L160 771L104 771M244 771L254 828L310 828L300 771L244 771Z"  horiz-adv-x="217" vert-adv-y="1000"  />

      
      <glyph glyph-name="unid0" unicode="&#xd0;" d="M292 0L53 0L111 329L12 329L19 372L118 372L175 695L357 695Q515 695 605.50 619.50Q696 544 696 399Q696 216 589.50 108Q483 0 292 0M352 651L212 651L163 372L378 372L371 329L155 329L105 44L294 44Q462 44 554.50 138Q647 232 647 396Q647 526 567 588.50Q487 651 352 651Z"  horiz-adv-x="733" vert-adv-y="1000"  />

      
      <glyph glyph-name="unid1" unicode="&#xd1;" d="M586 0L195 611L193 611Q173 489 162 427L87 0L45 0L167 695L194 695L584 81L588 81Q596 133 610 211L695 695L737 695L615 0L586 0M540 798Q560 798 575.50 815Q591 832 600 858L639 858Q627 817 600 789.50Q573 762 538 762Q500 762 466 792.50Q432 823 404 823Q360 823 344 765L307 765Q316 810 342.50 835.50Q369 861 406 861Q434 861 455.50 847Q477 833 498 815.50Q519 798 540 798Z"  horiz-adv-x="743" vert-adv-y="1000"  />

      
      <glyph glyph-name="unid2" unicode="&#xd2;" d="M388-12Q250-12 163.50 73Q77 158 77 307Q77 484 180 595.50Q283 707 457 707Q603 707 686.50 623Q770 539 770 393Q770 283 727.50 191Q685 99 598.50 43.50Q512-12 388-12M393 33Q544 33 633 133.50Q722 234 722 386Q722 518 649.50 590Q577 662 455 662Q301 662 213 564.50Q125 467 125 313Q125 181 198.50 107Q272 33 393 33M481 757L393 885L452 885L525 757L481 757Z"  horiz-adv-x="808" vert-adv-y="1000"  />

      
      <glyph glyph-name="unid3" unicode="&#xd3;" d="M388-12Q250-12 163.50 73Q77 158 77 307Q77 484 180 595.50Q283 707 457 707Q603 707 686.50 623Q770 539 770 393Q770 283 727.50 191Q685 99 598.50 43.50Q512-12 388-12M393 33Q544 33 633 133.50Q722 234 722 386Q722 518 649.50 590Q577 662 455 662Q301 662 213 564.50Q125 467 125 313Q125 181 198.50 107Q272 33 393 33M392 757L526 885L587 885L439 757L392 757Z"  horiz-adv-x="808" vert-adv-y="1000"  />

      
      <glyph glyph-name="unid4" unicode="&#xd4;" d="M388-12Q250-12 163.50 73Q77 158 77 307Q77 484 180 595.50Q283 707 457 707Q603 707 686.50 623Q770 539 770 393Q770 283 727.50 191Q685 99 598.50 43.50Q512-12 388-12M393 33Q544 33 633 133.50Q722 234 722 386Q722 518 649.50 590Q577 662 455 662Q301 662 213 564.50Q125 467 125 313Q125 181 198.50 107Q272 33 393 33M570 761L489 858L376 761L323 761L480 897L503 897L614 761L570 761Z"  horiz-adv-x="808" vert-adv-y="1000"  />

      
      <glyph glyph-name="unid5" unicode="&#xd5;" d="M388-12Q250-12 163.50 73Q77 158 77 307Q77 484 180 595.50Q283 707 457 707Q603 707 686.50 623Q770 539 770 393Q770 283 727.50 191Q685 99 598.50 43.50Q512-12 388-12M393 33Q544 33 633 133.50Q722 234 722 386Q722 518 649.50 590Q577 662 455 662Q301 662 213 564.50Q125 467 125 313Q125 181 198.50 107Q272 33 393 33M545 798Q565 798 580.50 815Q596 832 605 858L644 858Q632 817 605 789.50Q578 762 543 762Q505 762 471 792.50Q437 823 409 823Q365 823 349 765L312 765Q321 810 347.50 835.50Q374 861 411 861Q439 861 460.50 847Q482 833 503 815.50Q524 798 545 798Z"  horiz-adv-x="808" vert-adv-y="1000"  />

      
      <glyph glyph-name="unid6" unicode="&#xd6;" d="M388-12Q250-12 163.50 73Q77 158 77 307Q77 484 180 595.50Q283 707 457 707Q603 707 686.50 623Q770 539 770 393Q770 283 727.50 191Q685 99 598.50 43.50Q512-12 388-12M393 33Q544 33 633 133.50Q722 234 722 386Q722 518 649.50 590Q577 662 455 662Q301 662 213 564.50Q125 467 125 313Q125 181 198.50 107Q272 33 393 33M372 771L382 828L438 828L428 771L372 771M512 771L522 828L578 828L568 771L512 771Z"  horiz-adv-x="808" vert-adv-y="1000"  />

      
      <glyph glyph-name="unid7" unicode="&#xd7;" d="M301 303L473 131L445 103L273 275L101 103L73 131L245 303L73 475L101 503L273 331L445 503L473 475L301 303Z"  horiz-adv-x="546" vert-adv-y="1000"  />

      
      <glyph glyph-name="unid8" unicode="&#xd8;" d="M693 615Q731 574 750.50 518Q770 462 770 393Q770 283 727.50 191Q685 99 598.50 43.50Q512-12 388-12Q266-12 185 53L74-71L42-44L155 81Q77 167 77 307Q77 484 180 595.50Q283 707 457 707Q581 707 663 644L779 773L811 746L693 615M188 118L630 607Q560 662 455 662Q301 662 213 564.50Q125 467 125 313Q125 192 188 118M722 386Q722 505 660 578L218 89Q289 33 393 33Q544 33 633 133.50Q722 234 722 386Z"  horiz-adv-x="808" vert-adv-y="1000"  />

      
      <glyph glyph-name="unid9" unicode="&#xd9;" d="M78 178Q78 205 80.50 224.50Q83 244 93 302L162 695L206 695L136 295Q124 227 124 183Q124 32 332 32Q431 32 529 61L642 695L686 695L568 29Q512 10 454-1Q396-12 326-12Q203-12 140.50 36Q78 84 78 178M438 757L350 885L409 885L482 757L438 757Z"  horiz-adv-x="691" vert-adv-y="1000"  />

      
      <glyph glyph-name="unida" unicode="&#xda;" d="M78 178Q78 205 80.50 224.50Q83 244 93 302L162 695L206 695L136 295Q124 227 124 183Q124 32 332 32Q431 32 529 61L642 695L686 695L568 29Q512 10 454-1Q396-12 326-12Q203-12 140.50 36Q78 84 78 178M349 757L483 885L544 885L396 757L349 757Z"  horiz-adv-x="691" vert-adv-y="1000"  />

      
      <glyph glyph-name="unidb" unicode="&#xdb;" d="M78 178Q78 205 80.50 224.50Q83 244 93 302L162 695L206 695L136 295Q124 227 124 183Q124 32 332 32Q431 32 529 61L642 695L686 695L568 29Q512 10 454-1Q396-12 326-12Q203-12 140.50 36Q78 84 78 178M527 761L446 858L333 761L280 761L437 897L460 897L571 761L527 761Z"  horiz-adv-x="691" vert-adv-y="1000"  />

      
      <glyph glyph-name="unidc" unicode="&#xdc;" d="M78 178Q78 205 80.50 224.50Q83 244 93 302L162 695L206 695L136 295Q124 227 124 183Q124 32 332 32Q431 32 529 61L642 695L686 695L568 29Q512 10 454-1Q396-12 326-12Q203-12 140.50 36Q78 84 78 178M329 771L339 828L395 828L385 771L329 771M469 771L479 828L535 828L525 771L469 771Z"  horiz-adv-x="691" vert-adv-y="1000"  />

      
      <glyph glyph-name="unidd" unicode="&#xdd;" d="M244 0L200 0L247 269L61 695L110 695L273 315L576 695L631 695L291 269L244 0M270 757L404 885L465 885L317 757L270 757Z"  horiz-adv-x="530" vert-adv-y="1000"  />

      
      <glyph glyph-name="unide" unicode="&#xde;" d="M337 570Q445 570 505.50 518Q566 466 566 377Q566 268 492 201Q418 134 276 134L112 134L89 0L45 0L167 695L211 695L189 570L337 570M120 177L274 177Q403 177 459.50 232.50Q516 288 516 372Q516 443 471 485Q426 527 329 527L181 527L120 177Z"  horiz-adv-x="579" vert-adv-y="1000"  />

      
      <glyph glyph-name="unidf" unicode="&#xdf;" d="M309 345Q309 309 335 289Q361 269 412.50 244.50Q464 220 484 192Q504 164 504 124Q504 69 463 28.50Q422-12 335-12Q259-12 201 18L208 61Q239 45 268 37Q297 29 339 29Q396 29 427.50 53.50Q459 78 459 121Q459 154 437 175Q415 196 359 224.50Q303 253 283.50 278.50Q264 304 264 339Q264 391 294.50 420.50Q325 450 376 471.50Q427 493 452.50 518.50Q478 544 478 584Q478 628 447.50 657.50Q417 687 352 687Q264 687 223.50 635Q183 583 165 483L80 0L37 0L123 488Q143 608 197.50 668Q252 728 355 728Q434 728 478 689.50Q522 651 522 590Q522 530 487 494Q452 458 380.50 428.50Q309 399 309 345Z"  horiz-adv-x="563" vert-adv-y="1000"  />

      
      <glyph glyph-name="unie0" unicode="&#xe0;" d="M439 258L398 24Q363 10 312.50-1.50Q262-13 211-13Q118-13 76 26.50Q34 66 34 128Q34 204 90 244.50Q146 285 255 285Q312 285 399 270Q406 313 406 331Q406 382 375 412Q344 442 278 442Q235 442 198 432.50Q161 423 121 407L129 454Q203 485 285 485Q362 485 405 447Q448 409 448 339Q448 310 439 258M220 29Q279 29 362 53L393 230L346 237Q307 242 250 242Q157 242 117.50 211.50Q78 181 78 131Q78 80 115.50 54.50Q153 29 220 29M308 560L218 707L268 707L352 560L308 560Z"  horiz-adv-x="509" vert-adv-y="1000"  />

      
      <glyph glyph-name="unie1" unicode="&#xe1;" d="M439 258L398 24Q363 10 312.50-1.50Q262-13 211-13Q118-13 76 26.50Q34 66 34 128Q34 204 90 244.50Q146 285 255 285Q312 285 399 270Q406 313 406 331Q406 382 375 412Q344 442 278 442Q235 442 198 432.50Q161 423 121 407L129 454Q203 485 285 485Q362 485 405 447Q448 409 448 339Q448 310 439 258M220 29Q279 29 362 53L393 230L346 237Q307 242 250 242Q157 242 117.50 211.50Q78 181 78 131Q78 80 115.50 54.50Q153 29 220 29M218 560L372 707L432 707L265 560L218 560Z"  horiz-adv-x="509" vert-adv-y="1000"  />

      
      <glyph glyph-name="unie2" unicode="&#xe2;" d="M439 258L398 24Q363 10 312.50-1.50Q262-13 211-13Q118-13 76 26.50Q34 66 34 128Q34 204 90 244.50Q146 285 255 285Q312 285 399 270Q406 313 406 331Q406 382 375 412Q344 442 278 442Q235 442 198 432.50Q161 423 121 407L129 454Q203 485 285 485Q362 485 405 447Q448 409 448 339Q448 310 439 258M220 29Q279 29 362 53L393 230L346 237Q307 242 250 242Q157 242 117.50 211.50Q78 181 78 131Q78 80 115.50 54.50Q153 29 220 29M407 551L335 665L220 551L170 551L327 707L351 707L452 551L407 551Z"  horiz-adv-x="509" vert-adv-y="1000"  />

      
      <glyph glyph-name="unie3" unicode="&#xe3;" d="M439 258L398 24Q363 10 312.50-1.50Q262-13 211-13Q118-13 76 26.50Q34 66 34 128Q34 204 90 244.50Q146 285 255 285Q312 285 399 270Q406 313 406 331Q406 382 375 412Q344 442 278 442Q235 442 198 432.50Q161 423 121 407L129 454Q203 485 285 485Q362 485 405 447Q448 409 448 339Q448 310 439 258M220 29Q279 29 362 53L393 230L346 237Q307 242 250 242Q157 242 117.50 211.50Q78 181 78 131Q78 80 115.50 54.50Q153 29 220 29M392 618Q412 618 427.50 635Q443 652 452 678L491 678Q479 637 452 609.50Q425 582 390 582Q352 582 318 612.50Q284 643 256 643Q212 643 196 585L159 585Q168 630 194.50 655.50Q221 681 258 681Q286 681 307.50 667Q329 653 350 635.50Q371 618 392 618Z"  horiz-adv-x="509" vert-adv-y="1000"  />

      
      <glyph glyph-name="unie4" unicode="&#xe4;" d="M439 258L398 24Q363 10 312.50-1.50Q262-13 211-13Q118-13 76 26.50Q34 66 34 128Q34 204 90 244.50Q146 285 255 285Q312 285 399 270Q406 313 406 331Q406 382 375 412Q344 442 278 442Q235 442 198 432.50Q161 423 121 407L129 454Q203 485 285 485Q362 485 405 447Q448 409 448 339Q448 310 439 258M220 29Q279 29 362 53L393 230L346 237Q307 242 250 242Q157 242 117.50 211.50Q78 181 78 131Q78 80 115.50 54.50Q153 29 220 29M220 591L230 648L286 648L276 591L220 591M360 591L370 648L426 648L416 591L360 591Z"  horiz-adv-x="509" vert-adv-y="1000"  />

      
      <glyph glyph-name="unie5" unicode="&#xe5;" d="M439 258L398 24Q363 10 312.50-1.50Q262-13 211-13Q118-13 76 26.50Q34 66 34 128Q34 204 90 244.50Q146 285 255 285Q312 285 399 270Q406 313 406 331Q406 382 375 412Q344 442 278 442Q235 442 198 432.50Q161 423 121 407L129 454Q203 485 285 485Q362 485 405 447Q448 409 448 339Q448 310 439 258M220 29Q279 29 362 53L393 230L346 237Q307 242 250 242Q157 242 117.50 211.50Q78 181 78 131Q78 80 115.50 54.50Q153 29 220 29M329 548Q285 548 253.50 579.50Q222 611 222 655Q222 700 253.50 731Q285 762 329 762Q373 762 404.50 731Q436 700 436 655Q436 611 404.50 579.50Q373 548 329 548M329 582Q360 582 381.50 603.50Q403 625 403 655Q403 687 382 707.50Q361 728 329 728Q298 728 277 707.50Q256 687 256 655Q256 626 277.50 604Q299 582 329 582Z"  horiz-adv-x="509" vert-adv-y="1000"  />

      
      <glyph glyph-name="unie6" unicode="&#xe6;" d="M812 226L437 226Q437 216 436 200Q436 125 478 77Q520 29 610 29Q684 29 764 68L755 18Q719 2 684-6Q649-14 603-14Q491-14 435 55Q350-13 221-13Q121-13 77.50 26Q34 65 34 128Q34 204 90 244.50Q146 285 255 285Q312 285 399 270Q406 313 406 331Q406 382 375 412Q344 442 278 442Q235 442 198 432.50Q161 423 121 407L129 454Q203 485 285 485Q350 485 390.50 457.50Q431 430 442 378Q473 429 522.50 457Q572 485 637 485Q723 485 774.50 440Q826 395 826 312Q826 288 822 264.50Q818 241 812 226M775 268Q780 285 780 309Q780 370 743 406.50Q706 443 636 443Q558 443 507.50 394.50Q457 346 442 268L775 268M225 29Q331 29 415 88Q392 134 392 196Q392 208 394 230L346 237Q306 242 250 242Q157 242 117.50 211.50Q78 181 78 131Q78 80 116 54.50Q154 29 225 29Z"  horiz-adv-x="854" vert-adv-y="1000"  />

      
      <glyph glyph-name="unie7" unicode="&#xe7;" d="M266 28Q314 28 353.50 38.50Q393 49 419 62L411 16Q347-14 262-14L238-60Q278-60 301-77.50Q324-95 324-130Q324-169 292-196Q260-223 199-223Q155-223 115-209L121-175Q166-192 205-192Q245-192 266-175.50Q287-159 287-135Q287-113 272.50-100.50Q258-88 229-87L191-86L229-12Q150-2 98 54Q46 110 46 208Q46 333 125.50 409Q205 485 326 485Q411 485 474 451L465 404Q403 443 316 443Q217 443 155 377Q93 311 93 208Q93 125 143 76.50Q193 28 266 28Z"  horiz-adv-x="484" vert-adv-y="1000"  />

      
      <glyph glyph-name="unie8" unicode="&#xe8;" d="M471 226L96 226Q96 218 95 200Q95 124 137.50 76.50Q180 29 269 29Q343 29 423 68L414 18Q378 2 343-6Q308-14 262-14Q156-14 101.50 45Q47 104 47 206Q47 327 116 406Q185 485 296 485Q382 485 433.50 440Q485 395 485 312Q485 288 481 264.50Q477 241 471 226M434 268Q439 285 439 309Q439 370 402 406.50Q365 443 295 443Q217 443 166.50 394.50Q116 346 101 268L434 268M309 560L219 707L269 707L353 560L309 560Z"  horiz-adv-x="512" vert-adv-y="1000"  />

      
      <glyph glyph-name="unie9" unicode="&#xe9;" d="M471 226L96 226Q96 218 95 200Q95 124 137.50 76.50Q180 29 269 29Q343 29 423 68L414 18Q378 2 343-6Q308-14 262-14Q156-14 101.50 45Q47 104 47 206Q47 327 116 406Q185 485 296 485Q382 485 433.50 440Q485 395 485 312Q485 288 481 264.50Q477 241 471 226M434 268Q439 285 439 309Q439 370 402 406.50Q365 443 295 443Q217 443 166.50 394.50Q116 346 101 268L434 268M219 560L373 707L433 707L266 560L219 560Z"  horiz-adv-x="512" vert-adv-y="1000"  />

      
      <glyph glyph-name="uniea" unicode="&#xea;" d="M471 226L96 226Q96 218 95 200Q95 124 137.50 76.50Q180 29 269 29Q343 29 423 68L414 18Q378 2 343-6Q308-14 262-14Q156-14 101.50 45Q47 104 47 206Q47 327 116 406Q185 485 296 485Q382 485 433.50 440Q485 395 485 312Q485 288 481 264.50Q477 241 471 226M434 268Q439 285 439 309Q439 370 402 406.50Q365 443 295 443Q217 443 166.50 394.50Q116 346 101 268L434 268M408 551L336 665L221 551L171 551L328 707L352 707L453 551L408 551Z"  horiz-adv-x="512" vert-adv-y="1000"  />

      
      <glyph glyph-name="unieb" unicode="&#xeb;" d="M471 226L96 226Q96 218 95 200Q95 124 137.50 76.50Q180 29 269 29Q343 29 423 68L414 18Q378 2 343-6Q308-14 262-14Q156-14 101.50 45Q47 104 47 206Q47 327 116 406Q185 485 296 485Q382 485 433.50 440Q485 395 485 312Q485 288 481 264.50Q477 241 471 226M434 268Q439 285 439 309Q439 370 402 406.50Q365 443 295 443Q217 443 166.50 394.50Q116 346 101 268L434 268M221 591L231 648L287 648L277 591L221 591M361 591L371 648L427 648L417 591L361 591Z"  horiz-adv-x="512" vert-adv-y="1000"  />

      
      <glyph glyph-name="uniec" unicode="&#xec;" d="M38 0L121 473L164 473L81 0L38 0M154 560L64 707L114 707L198 560L154 560Z"  horiz-adv-x="202" vert-adv-y="1000"  />

      
      <glyph glyph-name="unied" unicode="&#xed;" d="M38 0L121 473L164 473L81 0L38 0M64 560L218 707L278 707L111 560L64 560Z"  horiz-adv-x="202" vert-adv-y="1000"  />

      
      <glyph glyph-name="uniee" unicode="&#xee;" d="M38 0L121 473L164 473L81 0L38 0M253 551L181 665L66 551L16 551L173 707L197 707L298 551L253 551Z"  horiz-adv-x="202" vert-adv-y="1000"  />

      
      <glyph glyph-name="unief" unicode="&#xef;" d="M38 0L121 473L164 473L81 0L38 0M66 591L76 648L132 648L122 591L66 591M206 591L216 648L272 648L262 591L206 591Z"  horiz-adv-x="202" vert-adv-y="1000"  />

      
      <glyph glyph-name="unif0" unicode="&#xf0;" d="M469 739L489 704L393 649Q463 575 495 486Q527 397 527 291Q527 161 465.50 73.50Q404-14 269-14Q171-14 109 43.50Q47 101 47 211Q47 332 118 408.50Q189 485 308 485Q358 485 400 464Q442 443 466 415L469 417Q457 474 427 528.50Q397 583 353 628L214 549L194 584L328 660Q297 692 226 733L250 766Q278 750 313.50 724Q349 698 366 680L469 739M271 27Q373 27 427 96Q481 165 481 276Q481 346 438.50 395Q396 444 306 444Q209 444 151 381Q93 318 93 211Q93 124 142 75.50Q191 27 271 27Z"  horiz-adv-x="571" vert-adv-y="1000"  />

      
      <glyph glyph-name="unif1" unicode="&#xf1;" d="M469 254L424 0L381 0L426 259L431 290Q435 315 435 339Q435 393 403 418.50Q371 444 303 444Q232 444 156 423L80 0L37 0L119 458Q227 485 306 485Q399 485 439.50 450.50Q480 416 480 349Q480 320 469 254M403 618Q423 618 438.50 635Q454 652 463 678L502 678Q490 637 463 609.50Q436 582 401 582Q363 582 329 612.50Q295 643 267 643Q223 643 207 585L170 585Q179 630 205.50 655.50Q232 681 269 681Q297 681 318.50 667Q340 653 361 635.50Q382 618 403 618Z"  horiz-adv-x="540" vert-adv-y="1000"  />

      
      <glyph glyph-name="unif2" unicode="&#xf2;" d="M269-14Q171-14 109 43.50Q47 101 47 211Q47 332 118 408.50Q189 485 308 485Q415 485 471 424Q527 363 527 268Q527 146 460.50 66Q394-14 269-14M271 27Q370 27 425.50 94Q481 161 481 263Q481 348 433 396Q385 444 306 444Q209 444 151 381Q93 318 93 211Q93 124 142 75.50Q191 27 271 27M320 560L230 707L280 707L364 560L320 560Z"  horiz-adv-x="573" vert-adv-y="1000"  />

      
      <glyph glyph-name="unif3" unicode="&#xf3;" d="M269-14Q171-14 109 43.50Q47 101 47 211Q47 332 118 408.50Q189 485 308 485Q415 485 471 424Q527 363 527 268Q527 146 460.50 66Q394-14 269-14M271 27Q370 27 425.50 94Q481 161 481 263Q481 348 433 396Q385 444 306 444Q209 444 151 381Q93 318 93 211Q93 124 142 75.50Q191 27 271 27M230 560L384 707L444 707L277 560L230 560Z"  horiz-adv-x="573" vert-adv-y="1000"  />

      
      <glyph glyph-name="unif4" unicode="&#xf4;" d="M269-14Q171-14 109 43.50Q47 101 47 211Q47 332 118 408.50Q189 485 308 485Q415 485 471 424Q527 363 527 268Q527 146 460.50 66Q394-14 269-14M271 27Q370 27 425.50 94Q481 161 481 263Q481 348 433 396Q385 444 306 444Q209 444 151 381Q93 318 93 211Q93 124 142 75.50Q191 27 271 27M419 551L347 665L232 551L182 551L339 707L363 707L464 551L419 551Z"  horiz-adv-x="573" vert-adv-y="1000"  />

      
      <glyph glyph-name="unif5" unicode="&#xf5;" d="M269-14Q171-14 109 43.50Q47 101 47 211Q47 332 118 408.50Q189 485 308 485Q415 485 471 424Q527 363 527 268Q527 146 460.50 66Q394-14 269-14M271 27Q370 27 425.50 94Q481 161 481 263Q481 348 433 396Q385 444 306 444Q209 444 151 381Q93 318 93 211Q93 124 142 75.50Q191 27 271 27M404 618Q424 618 439.50 635Q455 652 464 678L503 678Q491 637 464 609.50Q437 582 402 582Q364 582 330 612.50Q296 643 268 643Q224 643 208 585L171 585Q180 630 206.50 655.50Q233 681 270 681Q298 681 319.50 667Q341 653 362 635.50Q383 618 404 618Z"  horiz-adv-x="573" vert-adv-y="1000"  />

      
      <glyph glyph-name="unif6" unicode="&#xf6;" d="M269-14Q171-14 109 43.50Q47 101 47 211Q47 332 118 408.50Q189 485 308 485Q415 485 471 424Q527 363 527 268Q527 146 460.50 66Q394-14 269-14M271 27Q370 27 425.50 94Q481 161 481 263Q481 348 433 396Q385 444 306 444Q209 444 151 381Q93 318 93 211Q93 124 142 75.50Q191 27 271 27M232 591L242 648L298 648L288 591L232 591M372 591L382 648L438 648L428 591L372 591Z"  horiz-adv-x="573" vert-adv-y="1000"  />

      
      <glyph glyph-name="unif7" unicode="&#xf7;" d="M240 460L240 527L307 527L307 460L240 460M40 283L40 323L506 323L506 283L40 283M240 80L240 147L307 147L307 80L240 80Z"  horiz-adv-x="546" vert-adv-y="1000"  />

      
      <glyph glyph-name="unif8" unicode="&#xf8;" d="M478 415Q503 386 515 347.50Q527 309 527 268Q527 146 460.50 66Q394-14 269-14Q187-14 129 27L40-72L10-46L99 53Q47 111 47 211Q47 332 118 408.50Q189 485 308 485Q394 485 449 443L545 549L575 523L478 415M131 88L419 409Q373 444 306 444Q209 444 151 381Q93 318 93 211Q93 137 131 88M481 263Q481 332 446 380L159 60Q203 27 271 27Q370 27 425.50 94Q481 161 481 263Z"  horiz-adv-x="573" vert-adv-y="1000"  />

      
      <glyph glyph-name="unif9" unicode="&#xf9;" d="M62 128Q62 165 71 219L116 473L159 473L116 221Q111 196 108.50 175.50Q106 155 106 134Q106 29 244 29Q283 29 322 35.50Q361 42 384 50L460 473L503 473L421 16Q330-12 239-12Q150-12 106 25Q62 62 62 128M321 560L231 707L281 707L365 560L321 560Z"  horiz-adv-x="540" vert-adv-y="1000"  />

      
      <glyph glyph-name="unifa" unicode="&#xfa;" d="M62 128Q62 165 71 219L116 473L159 473L116 221Q111 196 108.50 175.50Q106 155 106 134Q106 29 244 29Q283 29 322 35.50Q361 42 384 50L460 473L503 473L421 16Q330-12 239-12Q150-12 106 25Q62 62 62 128M231 560L385 707L445 707L278 560L231 560Z"  horiz-adv-x="540" vert-adv-y="1000"  />

      
      <glyph glyph-name="unifb" unicode="&#xfb;" d="M62 128Q62 165 71 219L116 473L159 473L116 221Q111 196 108.50 175.50Q106 155 106 134Q106 29 244 29Q283 29 322 35.50Q361 42 384 50L460 473L503 473L421 16Q330-12 239-12Q150-12 106 25Q62 62 62 128M420 551L348 665L233 551L183 551L340 707L364 707L465 551L420 551Z"  horiz-adv-x="540" vert-adv-y="1000"  />

      
      <glyph glyph-name="unifc" unicode="&#xfc;" d="M62 128Q62 165 71 219L116 473L159 473L116 221Q111 196 108.50 175.50Q106 155 106 134Q106 29 244 29Q283 29 322 35.50Q361 42 384 50L460 473L503 473L421 16Q330-12 239-12Q150-12 106 25Q62 62 62 128M233 591L243 648L299 648L289 591L233 591M373 591L383 648L439 648L429 591L373 591Z"  horiz-adv-x="540" vert-adv-y="1000"  />

      
      <glyph glyph-name="unifd" unicode="&#xfd;" d="M-2-235L141 1L31 473L76 473L140 195Q163 90 171 43L173 43Q205 102 262 194L432 473L482 473L46-235L-2-235M178 560L332 707L392 707L225 560L178 560Z"  horiz-adv-x="429" vert-adv-y="1000"  />

      
      <glyph glyph-name="unife" unicode="&#xfe;" d="M515 272Q515 189 478.50 121.50Q442 54 378 20Q314-14 225-14Q184-14 146-6.50Q108 1 82 11L33-267L-10-267L169 738L212 738L163 463Q189 472 222.50 478.50Q256 485 287 485Q398 485 456.50 429Q515 373 515 272M91 59Q114 47 150.50 37.50Q187 28 228 28Q340 28 404.50 93Q469 158 469 271Q469 355 420.50 399Q372 443 283 443Q248 443 213.50 435.50Q179 428 155 417L91 59Z"  horiz-adv-x="560" vert-adv-y="1000"  />

      
      <glyph glyph-name="uniff" unicode="&#xff;" d="M-2-235L141 1L31 473L76 473L140 195Q163 90 171 43L173 43Q205 102 262 194L432 473L482 473L46-235L-2-235M180 591L190 648L246 648L236 591L180 591M320 591L330 648L386 648L376 591L320 591Z"  horiz-adv-x="429" vert-adv-y="1000"  />

      
      <glyph glyph-name="uni0100" unicode="&#x0100;" d="M553 0L494 230L147 230L7 0L-44 0L382 695L423 695L600 0L553 0M173 274L484 274L395 639L393 639L173 274M303 787L310 824L539 824L532 787L303 787Z"  horiz-adv-x="640" vert-adv-y="1000"  />

      
      <glyph glyph-name="uni0101" unicode="&#x0101;" d="M439 258L398 24Q363 10 312.50-1.50Q262-13 211-13Q118-13 76 26.50Q34 66 34 128Q34 204 90 244.50Q146 285 255 285Q312 285 399 270Q406 313 406 331Q406 382 375 412Q344 442 278 442Q235 442 198 432.50Q161 423 121 407L129 454Q203 485 285 485Q362 485 405 447Q448 409 448 339Q448 310 439 258M220 29Q279 29 362 53L393 230L346 237Q307 242 250 242Q157 242 117.50 211.50Q78 181 78 131Q78 80 115.50 54.50Q153 29 220 29M206 609L212 646L441 646L435 609L206 609Z"  horiz-adv-x="509" vert-adv-y="1000"  />

      
      <glyph glyph-name="uni0102" unicode="&#x0102;" d="M553 0L494 230L147 230L7 0L-44 0L382 695L423 695L600 0L553 0M173 274L484 274L395 639L393 639L173 274M289 863Q289 877 290 885L325 885Q325 880 324 870Q324 828 350.50 813.50Q377 799 420 799Q468 799 499 818.50Q530 838 541 885L580 885Q554 764 418 764Q350 764 319.50 789.50Q289 815 289 863Z"  horiz-adv-x="640" vert-adv-y="1000"  />

      
      <glyph glyph-name="uni0103" unicode="&#x0103;" d="M439 258L398 24Q363 10 312.50-1.50Q262-13 211-13Q118-13 76 26.50Q34 66 34 128Q34 204 90 244.50Q146 285 255 285Q312 285 399 270Q406 313 406 331Q406 382 375 412Q344 442 278 442Q235 442 198 432.50Q161 423 121 407L129 454Q203 485 285 485Q362 485 405 447Q448 409 448 339Q448 310 439 258M220 29Q279 29 362 53L393 230L346 237Q307 242 250 242Q157 242 117.50 211.50Q78 181 78 131Q78 80 115.50 54.50Q153 29 220 29M202 682Q202 697 203 705L238 705Q238 699 237 687Q237 643 260.50 624Q284 605 323 605Q412 605 434 705L473 705Q441 570 321 570Q261 570 231.50 600.50Q202 631 202 682Z"  horiz-adv-x="509" vert-adv-y="1000"  />

      
      <glyph glyph-name="uni0104" unicode="&#x0104;" d="M553 0L494 230L147 230L7 0L-44 0L382 695L423 695L600 0L553 0M173 274L484 274L395 639L393 639L173 274M513-182Q531-182 545-177.50Q559-173 578-164L573-200Q539-215 510-215Q474-215 454-196.50Q434-178 434-144Q434-105 465-70Q496-35 553 0L600 0Q532-45 501-75Q470-105 470-142Q470-161 481-171.50Q492-182 513-182Z"  horiz-adv-x="640" vert-adv-y="1000"  />

      
      <glyph glyph-name="uni0105" unicode="&#x0105;" d="M439 258L398 24Q312-42 288-75Q264-108 264-142Q264-161 275-171.50Q286-182 307-182Q325-182 339-177.50Q353-173 372-164L367-200Q333-215 304-215Q268-215 248-196.50Q228-178 228-144Q228-106 251.50-71Q275-36 318 0Q266-13 211-13Q118-13 76 26.50Q34 66 34 128Q34 204 90 244.50Q146 285 255 285Q312 285 399 270Q406 313 406 331Q406 382 375 412Q344 442 278 442Q235 442 198 432.50Q161 423 121 407L129 454Q203 485 285 485Q362 485 405 447Q448 409 448 339Q448 310 439 258M362 53L393 230L346 237Q307 242 250 242Q157 242 117.50 211.50Q78 181 78 131Q78 80 115.50 54.50Q153 29 220 29Q279 29 362 53Z"  horiz-adv-x="509" vert-adv-y="1000"  />

      
      <glyph glyph-name="uni0106" unicode="&#x0106;" d="M677 612Q577 662 451 662Q303 662 214.50 565.50Q126 469 126 311Q126 180 201 106Q276 32 400 32Q462 32 510 45.50Q558 59 609 82L600 32Q556 12 506 0Q456-12 388-12Q244-12 161 75.50Q78 163 78 310Q78 486 181 596.50Q284 707 457 707Q535 707 593.50 692.50Q652 678 686 660L677 612M373 757L507 885L568 885L420 757L373 757Z"  horiz-adv-x="674" vert-adv-y="1000"  />

      
      <glyph glyph-name="uni0107" unicode="&#x0107;" d="M465 404Q403 443 316 443Q217 443 155 377Q93 311 93 208Q93 125 143 76.50Q193 28 266 28Q314 28 353.50 38.50Q393 49 419 62L411 16Q347-14 260-14Q168-14 107 45.50Q46 105 46 208Q46 333 125.50 409Q205 485 326 485Q411 485 474 451L465 404M235 560L389 707L449 707L282 560L235 560Z"  horiz-adv-x="484" vert-adv-y="1000"  />

      
      <glyph glyph-name="uni0108" unicode="&#x0108;" d="M677 612Q577 662 451 662Q303 662 214.50 565.50Q126 469 126 311Q126 180 201 106Q276 32 400 32Q462 32 510 45.50Q558 59 609 82L600 32Q556 12 506 0Q456-12 388-12Q244-12 161 75.50Q78 163 78 310Q78 486 181 596.50Q284 707 457 707Q535 707 593.50 692.50Q652 678 686 660L677 612M551 761L470 858L357 761L304 761L461 897L484 897L595 761L551 761Z"  horiz-adv-x="674" vert-adv-y="1000"  />

      
      <glyph glyph-name="uni0109" unicode="&#x0109;" d="M465 404Q403 443 316 443Q217 443 155 377Q93 311 93 208Q93 125 143 76.50Q193 28 266 28Q314 28 353.50 38.50Q393 49 419 62L411 16Q347-14 260-14Q168-14 107 45.50Q46 105 46 208Q46 333 125.50 409Q205 485 326 485Q411 485 474 451L465 404M424 551L352 665L237 551L187 551L344 707L368 707L469 551L424 551Z"  horiz-adv-x="484" vert-adv-y="1000"  />

      
      <glyph glyph-name="uni010A" unicode="&#x010A;" d="M677 612Q577 662 451 662Q303 662 214.50 565.50Q126 469 126 311Q126 180 201 106Q276 32 400 32Q462 32 510 45.50Q558 59 609 82L600 32Q556 12 506 0Q456-12 388-12Q244-12 161 75.50Q78 163 78 310Q78 486 181 596.50Q284 707 457 707Q535 707 593.50 692.50Q652 678 686 660L677 612M423 768L433 825L489 825L479 768L423 768Z"  horiz-adv-x="674" vert-adv-y="1000"  />

      
      <glyph glyph-name="uni010B" unicode="&#x010B;" d="M465 404Q403 443 316 443Q217 443 155 377Q93 311 93 208Q93 125 143 76.50Q193 28 266 28Q314 28 353.50 38.50Q393 49 419 62L411 16Q347-14 260-14Q168-14 107 45.50Q46 105 46 208Q46 333 125.50 409Q205 485 326 485Q411 485 474 451L465 404M307 591L317 648L373 648L363 591L307 591Z"  horiz-adv-x="484" vert-adv-y="1000"  />

      
      <glyph glyph-name="uni010C" unicode="&#x010C;" d="M677 612Q577 662 451 662Q303 662 214.50 565.50Q126 469 126 311Q126 180 201 106Q276 32 400 32Q462 32 510 45.50Q558 59 609 82L600 32Q556 12 506 0Q456-12 388-12Q244-12 161 75.50Q78 163 78 310Q78 486 181 596.50Q284 707 457 707Q535 707 593.50 692.50Q652 678 686 660L677 612M439 761L328 897L372 897L453 800L566 897L619 897L462 761L439 761Z"  horiz-adv-x="674" vert-adv-y="1000"  />

      
      <glyph glyph-name="uni010D" unicode="&#x010D;" d="M465 404Q403 443 316 443Q217 443 155 377Q93 311 93 208Q93 125 143 76.50Q193 28 266 28Q314 28 353.50 38.50Q393 49 419 62L411 16Q347-14 260-14Q168-14 107 45.50Q46 105 46 208Q46 333 125.50 409Q205 485 326 485Q411 485 474 451L465 404M302 551L201 707L246 707L318 593L433 707L483 707L326 551L302 551Z"  horiz-adv-x="484" vert-adv-y="1000"  />

      
      <glyph glyph-name="uni010E" unicode="&#x010E;" d="M284 0L45 0L167 695L349 695Q507 695 597.50 619.50Q688 544 688 399Q688 216 581.50 108Q475 0 284 0M97 44L286 44Q454 44 546.50 138Q639 232 639 396Q639 526 559 588.50Q479 651 344 651L204 651L97 44M394 761L283 897L327 897L408 800L521 897L574 897L417 761L394 761Z"  horiz-adv-x="725" vert-adv-y="1000"  />

      
      <glyph glyph-name="uni010F" unicode="&#x010F;" d="M45 201Q45 283 81.50 350.50Q118 418 182 451.50Q246 485 335 485Q376 485 414 477.50Q452 470 478 460L527 738L570 738L443 24Q411 9 365-2.50Q319-14 273-14Q163-14 104 42.50Q45 99 45 201M278 28Q311 28 346 35.50Q381 43 405 54L469 412Q446 424 409.50 433.50Q373 443 332 443Q219 443 155 379Q91 315 91 202Q91 118 138.50 73Q186 28 278 28M581 521L670 738L714 738L614 521L581 521Z"  horiz-adv-x="561" vert-adv-y="1000"  />

      
      <glyph glyph-name="uni0110" unicode="&#x0110;" d="M292 0L53 0L111 329L12 329L19 372L118 372L175 695L357 695Q515 695 605.50 619.50Q696 544 696 399Q696 216 589.50 108Q483 0 292 0M352 651L212 651L163 372L378 372L371 329L155 329L105 44L294 44Q462 44 554.50 138Q647 232 647 396Q647 526 567 588.50Q487 651 352 651Z"  horiz-adv-x="733" vert-adv-y="1000"  />

      
      <glyph glyph-name="uni0111" unicode="&#x0111;" d="M544 590L443 24Q411 9 365-2.50Q319-14 273-14Q163-14 104 42.50Q45 99 45 201Q45 283 81.50 350.50Q118 418 182 451.50Q246 485 335 485Q376 485 414 477.50Q452 470 478 460L501 590L303 590L310 630L508 630L527 738L570 738L551 630L640 630L633 590L544 590M91 202Q91 118 138.50 73Q186 28 278 28Q311 28 346 35.50Q381 43 405 54L469 412Q446 424 409.50 433.50Q373 443 332 443Q219 443 155 379Q91 315 91 202Z"  horiz-adv-x="557" vert-adv-y="1000"  />

      
      <glyph glyph-name="uni0112" unicode="&#x0112;" d="M203 652L155 375L489 375L481 332L147 332L96 43L480 43L473 0L45 0L167 695L578 695L570 652L203 652M275 787L282 824L511 824L504 787L275 787Z"  horiz-adv-x="556" vert-adv-y="1000"  />

      
      <glyph glyph-name="uni0113" unicode="&#x0113;" d="M471 226L96 226Q96 218 95 200Q95 124 137.50 76.50Q180 29 269 29Q343 29 423 68L414 18Q378 2 343-6Q308-14 262-14Q156-14 101.50 45Q47 104 47 206Q47 327 116 406Q185 485 296 485Q382 485 433.50 440Q485 395 485 312Q485 288 481 264.50Q477 241 471 226M434 268Q439 285 439 309Q439 370 402 406.50Q365 443 295 443Q217 443 166.50 394.50Q116 346 101 268L434 268M207 609L213 646L442 646L436 609L207 609Z"  horiz-adv-x="512" vert-adv-y="1000"  />

      
      <glyph glyph-name="uni0114" unicode="&#x0114;" d="M203 652L155 375L489 375L481 332L147 332L96 43L480 43L473 0L45 0L167 695L578 695L570 652L203 652M261 863Q261 877 262 885L297 885Q297 880 296 870Q296 828 322.50 813.50Q349 799 392 799Q440 799 471 818.50Q502 838 513 885L552 885Q526 764 390 764Q322 764 291.50 789.50Q261 815 261 863Z"  horiz-adv-x="556" vert-adv-y="1000"  />

      
      <glyph glyph-name="uni0115" unicode="&#x0115;" d="M471 226L96 226Q96 218 95 200Q95 124 137.50 76.50Q180 29 269 29Q343 29 423 68L414 18Q378 2 343-6Q308-14 262-14Q156-14 101.50 45Q47 104 47 206Q47 327 116 406Q185 485 296 485Q382 485 433.50 440Q485 395 485 312Q485 288 481 264.50Q477 241 471 226M434 268Q439 285 439 309Q439 370 402 406.50Q365 443 295 443Q217 443 166.50 394.50Q116 346 101 268L434 268M203 682Q203 697 204 705L239 705Q239 699 238 687Q238 643 261.50 624Q285 605 324 605Q413 605 435 705L474 705Q442 570 322 570Q262 570 232.50 600.50Q203 631 203 682Z"  horiz-adv-x="512" vert-adv-y="1000"  />

      
      <glyph glyph-name="uni0116" unicode="&#x0116;" d="M203 652L155 375L489 375L481 332L147 332L96 43L480 43L473 0L45 0L167 695L578 695L570 652L203 652M358 768L368 825L424 825L414 768L358 768Z"  horiz-adv-x="556" vert-adv-y="1000"  />

      
      <glyph glyph-name="uni0117" unicode="&#x0117;" d="M471 226L96 226Q96 218 95 200Q95 124 137.50 76.50Q180 29 269 29Q343 29 423 68L414 18Q378 2 343-6Q308-14 262-14Q156-14 101.50 45Q47 104 47 206Q47 327 116 406Q185 485 296 485Q382 485 433.50 440Q485 395 485 312Q485 288 481 264.50Q477 241 471 226M434 268Q439 285 439 309Q439 370 402 406.50Q365 443 295 443Q217 443 166.50 394.50Q116 346 101 268L434 268M291 591L301 648L357 648L347 591L291 591Z"  horiz-adv-x="512" vert-adv-y="1000"  />

      
      <glyph glyph-name="uni0118" unicode="&#x0118;" d="M203 652L155 375L489 375L481 332L147 332L96 43L480 43L473 0L45 0L167 695L578 695L570 652L203 652M386-182Q404-182 418-177.50Q432-173 451-164L446-200Q412-215 383-215Q347-215 327-196.50Q307-178 307-144Q307-105 338-70Q369-35 426 0L473 0Q405-45 374-75Q343-105 343-142Q343-161 354-171.50Q365-182 386-182Z"  horiz-adv-x="556" vert-adv-y="1000"  />

      
      <glyph glyph-name="uni0119" unicode="&#x0119;" d="M269 29Q343 29 423 68L414 18Q327-46 304-78Q281-110 281-142Q281-161 292-171.50Q303-182 324-182Q342-182 356-177.50Q370-173 389-164L384-200Q350-215 321-215Q285-215 265-196.50Q245-178 245-144Q245-75 331-9Q298-14 262-14Q156-14 101.50 45Q47 104 47 206Q47 327 116 406Q185 485 296 485Q382 485 433.50 440Q485 395 485 312Q485 288 481 264.50Q477 241 471 226L96 226Q96 218 95 200Q95 124 137.50 76.50Q180 29 269 29M434 268Q439 285 439 309Q439 370 402 406.50Q365 443 295 443Q217 443 166.50 394.50Q116 346 101 268L434 268Z"  horiz-adv-x="512" vert-adv-y="1000"  />

      
      <glyph glyph-name="uni011A" unicode="&#x011A;" d="M203 652L155 375L489 375L481 332L147 332L96 43L480 43L473 0L45 0L167 695L578 695L570 652L203 652M374 761L263 897L307 897L388 800L501 897L554 897L397 761L374 761Z"  horiz-adv-x="556" vert-adv-y="1000"  />

      
      <glyph glyph-name="uni011B" unicode="&#x011B;" d="M471 226L96 226Q96 218 95 200Q95 124 137.50 76.50Q180 29 269 29Q343 29 423 68L414 18Q378 2 343-6Q308-14 262-14Q156-14 101.50 45Q47 104 47 206Q47 327 116 406Q185 485 296 485Q382 485 433.50 440Q485 395 485 312Q485 288 481 264.50Q477 241 471 226M434 268Q439 285 439 309Q439 370 402 406.50Q365 443 295 443Q217 443 166.50 394.50Q116 346 101 268L434 268M286 551L185 707L230 707L302 593L417 707L467 707L310 551L286 551Z"  horiz-adv-x="512" vert-adv-y="1000"  />

      
      <glyph glyph-name="uni011C" unicode="&#x011C;" d="M677 612Q577 662 451 662Q303 662 214.50 565.50Q126 469 126 311Q126 180 201 106Q276 32 400 32Q485 32 561 62L605 309L405 309L413 352L657 352L600 32Q556 12 506 0Q456-12 388-12Q244-12 161 75.50Q78 163 78 310Q78 486 181 596.50Q284 707 457 707Q535 707 593.50 692.50Q652 678 686 660L677 612M547 761L466 858L353 761L300 761L457 897L480 897L591 761L547 761Z"  horiz-adv-x="706" vert-adv-y="1000"  />

      
      <glyph glyph-name="uni011D" unicode="&#x011D;" d="M436-12Q413-137 351.50-193Q290-249 171-249Q118-249 73-238.50Q28-228-4-214L3-167Q33-182 81.50-195Q130-208 174-208Q279-208 328-157Q377-106 394-7L400 28Q367 9 332-2.50Q297-14 251-14Q153-14 98.50 41.50Q44 97 44 196Q44 280 79.50 348.50Q115 417 178 451Q241 485 330 485Q386 485 436 472Q486 459 517 442L436-12M258 28Q333 28 408 74L468 412Q445 424 408.50 433.50Q372 443 331 443Q219 443 154.50 376.50Q90 310 90 197Q90 116 136 72Q182 28 258 28M422 551L350 665L235 551L185 551L342 707L366 707L467 551L422 551Z"  horiz-adv-x="560" vert-adv-y="1000"  />

      
      <glyph glyph-name="uni011E" unicode="&#x011E;" d="M677 612Q577 662 451 662Q303 662 214.50 565.50Q126 469 126 311Q126 180 201 106Q276 32 400 32Q485 32 561 62L605 309L405 309L413 352L657 352L600 32Q556 12 506 0Q456-12 388-12Q244-12 161 75.50Q78 163 78 310Q78 486 181 596.50Q284 707 457 707Q535 707 593.50 692.50Q652 678 686 660L677 612M322 863Q322 877 323 885L358 885Q358 880 357 870Q357 828 383.50 813.50Q410 799 453 799Q501 799 532 818.50Q563 838 574 885L613 885Q587 764 451 764Q383 764 352.50 789.50Q322 815 322 863Z"  horiz-adv-x="706" vert-adv-y="1000"  />

      
      <glyph glyph-name="uni011F" unicode="&#x011F;" d="M436-12Q413-137 351.50-193Q290-249 171-249Q118-249 73-238.50Q28-228-4-214L3-167Q33-182 81.50-195Q130-208 174-208Q279-208 328-157Q377-106 394-7L400 28Q367 9 332-2.50Q297-14 251-14Q153-14 98.50 41.50Q44 97 44 196Q44 280 79.50 348.50Q115 417 178 451Q241 485 330 485Q386 485 436 472Q486 459 517 442L436-12M258 28Q333 28 408 74L468 412Q445 424 408.50 433.50Q372 443 331 443Q219 443 154.50 376.50Q90 310 90 197Q90 116 136 72Q182 28 258 28M217 682Q217 697 218 705L253 705Q253 699 252 687Q252 643 275.50 624Q299 605 338 605Q427 605 449 705L488 705Q456 570 336 570Q276 570 246.50 600.50Q217 631 217 682Z"  horiz-adv-x="560" vert-adv-y="1000"  />

      
      <glyph glyph-name="uni0120" unicode="&#x0120;" d="M677 612Q577 662 451 662Q303 662 214.50 565.50Q126 469 126 311Q126 180 201 106Q276 32 400 32Q485 32 561 62L605 309L405 309L413 352L657 352L600 32Q556 12 506 0Q456-12 388-12Q244-12 161 75.50Q78 163 78 310Q78 486 181 596.50Q284 707 457 707Q535 707 593.50 692.50Q652 678 686 660L677 612M419 768L429 825L485 825L475 768L419 768Z"  horiz-adv-x="706" vert-adv-y="1000"  />

      
      <glyph glyph-name="uni0121" unicode="&#x0121;" d="M436-12Q413-137 351.50-193Q290-249 171-249Q118-249 73-238.50Q28-228-4-214L3-167Q33-182 81.50-195Q130-208 174-208Q279-208 328-157Q377-106 394-7L400 28Q367 9 332-2.50Q297-14 251-14Q153-14 98.50 41.50Q44 97 44 196Q44 280 79.50 348.50Q115 417 178 451Q241 485 330 485Q386 485 436 472Q486 459 517 442L436-12M258 28Q333 28 408 74L468 412Q445 424 408.50 433.50Q372 443 331 443Q219 443 154.50 376.50Q90 310 90 197Q90 116 136 72Q182 28 258 28M305 591L315 648L371 648L361 591L305 591Z"  horiz-adv-x="560" vert-adv-y="1000"  />

      
      <glyph glyph-name="uni0122" unicode="&#x0122;" d="M677 612Q577 662 451 662Q303 662 214.50 565.50Q126 469 126 311Q126 180 201 106Q276 32 400 32Q485 32 561 62L605 309L405 309L413 352L657 352L600 32Q556 12 506 0Q456-12 388-12Q244-12 161 75.50Q78 163 78 310Q78 486 181 596.50Q284 707 457 707Q535 707 593.50 692.50Q652 678 686 660L677 612M268-231L370-64L421-64L308-231L268-231Z"  horiz-adv-x="706" vert-adv-y="1000"  />

      
      <glyph glyph-name="uni0123" unicode="&#x0123;" d="M436-12Q413-137 351.50-193Q290-249 171-249Q118-249 73-238.50Q28-228-4-214L3-167Q33-182 81.50-195Q130-208 174-208Q279-208 328-157Q377-106 394-7L400 28Q367 9 332-2.50Q297-14 251-14Q153-14 98.50 41.50Q44 97 44 196Q44 280 79.50 348.50Q115 417 178 451Q241 485 330 485Q386 485 436 472Q486 459 517 442L436-12M258 28Q333 28 408 74L468 412Q445 424 408.50 433.50Q372 443 331 443Q219 443 154.50 376.50Q90 310 90 197Q90 116 136 72Q182 28 258 28M275 558L388 725L429 725L327 558L275 558Z"  horiz-adv-x="560" vert-adv-y="1000"  />

      
      <glyph glyph-name="uni0124" unicode="&#x0124;" d="M535 0L594 340L148 340L89 0L45 0L167 695L211 695L156 383L602 383L657 695L701 695L579 0L535 0M547 761L466 858L353 761L300 761L457 897L480 897L591 761L547 761Z"  horiz-adv-x="707" vert-adv-y="1000"  />

      
      <glyph glyph-name="uni0125" unicode="&#x0125;" d="M480 348Q480 316 467 243L424 0L381 0L424 245Q435 309 435 342Q435 390 402 417Q369 444 311 444Q231 444 151 402L80 0L37 0L167 738L210 738L158 447Q201 466 237 475.50Q273 485 320 485Q393 485 436.50 449.50Q480 414 480 348M459 804L378 901L265 804L212 804L369 940L392 940L503 804L459 804Z"  horiz-adv-x="540" vert-adv-y="1000"  />

      
      <glyph glyph-name="uni0126" unicode="&#x0126;" d="M766 563L758 520L670 520L579 0L535 0L593 330L147 330L89 0L45 0L136 520L48 520L56 563L144 563L167 695L211 695L188 563L634 563L657 695L701 695L678 563L766 563M154 373L600 373L626 520L180 520L154 373Z"  horiz-adv-x="706" vert-adv-y="1000"  />

      
      <glyph glyph-name="uni0127" unicode="&#x0127;" d="M467 243L424 0L381 0L424 245Q435 309 435 342Q435 390 402 417Q369 444 311 444Q231 444 151 402L80 0L37 0L141 590L62 590L69 630L148 630L167 738L210 738L191 630L393 630L386 590L184 590L158 447Q201 466 237 475.50Q273 485 320 485Q393 485 436.50 449.50Q480 414 480 348Q480 316 467 243Z"  horiz-adv-x="540" vert-adv-y="1000"  />

      
      <glyph glyph-name="uni0128" unicode="&#x0128;" d="M45 0L167 695L211 695L89 0L45 0M277 798Q297 798 312.50 815Q328 832 337 858L376 858Q364 817 337 789.50Q310 762 275 762Q237 762 203 792.50Q169 823 141 823Q97 823 81 765L44 765Q53 810 79.50 835.50Q106 861 143 861Q171 861 192.50 847Q214 833 235 815.50Q256 798 277 798Z"  horiz-adv-x="217" vert-adv-y="1000"  />

      
      <glyph glyph-name="uni0129" unicode="&#x0129;" d="M38 0L121 473L164 473L81 0L38 0M238 618Q258 618 273.50 635Q289 652 298 678L337 678Q325 637 298 609.50Q271 582 236 582Q198 582 164 612.50Q130 643 102 643Q58 643 42 585L5 585Q14 630 40.50 655.50Q67 681 104 681Q132 681 153.50 667Q175 653 196 635.50Q217 618 238 618Z"  horiz-adv-x="202" vert-adv-y="1000"  />

      
      <glyph glyph-name="uni012A" unicode="&#x012A;" d="M45 0L167 695L211 695L89 0L45 0M91 787L98 824L327 824L320 787L91 787Z"  horiz-adv-x="217" vert-adv-y="1000"  />

      
      <glyph glyph-name="uni012B" unicode="&#x012B;" d="M38 0L121 473L164 473L81 0L38 0M52 609L58 646L287 646L281 609L52 609Z"  horiz-adv-x="202" vert-adv-y="1000"  />

      
      <glyph glyph-name="uni012C" unicode="&#x012C;" d="M45 0L167 695L211 695L89 0L45 0M77 863Q77 877 78 885L113 885Q113 880 112 870Q112 828 138.50 813.50Q165 799 208 799Q256 799 287 818.50Q318 838 329 885L368 885Q342 764 206 764Q138 764 107.50 789.50Q77 815 77 863Z"  horiz-adv-x="217" vert-adv-y="1000"  />

      
      <glyph glyph-name="uni012D" unicode="&#x012D;" d="M38 0L121 473L164 473L81 0L38 0M48 682Q48 697 49 705L84 705Q84 699 83 687Q83 643 106.50 624Q130 605 169 605Q258 605 280 705L319 705Q287 570 167 570Q107 570 77.50 600.50Q48 631 48 682Z"  horiz-adv-x="202" vert-adv-y="1000"  />

      
      <glyph glyph-name="uni012E" unicode="&#x012E;" d="M23-182Q41-182 55-177.50Q69-173 88-164L83-200Q49-215 20-215Q-16-215-36-196.50Q-56-178-56-144Q-56-106-30-71.50Q-4-37 43 0L37 0L159 695L203 695L81 0Q29-42 4.50-73.50Q-20-105-20-142Q-20-161-9-171.50Q2-182 23-182Z"  horiz-adv-x="227" vert-adv-y="1000"  />

      
      <glyph glyph-name="uni012F" unicode="&#x012F;" d="M191 591L135 591L145 648L201 648L191 591M163 473L80 0Q24-44-2.50-74.50Q-29-105-29-142Q-29-161-18-171.50Q-7-182 14-182Q32-182 46-177.50Q60-173 79-164L74-200Q40-215 11-215Q-25-215-45-196.50Q-65-178-65-144Q-65-105-37.50-71Q-10-37 42 0L37 0L120 473L163 473Z"  horiz-adv-x="211" vert-adv-y="1000"  />

      
      <glyph glyph-name="uni0130" unicode="&#x0130;" d="M45 0L167 695L211 695L89 0L45 0M174 768L184 825L240 825L230 768L174 768Z"  horiz-adv-x="217" vert-adv-y="1000"  />

      
      <glyph glyph-name="uni0131" unicode="&#x0131;" d="M38 0L121 473L164 473L81 0L38 0Z"  horiz-adv-x="202" vert-adv-y="1000"  />

      
      <glyph glyph-name="uni0132" unicode="&#x0132;" d="M45 0L167 695L211 695L89 0L45 0M192 26L199 71Q223 55 265 42.50Q307 30 358 30Q458 30 509.50 85.50Q561 141 578 240L658 695L702 695L622 239Q600 115 536 51.50Q472-12 356-12Q302-12 260 0Q218 12 192 26Z"  horiz-adv-x="702" vert-adv-y="1000"  />

      
      <glyph glyph-name="uni0133" unicode="&#x0133;" d="M135 591L145 648L201 648L191 591L135 591M37 0L120 473L163 473L80 0L37 0M336 591L346 648L402 648L392 591L336 591M35-240L41-198Q57-204 86-204Q146-204 180.50-164Q215-124 230-44L321 473L364 473L271-55Q255-149 207.50-197Q160-245 84-245Q57-245 35-240Z"  horiz-adv-x="402" vert-adv-y="1000"  />

      
      <glyph glyph-name="uni0134" unicode="&#x0134;" d="M-25 26L-18 71Q6 55 48 42.50Q90 30 141 30Q241 30 292.50 85.50Q344 141 361 240L441 695L485 695L405 239Q383 115 319 51.50Q255-12 139-12Q85-12 43 0Q1 12-25 26M576 761L495 858L382 761L329 761L486 897L509 897L620 761L576 761Z"  horiz-adv-x="486" vert-adv-y="1000"  />

      
      <glyph glyph-name="uni0135" unicode="&#x0135;" d="M-165-240L-159-198Q-143-204-114-204Q-54-204-19.50-164Q15-124 30-44L121 473L164 473L71-55Q55-149 7.50-197Q-40-245-116-245Q-143-245-165-240M253 551L181 665L66 551L16 551L173 707L197 707L298 551L253 551Z"  horiz-adv-x="201" vert-adv-y="1000"  />

      
      <glyph glyph-name="uni0136" unicode="&#x0136;" d="M519 0L456 0L151 347L150 347L89 0L45 0L167 695L211 695L151 352L152 352L569 695L638 695L210 347L519 0M140-231L242-64L293-64L180-231L140-231Z"  horiz-adv-x="570" vert-adv-y="1000"  />

      
      <glyph glyph-name="uni0137" unicode="&#x0137;" d="M126 253L407 473L476 473L184 247L390 0L331 0L125 248L123 248L80 0L37 0L167 738L210 738L124 253L126 253M72-231L174-64L225-64L112-231L72-231Z"  horiz-adv-x="454" vert-adv-y="1000"  />

      
      <glyph glyph-name="uni0138" unicode="&#x0138;" d="M390 0L331 0L125 248L123 248L80 0L37 0L121 473L164 473L124 253L126 253L407 473L476 473L184 247L390 0Z"  horiz-adv-x="454" vert-adv-y="1000"  />

      
      <glyph glyph-name="uni0139" unicode="&#x0139;" d="M476 43L469 0L45 0L167 695L211 695L96 43L476 43M164 757L298 885L359 885L211 757L164 757Z"  horiz-adv-x="516" vert-adv-y="1000"  />

      
      <glyph glyph-name="uni013A" unicode="&#x013A;" d="M37 0L167 738L210 738L80 0L37 0M164 800L298 928L359 928L211 800L164 800Z"  horiz-adv-x="201" vert-adv-y="1000"  />

      
      <glyph glyph-name="uni013B" unicode="&#x013B;" d="M476 43L469 0L45 0L167 695L211 695L96 43L476 43M113-231L215-64L266-64L153-231L113-231Z"  horiz-adv-x="516" vert-adv-y="1000"  />

      
      <glyph glyph-name="uni013C" unicode="&#x013C;" d="M37 0L167 738L210 738L80 0L37 0M-45-231L57-64L108-64L-5-231L-45-231Z"  horiz-adv-x="201" vert-adv-y="1000"  />

      
      <glyph glyph-name="uni013D" unicode="&#x013D;" d="M476 43L469 0L45 0L167 695L211 695L96 43L476 43M222 478L311 695L355 695L255 478L222 478Z"  horiz-adv-x="516" vert-adv-y="1000"  />

      
      <glyph glyph-name="uni013E" unicode="&#x013E;" d="M37 0L167 738L210 738L80 0L37 0M222 521L311 738L355 738L255 521L222 521Z"  horiz-adv-x="201" vert-adv-y="1000"  />

      
      <glyph glyph-name="uni013F" unicode="&#x013F;" d="M476 43L469 0L45 0L167 695L211 695L96 43L476 43M351 302L361 359L417 359L407 302L351 302Z"  horiz-adv-x="516" vert-adv-y="1000"  />

      
      <glyph glyph-name="uni0140" unicode="&#x0140;" d="M37 0L167 738L210 738L80 0L37 0M213 298L223 355L279 355L269 298L213 298Z"  horiz-adv-x="259" vert-adv-y="1000"  />

      
      <glyph glyph-name="uni0141" unicode="&#x0141;" d="M353 489L342 435L150 317L102 43L482 43L475 0L51 0L101 287L-9 220L2 274L112 341L173 695L217 695L161 371L353 489Z"  horiz-adv-x="528" vert-adv-y="1000"  />

      
      <glyph glyph-name="uni0142" unicode="&#x0142;" d="M256 430L150 363L86 0L43 0L102 332L-3 267L7 322L111 386L173 738L216 738L160 418L267 485L256 430Z"  horiz-adv-x="212" vert-adv-y="1000"  />

      
      <glyph glyph-name="uni0143" unicode="&#x0143;" d="M586 0L195 611L193 611Q173 489 162 427L87 0L45 0L167 695L194 695L584 81L588 81Q596 133 610 211L695 695L737 695L615 0L586 0M387 757L521 885L582 885L434 757L387 757Z"  horiz-adv-x="743" vert-adv-y="1000"  />

      
      <glyph glyph-name="uni0144" unicode="&#x0144;" d="M469 254L424 0L381 0L426 259L431 290Q435 315 435 339Q435 393 403 418.50Q371 444 303 444Q232 444 156 423L80 0L37 0L119 458Q227 485 306 485Q399 485 439.50 450.50Q480 416 480 349Q480 320 469 254M229 560L383 707L443 707L276 560L229 560Z"  horiz-adv-x="540" vert-adv-y="1000"  />

      
      <glyph glyph-name="uni0145" unicode="&#x0145;" d="M586 0L195 611L193 611Q173 489 162 427L87 0L45 0L167 695L194 695L584 81L588 81Q596 133 610 211L695 695L737 695L615 0L586 0M227-231L329-64L380-64L267-231L227-231Z"  horiz-adv-x="743" vert-adv-y="1000"  />

      
      <glyph glyph-name="uni0146" unicode="&#x0146;" d="M469 254L424 0L381 0L426 259L431 290Q435 315 435 339Q435 393 403 418.50Q371 444 303 444Q232 444 156 423L80 0L37 0L119 458Q227 485 306 485Q399 485 439.50 450.50Q480 416 480 349Q480 320 469 254M125-231L227-64L278-64L165-231L125-231Z"  horiz-adv-x="540" vert-adv-y="1000"  />

      
      <glyph glyph-name="uni0147" unicode="&#x0147;" d="M586 0L195 611L193 611Q173 489 162 427L87 0L45 0L167 695L194 695L584 81L588 81Q596 133 610 211L695 695L737 695L615 0L586 0M453 761L342 897L386 897L467 800L580 897L633 897L476 761L453 761Z"  horiz-adv-x="743" vert-adv-y="1000"  />

      
      <glyph glyph-name="uni0148" unicode="&#x0148;" d="M469 254L424 0L381 0L426 259L431 290Q435 315 435 339Q435 393 403 418.50Q371 444 303 444Q232 444 156 423L80 0L37 0L119 458Q227 485 306 485Q399 485 439.50 450.50Q480 416 480 349Q480 320 469 254M296 551L195 707L240 707L312 593L427 707L477 707L320 551L296 551Z"  horiz-adv-x="540" vert-adv-y="1000"  />

      
      <glyph glyph-name="uni0149" unicode="&#x0149;" d="M469 254L424 0L381 0L426 259L431 290Q435 315 435 339Q435 393 403 418.50Q371 444 303 444Q232 444 156 423L80 0L37 0L119 458Q227 485 306 485Q399 485 439.50 450.50Q480 416 480 349Q480 320 469 254M14 431L176 716L230 716L54 431L14 431Z"  horiz-adv-x="540" vert-adv-y="1000"  />

      
      <glyph glyph-name="uni014A" unicode="&#x014A;" d="M229-224L238-179Q259-194 295.50-205.50Q332-217 373-217Q458-217 503-172Q548-127 564-46L576 15L195 611L193 611Q173 489 162 427L87 0L45 0L167 695L194 695L584 81L588 81Q596 133 610 211L695 695L737 695L606-50Q590-142 535.50-200.50Q481-259 373-259Q328-259 290-248.50Q252-238 229-224Z"  horiz-adv-x="743" vert-adv-y="1000"  />

      
      <glyph glyph-name="uni014B" unicode="&#x014B;" d="M469 254L415-55Q399-149 351.50-197Q304-245 228-245Q201-245 179-240L185-198Q201-204 230-204Q290-204 325-163.50Q360-123 374-44L426 259L431 290Q435 315 435 339Q435 393 403 418.50Q371 444 303 444Q232 444 156 423L80 0L37 0L119 458Q227 485 306 485Q399 485 439.50 450.50Q480 416 480 349Q480 320 469 254Z"  horiz-adv-x="540" vert-adv-y="1000"  />

      
      <glyph glyph-name="uni014C" unicode="&#x014C;" d="M388-12Q250-12 163.50 73Q77 158 77 307Q77 484 180 595.50Q283 707 457 707Q603 707 686.50 623Q770 539 770 393Q770 283 727.50 191Q685 99 598.50 43.50Q512-12 388-12M393 33Q544 33 633 133.50Q722 234 722 386Q722 518 649.50 590Q577 662 455 662Q301 662 213 564.50Q125 467 125 313Q125 181 198.50 107Q272 33 393 33M359 787L366 824L595 824L588 787L359 787Z"  horiz-adv-x="808" vert-adv-y="1000"  />

      
      <glyph glyph-name="uni014D" unicode="&#x014D;" d="M269-14Q171-14 109 43.50Q47 101 47 211Q47 332 118 408.50Q189 485 308 485Q415 485 471 424Q527 363 527 268Q527 146 460.50 66Q394-14 269-14M271 27Q370 27 425.50 94Q481 161 481 263Q481 348 433 396Q385 444 306 444Q209 444 151 381Q93 318 93 211Q93 124 142 75.50Q191 27 271 27M218 609L224 646L453 646L447 609L218 609Z"  horiz-adv-x="573" vert-adv-y="1000"  />

      
      <glyph glyph-name="uni014E" unicode="&#x014E;" d="M388-12Q250-12 163.50 73Q77 158 77 307Q77 484 180 595.50Q283 707 457 707Q603 707 686.50 623Q770 539 770 393Q770 283 727.50 191Q685 99 598.50 43.50Q512-12 388-12M393 33Q544 33 633 133.50Q722 234 722 386Q722 518 649.50 590Q577 662 455 662Q301 662 213 564.50Q125 467 125 313Q125 181 198.50 107Q272 33 393 33M345 863Q345 877 346 885L381 885Q381 880 380 870Q380 828 406.50 813.50Q433 799 476 799Q524 799 555 818.50Q586 838 597 885L636 885Q610 764 474 764Q406 764 375.50 789.50Q345 815 345 863Z"  horiz-adv-x="808" vert-adv-y="1000"  />

      
      <glyph glyph-name="uni014F" unicode="&#x014F;" d="M269-14Q171-14 109 43.50Q47 101 47 211Q47 332 118 408.50Q189 485 308 485Q415 485 471 424Q527 363 527 268Q527 146 460.50 66Q394-14 269-14M271 27Q370 27 425.50 94Q481 161 481 263Q481 348 433 396Q385 444 306 444Q209 444 151 381Q93 318 93 211Q93 124 142 75.50Q191 27 271 27M214 682Q214 697 215 705L250 705Q250 699 249 687Q249 643 272.50 624Q296 605 335 605Q424 605 446 705L485 705Q453 570 333 570Q273 570 243.50 600.50Q214 631 214 682Z"  horiz-adv-x="573" vert-adv-y="1000"  />

      
      <glyph glyph-name="uni0150" unicode="&#x0150;" d="M388-12Q250-12 163.50 73Q77 158 77 307Q77 484 180 595.50Q283 707 457 707Q603 707 686.50 623Q770 539 770 393Q770 283 727.50 191Q685 99 598.50 43.50Q512-12 388-12M393 33Q544 33 633 133.50Q722 234 722 386Q722 518 649.50 590Q577 662 455 662Q301 662 213 564.50Q125 467 125 313Q125 181 198.50 107Q272 33 393 33M334 757L468 885L526 885L381 757L334 757M472 757L606 885L664 885L519 757L472 757Z"  horiz-adv-x="808" vert-adv-y="1000"  />

      
      <glyph glyph-name="uni0151" unicode="&#x0151;" d="M269-14Q171-14 109 43.50Q47 101 47 211Q47 332 118 408.50Q189 485 308 485Q415 485 471 424Q527 363 527 268Q527 146 460.50 66Q394-14 269-14M271 27Q370 27 425.50 94Q481 161 481 263Q481 348 433 396Q385 444 306 444Q209 444 151 381Q93 318 93 211Q93 124 142 75.50Q191 27 271 27M161 560L315 707L375 707L208 560L161 560M299 560L453 707L513 707L346 560L299 560Z"  horiz-adv-x="573" vert-adv-y="1000"  />

      
      <glyph glyph-name="uni0152" unicode="&#x0152;" d="M631 695L1042 695L1034 652L667 652L619 375L953 375L945 332L611 332L560 43L944 43L937 0L509 0L513 23Q443-12 363-12Q234-12 155.50 72Q77 156 77 308Q77 483 176.50 595Q276 707 447 707Q502 707 544.50 695.50Q587 684 625 662L631 695M372 33Q457 33 521 70L617 616Q542 662 445 662Q296 662 210.50 564.50Q125 467 125 312Q125 177 192 105Q259 33 372 33Z"  horiz-adv-x="1020" vert-adv-y="1000"  />

      
      <glyph glyph-name="uni0153" unicode="&#x0153;" d="M898 226L523 226Q523 218 522 200Q522 124 564.50 76.50Q607 29 696 29Q770 29 850 68L841 18Q805 2 770-6Q735-14 689-14Q607-14 558.50 21.50Q510 57 493 123Q465 60 410 23Q355-14 269-14Q171-14 109 43.50Q47 101 47 211Q47 332 118 408.50Q189 485 308 485Q393 485 442.50 446.50Q492 408 510 346Q539 411 593 448Q647 485 723 485Q809 485 860.50 440Q912 395 912 312Q912 288 908 264.50Q904 241 898 226M271 27Q370 27 425.50 94Q481 161 481 263Q481 348 433 396Q385 444 306 444Q209 444 151 381Q93 318 93 211Q93 124 142 75.50Q191 27 271 27M861 268Q866 285 866 309Q866 370 829 406.50Q792 443 722 443Q644 443 593.50 394.50Q543 346 528 268L861 268Z"  horiz-adv-x="940" vert-adv-y="1000"  />

      
      <glyph glyph-name="uni0154" unicode="&#x0154;" d="M374 294L541 0L488 0L324 290L140 290L89 0L45 0L167 695L378 695Q485 695 542 649Q599 603 599 519Q599 426 540.50 366.50Q482 307 374 294M147 333L331 333Q422 333 486 376Q550 419 550 516Q550 579 505.50 615Q461 651 368 651L203 651L147 333M311 757L445 885L506 885L358 757L311 757Z"  horiz-adv-x="610" vert-adv-y="1000"  />

      
      <glyph glyph-name="uni0155" unicode="&#x0155;" d="M367 434Q324 444 277 444Q243 444 210.50 438Q178 432 156 423L80 0L37 0L118 454Q196 485 281 485Q307 485 333.50 481.50Q360 478 374 474L367 434M175 560L329 707L389 707L222 560L175 560Z"  horiz-adv-x="343" vert-adv-y="1000"  />

      
      <glyph glyph-name="uni0156" unicode="&#x0156;" d="M374 294L541 0L488 0L324 290L140 290L89 0L45 0L167 695L378 695Q485 695 542 649Q599 603 599 519Q599 426 540.50 366.50Q482 307 374 294M147 333L331 333Q422 333 486 376Q550 419 550 516Q550 579 505.50 615Q461 651 368 651L203 651L147 333M160-231L262-64L313-64L200-231L160-231Z"  horiz-adv-x="610" vert-adv-y="1000"  />

      
      <glyph glyph-name="uni0157" unicode="&#x0157;" d="M367 434Q324 444 277 444Q243 444 210.50 438Q178 432 156 423L80 0L37 0L118 454Q196 485 281 485Q307 485 333.50 481.50Q360 478 374 474L367 434M-44-231L58-64L109-64L-4-231L-44-231Z"  horiz-adv-x="343" vert-adv-y="1000"  />

      
      <glyph glyph-name="uni0158" unicode="&#x0158;" d="M374 294L541 0L488 0L324 290L140 290L89 0L45 0L167 695L378 695Q485 695 542 649Q599 603 599 519Q599 426 540.50 366.50Q482 307 374 294M147 333L331 333Q422 333 486 376Q550 419 550 516Q550 579 505.50 615Q461 651 368 651L203 651L147 333M377 761L266 897L310 897L391 800L504 897L557 897L400 761L377 761Z"  horiz-adv-x="610" vert-adv-y="1000"  />

      
      <glyph glyph-name="uni0159" unicode="&#x0159;" d="M367 434Q324 444 277 444Q243 444 210.50 438Q178 432 156 423L80 0L37 0L118 454Q196 485 281 485Q307 485 333.50 481.50Q360 478 374 474L367 434M242 551L141 707L186 707L258 593L373 707L423 707L266 551L242 551Z"  horiz-adv-x="343" vert-adv-y="1000"  />

      
      <glyph glyph-name="uni015A" unicode="&#x015A;" d="M547 629Q462 662 355 662Q255 662 204.50 621.50Q154 581 154 513Q154 459 191 429Q228 399 328.50 367Q429 335 468 295.50Q507 256 507 190Q507 100 439.50 44Q372-12 238-12Q171-12 113.50 2Q56 16 23 33L31 84Q67 63 123 48Q179 33 244 33Q344 33 401 71.50Q458 110 458 186Q458 240 424.50 270Q391 300 287.50 333Q184 366 145 405.50Q106 445 106 511Q106 599 172 653Q238 707 358 707Q421 707 471.50 697.50Q522 688 555 676L547 629M291 757L425 885L486 885L338 757L291 757Z"  horiz-adv-x="571" vert-adv-y="1000"  />

      
      </font>
</defs>
</svg>
