<?xml version="1.0" standalone="no"?>
  <!DOCTYPE svg PUBLIC "-//W3C//DTD SVG 1.1//EN" "http://www.w3.org/Graphics/SVG/1.1/DTD/svg11.dtd" >
  <svg>
  <metadata>
  Created by font-carrier
  </metadata>
  <defs>
  <font id="EMprint-RegularItalic" horiz-adv-x="1242" vert-adv-y="1242" >
    <font-face
      
      font-family="EMprint-RegularItalic"
      
      font-weight="400"
      
      font-stretch="normal"
      
      units-per-em="1000"
      
      ascent="960"
      
      descent="-267"
      
    />
      <missing-glyph />

      

      
      <glyph glyph-name="uni21" unicode="&#x21;" d="M89 196L173 695L243 695L150 196L89 196M38 0L53 90L143 90L128 0L38 0Z"  horiz-adv-x="249" vert-adv-y="1000"  />

      
      <glyph glyph-name="uni22" unicode="&#x22;" d="M102 425L147 714L212 714L155 425L102 425M253 425L298 714L363 714L306 425L253 425Z"  horiz-adv-x="342" vert-adv-y="1000"  />

      
      <glyph glyph-name="uni23" unicode="&#x23;" d="M552 488L548 432L436 432L394 262L501 262L496 206L380 206L329 0L278 0L329 206L211 206L159 0L108 0L160 206L41 206L45 262L174 262L216 432L93 432L97 488L230 488L281 695L332 695L281 488L399 488L450 695L501 695L450 488L552 488M225 262L344 262L385 432L267 432L225 262Z"  horiz-adv-x="525" vert-adv-y="1000"  />

      
      <glyph glyph-name="uni24" unicode="&#x24;" d="M539 587Q471 613 383 618L341 374Q442 339 475.50 301Q509 263 509 204Q509 123 450.50 69.50Q392 16 277 11L258-96L208-96L227 11Q170 13 121.50 25.50Q73 38 44 53L56 122Q87 104 135 90Q183 76 238 74L282 324Q186 356 151.50 394.50Q117 433 117 494Q117 574 175.50 626.50Q234 679 345 683L363 788L413 788L394 682Q476 679 550 654L539 587M293 389L333 618Q260 614 223.50 581.50Q187 549 187 497Q187 456 212 432.50Q237 409 293 389M329 308L288 76Q360 81 399.50 111.50Q439 142 439 198Q439 240 414 263Q389 286 329 308Z"  horiz-adv-x="576" vert-adv-y="1000"  />

      
      <glyph glyph-name="uni25" unicode="&#x25;" d="M234 336Q165 336 122.50 377.50Q80 419 80 500Q80 590 130 648.50Q180 707 262 707Q338 707 376.50 662.50Q415 618 415 551Q415 463 367.50 399.50Q320 336 234 336M95 0L725 695L799 695L169 0L95 0M237 387Q299 387 328.50 435Q358 483 358 545Q358 599 330.50 627.50Q303 656 259 656Q203 656 169.50 613.50Q136 571 136 501Q136 446 163 416.50Q190 387 237 387M633-12Q563-12 520.50 29Q478 70 478 151Q478 243 528.50 301Q579 359 661 359Q737 359 775 315Q813 271 813 203Q813 113 766 50.50Q719-12 633-12M635 39Q698 39 727 87Q756 135 756 197Q756 251 729 279.50Q702 308 657 308Q601 308 568 265.50Q535 223 535 153Q535 97 562 68Q589 39 635 39Z"  horiz-adv-x="853" vert-adv-y="1000"  />

      
      <glyph glyph-name="uni26" unicode="&#x26;" d="M349 373L472 191Q502 225 546 284.50Q590 344 604 364L682 364Q662 337 604 259.50Q546 182 509 140L608 0L525 0L459 96Q404 40 349.50 12.50Q295-15 228-15Q134-15 82.50 36Q31 87 31 167Q31 255 86.50 307.50Q142 360 254 399Q229 436 215.50 471.50Q202 507 202 549Q202 622 250 668Q298 714 383 714Q460 714 501.50 671.50Q543 629 543 568Q543 497 494.50 453Q446 409 349 373M315 421Q397 449 435.50 480.50Q474 512 474 561Q474 602 448 629Q422 656 375 656Q326 656 297.50 625.50Q269 595 269 547Q269 513 280.50 484Q292 455 315 421M234 47Q333 47 424 147L285 350Q187 317 144 275.50Q101 234 101 171Q101 117 136 82Q171 47 234 47Z"  horiz-adv-x="677" vert-adv-y="1000"  />

      
      <glyph glyph-name="uni27" unicode="&#x27;" d="M102 425L147 714L212 714L155 425L102 425Z"  horiz-adv-x="191" vert-adv-y="1000"  />

      
      <glyph glyph-name="uni28" unicode="&#x28;" d="M210-160L142-160Q104-90 79.50 9Q55 108 55 201Q55 363 119 503.50Q183 644 300 770L377 770Q258 639 189 500Q120 361 120 204Q120 108 145 12Q170-84 210-160Z"  horiz-adv-x="310" vert-adv-y="1000"  />

      
      <glyph glyph-name="uni29" unicode="&#x29;" d="M124 770L192 770Q231 700 255.50 601Q280 502 280 409Q280 104 34-160L-43-160Q76-30 145 110Q214 250 214 407Q214 503 189 598.50Q164 694 124 770Z"  horiz-adv-x="310" vert-adv-y="1000"  />

      
      <glyph glyph-name="uni2a" unicode="&#x2a;" d="M429 609L447 556L295 515L395 389L348 357L260 490L174 355L124 389L226 515L72 556L90 613L240 556L233 714L289 714L281 556L429 609Z"  horiz-adv-x="407" vert-adv-y="1000"  />

      
      <glyph glyph-name="uni2b" unicode="&#x2b;" d="M514 335L514 271L310 271L310 68L246 68L246 271L43 271L43 335L246 335L246 539L310 539L310 335L514 335Z"  horiz-adv-x="556" vert-adv-y="1000"  />

      
      <glyph glyph-name="uni2c" unicode="&#x2c;" d="M-62-163L76 90L155 90L3-163L-62-163Z"  horiz-adv-x="237" vert-adv-y="1000"  />

      
      <glyph glyph-name="uni2d" unicode="&#x2d;" d="M45 227L56 292L362 292L351 227L45 227Z"  horiz-adv-x="399" vert-adv-y="1000"  />

      
      <glyph glyph-name="uni2e" unicode="&#x2e;" d="M32 0L47 90L136 90L121 0L32 0Z"  horiz-adv-x="237" vert-adv-y="1000"  />

      
      <glyph glyph-name="uni2f" unicode="&#x2f;" d="M-50-49L432 750L495 750L12-49L-50-49Z"  horiz-adv-x="404" vert-adv-y="1000"  />

      
      <glyph glyph-name="uni30" unicode="&#x30;" d="M257-12Q157-12 103.50 55.50Q50 123 50 243Q50 345 77.50 451Q105 557 172.50 632Q240 707 351 707Q451 707 502.50 644Q554 581 554 465Q554 363 528.50 254.50Q503 146 437 67Q371-12 257-12M261 54Q343 54 392 124Q441 194 460.50 288.50Q480 383 480 463Q480 551 445.50 596.50Q411 642 346 642Q267 642 217 576.50Q167 511 145 418.50Q123 326 123 241Q123 147 160.50 100.50Q198 54 261 54Z"  horiz-adv-x="565" vert-adv-y="1000"  />

      
      <glyph glyph-name="uni31" unicode="&#x31;" d="M227 0L337 623L139 531L152 609L381 713L423 713L298 0L227 0Z"  horiz-adv-x="557" vert-adv-y="1000"  />

      
      <glyph glyph-name="uni32" unicode="&#x32;" d="M318 231L117 69L466 69L455 0L12 0L25 74L265 268Q391 372 423.50 422Q456 472 456 523Q456 579 422 610Q388 641 321 641Q232 641 129 574L143 654Q237 707 337 707Q432 707 481 661Q530 615 530 532Q530 461 493 401Q456 341 318 231Z"  horiz-adv-x="557" vert-adv-y="1000"  />

      
      <glyph glyph-name="uni33" unicode="&#x33;" d="M348 347L348 345Q404 333 439.50 295Q475 257 475 194Q475 104 409 46Q343-12 208-12Q152-12 99.50 0Q47 12 18 28L30 97Q57 80 107 66.50Q157 53 209 53Q307 53 352.50 91.50Q398 130 398 192Q398 256 349.50 286Q301 316 217 316L150 316L162 384L240 384Q338 384 390 421Q442 458 442 527Q442 580 406.50 611Q371 642 305 642Q214 642 134 601L147 674Q179 688 224.50 697.50Q270 707 320 707Q420 707 469.50 659.50Q519 612 519 539Q519 462 473.50 411.50Q428 361 348 347Z"  horiz-adv-x="563" vert-adv-y="1000"  />

      
      <glyph glyph-name="uni34" unicode="&#x34;" d="M528 224L516 162L406 162L378 0L311 0L339 162L1 162L13 229L431 695L500 695L418 224L528 224M90 224L351 224L415 592L412 592Q390 560 355 522L90 224Z"  horiz-adv-x="557" vert-adv-y="1000"  />

      
      <glyph glyph-name="uni35" unicode="&#x35;" d="M240 630L187 414Q229 424 277 424Q378 424 434.50 373Q491 322 491 233Q491 119 417 53.50Q343-12 220-12Q159-12 111 1Q63 14 32 32L44 102Q74 83 120 68Q166 53 223 53Q318 53 366.50 101Q415 149 415 226Q415 289 373.50 325.50Q332 362 248 362Q182 362 101 343L187 695L545 695L534 630L240 630Z"  horiz-adv-x="562" vert-adv-y="1000"  />

      
      <glyph glyph-name="uni36" unicode="&#x36;" d="M224 409Q242 419 267 424Q292 429 317 429Q412 429 464.50 376Q517 323 517 235Q517 130 446.50 59Q376-12 260-12Q163-12 105.50 44.50Q48 101 48 191Q48 251 69 301Q90 351 136 407L372 695L461 695L223 411L224 409M268 53Q347 53 394.50 103.50Q442 154 442 230Q442 291 404.50 330Q367 369 294 369Q210 369 165.50 320.50Q121 272 121 193Q121 131 160 92Q199 53 268 53Z"  horiz-adv-x="565" vert-adv-y="1000"  />

      
      <glyph glyph-name="uni37" unicode="&#x37;" d="M159 0L77 0L492 630L98 630L109 695L587 695L578 642L159 0Z"  horiz-adv-x="557" vert-adv-y="1000"  />

      
      <glyph glyph-name="uni38" unicode="&#x38;" d="M397 354L397 351Q447 331 475.50 291.50Q504 252 504 191Q504 101 440.50 44.50Q377-12 261-12Q153-12 95 39Q37 90 37 177Q37 252 80.50 301Q124 350 200 367L200 370Q160 388 137 425Q114 462 114 513Q114 597 173.50 652Q233 707 338 707Q437 707 487 658.50Q537 610 537 534Q537 465 501 419.50Q465 374 397 354M318 393Q382 393 422.50 427.50Q463 462 463 526Q463 581 427.50 612.50Q392 644 331 644Q263 644 225 606.50Q187 569 187 510Q187 457 221.50 425Q256 393 318 393M267 51Q348 51 389 91Q430 131 430 187Q430 252 390.50 287.50Q351 323 276 323Q196 323 153.50 283.50Q111 244 111 183Q111 126 150.50 88.50Q190 51 267 51Z"  horiz-adv-x="561" vert-adv-y="1000"  />

      
      <glyph glyph-name="uni39" unicode="&#x39;" d="M466 286L232 0L142 0L381 285L380 286Q345 267 287 267Q192 267 139.50 320Q87 373 87 460Q87 565 157 636Q227 707 343 707Q440 707 498 650.50Q556 594 556 504Q556 444 534 393Q512 342 466 286M310 326Q393 326 437.50 374.50Q482 423 482 502Q482 564 443 603Q404 642 335 642Q256 642 208.50 591.50Q161 541 161 465Q161 404 199 365Q237 326 310 326Z"  horiz-adv-x="565" vert-adv-y="1000"  />

      
      <glyph glyph-name="uni3a" unicode="&#x3a;" d="M32 0L47 90L136 90L121 0L32 0M101 387L116 477L205 477L190 387L101 387Z"  horiz-adv-x="237" vert-adv-y="1000"  />

      
      <glyph glyph-name="uni3b" unicode="&#x3b;" d="M-62-163L76 90L155 90L3-163L-62-163M101 387L116 477L205 477L190 387L101 387Z"  horiz-adv-x="237" vert-adv-y="1000"  />

      
      <glyph glyph-name="uni3c" unicode="&#x3c;" d="M121 284L514 93L514 23L43 253L43 316L514 545L514 475L121 284Z"  horiz-adv-x="556" vert-adv-y="1000"  />

      
      <glyph glyph-name="uni3d" unicode="&#x3d;" d="M43 377L43 441L514 441L514 377L43 377M43 165L43 229L514 229L514 165L43 165Z"  horiz-adv-x="556" vert-adv-y="1000"  />

      
      <glyph glyph-name="uni3e" unicode="&#x3e;" d="M514 253L43 23L43 93L435 284L43 475L43 545L514 316L514 253Z"  horiz-adv-x="556" vert-adv-y="1000"  />

      
      <glyph glyph-name="uni3f" unicode="&#x3f;" d="M239 273L225 196L160 196L182 312Q293 359 344.50 411Q396 463 396 535Q396 584 363.50 614.50Q331 645 268 645Q226 645 193.50 635Q161 625 116 607L128 673Q206 707 283 707Q375 707 421.50 660Q468 613 468 541Q468 456 412.50 391Q357 326 239 273M114 0L129 90L219 90L204 0L114 0Z"  horiz-adv-x="454" vert-adv-y="1000"  />

      
      <glyph glyph-name="uni40" unicode="&#x40;" d="M638 180Q689 180 730.50 235.50Q772 291 772 378Q772 512 689.50 585.50Q607 659 461 659Q312 659 215.50 562Q119 465 119 319Q119 175 207 88.50Q295 2 441 2Q568 2 658 50L658-11Q560-54 439-54Q264-54 160.50 47.50Q57 149 57 319Q57 491 172 603Q287 715 462 715Q637 715 735 625Q833 535 833 376Q833 267 769.50 195.50Q706 124 631 124Q596 124 569 135Q542 146 532 164Q478 126 407 126Q330 126 283.50 171.50Q237 217 237 298Q237 402 299.50 470.50Q362 539 477 539Q524 539 564 529Q604 519 633 504L587 242Q585 228 585 224Q585 180 638 180M297 304Q297 246 330.50 213.50Q364 181 420 181Q477 181 524 214L568 462Q524 484 472 484Q391 484 344 435Q297 386 297 304Z"  horiz-adv-x="858" vert-adv-y="1000"  />

      
      <glyph glyph-name="uni41" unicode="&#x41;" d="M544 0L492 210L165 210L39 0L-43 0L379 695L446 695L619 0L544 0M202 275L477 275L399 603L397 603L202 275Z"  horiz-adv-x="660" vert-adv-y="1000"  />

      
      <glyph glyph-name="uni42" unicode="&#x42;" d="M439 359L439 357Q498 347 533.50 309Q569 271 569 209Q569 103 490 51.50Q411 0 274 0L40 0L162 695L380 695Q493 695 545.50 650.50Q598 606 598 532Q598 465 556 419Q514 373 439 359M182 392L330 392Q409 392 463 423Q517 454 517 523Q517 631 363 631L223 631L182 392M124 66L277 66Q377 66 434 97.50Q491 129 491 210Q491 265 449 296Q407 327 324 327L170 327L124 66Z"  horiz-adv-x="619" vert-adv-y="1000"  />

      
      <glyph glyph-name="uni43" unicode="&#x43;" d="M667 588Q572 637 451 637Q314 637 231.50 549Q149 461 149 314Q149 194 217 126Q285 58 401 58Q463 58 510.50 71.50Q558 85 606 109L594 31Q497-12 385-12Q240-12 156 75.50Q72 163 72 312Q72 489 175.50 598Q279 707 451 707Q583 707 680 661L667 588Z"  horiz-adv-x="667" vert-adv-y="1000"  />

      
      <glyph glyph-name="uni44" unicode="&#x44;" d="M293 0L40 0L162 695L353 695Q516 695 606 617Q696 539 696 392Q696 217 590.50 108.50Q485 0 293 0M124 68L297 68Q450 68 533.50 154.50Q617 241 617 390Q617 510 543.50 568.50Q470 627 348 627L223 627L124 68Z"  horiz-adv-x="727" vert-adv-y="1000"  />

      
      <glyph glyph-name="uni45" unicode="&#x45;" d="M222 627L180 387L501 387L489 319L168 319L123 68L493 68L481 0L40 0L162 695L587 695L575 627L222 627Z"  horiz-adv-x="562" vert-adv-y="1000"  />

      
      <glyph glyph-name="uni46" unicode="&#x46;" d="M222 627L176 364L513 364L501 297L164 297L112 0L40 0L162 695L589 695L576 627L222 627Z"  horiz-adv-x="530" vert-adv-y="1000"  />

      
      <glyph glyph-name="uni47" unicode="&#x47;" d="M675 590Q576 638 454 638Q315 638 232 549Q149 460 149 312Q149 192 216.50 124Q284 56 397 56Q469 56 541 82L579 297L390 297L402 362L661 362L603 35Q505-12 385-12Q237-12 154.50 75.50Q72 163 72 309Q72 487 176 597Q280 707 459 707Q535 707 593.50 693Q652 679 688 661L675 590Z"  horiz-adv-x="705" vert-adv-y="1000"  />

      
      <glyph glyph-name="uni48" unicode="&#x48;" d="M523 0L579 325L168 325L112 0L40 0L162 695L234 695L180 392L591 392L645 695L716 695L594 0L523 0Z"  horiz-adv-x="718" vert-adv-y="1000"  />

      
      <glyph glyph-name="uni49" unicode="&#x49;" d="M40 0L162 695L234 695L112 0L40 0Z"  horiz-adv-x="235" vert-adv-y="1000"  />

      
      <glyph glyph-name="uni4a" unicode="&#x4a;" d="M-25 24L-15 93Q9 79 50 67Q91 55 137 55Q231 55 279.50 106.50Q328 158 344 253L422 695L494 695L415 247Q393 119 327 53.50Q261-12 136-12Q86-12 44-1Q2 10-25 24Z"  horiz-adv-x="491" vert-adv-y="1000"  />

      
      <glyph glyph-name="uni4b" unicode="&#x4b;" d="M548 0L454 0L174 347L173 347L112 0L40 0L162 695L234 695L174 354L175 354L565 695L670 695L262 346L548 0Z"  horiz-adv-x="599" vert-adv-y="1000"  />

      
      <glyph glyph-name="uni4c" unicode="&#x4c;" d="M488 67L477 0L40 0L162 695L234 695L123 67L488 67Z"  horiz-adv-x="525" vert-adv-y="1000"  />

      
      <glyph glyph-name="uni4d" unicode="&#x4d;" d="M675 0L773 561L771 561L422 28L369 28L208 561L206 561L107 0L40 0L162 695L236 695L408 127L410 127L783 695L864 695L742 0L675 0Z"  horiz-adv-x="865" vert-adv-y="1000"  />

      
      <glyph glyph-name="uni4e" unicode="&#x4e;" d="M571 0L209 566L207 566Q192 467 180 403L110 0L40 0L162 695L213 695L573 127L577 127Q585 184 597 249L675 695L745 695L623 0L571 0Z"  horiz-adv-x="746" vert-adv-y="1000"  />

      
      <glyph glyph-name="uni4f" unicode="&#x4f;" d="M386-12Q245-12 158 73Q71 158 71 308Q71 417 113.50 507.50Q156 598 242 652.50Q328 707 452 707Q601 707 685 622.50Q769 538 769 394Q769 285 726.50 192.50Q684 100 597.50 44Q511-12 386-12M393 58Q532 58 612.50 151Q693 244 693 386Q693 503 628 570Q563 637 447 637Q307 637 227 546Q147 455 147 314Q147 193 214.50 125.50Q282 58 393 58Z"  horiz-adv-x="800" vert-adv-y="1000"  />

      
      <glyph glyph-name="uni50" unicode="&#x50;" d="M307 245L154 245L112 0L40 0L162 695L361 695Q481 695 543 641.50Q605 588 605 496Q605 382 528 313.50Q451 245 307 245M167 313L307 313Q421 313 473.50 362Q526 411 526 487Q526 553 485.50 590.50Q445 628 356 628L222 628L167 313Z"  horiz-adv-x="597" vert-adv-y="1000"  />

      
      <glyph glyph-name="uni51" unicode="&#x51;" d="M695-83L638-120L551 20Q479-12 386-12Q245-12 158 73Q71 158 71 308Q71 417 113.50 507.50Q156 598 242 652.50Q328 707 452 707Q601 707 685 622.50Q769 538 769 394Q769 288 729 197.50Q689 107 611 53L695-83M432 210L489 248L572 114Q632 158 662.50 230.50Q693 303 693 386Q693 503 628 570Q563 637 447 637Q307 637 227 546Q147 455 147 314Q147 193 214.50 125.50Q282 58 393 58Q458 58 513 80L432 210Z"  horiz-adv-x="801" vert-adv-y="1000"  />

      
      <glyph glyph-name="uni52" unicode="&#x52;" d="M396 286L556 0L471 0L321 276L160 276L112 0L40 0L162 695L381 695Q493 695 552 647Q611 599 611 511Q611 418 554 359Q497 300 396 286M172 343L340 343Q422 343 478 382Q534 421 534 505Q534 563 494 596Q454 629 370 629L222 629L172 343Z"  horiz-adv-x="620" vert-adv-y="1000"  />

      
      <glyph glyph-name="uni53" unicode="&#x53;" d="M549 604Q462 638 357 638Q267 638 222 602.50Q177 567 177 508Q177 460 210 433.50Q243 407 339 375Q435 343 475 303Q515 263 515 195Q515 104 447 46Q379-12 244-12Q174-12 115 2Q56 16 22 34L33 107Q69 86 125.50 71Q182 56 245 56Q336 56 387 89.50Q438 123 438 189Q438 237 406 264.50Q374 292 276.50 323Q179 354 140 395Q101 436 101 504Q101 596 171 651.50Q241 707 362 707Q424 707 477 697Q530 687 562 675L549 604Z"  horiz-adv-x="572" vert-adv-y="1000"  />

      
      <glyph glyph-name="uni54" unicode="&#x54;" d="M378 628L268 0L197 0L306 628L73 628L85 695L624 695L611 628L378 628Z"  horiz-adv-x="547" vert-adv-y="1000"  />

      
      <glyph glyph-name="uni55" unicode="&#x55;" d="M76 184Q76 212 79 237Q82 262 92 318L158 695L229 695L161 305Q149 240 149 194Q149 56 339 56Q430 56 519 82L628 695L699 695L581 30Q521 11 462.50-0.50Q404-12 331-12Q76-12 76 184Z"  horiz-adv-x="700" vert-adv-y="1000"  />

      
      <glyph glyph-name="uni56" unicode="&#x56;" d="M239-5L86 695L159 695L286 93L288 93L638 695L720 695L309-5L239-5Z"  horiz-adv-x="645" vert-adv-y="1000"  />

      
      <glyph glyph-name="uni57" unicode="&#x57;" d="M638-5L577 428L570 481Q563 535 558 582L556 582Q532 531 476 426L249-5L188-5L100 695L171 695L228 212Q235 156 237 109L239 109Q267 166 294 217L549 695L606 695L677 191Q685 127 686 103L688 103Q704 138 740 212L980 695L1059 695L704-5L638-5Z"  horiz-adv-x="997" vert-adv-y="1000"  />

      
      <glyph glyph-name="uni58" unicode="&#x58;" d="M561 0L477 0L315 290L60 0L-35 0L276 351L90 695L174 695L330 397L591 695L686 695L370 340L561 0Z"  horiz-adv-x="612" vert-adv-y="1000"  />

      
      <glyph glyph-name="uni59" unicode="&#x59;" d="M272 0L201 0L246 259L64 695L142 695L289 332L570 695L658 695L318 260L272 0Z"  horiz-adv-x="560" vert-adv-y="1000"  />

      
      <glyph glyph-name="uni5a" unicode="&#x5a;" d="M101 67L571 67L560 0L-14 0L-5 56L548 628L120 628L133 695L668 695L658 640L101 67Z"  horiz-adv-x="625" vert-adv-y="1000"  />

      
      <glyph glyph-name="uni5b" unicode="&#x5b;" d="M201 714L57-104L190-104L180-160L-15-160L149 770L344 770L334 714L201 714Z"  horiz-adv-x="297" vert-adv-y="1000"  />

      
      <glyph glyph-name="uni5c" unicode="&#x5c;" d="M269-49L68 750L129 750L330-49L269-49Z"  horiz-adv-x="360" vert-adv-y="1000"  />

      
      <glyph glyph-name="uni5d" unicode="&#x5d;" d="M120-104L264 714L131 714L141 770L336 770L172-160L-23-160L-13-104L120-104Z"  horiz-adv-x="297" vert-adv-y="1000"  />

      
      <glyph glyph-name="uni5e" unicode="&#x5e;" d="M464 300L279 628L277 628L92 300L19 300L249 706L306 706L537 300L464 300Z"  horiz-adv-x="556" vert-adv-y="1000"  />

      
      <glyph glyph-name="uni5f" unicode="&#x5f;" d="M-86-180L-79-143L445-143L438-180L-86-180Z"  horiz-adv-x="500" vert-adv-y="1000"  />

      
      <glyph glyph-name="uni60" unicode="&#x60;" d="M192 559L94 711L165 711L251 559L192 559Z"  horiz-adv-x="204" vert-adv-y="1000"  />

      
      <glyph glyph-name="uni61" unicode="&#x61;" d="M443 249L403 22Q306-13 213-13Q118-13 74 26Q30 65 30 131Q30 207 85 247.50Q140 288 250 288Q292 288 333.50 282.50Q375 277 379 276Q386 318 386 330Q386 375 358 400.50Q330 426 270 426Q227 426 189 417Q151 408 113 393L125 459Q156 471 197.50 480Q239 489 284 489Q365 489 409 451Q453 413 453 341Q453 307 443 249M222 47Q254 47 281.50 52Q309 57 344 66L371 223L328 229Q293 233 247 233Q99 233 99 136Q99 92 130.50 69.50Q162 47 222 47Z"  horiz-adv-x="510" vert-adv-y="1000"  />

      
      <glyph glyph-name="uni62" unicode="&#x62;" d="M523 275Q523 191 486.50 122.50Q450 54 386.50 20Q323-14 233-14Q173-14 121.50-0.50Q70 13 37 32L163 738L232 738L182 456Q242 489 316 489Q415 489 469 432.50Q523 376 523 275M114 78Q135 67 167 59Q199 51 236 51Q339 51 394.50 114Q450 177 450 271Q450 345 410 384.50Q370 424 300 424Q229 424 169 388L114 78Z"  horiz-adv-x="563" vert-adv-y="1000"  />

      
      <glyph glyph-name="uni63" unicode="&#x63;" d="M456 390Q399 425 317 425Q227 425 171 366.50Q115 308 115 213Q115 135 161 92.50Q207 50 274 50Q350 50 414 81L403 13Q341-14 260-14Q165-14 103.50 46Q42 106 42 211Q42 337 122.50 413Q203 489 325 489Q408 489 468 458L456 390Z"  horiz-adv-x="473" vert-adv-y="1000"  />

      
      <glyph glyph-name="uni64" unicode="&#x64;" d="M41 204Q41 323 117 406Q193 489 331 489Q368 489 403 482.50Q438 476 463 466L511 738L580 738L453 28Q362-14 273-14Q160-14 100.50 43.50Q41 101 41 204M280 51Q309 51 340 57.50Q371 64 393 73L450 397Q429 408 397 416Q365 424 329 424Q228 424 171 366Q114 308 114 207Q114 132 156 91.50Q198 51 280 51Z"  horiz-adv-x="565" vert-adv-y="1000"  />

      
      <glyph glyph-name="uni65" unicode="&#x65;" d="M477 220L118 220Q118 213 117 198Q117 131 157 90Q197 49 277 49Q355 49 431 86L419 17Q384 2 348-6Q312-14 265-14Q155-14 99 46Q43 106 43 209Q43 332 113 410.50Q183 489 299 489Q388 489 440 442Q492 395 492 312Q492 286 487.50 261Q483 236 477 220M417 275Q422 292 422 312Q422 366 390 397.50Q358 429 296 429Q228 429 183.50 386.50Q139 344 125 275L417 275Z"  horiz-adv-x="516" vert-adv-y="1000"  />

      
      <glyph glyph-name="uni66" unicode="&#x66;" d="M431 675Q399 685 356 685Q301 685 269.50 653.50Q238 622 227 560L212 477L361 477L351 416L202 416L129 0L60 0L133 416L57 416L68 477L143 477L159 565Q191 746 360 746Q400 746 441 735L431 675Z"  horiz-adv-x="305" vert-adv-y="1000"  />

      
      <glyph glyph-name="uni67" unicode="&#x67;" d="M447-6Q425-130 361-188.50Q297-247 174-247Q80-247-4-213L7-145Q38-159 84-171Q130-183 176-183Q270-183 316.50-139Q363-95 378-9L383 23Q354 7 322-3Q290-13 248-13Q150-13 95 43.50Q40 100 40 201Q40 285 77 353Q114 421 178 455Q242 489 332 489Q390 489 442 476Q494 463 527 444L447-6M263 51Q331 51 394 88L449 397Q428 408 396.50 416Q365 424 329 424Q228 424 170.50 364.50Q113 305 113 203Q113 131 153.50 91Q194 51 263 51Z"  horiz-adv-x="564" vert-adv-y="1000"  />

      
      <glyph glyph-name="uni68" unicode="&#x68;" d="M492 350Q492 319 479 248L436 0L367 0L410 246Q420 302 420 334Q420 378 391 401.50Q362 425 310 425Q241 425 169 390L100 0L32 0L162 738L230 738L180 455Q218 471 254 480Q290 489 333 489Q407 489 449.50 452.50Q492 416 492 350Z"  horiz-adv-x="547" vert-adv-y="1000"  />

      
      <glyph glyph-name="uni69" unicode="&#x69;" d="M130 591L145 671L225 671L210 591L130 591M32 0L115 477L184 477L101 0L32 0Z"  horiz-adv-x="216" vert-adv-y="1000"  />

      
      <glyph glyph-name="uni6a" unicode="&#x6a;" d="M131 591L145 671L225 671L211 591L131 591M-164-237L-154-174Q-133-181-105-181Q-51-181-19.50-145.50Q12-110 25-41L116 477L185 477L92-53Q58-244-102-244Q-138-244-164-237Z"  horiz-adv-x="216" vert-adv-y="1000"  />

      
      <glyph glyph-name="uni6b" unicode="&#x6b;" d="M147 257L410 477L510 477L232 248L422 0L334 0L146 251L144 251L100 0L32 0L162 738L230 738L145 257L147 257Z"  horiz-adv-x="483" vert-adv-y="1000"  />

      
      <glyph glyph-name="uni6c" unicode="&#x6c;" d="M32 0L162 738L230 738L100 0L32 0Z"  horiz-adv-x="216" vert-adv-y="1000"  />

      
      <glyph glyph-name="uni6d" unicode="&#x6d;" d="M782 314L727 0L659 0L711 303Q715 322 715 342Q715 383 690.50 404Q666 425 608 425Q571 425 534.50 415Q498 405 470 391Q473 381 473 359Q473 335 469 310L414 0L346 0L397 295Q402 323 402 342Q402 385 376.50 405Q351 425 291 425Q240 425 173 409L101 0L33 0L113 460Q218 489 306 489Q358 489 394 478Q430 467 448 447Q490 466 531.50 477.50Q573 489 625 489Q705 489 746 458.50Q787 428 787 362Q787 342 782 314Z"  horiz-adv-x="839" vert-adv-y="1000"  />

      
      <glyph glyph-name="uni6e" unicode="&#x6e;" d="M481 256L436 0L367 0L412 257L417 288Q421 311 421 331Q421 380 391.50 402.50Q362 425 303 425Q240 425 173 407L101 0L32 0L114 461Q228 489 310 489Q405 489 448.50 453.50Q492 418 492 349Q492 322 481 256Z"  horiz-adv-x="547" vert-adv-y="1000"  />

      
      <glyph glyph-name="uni6f" unicode="&#x6f;" d="M266-14Q167-14 105 45Q43 104 43 214Q43 336 114.50 412.50Q186 489 309 489Q415 489 473 427.50Q531 366 531 270Q531 144 463 65Q395-14 266-14M271 51Q361 51 409.50 111.50Q458 172 458 263Q458 338 416 381Q374 424 304 424Q217 424 166 367Q115 310 115 216Q115 138 157.50 94.50Q200 51 271 51Z"  horiz-adv-x="573" vert-adv-y="1000"  />

      
      <glyph glyph-name="uni70" unicode="&#x70;" d="M234-14Q196-14 161-7Q126 0 102 9L55-259L-14-259L111 447Q204 489 291 489Q405 489 464 431.50Q523 374 523 272Q523 153 446.50 69.50Q370-14 234-14M114 78Q136 67 168 59Q200 51 236 51Q337 51 393.50 109.50Q450 168 450 270Q450 344 407.50 384Q365 424 285 424Q224 424 172 402L114 78Z"  horiz-adv-x="563" vert-adv-y="1000"  />

      
      <glyph glyph-name="uni71" unicode="&#x71;" d="M400-259L331-259L381 19Q323-14 249-14Q150-14 95 43Q40 100 40 200Q40 284 77 352.50Q114 421 177.50 455Q241 489 331 489Q391 489 441.50 475.50Q492 462 525 443L400-259M261 51Q332 51 393 86L448 397Q427 408 395 416Q363 424 327 424Q227 424 169.50 364.50Q112 305 112 203Q112 130 152 90.50Q192 51 261 51Z"  horiz-adv-x="563" vert-adv-y="1000"  />

      
      <glyph glyph-name="uni72" unicode="&#x72;" d="M373 416Q328 425 284 425Q217 425 174 407L101 0L32 0L113 458Q195 489 288 489Q314 489 341.50 485.50Q369 482 384 478L373 416Z"  horiz-adv-x="351" vert-adv-y="1000"  />

      
      <glyph glyph-name="uni73" unicode="&#x73;" d="M394 405Q330 430 259 430Q195 430 166.50 407Q138 384 138 347Q138 315 164.50 298.50Q191 282 255.50 259.50Q320 237 347 208.50Q374 180 374 132Q374 66 324.50 27Q275-12 176-12Q127-12 84.50-3Q42 6 17 19L25 83Q52 68 92 57.50Q132 47 175 47Q302 47 302 127Q302 171 250 191Q198 211 163 224.50Q128 238 98 264.50Q68 291 68 344Q68 409 116 449Q164 489 261 489Q303 489 343 482.50Q383 476 405 468L394 405Z"  horiz-adv-x="437" vert-adv-y="1000"  />

      
      <glyph glyph-name="uni74" unicode="&#x74;" d="M352 477L341 416L189 416L155 225Q143 152 143 127Q143 52 208 52Q238 52 278 63L269 3Q231-9 192-9Q135-9 104.50 22.50Q74 54 74 116Q74 157 87 232L120 416L36 416L47 477L131 477L155 617L224 617L199 477L352 477Z"  horiz-adv-x="338" vert-adv-y="1000"  />

      
      <glyph glyph-name="uni75" unicode="&#x75;" d="M57 130Q57 161 67 221L112 477L181 477L137 225Q128 174 128 145Q128 52 250 52Q284 52 318.50 57.50Q353 63 374 70L447 477L516 477L434 17Q335-12 242-12Q150-12 103.50 24.50Q57 61 57 130Z"  horiz-adv-x="548" vert-adv-y="1000"  />

      
      <glyph glyph-name="uni76" unicode="&#x76;" d="M146 0L38 477L110 477L170 200Q187 122 194 79L195 79L222 127Q245 167 265 200L431 477L510 477L219 0L146 0Z"  horiz-adv-x="463" vert-adv-y="1000"  />

      
      <glyph glyph-name="uni77" unicode="&#x77;" d="M485 0L429 284L424 313Q414 367 413 387L410 387Q394 349 356 283L199 0L133 0L56 477L124 477L173 159Q179 124 181 85L184 85Q202 126 230 176L398 477L458 477L517 159Q524 123 528 86L530 86Q547 125 565 159L737 477L813 477L550 0L485 0Z"  horiz-adv-x="784" vert-adv-y="1000"  />

      
      <glyph glyph-name="uni78" unicode="&#x78;" d="M430 0L346 0L227 191L49 0L-42 0L191 243L46 477L128 477L241 290L414 477L505 477L277 239L430 0Z"  horiz-adv-x="468" vert-adv-y="1000"  />

      
      <glyph glyph-name="uni79" unicode="&#x79;" d="M-4-235L141 5L32 477L104 477L163 209Q183 115 188 77L190 77Q224 141 265 207L425 477L505 477L73-235L-4-235Z"  horiz-adv-x="453" vert-adv-y="1000"  />

      
      <glyph glyph-name="uni7a" unicode="&#x7a;" d="M89 62L400 62L390 0L-18 0L-10 51L356 415L67 415L78 477L462 477L454 426L89 62Z"  horiz-adv-x="451" vert-adv-y="1000"  />

      
      <glyph glyph-name="uni7b" unicode="&#x7b;" d="M208 426Q198 369 170.50 340Q143 311 105 304L105 302Q131 294 148.50 270Q166 246 166 204Q166 188 163 167L133-7Q130-24 130-37Q130-71 152-87.50Q174-104 223-104L212-160Q140-160 104-132.50Q68-105 68-44Q68-24 73 6L103 178Q106 193 106 206Q106 240 86.50 259.50Q67 279 28 280L38 335Q131 338 148 431L183 624Q198 705 242.50 737.50Q287 770 376 770L367 714Q306 714 279 690Q252 666 242 610L208 426Z"  horiz-adv-x="307" vert-adv-y="1000"  />

      
      <glyph glyph-name="uni7c" unicode="&#x7c;" d="M108-250L108 750L164 750L164-250L108-250Z"  horiz-adv-x="273" vert-adv-y="1000"  />

      
      <glyph glyph-name="uni7d" unicode="&#x7d;" d="M122 184Q132 241 159.50 270Q187 299 225 307L225 309Q199 317 181.50 340.50Q164 364 164 406Q164 422 167 443L198 617Q201 632 201 646Q201 681 179 697.50Q157 714 108 714L118 770Q190 770 226 742.50Q262 715 262 654Q262 635 257 605L227 432Q225 423 225 405Q225 334 302 331L292 275Q199 272 183 179L148-14Q133-95 88-127.50Q43-160-46-160L-37-104Q24-104 51.50-80Q79-56 89 0L122 184Z"  horiz-adv-x="306" vert-adv-y="1000"  />

      
      <glyph glyph-name="uni7e" unicode="&#x7e;" d="M385 300Q414 300 439.50 318Q465 336 484 367L532 332Q505 289 467 264Q429 239 381 239Q343 239 310.50 253.50Q278 268 245 288.50Q212 309 170 309Q115 309 72 242L24 278Q56 323 92.50 346.50Q129 370 174 370Q205 370 236 360Q267 350 304.50 325Q342 300 385 300Z"  horiz-adv-x="556" vert-adv-y="1000"  />

      
      <glyph glyph-name="unia1" unicode="&#xa1;" d="M211 477L196 387L107 387L122 477L211 477M161 281L77-219L7-219L100 281L161 281Z"  horiz-adv-x="250" vert-adv-y="1000"  />

      
      <glyph glyph-name="unia2" unicode="&#xa2;" d="M508 504Q460 532 395 537L329 163Q371 163 406.50 173Q442 183 466 194L455 127Q398 101 318 100L298-14L248-14L269 103Q192 115 142.50 172Q93 229 93 325Q93 446 166.50 521Q240 596 356 602L376 714L426 714L406 601Q466 598 520 572L508 504M280 168L345 538Q263 531 213 473.50Q163 416 163 327Q163 261 196 220Q229 179 280 168Z"  horiz-adv-x="566" vert-adv-y="1000"  />

      
      <glyph glyph-name="unia3" unicode="&#xa3;" d="M587 622Q564 631 528.50 638Q493 645 456 645Q373 645 330.50 600.50Q288 556 272 467L255 373L468 373L457 314L245 314L230 220Q220 163 194 123Q168 83 133 64L486 64L475 0L-1 0L10 64Q75 75 109 116Q143 157 156 228L172 314L66 314L76 373L182 373L201 479Q222 593 281 652.50Q340 712 455 712Q532 712 598 690L587 622Z"  horiz-adv-x="557" vert-adv-y="1000"  />

      
      <glyph glyph-name="unia4" unicode="&#xa4;" d="M462 441Q502 386 502 315Q502 245 460 187L534 113L488 67L414 141Q356 100 288 100Q217 100 162 142L87 67L39 113L116 189Q74 246 74 315Q74 388 114 440L39 515L87 560L160 486Q222 530 288 530Q321 530 353.50 518.50Q386 507 414 486L488 560L534 515L462 441M288 162Q353 162 395.50 207Q438 252 438 316Q438 380 394 423.50Q350 467 288 467Q223 467 180.50 423.50Q138 380 138 316Q138 252 180.50 207Q223 162 288 162Z"  horiz-adv-x="556" vert-adv-y="1000"  />

      
      <glyph glyph-name="unia5" unicode="&#xa5;" d="M332 350L503 350L493 293L322 293L302 184L473 184L463 127L292 127L270 0L201 0L223 127L48 127L58 184L233 184L252 293L77 293L87 350L262 350L263 352L103 695L180 695L304 417L526 695L615 695L332 352L332 350Z"  horiz-adv-x="556" vert-adv-y="1000"  />

      
      <glyph glyph-name="unia6" unicode="&#xa6;" d="M108 338L108 750L164 750L164 338L108 338M108-250L108 162L164 162L164-250L108-250Z"  horiz-adv-x="273" vert-adv-y="1000"  />

      
      <glyph glyph-name="unia7" unicode="&#xa7;" d="M450 618Q419 636 392.50 645Q366 654 328 654Q278 654 248.50 628Q219 602 219 557Q219 522 238 500.50Q257 479 307.50 447.50Q358 416 382.50 385Q407 354 407 302Q407 255 379.50 219.50Q352 184 305 160Q347 116 347 59Q347-10 301.50-54.50Q256-99 173-99Q128-99 97-90.50Q66-82 41-69L51-5Q81-22 107.50-31.50Q134-41 173-41Q223-41 252.50-15.50Q282 10 282 55Q282 91 261.50 113Q241 135 193 163Q145 191 120 224Q95 257 95 309Q95 359 121.50 394Q148 429 195 449Q153 491 153 551Q153 622 200 667Q247 712 330 712Q404 712 460 682L450 618M259 198Q293 207 317 235Q341 263 341 296Q341 335 318 360Q295 385 242 413Q206 402 183 377Q160 352 160 315Q160 285 173.50 264.50Q187 244 203.50 232.50Q220 221 259 198Z"  horiz-adv-x="485" vert-adv-y="1000"  />

      
      <glyph glyph-name="unia8" unicode="&#xa8;" d="M101 587L114 659L185 659L172 587L101 587M250 587L263 659L334 659L321 587L250 587Z"  horiz-adv-x="295" vert-adv-y="1000"  />

      
      <glyph glyph-name="unia9" unicode="&#xa9;" d="M420-15Q321-15 237 33.50Q153 82 104 165Q55 248 55 347Q55 497 163 603.50Q271 710 420 710Q519 710 603 661Q687 612 735.50 528.50Q784 445 784 347Q784 197 677 91Q570-15 420-15M420 37Q549 37 640 128Q731 219 731 347Q731 475 639.50 566.50Q548 658 420 658Q292 658 201 567Q110 476 110 347Q110 219 201 128Q292 37 420 37M558 488Q498 512 444 512Q366 512 323.50 467.50Q281 423 281 351Q281 274 324.50 231Q368 188 440 188Q478 188 505.50 195.50Q533 203 560 216L560 163Q537 150 508.50 142.50Q480 135 435 135Q340 135 281 193.50Q222 252 222 348Q222 445 281.50 503.50Q341 562 443 562Q510 562 558 541L558 488Z"  horiz-adv-x="808" vert-adv-y="1000"  />

      
      <glyph glyph-name="uniaa" unicode="&#xaa;" d="M366 562L338 408Q270 387 207 387Q148 387 118 411Q88 435 88 481Q88 531 124.50 558.50Q161 586 239 586Q272 586 312 581Q316 600 316 618Q316 645 296.50 656.50Q277 668 242 668Q216 668 194 663Q172 658 142 648L152 698Q212 718 261 718Q318 718 345.50 694.50Q373 671 373 627Q373 601 366 562M217 433Q252 433 288 442L305 538Q271 544 236 544Q145 544 145 485Q145 462 162.50 447.50Q180 433 217 433Z"  horiz-adv-x="368" vert-adv-y="1000"  />

      
      <glyph glyph-name="uniab" unicode="&#xab;" d="M198 55L132 55L35 239L191 413L269 413L103 232L198 55M374 55L308 55L211 239L367 413L445 413L279 232L374 55Z"  horiz-adv-x="458" vert-adv-y="1000"  />

      
      <glyph glyph-name="uniac" unicode="&#xac;" d="M450 114L450 302L43 302L43 366L514 366L514 114L450 114Z"  horiz-adv-x="556" vert-adv-y="1000"  />

      
      <glyph glyph-name="uniad" unicode="&#xad;" d="M45 227L56 292L362 292L351 227L45 227Z"  horiz-adv-x="399" vert-adv-y="1000"  />

      
      <glyph glyph-name="uniae" unicode="&#xae;" d="M308 257Q214 257 147 323.50Q80 390 80 484Q80 578 147.50 645Q215 712 308 712Q400 712 467.50 644.50Q535 577 535 484Q535 390 468.50 323.50Q402 257 308 257M308 300Q383 300 437.50 354.50Q492 409 492 484Q492 559 437.50 613.50Q383 668 308 668Q232 668 177.50 613.50Q123 559 123 484Q123 409 177.50 354.50Q232 300 308 300M348 457L415 360L362 360L306 449L266 449L266 360L223 360L223 611L310 611Q358 611 382.50 591Q407 571 407 533Q407 506 391.50 486Q376 466 348 457M266 485L310 485Q333 485 347.50 496.50Q362 508 362 529Q362 550 349 561.50Q336 573 312 573L266 573L266 485Z"  horiz-adv-x="533" vert-adv-y="1000"  />

      
      <glyph glyph-name="uniaf" unicode="&#xaf;" d="M86 599L95 651L329 651L320 599L86 599Z"  horiz-adv-x="279" vert-adv-y="1000"  />

      
      <glyph glyph-name="unib0" unicode="&#xb0;" d="M270 433Q207 433 164.50 475Q122 517 122 578Q122 638 164 680.50Q206 723 269 723Q330 723 372 681Q414 639 414 578Q414 517 372.50 475Q331 433 270 433M269 480Q309 480 336.50 508.50Q364 537 364 578Q364 619 337 647.50Q310 676 270 676Q229 676 200.50 647.50Q172 619 172 578Q172 537 200 508.50Q228 480 269 480Z"  horiz-adv-x="417" vert-adv-y="1000"  />

      
      <glyph glyph-name="unib1" unicode="&#xb1;" d="M514 419L514 355L310 355L310 151L246 151L246 355L43 355L43 419L246 419L246 622L310 622L310 419L514 419M43 0L43 64L514 64L514 0L43 0Z"  horiz-adv-x="556" vert-adv-y="1000"  />

      
      <glyph glyph-name="unib2" unicode="&#xb2;" d="M278 484L156 387L376 387L366 331L68 331L78 389L238 517Q302 569 328 600.50Q354 632 354 669Q354 703 333.50 722Q313 741 271 741Q216 741 146 698L157 762Q219 795 286 795Q350 795 383 764.50Q416 734 416 679Q416 632 391 591.50Q366 551 278 484Z"  horiz-adv-x="404" vert-adv-y="1000"  />

      
      <glyph glyph-name="unib3" unicode="&#xb3;" d="M293 557L293 556Q329 547 352 522.50Q375 498 375 457Q375 397 330.50 357.50Q286 318 195 318Q156 318 121 326Q86 334 67 345L77 400Q94 389 126.50 380Q159 371 194 371Q255 371 282.50 394.50Q310 418 310 456Q310 530 198 530L153 530L163 587L214 587Q276 587 307.50 608.50Q339 630 339 670Q339 703 317 722Q295 741 254 741Q222 741 192.50 733.50Q163 726 142 715L151 774Q205 796 269 796Q337 796 370.50 763.50Q404 731 404 683Q404 633 374.50 600Q345 567 293 557Z"  horiz-adv-x="408" vert-adv-y="1000"  />

      
      <glyph glyph-name="unib4" unicode="&#xb4;" d="M67 559L209 711L290 711L130 559L67 559Z"  horiz-adv-x="217" vert-adv-y="1000"  />

      
      <glyph glyph-name="unib5" unicode="&#xb5;" d="M110 43L57-251L-12-251L116 477L185 477L142 225Q132 167 132 145Q132 97 163 74.50Q194 52 256 52Q290 52 323.50 57.50Q357 63 379 70L452 477L520 477L438 17Q341-12 253-12Q204-12 163.50 1.50Q123 15 110 43Z"  horiz-adv-x="554" vert-adv-y="1000"  />

      
      <glyph glyph-name="unib6" unicode="&#xb6;" d="M333-63L457 644L355 644L230-63L178-63L250 349Q176 349 132.50 387Q89 425 89 487Q89 529 111.50 578.50Q134 628 189.50 661.50Q245 695 320 695L519 695L385-63L333-63Z"  horiz-adv-x="555" vert-adv-y="1000"  />

      
      <glyph glyph-name="unib7" unicode="&#xb7;" d="M80 271L95 361L184 361L169 271L80 271Z"  horiz-adv-x="237" vert-adv-y="1000"  />

      
      <glyph glyph-name="unib8" unicode="&#xb8;" d="M43-223Q2-223-41-210L-33-166Q10-181 48-181Q85-181 103.50-167Q122-153 122-132Q122-90 65-89L29-88L80 0L117 0L86-56Q126-56 149-74.50Q172-93 172-128Q172-168 139-195.50Q106-223 43-223Z"  horiz-adv-x="278" vert-adv-y="1000"  />

      
      <glyph glyph-name="unib9" unicode="&#xb9;" d="M220 332L290 726L155 666L167 728L329 800L362 800L280 332L220 332Z"  horiz-adv-x="403" vert-adv-y="1000"  />

      
      <glyph glyph-name="uniba" unicode="&#xba;" d="M243 384Q174 384 134 425Q94 466 94 536Q94 618 142.50 668Q191 718 271 718Q338 718 378 678.50Q418 639 418 573Q418 487 370.50 435.50Q323 384 243 384M247 435Q299 435 329.50 471Q360 507 360 567Q360 614 335.50 641Q311 668 267 668Q214 668 182.50 633Q151 598 151 538Q151 490 176 462.50Q201 435 247 435Z"  horiz-adv-x="400" vert-adv-y="1000"  />

      
      <glyph glyph-name="unibb" unicode="&#xbb;" d="M83 413L149 413L246 230L90 55L13 55L178 237L83 413M259 413L325 413L422 230L266 55L189 55L354 237L259 413Z"  horiz-adv-x="458" vert-adv-y="1000"  />

      
      <glyph glyph-name="unibc" unicode="&#xbc;" d="M217 232L287 626L152 566L164 628L326 700L359 700L277 232L217 232M144 0L774 695L843 695L213 0L144 0M880 155L870 103L798 103L780 0L723 0L741 103L523 103L533 160L799 459L861 459L808 155L880 155M595 155L750 155L790 377L788 377L771 355Q758 339 749 329L595 155Z"  horiz-adv-x="919" vert-adv-y="1000"  />

      
      <glyph glyph-name="unibd" unicode="&#xbd;" d="M217 232L287 626L152 566L164 628L326 700L359 700L277 232L217 232M143 0L773 695L842 695L212 0L143 0M787 154L665 57L885 57L875 1L577 1L587 59L747 187Q811 239 837 270.50Q863 302 863 339Q863 373 842.50 392Q822 411 780 411Q725 411 655 368L666 432Q728 465 795 465Q859 465 892 434.50Q925 404 925 349Q925 302 900 261.50Q875 221 787 154Z"  horiz-adv-x="971" vert-adv-y="1000"  />

      
      <glyph glyph-name="unibe" unicode="&#xbe;" d="M278 457L278 456Q314 447 337 422.50Q360 398 360 357Q360 297 315.50 257.50Q271 218 180 218Q141 218 106 226Q71 234 52 245L62 300Q79 289 111.50 280Q144 271 179 271Q240 271 267.50 294.50Q295 318 295 356Q295 430 183 430L138 430L148 487L199 487Q261 487 292.50 508.50Q324 530 324 570Q324 603 302 622Q280 641 239 641Q207 641 177.50 633.50Q148 626 127 615L136 674Q190 696 254 696Q322 696 355.50 663.50Q389 631 389 583Q389 533 359.50 500Q330 467 278 457M155 0L785 695L854 695L224 0L155 0M891 155L881 103L809 103L791 0L734 0L752 103L534 103L544 160L810 459L872 459L819 155L891 155M606 155L761 155L801 377L799 377L782 355Q769 339 760 329L606 155Z"  horiz-adv-x="930" vert-adv-y="1000"  />

      
      <glyph glyph-name="unibf" unicode="&#xbf;" d="M340 477L325 387L235 387L250 477L340 477M215 204L229 281L294 281L272 165Q161 118 109.50 66Q58 14 58-58Q58-107 90.50-137.50Q123-168 186-168Q229-168 263-158Q297-148 338-131L326-197Q250-230 171-230Q79-230 32.50-183.50Q-14-137-14-65Q-14 20 41.50 85.50Q97 151 215 204Z"  horiz-adv-x="454" vert-adv-y="1000"  />

      
      <glyph glyph-name="unic0" unicode="&#xc0;" d="M544 0L492 210L165 210L39 0L-43 0L379 695L446 695L619 0L544 0M202 275L477 275L399 603L397 603L202 275M422 757L327 887L406 887L482 757L422 757Z"  horiz-adv-x="660" vert-adv-y="1000"  />

      
      <glyph glyph-name="unic1" unicode="&#xc1;" d="M544 0L492 210L165 210L39 0L-43 0L379 695L446 695L619 0L544 0M202 275L477 275L399 603L397 603L202 275M347 757L470 887L552 887L409 757L347 757Z"  horiz-adv-x="660" vert-adv-y="1000"  />

      
      <glyph glyph-name="unic2" unicode="&#xc2;" d="M544 0L492 210L165 210L39 0L-43 0L379 695L446 695L619 0L544 0M202 275L477 275L399 603L397 603L202 275M509 759L440 849L340 759L270 759L427 904L462 904L570 759L509 759Z"  horiz-adv-x="660" vert-adv-y="1000"  />

      
      <glyph glyph-name="unic3" unicode="&#xc3;" d="M544 0L492 210L165 210L39 0L-43 0L379 695L446 695L619 0L544 0M202 275L477 275L399 603L397 603L202 275M495 805Q514 805 528.50 821.50Q543 838 551 864L600 864Q586 816 558.50 786.50Q531 757 494 757Q455 757 422.50 787.50Q390 818 364 818Q324 818 309 760L262 760Q272 810 299 838.50Q326 867 367 867Q407 867 439 836Q471 805 495 805Z"  horiz-adv-x="660" vert-adv-y="1000"  />

      
      <glyph glyph-name="unic4" unicode="&#xc4;" d="M544 0L492 210L165 210L39 0L-43 0L379 695L446 695L619 0L544 0M202 275L477 275L399 603L397 603L202 275M313 765L326 837L397 837L384 765L313 765M462 765L475 837L546 837L533 765L462 765Z"  horiz-adv-x="660" vert-adv-y="1000"  />

      
      <glyph glyph-name="unic5" unicode="&#xc5;" d="M544 0L492 210L165 210L39 0L-43 0L379 695L446 695L619 0L544 0M202 275L477 275L399 603L397 603L202 275M428 739Q384 739 352 770.50Q320 802 320 847Q320 893 352 924.50Q384 956 428 956Q473 956 505 924.50Q537 893 537 847Q537 802 505 770.50Q473 739 428 739M428 780Q457 780 476.50 800Q496 820 496 847Q496 876 476.50 895Q457 914 428 914Q400 914 380.50 895Q361 876 361 847Q361 820 381 800Q401 780 428 780Z"  horiz-adv-x="660" vert-adv-y="1000"  />

      
      <glyph glyph-name="unic6" unicode="&#xc6;" d="M604 627L562 387L883 387L871 319L550 319L506 68L875 68L863 0L423 0L459 210L207 210L44 0L-44 0L500 695L969 695L957 627L604 627M255 275L471 275L532 628L528 628L255 275Z"  horiz-adv-x="944" vert-adv-y="1000"  />

      
      <glyph glyph-name="unic7" unicode="&#xc7;" d="M401 58Q463 58 510.50 71.50Q558 85 606 109L594 31Q497-12 385-12L361-56Q401-56 424-74.50Q447-93 447-128Q447-168 414-195.50Q381-223 318-223Q277-223 234-210L242-166Q285-181 323-181Q360-181 378.50-167Q397-153 397-132Q397-90 340-89L304-88L349-11Q219 0 145.50 86.50Q72 173 72 312Q72 489 175.50 598Q279 707 451 707Q583 707 680 661L667 588Q572 637 451 637Q314 637 231.50 549Q149 461 149 314Q149 194 217 126Q285 58 401 58Z"  horiz-adv-x="667" vert-adv-y="1000"  />

      
      <glyph glyph-name="unic8" unicode="&#xc8;" d="M222 627L180 387L501 387L489 319L168 319L123 68L493 68L481 0L40 0L162 695L587 695L575 627L222 627M386 757L291 887L370 887L446 757L386 757Z"  horiz-adv-x="562" vert-adv-y="1000"  />

      
      <glyph glyph-name="unic9" unicode="&#xc9;" d="M222 627L180 387L501 387L489 319L168 319L123 68L493 68L481 0L40 0L162 695L587 695L575 627L222 627M311 757L434 887L516 887L373 757L311 757Z"  horiz-adv-x="562" vert-adv-y="1000"  />

      
      <glyph glyph-name="unica" unicode="&#xca;" d="M222 627L180 387L501 387L489 319L168 319L123 68L493 68L481 0L40 0L162 695L587 695L575 627L222 627M473 759L404 849L304 759L234 759L391 904L426 904L534 759L473 759Z"  horiz-adv-x="562" vert-adv-y="1000"  />

      
      <glyph glyph-name="unicb" unicode="&#xcb;" d="M222 627L180 387L501 387L489 319L168 319L123 68L493 68L481 0L40 0L162 695L587 695L575 627L222 627M277 765L290 837L361 837L348 765L277 765M426 765L439 837L510 837L497 765L426 765Z"  horiz-adv-x="562" vert-adv-y="1000"  />

      
      <glyph glyph-name="unicc" unicode="&#xcc;" d="M40 0L162 695L234 695L112 0L40 0M208 757L113 887L192 887L268 757L208 757Z"  horiz-adv-x="235" vert-adv-y="1000"  />

      
      <glyph glyph-name="unicd" unicode="&#xcd;" d="M40 0L162 695L234 695L112 0L40 0M134 757L257 887L339 887L196 757L134 757Z"  horiz-adv-x="235" vert-adv-y="1000"  />

      
      <glyph glyph-name="unice" unicode="&#xce;" d="M40 0L162 695L234 695L112 0L40 0M296 759L227 849L127 759L57 759L214 904L249 904L357 759L296 759Z"  horiz-adv-x="235" vert-adv-y="1000"  />

      
      <glyph glyph-name="unicf" unicode="&#xcf;" d="M40 0L162 695L234 695L112 0L40 0M99 765L112 837L183 837L170 765L99 765M248 765L261 837L332 837L319 765L248 765Z"  horiz-adv-x="235" vert-adv-y="1000"  />

      
      <glyph glyph-name="unid0" unicode="&#xd0;" d="M32 379L110 379L166 695L357 695Q520 695 609.50 617Q699 539 699 392Q699 217 593.50 108.50Q488 0 296 0L44 0L99 313L17 313L32 379M128 68L300 68Q453 68 536.50 154.50Q620 241 620 390Q620 510 547 568.50Q474 627 351 627L226 627L182 379L378 379L366 313L171 313L128 68Z"  horiz-adv-x="731" vert-adv-y="1000"  />

      
      <glyph glyph-name="unid1" unicode="&#xd1;" d="M571 0L209 566L207 566Q192 467 180 403L110 0L40 0L162 695L213 695L573 127L577 127Q585 184 597 249L675 695L745 695L623 0L571 0M538 805Q557 805 571.50 821.50Q586 838 594 864L643 864Q629 816 601.50 786.50Q574 757 537 757Q498 757 465.50 787.50Q433 818 407 818Q367 818 352 760L305 760Q315 810 342 838.50Q369 867 410 867Q450 867 482 836Q514 805 538 805Z"  horiz-adv-x="746" vert-adv-y="1000"  />

      
      <glyph glyph-name="unid2" unicode="&#xd2;" d="M386-12Q245-12 158 73Q71 158 71 308Q71 417 113.50 507.50Q156 598 242 652.50Q328 707 452 707Q601 707 685 622.50Q769 538 769 394Q769 285 726.50 192.50Q684 100 597.50 44Q511-12 386-12M393 58Q532 58 612.50 151Q693 244 693 386Q693 503 628 570Q563 637 447 637Q307 637 227 546Q147 455 147 314Q147 193 214.50 125.50Q282 58 393 58M464 757L369 887L448 887L524 757L464 757Z"  horiz-adv-x="800" vert-adv-y="1000"  />

      
      <glyph glyph-name="unid3" unicode="&#xd3;" d="M386-12Q245-12 158 73Q71 158 71 308Q71 417 113.50 507.50Q156 598 242 652.50Q328 707 452 707Q601 707 685 622.50Q769 538 769 394Q769 285 726.50 192.50Q684 100 597.50 44Q511-12 386-12M393 58Q532 58 612.50 151Q693 244 693 386Q693 503 628 570Q563 637 447 637Q307 637 227 546Q147 455 147 314Q147 193 214.50 125.50Q282 58 393 58M389 757L512 887L594 887L451 757L389 757Z"  horiz-adv-x="800" vert-adv-y="1000"  />

      
      <glyph glyph-name="unid4" unicode="&#xd4;" d="M386-12Q245-12 158 73Q71 158 71 308Q71 417 113.50 507.50Q156 598 242 652.50Q328 707 452 707Q601 707 685 622.50Q769 538 769 394Q769 285 726.50 192.50Q684 100 597.50 44Q511-12 386-12M393 58Q532 58 612.50 151Q693 244 693 386Q693 503 628 570Q563 637 447 637Q307 637 227 546Q147 455 147 314Q147 193 214.50 125.50Q282 58 393 58M551 759L482 849L382 759L312 759L469 904L504 904L612 759L551 759Z"  horiz-adv-x="800" vert-adv-y="1000"  />

      
      <glyph glyph-name="unid5" unicode="&#xd5;" d="M386-12Q245-12 158 73Q71 158 71 308Q71 417 113.50 507.50Q156 598 242 652.50Q328 707 452 707Q601 707 685 622.50Q769 538 769 394Q769 285 726.50 192.50Q684 100 597.50 44Q511-12 386-12M393 58Q532 58 612.50 151Q693 244 693 386Q693 503 628 570Q563 637 447 637Q307 637 227 546Q147 455 147 314Q147 193 214.50 125.50Q282 58 393 58M537 805Q556 805 570.50 821.50Q585 838 593 864L642 864Q628 816 600.50 786.50Q573 757 536 757Q497 757 464.50 787.50Q432 818 406 818Q366 818 351 760L304 760Q314 810 341 838.50Q368 867 409 867Q449 867 481 836Q513 805 537 805Z"  horiz-adv-x="800" vert-adv-y="1000"  />

      
      <glyph glyph-name="unid6" unicode="&#xd6;" d="M386-12Q245-12 158 73Q71 158 71 308Q71 417 113.50 507.50Q156 598 242 652.50Q328 707 452 707Q601 707 685 622.50Q769 538 769 394Q769 285 726.50 192.50Q684 100 597.50 44Q511-12 386-12M393 58Q532 58 612.50 151Q693 244 693 386Q693 503 628 570Q563 637 447 637Q307 637 227 546Q147 455 147 314Q147 193 214.50 125.50Q282 58 393 58M355 765L368 837L439 837L426 765L355 765M504 765L517 837L588 837L575 765L504 765Z"  horiz-adv-x="800" vert-adv-y="1000"  />

      
      <glyph glyph-name="unid7" unicode="&#xd7;" d="M323 303L490 136L445 91L278 258L111 91L66 136L233 303L66 470L111 515L278 348L445 515L490 470L323 303Z"  horiz-adv-x="556" vert-adv-y="1000"  />

      
      <glyph glyph-name="unid8" unicode="&#xd8;" d="M697 609Q769 526 769 394Q769 285 726.50 192.50Q684 100 597.50 44Q511-12 386-12Q265-12 185 49L74-73L31-37L144 87Q71 171 71 308Q71 417 113.50 507.50Q156 598 242 652.50Q328 707 452 707Q574 707 656 647L775 777L818 741L697 609M198 146L604 590Q540 637 447 637Q307 637 227 546Q147 455 147 314Q147 210 198 146M693 386Q693 486 643 550L237 105Q301 58 393 58Q532 58 612.50 151Q693 244 693 386Z"  horiz-adv-x="802" vert-adv-y="1000"  />

      
      <glyph glyph-name="unid9" unicode="&#xd9;" d="M76 184Q76 212 79 237Q82 262 92 318L158 695L229 695L161 305Q149 240 149 194Q149 56 339 56Q430 56 519 82L628 695L699 695L581 30Q521 11 462.50-0.50Q404-12 331-12Q76-12 76 184M430 757L335 887L414 887L490 757L430 757Z"  horiz-adv-x="700" vert-adv-y="1000"  />

      
      <glyph glyph-name="unida" unicode="&#xda;" d="M76 184Q76 212 79 237Q82 262 92 318L158 695L229 695L161 305Q149 240 149 194Q149 56 339 56Q430 56 519 82L628 695L699 695L581 30Q521 11 462.50-0.50Q404-12 331-12Q76-12 76 184M355 757L478 887L560 887L417 757L355 757Z"  horiz-adv-x="700" vert-adv-y="1000"  />

      
      <glyph glyph-name="unidb" unicode="&#xdb;" d="M76 184Q76 212 79 237Q82 262 92 318L158 695L229 695L161 305Q149 240 149 194Q149 56 339 56Q430 56 519 82L628 695L699 695L581 30Q521 11 462.50-0.50Q404-12 331-12Q76-12 76 184M517 759L448 849L348 759L278 759L435 904L470 904L578 759L517 759Z"  horiz-adv-x="700" vert-adv-y="1000"  />

      
      <glyph glyph-name="unidc" unicode="&#xdc;" d="M76 184Q76 212 79 237Q82 262 92 318L158 695L229 695L161 305Q149 240 149 194Q149 56 339 56Q430 56 519 82L628 695L699 695L581 30Q521 11 462.50-0.50Q404-12 331-12Q76-12 76 184M321 765L334 837L405 837L392 765L321 765M470 765L483 837L554 837L541 765L470 765Z"  horiz-adv-x="700" vert-adv-y="1000"  />

      
      <glyph glyph-name="unidd" unicode="&#xdd;" d="M272 0L201 0L246 259L64 695L142 695L289 332L570 695L658 695L318 260L272 0M285 757L408 887L490 887L347 757L285 757Z"  horiz-adv-x="560" vert-adv-y="1000"  />

      
      <glyph glyph-name="unide" unicode="&#xde;" d="M344 577Q461 577 522.50 523Q584 469 584 378Q584 264 507 195.50Q430 127 286 127L134 127L112 0L40 0L162 695L234 695L213 577L344 577M146 195L287 195Q402 195 453.50 243.50Q505 292 505 369Q505 434 464 472Q423 510 335 510L201 510L146 195Z"  horiz-adv-x="597" vert-adv-y="1000"  />

      
      <glyph glyph-name="unidf" unicode="&#xdf;" d="M335 347Q335 317 356.50 299.50Q378 282 426.50 257.50Q475 233 496 204.50Q517 176 517 135Q517 74 472.50 31.50Q428-11 338-11Q263-11 202 16L213 77Q241 64 269.50 56.50Q298 49 335 49Q388 49 416.50 70.50Q445 92 445 130Q445 158 426 176.50Q407 195 356 223Q305 251 284.50 277Q264 303 264 339Q264 389 289.50 417.50Q315 446 366.50 469Q418 492 443 516Q468 540 468 578Q468 618 440 644.50Q412 671 355 671Q275 671 238.50 625Q202 579 187 491L100 0L32 0L119 495Q139 611 195 672Q251 733 360 733Q446 733 493 691.50Q540 650 540 586Q540 526 506 488.50Q472 451 403.50 422.50Q335 394 335 347Z"  horiz-adv-x="570" vert-adv-y="1000"  />

      
      <glyph glyph-name="unie0" unicode="&#xe0;" d="M443 249L403 22Q306-13 213-13Q118-13 74 26Q30 65 30 131Q30 207 85 247.50Q140 288 250 288Q292 288 333.50 282.50Q375 277 379 276Q386 318 386 330Q386 375 358 400.50Q330 426 270 426Q227 426 189 417Q151 408 113 393L125 459Q156 471 197.50 480Q239 489 284 489Q365 489 409 451Q453 413 453 341Q453 307 443 249M222 47Q254 47 281.50 52Q309 57 344 66L371 223L328 229Q293 233 247 233Q99 233 99 136Q99 92 130.50 69.50Q162 47 222 47M305 560L207 712L278 712L364 560L305 560Z"  horiz-adv-x="510" vert-adv-y="1000"  />

      
      <glyph glyph-name="unie1" unicode="&#xe1;" d="M443 249L403 22Q306-13 213-13Q118-13 74 26Q30 65 30 131Q30 207 85 247.50Q140 288 250 288Q292 288 333.50 282.50Q375 277 379 276Q386 318 386 330Q386 375 358 400.50Q330 426 270 426Q227 426 189 417Q151 408 113 393L125 459Q156 471 197.50 480Q239 489 284 489Q365 489 409 451Q453 413 453 341Q453 307 443 249M222 47Q254 47 281.50 52Q309 57 344 66L371 223L328 229Q293 233 247 233Q99 233 99 136Q99 92 130.50 69.50Q162 47 222 47M225 560L367 712L448 712L288 560L225 560Z"  horiz-adv-x="510" vert-adv-y="1000"  />

      
      <glyph glyph-name="unie2" unicode="&#xe2;" d="M443 249L403 22Q306-13 213-13Q118-13 74 26Q30 65 30 131Q30 207 85 247.50Q140 288 250 288Q292 288 333.50 282.50Q375 277 379 276Q386 318 386 330Q386 375 358 400.50Q330 426 270 426Q227 426 189 417Q151 408 113 393L125 459Q156 471 197.50 480Q239 489 284 489Q365 489 409 451Q453 413 453 341Q453 307 443 249M222 47Q254 47 281.50 52Q309 57 344 66L371 223L328 229Q293 233 247 233Q99 233 99 136Q99 92 130.50 69.50Q162 47 222 47M398 553L331 660L226 553L161 553L317 717L357 717L459 553L398 553Z"  horiz-adv-x="510" vert-adv-y="1000"  />

      
      <glyph glyph-name="unie3" unicode="&#xe3;" d="M443 249L403 22Q306-13 213-13Q118-13 74 26Q30 65 30 131Q30 207 85 247.50Q140 288 250 288Q292 288 333.50 282.50Q375 277 379 276Q386 318 386 330Q386 375 358 400.50Q330 426 270 426Q227 426 189 417Q151 408 113 393L125 459Q156 471 197.50 480Q239 489 284 489Q365 489 409 451Q453 413 453 341Q453 307 443 249M222 47Q254 47 281.50 52Q309 57 344 66L371 223L328 229Q293 233 247 233Q99 233 99 136Q99 92 130.50 69.50Q162 47 222 47M388 625Q406 625 420.50 641.50Q435 658 444 684L493 684Q479 636 451.50 606.50Q424 577 386 577Q348 577 315.50 607.50Q283 638 257 638Q235 638 221.50 622Q208 606 201 580L154 580Q164 630 191.50 658.50Q219 687 260 687Q300 687 332 656Q364 625 388 625Z"  horiz-adv-x="510" vert-adv-y="1000"  />

      
      <glyph glyph-name="unie4" unicode="&#xe4;" d="M443 249L403 22Q306-13 213-13Q118-13 74 26Q30 65 30 131Q30 207 85 247.50Q140 288 250 288Q292 288 333.50 282.50Q375 277 379 276Q386 318 386 330Q386 375 358 400.50Q330 426 270 426Q227 426 189 417Q151 408 113 393L125 459Q156 471 197.50 480Q239 489 284 489Q365 489 409 451Q453 413 453 341Q453 307 443 249M222 47Q254 47 281.50 52Q309 57 344 66L371 223L328 229Q293 233 247 233Q99 233 99 136Q99 92 130.50 69.50Q162 47 222 47M207 588L220 660L291 660L278 588L207 588M356 588L369 660L440 660L427 588L356 588Z"  horiz-adv-x="510" vert-adv-y="1000"  />

      
      <glyph glyph-name="unie5" unicode="&#xe5;" d="M443 249L403 22Q306-13 213-13Q118-13 74 26Q30 65 30 131Q30 207 85 247.50Q140 288 250 288Q292 288 333.50 282.50Q375 277 379 276Q386 318 386 330Q386 375 358 400.50Q330 426 270 426Q227 426 189 417Q151 408 113 393L125 459Q156 471 197.50 480Q239 489 284 489Q365 489 409 451Q453 413 453 341Q453 307 443 249M222 47Q254 47 281.50 52Q309 57 344 66L371 223L328 229Q293 233 247 233Q99 233 99 136Q99 92 130.50 69.50Q162 47 222 47M325 548Q280 548 248 579.50Q216 611 216 656Q216 701 248 733Q280 765 325 765Q370 765 401.50 733.50Q433 702 433 656Q433 611 401.50 579.50Q370 548 325 548M325 589Q353 589 373 609Q393 629 393 656Q393 685 373.50 704Q354 723 325 723Q297 723 277.50 704Q258 685 258 656Q258 629 277.50 609Q297 589 325 589Z"  horiz-adv-x="510" vert-adv-y="1000"  />

      
      <glyph glyph-name="unie6" unicode="&#xe6;" d="M802 220L442 220Q442 211 441 198Q441 132 480.50 90.50Q520 49 602 49Q678 49 756 86L743 17Q706 2 671-6Q636-14 589-14Q481-14 424 49Q342-13 218-13Q120-13 75 26Q30 65 30 131Q30 207 85 247.50Q140 288 250 288Q298 288 379 276Q386 318 386 330Q386 375 358 400.50Q330 426 270 426Q227 426 189 417Q151 408 113 393L125 459Q156 471 197.50 480Q239 489 284 489Q345 489 384.50 465Q424 441 438 395Q469 440 516.50 464.50Q564 489 624 489Q712 489 764 442Q816 395 816 312Q816 286 811.50 260.50Q807 235 802 220M741 275Q746 292 746 312Q746 366 714 397.50Q682 429 620 429Q551 429 506.50 387Q462 345 449 275L741 275M229 47Q320 47 393 95Q372 139 372 195L373 223Q361 225 353 225Q301 233 249 233Q99 233 99 136Q99 47 229 47Z"  horiz-adv-x="841" vert-adv-y="1000"  />

      
      <glyph glyph-name="unie7" unicode="&#xe7;" d="M274 50Q350 50 414 81L403 13Q341-14 260-14L237-56Q277-56 300-74.50Q323-93 323-128Q323-168 290-195.50Q257-223 194-223Q153-223 110-210L118-166Q161-181 199-181Q236-181 254.50-167Q273-153 273-132Q273-90 216-89L180-88L224-12Q144-1 93 56.50Q42 114 42 211Q42 337 122.50 413Q203 489 325 489Q408 489 468 458L456 390Q399 425 317 425Q227 425 171 366.50Q115 308 115 213Q115 135 161 92.50Q207 50 274 50Z"  horiz-adv-x="473" vert-adv-y="1000"  />

      
      <glyph glyph-name="unie8" unicode="&#xe8;" d="M477 220L118 220Q118 213 117 198Q117 131 157 90Q197 49 277 49Q355 49 431 86L419 17Q384 2 348-6Q312-14 265-14Q155-14 99 46Q43 106 43 209Q43 332 113 410.50Q183 489 299 489Q388 489 440 442Q492 395 492 312Q492 286 487.50 261Q483 236 477 220M417 275Q422 292 422 312Q422 366 390 397.50Q358 429 296 429Q228 429 183.50 386.50Q139 344 125 275L417 275M305 560L207 712L278 712L364 560L305 560Z"  horiz-adv-x="516" vert-adv-y="1000"  />

      
      <glyph glyph-name="unie9" unicode="&#xe9;" d="M477 220L118 220Q118 213 117 198Q117 131 157 90Q197 49 277 49Q355 49 431 86L419 17Q384 2 348-6Q312-14 265-14Q155-14 99 46Q43 106 43 209Q43 332 113 410.50Q183 489 299 489Q388 489 440 442Q492 395 492 312Q492 286 487.50 261Q483 236 477 220M417 275Q422 292 422 312Q422 366 390 397.50Q358 429 296 429Q228 429 183.50 386.50Q139 344 125 275L417 275M225 560L367 712L448 712L288 560L225 560Z"  horiz-adv-x="516" vert-adv-y="1000"  />

      
      <glyph glyph-name="uniea" unicode="&#xea;" d="M477 220L118 220Q118 213 117 198Q117 131 157 90Q197 49 277 49Q355 49 431 86L419 17Q384 2 348-6Q312-14 265-14Q155-14 99 46Q43 106 43 209Q43 332 113 410.50Q183 489 299 489Q388 489 440 442Q492 395 492 312Q492 286 487.50 261Q483 236 477 220M417 275Q422 292 422 312Q422 366 390 397.50Q358 429 296 429Q228 429 183.50 386.50Q139 344 125 275L417 275M398 553L331 660L226 553L161 553L317 717L357 717L459 553L398 553Z"  horiz-adv-x="516" vert-adv-y="1000"  />

      
      <glyph glyph-name="unieb" unicode="&#xeb;" d="M477 220L118 220Q118 213 117 198Q117 131 157 90Q197 49 277 49Q355 49 431 86L419 17Q384 2 348-6Q312-14 265-14Q155-14 99 46Q43 106 43 209Q43 332 113 410.50Q183 489 299 489Q388 489 440 442Q492 395 492 312Q492 286 487.50 261Q483 236 477 220M417 275Q422 292 422 312Q422 366 390 397.50Q358 429 296 429Q228 429 183.50 386.50Q139 344 125 275L417 275M207 588L220 660L291 660L278 588L207 588M356 588L369 660L440 660L427 588L356 588Z"  horiz-adv-x="516" vert-adv-y="1000"  />

      
      <glyph glyph-name="uniec" unicode="&#xec;" d="M33 0L116 477L185 477L101 0L33 0M157 560L59 712L130 712L216 560L157 560Z"  horiz-adv-x="217" vert-adv-y="1000"  />

      
      <glyph glyph-name="unied" unicode="&#xed;" d="M33 0L116 477L185 477L101 0L33 0M78 560L220 712L301 712L141 560L78 560Z"  horiz-adv-x="217" vert-adv-y="1000"  />

      
      <glyph glyph-name="uniee" unicode="&#xee;" d="M33 0L116 477L185 477L101 0L33 0M251 553L184 660L79 553L14 553L170 717L210 717L312 553L251 553Z"  horiz-adv-x="217" vert-adv-y="1000"  />

      
      <glyph glyph-name="unief" unicode="&#xef;" d="M33 0L116 477L185 477L101 0L33 0M60 588L73 660L144 660L131 588L60 588M209 588L222 660L293 660L280 588L209 588Z"  horiz-adv-x="217" vert-adv-y="1000"  />

      
      <glyph glyph-name="unif0" unicode="&#xf0;" d="M475 750L503 703L407 647Q530 511 530 300Q530 157 462 71.50Q394-14 266-14Q165-14 103.50 45Q42 104 42 211Q42 332 112.50 408.50Q183 485 300 485Q347 485 386 466.50Q425 448 446 422L449 424Q437 476 411 527Q385 578 347 616L215 541L188 587L314 659Q284 690 220 728L260 774Q287 759 320.50 733.50Q354 708 371 690L475 750M271 51Q361 51 409.50 112.50Q458 174 458 272Q458 335 420 378.50Q382 422 303 422Q217 422 166 366Q115 310 115 214Q115 137 157.50 94Q200 51 271 51Z"  horiz-adv-x="569" vert-adv-y="1000"  />

      
      <glyph glyph-name="unif1" unicode="&#xf1;" d="M481 256L436 0L367 0L412 257L417 288Q421 311 421 331Q421 380 391.50 402.50Q362 425 303 425Q240 425 173 407L101 0L32 0L114 461Q228 489 310 489Q405 489 448.50 453.50Q492 418 492 349Q492 322 481 256M398 625Q416 625 430.50 641.50Q445 658 454 684L503 684Q489 636 461.50 606.50Q434 577 396 577Q358 577 325.50 607.50Q293 638 267 638Q245 638 231.50 622Q218 606 211 580L164 580Q174 630 201.50 658.50Q229 687 270 687Q310 687 342 656Q374 625 398 625Z"  horiz-adv-x="547" vert-adv-y="1000"  />

      
      <glyph glyph-name="unif2" unicode="&#xf2;" d="M266-14Q167-14 105 45Q43 104 43 214Q43 336 114.50 412.50Q186 489 309 489Q415 489 473 427.50Q531 366 531 270Q531 144 463 65Q395-14 266-14M271 51Q361 51 409.50 111.50Q458 172 458 263Q458 338 416 381Q374 424 304 424Q217 424 166 367Q115 310 115 216Q115 138 157.50 94.50Q200 51 271 51M316 560L218 712L289 712L375 560L316 560Z"  horiz-adv-x="573" vert-adv-y="1000"  />

      
      <glyph glyph-name="unif3" unicode="&#xf3;" d="M266-14Q167-14 105 45Q43 104 43 214Q43 336 114.50 412.50Q186 489 309 489Q415 489 473 427.50Q531 366 531 270Q531 144 463 65Q395-14 266-14M271 51Q361 51 409.50 111.50Q458 172 458 263Q458 338 416 381Q374 424 304 424Q217 424 166 367Q115 310 115 216Q115 138 157.50 94.50Q200 51 271 51M236 560L378 712L459 712L299 560L236 560Z"  horiz-adv-x="573" vert-adv-y="1000"  />

      
      <glyph glyph-name="unif4" unicode="&#xf4;" d="M266-14Q167-14 105 45Q43 104 43 214Q43 336 114.50 412.50Q186 489 309 489Q415 489 473 427.50Q531 366 531 270Q531 144 463 65Q395-14 266-14M271 51Q361 51 409.50 111.50Q458 172 458 263Q458 338 416 381Q374 424 304 424Q217 424 166 367Q115 310 115 216Q115 138 157.50 94.50Q200 51 271 51M409 553L342 660L237 553L172 553L328 717L368 717L470 553L409 553Z"  horiz-adv-x="573" vert-adv-y="1000"  />

      
      <glyph glyph-name="unif5" unicode="&#xf5;" d="M266-14Q167-14 105 45Q43 104 43 214Q43 336 114.50 412.50Q186 489 309 489Q415 489 473 427.50Q531 366 531 270Q531 144 463 65Q395-14 266-14M271 51Q361 51 409.50 111.50Q458 172 458 263Q458 338 416 381Q374 424 304 424Q217 424 166 367Q115 310 115 216Q115 138 157.50 94.50Q200 51 271 51M399 625Q417 625 431.50 641.50Q446 658 455 684L504 684Q490 636 462.50 606.50Q435 577 397 577Q359 577 326.50 607.50Q294 638 268 638Q246 638 232.50 622Q219 606 212 580L165 580Q175 630 202.50 658.50Q230 687 271 687Q311 687 343 656Q375 625 399 625Z"  horiz-adv-x="573" vert-adv-y="1000"  />

      
      <glyph glyph-name="unif6" unicode="&#xf6;" d="M266-14Q167-14 105 45Q43 104 43 214Q43 336 114.50 412.50Q186 489 309 489Q415 489 473 427.50Q531 366 531 270Q531 144 463 65Q395-14 266-14M271 51Q361 51 409.50 111.50Q458 172 458 263Q458 338 416 381Q374 424 304 424Q217 424 166 367Q115 310 115 216Q115 138 157.50 94.50Q200 51 271 51M218 588L231 660L302 660L289 588L218 588M367 588L380 660L451 660L438 588L367 588Z"  horiz-adv-x="573" vert-adv-y="1000"  />

      
      <glyph glyph-name="unif7" unicode="&#xf7;" d="M234 454L234 540L320 540L320 454L234 454M43 271L43 335L514 335L514 271L43 271M234 66L234 153L320 153L320 66L234 66Z"  horiz-adv-x="556" vert-adv-y="1000"  />

      
      <glyph glyph-name="unif8" unicode="&#xf8;" d="M485 413Q531 356 531 270Q531 144 462.50 65Q394-14 267-14Q186-14 130 25L43-71L2-35L90 61Q43 119 43 214Q43 334 114.50 411.50Q186 489 310 489Q390 489 445 450L540 553L580 518L485 413M142 117L398 399Q360 426 304 426Q216 426 164.50 368.50Q113 311 113 216Q113 157 142 117M460 264Q460 318 433 358L177 75Q213 49 271 49Q363 49 411.50 111Q460 173 460 264Z"  horiz-adv-x="573" vert-adv-y="1000"  />

      
      <glyph glyph-name="unif9" unicode="&#xf9;" d="M57 130Q57 161 67 221L112 477L181 477L137 225Q128 174 128 145Q128 52 250 52Q284 52 318.50 57.50Q353 63 374 70L447 477L516 477L434 17Q335-12 242-12Q150-12 103.50 24.50Q57 61 57 130M321 560L223 712L294 712L380 560L321 560Z"  horiz-adv-x="548" vert-adv-y="1000"  />

      
      <glyph glyph-name="unifa" unicode="&#xfa;" d="M57 130Q57 161 67 221L112 477L181 477L137 225Q128 174 128 145Q128 52 250 52Q284 52 318.50 57.50Q353 63 374 70L447 477L516 477L434 17Q335-12 242-12Q150-12 103.50 24.50Q57 61 57 130M241 560L383 712L464 712L304 560L241 560Z"  horiz-adv-x="548" vert-adv-y="1000"  />

      
      <glyph glyph-name="unifb" unicode="&#xfb;" d="M57 130Q57 161 67 221L112 477L181 477L137 225Q128 174 128 145Q128 52 250 52Q284 52 318.50 57.50Q353 63 374 70L447 477L516 477L434 17Q335-12 242-12Q150-12 103.50 24.50Q57 61 57 130M414 553L347 660L242 553L177 553L333 717L373 717L475 553L414 553Z"  horiz-adv-x="548" vert-adv-y="1000"  />

      
      <glyph glyph-name="unifc" unicode="&#xfc;" d="M57 130Q57 161 67 221L112 477L181 477L137 225Q128 174 128 145Q128 52 250 52Q284 52 318.50 57.50Q353 63 374 70L447 477L516 477L434 17Q335-12 242-12Q150-12 103.50 24.50Q57 61 57 130M223 588L236 660L307 660L294 588L223 588M372 588L385 660L456 660L443 588L372 588Z"  horiz-adv-x="548" vert-adv-y="1000"  />

      
      <glyph glyph-name="unifd" unicode="&#xfd;" d="M-4-235L141 5L32 477L104 477L163 209Q183 115 188 77L190 77Q224 141 265 207L425 477L505 477L73-235L-4-235M192 560L334 712L415 712L255 560L192 560Z"  horiz-adv-x="453" vert-adv-y="1000"  />

      
      <glyph glyph-name="unife" unicode="&#xfe;" d="M523 272Q523 153 446.50 69.50Q370-14 234-14Q196-14 161-7Q126 0 102 9L55-259L-14-259L163 738L232 738L184 468Q207 477 238.50 483Q270 489 299 489Q408 489 465.50 431.50Q523 374 523 272M114 78Q136 67 168 59Q200 51 236 51Q337 51 393.50 109.50Q450 168 450 270Q450 344 407.50 384Q365 424 285 424Q254 424 224 417.50Q194 411 172 402L114 78Z"  horiz-adv-x="563" vert-adv-y="1000"  />

      
      <glyph glyph-name="uniff" unicode="&#xff;" d="M-4-235L141 5L32 477L104 477L163 209Q183 115 188 77L190 77Q224 141 265 207L425 477L505 477L73-235L-4-235M174 588L187 660L258 660L245 588L174 588M323 588L336 660L407 660L394 588L323 588Z"  horiz-adv-x="453" vert-adv-y="1000"  />

      
      <glyph glyph-name="uni0100" unicode="&#x0100;" d="M544 0L492 210L165 210L39 0L-43 0L379 695L446 695L619 0L544 0M202 275L477 275L399 603L397 603L202 275M308 778L317 831L551 831L542 778L308 778Z"  horiz-adv-x="660" vert-adv-y="1000"  />

      
      <glyph glyph-name="uni0101" unicode="&#x0101;" d="M443 249L403 22Q306-13 213-13Q118-13 74 26Q30 65 30 131Q30 207 85 247.50Q140 288 250 288Q292 288 333.50 282.50Q375 277 379 276Q386 318 386 330Q386 375 358 400.50Q330 426 270 426Q227 426 189 417Q151 408 113 393L125 459Q156 471 197.50 480Q239 489 284 489Q365 489 409 451Q453 413 453 341Q453 307 443 249M222 47Q254 47 281.50 52Q309 57 344 66L371 223L328 229Q293 233 247 233Q99 233 99 136Q99 92 130.50 69.50Q162 47 222 47M201 599L210 651L444 651L435 599L201 599Z"  horiz-adv-x="510" vert-adv-y="1000"  />

      
      <glyph glyph-name="uni0102" unicode="&#x0102;" d="M544 0L492 210L165 210L39 0L-43 0L379 695L446 695L619 0L544 0M202 275L477 275L399 603L397 603L202 275M291 862Q291 869 293 885L342 885L341 872Q341 834 364.50 820.50Q388 807 429 807Q522 807 539 885L594 885Q568 759 426 759Q357 759 324 786Q291 813 291 862Z"  horiz-adv-x="660" vert-adv-y="1000"  />

      
      <glyph glyph-name="uni0103" unicode="&#x0103;" d="M443 249L403 22Q306-13 213-13Q118-13 74 26Q30 65 30 131Q30 207 85 247.50Q140 288 250 288Q292 288 333.50 282.50Q375 277 379 276Q386 318 386 330Q386 375 358 400.50Q330 426 270 426Q227 426 189 417Q151 408 113 393L125 459Q156 471 197.50 480Q239 489 284 489Q365 489 409 451Q453 413 453 341Q453 307 443 249M222 47Q254 47 281.50 52Q309 57 344 66L371 223L328 229Q293 233 247 233Q99 233 99 136Q99 92 130.50 69.50Q162 47 222 47M198 683Q198 698 199 706L242 706Q242 700 241 690Q241 615 322 615Q406 615 426 706L474 706Q459 642 420.50 606.50Q382 571 319 571Q258 571 228 602Q198 633 198 683Z"  horiz-adv-x="510" vert-adv-y="1000"  />

      
      <glyph glyph-name="uni0104" unicode="&#x0104;" d="M544 0L492 210L165 210L39 0L-43 0L379 695L446 695L619 0L544 0M202 275L477 275L399 603L397 603L202 275M537-172Q559-172 577-165L598-157L591-201Q559-215 529-215Q490-215 469-196.50Q448-178 448-143Q448-104 479.50-69Q511-34 568 0L619 0Q555-43 526-72.50Q497-102 497-135Q497-172 537-172Z"  horiz-adv-x="660" vert-adv-y="1000"  />

      
      <glyph glyph-name="uni0105" unicode="&#x0105;" d="M443 249L403 22Q336-31 306.50-64Q277-97 277-135Q277-172 317-172Q339-172 357-165L378-157L371-201Q339-215 309-215Q271-215 250-196.50Q229-178 229-143Q229-71 318-2Q259-13 213-13Q118-13 74 26Q30 65 30 131Q30 207 85 247.50Q140 288 250 288Q292 288 333.50 282.50Q375 277 379 276Q386 318 386 330Q386 375 358 400.50Q330 426 270 426Q227 426 189 417Q151 408 113 393L125 459Q156 471 197.50 480Q239 489 284 489Q365 489 409 451Q453 413 453 341Q453 307 443 249M344 66L371 223L328 229Q293 233 247 233Q99 233 99 136Q99 92 130.50 69.50Q162 47 222 47Q254 47 281.50 52Q309 57 344 66Z"  horiz-adv-x="510" vert-adv-y="1000"  />

      
      <glyph glyph-name="uni0106" unicode="&#x0106;" d="M667 588Q572 637 451 637Q314 637 231.50 549Q149 461 149 314Q149 194 217 126Q285 58 401 58Q463 58 510.50 71.50Q558 85 606 109L594 31Q497-12 385-12Q240-12 156 75.50Q72 163 72 312Q72 489 175.50 598Q279 707 451 707Q583 707 680 661L667 588M373 757L496 887L578 887L435 757L373 757Z"  horiz-adv-x="667" vert-adv-y="1000"  />

      
      <glyph glyph-name="uni0107" unicode="&#x0107;" d="M456 390Q399 425 317 425Q227 425 171 366.50Q115 308 115 213Q115 135 161 92.50Q207 50 274 50Q350 50 414 81L403 13Q341-14 260-14Q165-14 103.50 46Q42 106 42 211Q42 337 122.50 413Q203 489 325 489Q408 489 468 458L456 390M231 560L373 712L454 712L294 560L231 560Z"  horiz-adv-x="473" vert-adv-y="1000"  />

      
      <glyph glyph-name="uni0108" unicode="&#x0108;" d="M667 588Q572 637 451 637Q314 637 231.50 549Q149 461 149 314Q149 194 217 126Q285 58 401 58Q463 58 510.50 71.50Q558 85 606 109L594 31Q497-12 385-12Q240-12 156 75.50Q72 163 72 312Q72 489 175.50 598Q279 707 451 707Q583 707 680 661L667 588M535 759L466 849L366 759L296 759L453 904L488 904L596 759L535 759Z"  horiz-adv-x="667" vert-adv-y="1000"  />

      
      <glyph glyph-name="uni0109" unicode="&#x0109;" d="M456 390Q399 425 317 425Q227 425 171 366.50Q115 308 115 213Q115 135 161 92.50Q207 50 274 50Q350 50 414 81L403 13Q341-14 260-14Q165-14 103.50 46Q42 106 42 211Q42 337 122.50 413Q203 489 325 489Q408 489 468 458L456 390M404 553L337 660L232 553L167 553L323 717L363 717L465 553L404 553Z"  horiz-adv-x="473" vert-adv-y="1000"  />

      
      <glyph glyph-name="uni010A" unicode="&#x010A;" d="M667 588Q572 637 451 637Q314 637 231.50 549Q149 461 149 314Q149 194 217 126Q285 58 401 58Q463 58 510.50 71.50Q558 85 606 109L594 31Q497-12 385-12Q240-12 156 75.50Q72 163 72 312Q72 489 175.50 598Q279 707 451 707Q583 707 680 661L667 588M408 762L423 843L503 843L488 762L408 762Z"  horiz-adv-x="667" vert-adv-y="1000"  />

      
      <glyph glyph-name="uni010B" unicode="&#x010B;" d="M456 390Q399 425 317 425Q227 425 171 366.50Q115 308 115 213Q115 135 161 92.50Q207 50 274 50Q350 50 414 81L403 13Q341-14 260-14Q165-14 103.50 46Q42 106 42 211Q42 337 122.50 413Q203 489 325 489Q408 489 468 458L456 390M283 592L298 672L378 672L363 592L283 592Z"  horiz-adv-x="473" vert-adv-y="1000"  />

      
      <glyph glyph-name="uni010C" unicode="&#x010C;" d="M667 588Q572 637 451 637Q314 637 231.50 549Q149 461 149 314Q149 194 217 126Q285 58 401 58Q463 58 510.50 71.50Q558 85 606 109L594 31Q497-12 385-12Q240-12 156 75.50Q72 163 72 312Q72 489 175.50 598Q279 707 451 707Q583 707 680 661L667 588M431 758L323 903L384 903L453 813L553 903L623 903L466 758L431 758Z"  horiz-adv-x="667" vert-adv-y="1000"  />

      
      <glyph glyph-name="uni010D" unicode="&#x010D;" d="M456 390Q399 425 317 425Q227 425 171 366.50Q115 308 115 213Q115 135 161 92.50Q207 50 274 50Q350 50 414 81L403 13Q341-14 260-14Q165-14 103.50 46Q42 106 42 211Q42 337 122.50 413Q203 489 325 489Q408 489 468 458L456 390M286 553L183 717L244 717L310 610L416 717L481 717L326 553L286 553Z"  horiz-adv-x="473" vert-adv-y="1000"  />

      
      <glyph glyph-name="uni010E" unicode="&#x010E;" d="M293 0L40 0L162 695L353 695Q516 695 606 617Q696 539 696 392Q696 217 590.50 108.50Q485 0 293 0M124 68L297 68Q450 68 533.50 154.50Q617 241 617 390Q617 510 543.50 568.50Q470 627 348 627L223 627L124 68M388 758L280 903L341 903L410 813L510 903L580 903L423 758L388 758Z"  horiz-adv-x="727" vert-adv-y="1000"  />

      
      <glyph glyph-name="uni010F" unicode="&#x010F;" d="M41 204Q41 323 117 406Q193 489 331 489Q368 489 403 482.50Q438 476 463 466L511 738L580 738L453 28Q362-14 273-14Q160-14 100.50 43.50Q41 101 41 204M280 51Q309 51 340 57.50Q371 64 393 73L450 397Q429 408 397 416Q365 424 329 424Q228 424 171 366Q114 308 114 207Q114 132 156 91.50Q198 51 280 51M588 522L677 739L742 739L640 522L588 522Z"  horiz-adv-x="565" vert-adv-y="1000"  />

      
      <glyph glyph-name="uni0110" unicode="&#x0110;" d="M32 379L110 379L166 695L357 695Q520 695 609.50 617Q699 539 699 392Q699 217 593.50 108.50Q488 0 296 0L44 0L99 313L17 313L32 379M128 68L300 68Q453 68 536.50 154.50Q620 241 620 390Q620 510 547 568.50Q474 627 351 627L226 627L182 379L378 379L366 313L171 313L128 68Z"  horiz-adv-x="731" vert-adv-y="1000"  />

      
      <glyph glyph-name="uni0111" unicode="&#x0111;" d="M552 579L453 28Q362-14 273-14Q160-14 100.50 43.50Q41 101 41 204Q41 323 117 406Q193 489 331 489Q368 489 403 482.50Q438 476 463 466L483 579L296 579L307 640L494 640L511 738L580 738L562 640L644 640L633 579L552 579M114 207Q114 132 156 91.50Q198 51 280 51Q309 51 340 57.50Q371 64 393 73L450 397Q429 408 397 416Q365 424 329 424Q228 424 171 366Q114 308 114 207Z"  horiz-adv-x="563" vert-adv-y="1000"  />

      
      <glyph glyph-name="uni0112" unicode="&#x0112;" d="M222 627L180 387L501 387L489 319L168 319L123 68L493 68L481 0L40 0L162 695L587 695L575 627L222 627M272 778L281 831L515 831L506 778L272 778Z"  horiz-adv-x="562" vert-adv-y="1000"  />

      
      <glyph glyph-name="uni0113" unicode="&#x0113;" d="M477 220L118 220Q118 213 117 198Q117 131 157 90Q197 49 277 49Q355 49 431 86L419 17Q384 2 348-6Q312-14 265-14Q155-14 99 46Q43 106 43 209Q43 332 113 410.50Q183 489 299 489Q388 489 440 442Q492 395 492 312Q492 286 487.50 261Q483 236 477 220M417 275Q422 292 422 312Q422 366 390 397.50Q358 429 296 429Q228 429 183.50 386.50Q139 344 125 275L417 275M201 600L210 652L444 652L435 600L201 600Z"  horiz-adv-x="516" vert-adv-y="1000"  />

      
      <glyph glyph-name="uni0114" unicode="&#x0114;" d="M222 627L180 387L501 387L489 319L168 319L123 68L493 68L481 0L40 0L162 695L587 695L575 627L222 627M255 862Q255 869 257 885L306 885L305 872Q305 834 328.50 820.50Q352 807 393 807Q486 807 503 885L558 885Q532 759 390 759Q321 759 288 786Q255 813 255 862Z"  horiz-adv-x="562" vert-adv-y="1000"  />

      
      <glyph glyph-name="uni0115" unicode="&#x0115;" d="M477 220L118 220Q118 213 117 198Q117 131 157 90Q197 49 277 49Q355 49 431 86L419 17Q384 2 348-6Q312-14 265-14Q155-14 99 46Q43 106 43 209Q43 332 113 410.50Q183 489 299 489Q388 489 440 442Q492 395 492 312Q492 286 487.50 261Q483 236 477 220M417 275Q422 292 422 312Q422 366 390 397.50Q358 429 296 429Q228 429 183.50 386.50Q139 344 125 275L417 275M198 683Q198 698 199 706L242 706Q242 700 241 690Q241 615 322 615Q406 615 426 706L474 706Q459 642 420.50 606.50Q382 571 319 571Q258 571 228 602Q198 633 198 683Z"  horiz-adv-x="516" vert-adv-y="1000"  />

      
      <glyph glyph-name="uni0116" unicode="&#x0116;" d="M222 627L180 387L501 387L489 319L168 319L123 68L493 68L481 0L40 0L162 695L587 695L575 627L222 627M346 762L361 843L441 843L426 762L346 762Z"  horiz-adv-x="562" vert-adv-y="1000"  />

      
      <glyph glyph-name="uni0117" unicode="&#x0117;" d="M477 220L118 220Q118 213 117 198Q117 131 157 90Q197 49 277 49Q355 49 431 86L419 17Q384 2 348-6Q312-14 265-14Q155-14 99 46Q43 106 43 209Q43 332 113 410.50Q183 489 299 489Q388 489 440 442Q492 395 492 312Q492 286 487.50 261Q483 236 477 220M417 275Q422 292 422 312Q422 366 390 397.50Q358 429 296 429Q228 429 183.50 386.50Q139 344 125 275L417 275M277 591L292 671L372 671L357 591L277 591Z"  horiz-adv-x="516" vert-adv-y="1000"  />

      
      <glyph glyph-name="uni0118" unicode="&#x0118;" d="M222 627L180 387L501 387L489 319L168 319L123 68L493 68L481 0L40 0L162 695L587 695L575 627L222 627M399-172Q421-172 439-165L460-157L453-201Q421-215 391-215Q352-215 331-196.50Q310-178 310-143Q310-104 341.50-69Q373-34 430 0L481 0Q417-43 388-72.50Q359-102 359-135Q359-172 399-172Z"  horiz-adv-x="562" vert-adv-y="1000"  />

      
      <glyph glyph-name="uni0119" unicode="&#x0119;" d="M277 49Q355 49 431 86L419 17Q353-33 323.50-65Q294-97 294-135Q294-172 334-172Q357-172 375-165L394-157L388-201Q356-215 325-215Q287-215 266-196.50Q245-178 245-143Q245-76 330-9Q297-14 265-14Q155-14 99 46Q43 106 43 209Q43 332 113 410.50Q183 489 299 489Q388 489 440 442Q492 395 492 312Q492 286 487.50 261Q483 236 477 220L118 220Q118 213 117 198Q117 131 157 90Q197 49 277 49M417 275Q422 292 422 312Q422 366 390 397.50Q358 429 296 429Q228 429 183.50 386.50Q139 344 125 275L417 275Z"  horiz-adv-x="516" vert-adv-y="1000"  />

      
      <glyph glyph-name="uni011A" unicode="&#x011A;" d="M222 627L180 387L501 387L489 319L168 319L123 68L493 68L481 0L40 0L162 695L587 695L575 627L222 627M369 758L261 903L322 903L391 813L491 903L561 903L404 758L369 758Z"  horiz-adv-x="562" vert-adv-y="1000"  />

      
      <glyph glyph-name="uni011B" unicode="&#x011B;" d="M477 220L118 220Q118 213 117 198Q117 131 157 90Q197 49 277 49Q355 49 431 86L419 17Q384 2 348-6Q312-14 265-14Q155-14 99 46Q43 106 43 209Q43 332 113 410.50Q183 489 299 489Q388 489 440 442Q492 395 492 312Q492 286 487.50 261Q483 236 477 220M417 275Q422 292 422 312Q422 366 390 397.50Q358 429 296 429Q228 429 183.50 386.50Q139 344 125 275L417 275M280 553L177 717L238 717L304 610L410 717L475 717L320 553L280 553Z"  horiz-adv-x="516" vert-adv-y="1000"  />

      
      <glyph glyph-name="uni011C" unicode="&#x011C;" d="M675 590Q576 638 454 638Q315 638 232 549Q149 460 149 312Q149 192 216.50 124Q284 56 397 56Q469 56 541 82L579 297L390 297L402 362L661 362L603 35Q505-12 385-12Q237-12 154.50 75.50Q72 163 72 309Q72 487 176 597Q280 707 459 707Q535 707 593.50 693Q652 679 688 661L675 590M534 759L465 849L365 759L295 759L452 904L487 904L595 759L534 759Z"  horiz-adv-x="705" vert-adv-y="1000"  />

      
      <glyph glyph-name="uni011D" unicode="&#x011D;" d="M447-6Q425-130 361-188.50Q297-247 174-247Q80-247-4-213L7-145Q38-159 84-171Q130-183 176-183Q270-183 316.50-139Q363-95 378-9L383 23Q354 7 322-3Q290-13 248-13Q150-13 95 43.50Q40 100 40 201Q40 285 77 353Q114 421 178 455Q242 489 332 489Q390 489 442 476Q494 463 527 444L447-6M263 51Q331 51 394 88L449 397Q428 408 396.50 416Q365 424 329 424Q228 424 170.50 364.50Q113 305 113 203Q113 131 153.50 91Q194 51 263 51M414 553L347 660L242 553L177 553L333 717L373 717L475 553L414 553Z"  horiz-adv-x="564" vert-adv-y="1000"  />

      
      <glyph glyph-name="uni011E" unicode="&#x011E;" d="M675 590Q576 638 454 638Q315 638 232 549Q149 460 149 312Q149 192 216.50 124Q284 56 397 56Q469 56 541 82L579 297L390 297L402 362L661 362L603 35Q505-12 385-12Q237-12 154.50 75.50Q72 163 72 309Q72 487 176 597Q280 707 459 707Q535 707 593.50 693Q652 679 688 661L675 590M316 862Q316 869 318 885L367 885L366 872Q366 834 389.50 820.50Q413 807 454 807Q547 807 564 885L619 885Q593 759 451 759Q382 759 349 786Q316 813 316 862Z"  horiz-adv-x="705" vert-adv-y="1000"  />

      
      <glyph glyph-name="uni011F" unicode="&#x011F;" d="M447-6Q425-130 361-188.50Q297-247 174-247Q80-247-4-213L7-145Q38-159 84-171Q130-183 176-183Q270-183 316.50-139Q363-95 378-9L383 23Q354 7 322-3Q290-13 248-13Q150-13 95 43.50Q40 100 40 201Q40 285 77 353Q114 421 178 455Q242 489 332 489Q390 489 442 476Q494 463 527 444L447-6M263 51Q331 51 394 88L449 397Q428 408 396.50 416Q365 424 329 424Q228 424 170.50 364.50Q113 305 113 203Q113 131 153.50 91Q194 51 263 51M214 683Q214 698 215 706L258 706Q258 700 257 690Q257 615 338 615Q422 615 442 706L490 706Q475 642 436.50 606.50Q398 571 335 571Q274 571 244 602Q214 633 214 683Z"  horiz-adv-x="564" vert-adv-y="1000"  />

      
      <glyph glyph-name="uni0120" unicode="&#x0120;" d="M675 590Q576 638 454 638Q315 638 232 549Q149 460 149 312Q149 192 216.50 124Q284 56 397 56Q469 56 541 82L579 297L390 297L402 362L661 362L603 35Q505-12 385-12Q237-12 154.50 75.50Q72 163 72 309Q72 487 176 597Q280 707 459 707Q535 707 593.50 693Q652 679 688 661L675 590M407 762L422 843L502 843L487 762L407 762Z"  horiz-adv-x="705" vert-adv-y="1000"  />

      
      <glyph glyph-name="uni0121" unicode="&#x0121;" d="M447-6Q425-130 361-188.50Q297-247 174-247Q80-247-4-213L7-145Q38-159 84-171Q130-183 176-183Q270-183 316.50-139Q363-95 378-9L383 23Q354 7 322-3Q290-13 248-13Q150-13 95 43.50Q40 100 40 201Q40 285 77 353Q114 421 178 455Q242 489 332 489Q390 489 442 476Q494 463 527 444L447-6M263 51Q331 51 394 88L449 397Q428 408 396.50 416Q365 424 329 424Q228 424 170.50 364.50Q113 305 113 203Q113 131 153.50 91Q194 51 263 51M293 592L308 672L388 672L373 592L293 592Z"  horiz-adv-x="564" vert-adv-y="1000"  />

      
      <glyph glyph-name="uni0122" unicode="&#x0122;" d="M675 590Q576 638 454 638Q315 638 232 549Q149 460 149 312Q149 192 216.50 124Q284 56 397 56Q469 56 541 82L579 297L390 297L402 362L661 362L603 35Q505-12 385-12Q237-12 154.50 75.50Q72 163 72 309Q72 487 176 597Q280 707 459 707Q535 707 593.50 693Q652 679 688 661L675 590M249-231L355-59L431-59L312-231L249-231Z"  horiz-adv-x="705" vert-adv-y="1000"  />

      
      <glyph glyph-name="uni0123" unicode="&#x0123;" d="M447-6Q425-130 361-188.50Q297-247 174-247Q80-247-4-213L7-145Q38-159 84-171Q130-183 176-183Q270-183 316.50-139Q363-95 378-9L383 23Q354 7 322-3Q290-13 248-13Q150-13 95 43.50Q40 100 40 201Q40 285 77 353Q114 421 178 455Q242 489 332 489Q390 489 442 476Q494 463 527 444L447-6M263 51Q331 51 394 88L449 397Q428 408 396.50 416Q365 424 329 424Q228 424 170.50 364.50Q113 305 113 203Q113 131 153.50 91Q194 51 263 51M266 560L384 732L447 732L342 560L266 560Z"  horiz-adv-x="564" vert-adv-y="1000"  />

      
      <glyph glyph-name="uni0124" unicode="&#x0124;" d="M523 0L579 325L168 325L112 0L40 0L162 695L234 695L180 392L591 392L645 695L716 695L594 0L523 0M537 759L468 849L368 759L298 759L455 904L490 904L598 759L537 759Z"  horiz-adv-x="718" vert-adv-y="1000"  />

      
      <glyph glyph-name="uni0125" unicode="&#x0125;" d="M492 350Q492 319 479 248L436 0L367 0L410 246Q420 302 420 334Q420 378 391 401.50Q362 425 310 425Q241 425 169 390L100 0L32 0L162 738L230 738L180 455Q218 471 254 480Q290 489 333 489Q407 489 449.50 452.50Q492 416 492 350M453 802L384 892L284 802L214 802L371 947L406 947L514 802L453 802Z"  horiz-adv-x="547" vert-adv-y="1000"  />

      
      <glyph glyph-name="uni0126" unicode="&#x0126;" d="M778 572L767 514L684 514L594 0L523 0L578 315L167 315L112 0L40 0L130 514L47 514L57 572L141 572L162 695L234 695L212 572L623 572L645 695L716 695L695 572L778 572M178 380L589 380L613 514L202 514L178 380Z"  horiz-adv-x="717" vert-adv-y="1000"  />

      
      <glyph glyph-name="uni0127" unicode="&#x0127;" d="M479 248L436 0L367 0L410 246Q420 302 420 334Q420 378 391 401.50Q362 425 310 425Q241 425 169 390L100 0L32 0L134 579L58 579L69 640L145 640L162 738L230 738L213 640L402 640L391 579L202 579L180 455Q218 471 254 480Q290 489 333 489Q407 489 449.50 452.50Q492 416 492 350Q492 319 479 248Z"  horiz-adv-x="547" vert-adv-y="1000"  />

      
      <glyph glyph-name="uni0128" unicode="&#x0128;" d="M40 0L162 695L234 695L112 0L40 0M282 805Q301 805 315.50 821.50Q330 838 338 864L387 864Q373 816 345.50 786.50Q318 757 281 757Q242 757 209.50 787.50Q177 818 151 818Q111 818 96 760L49 760Q59 810 86 838.50Q113 867 154 867Q194 867 226 836Q258 805 282 805Z"  horiz-adv-x="235" vert-adv-y="1000"  />

      
      <glyph glyph-name="uni0129" unicode="&#x0129;" d="M33 0L116 477L185 477L101 0L33 0M240 625Q258 625 272.50 641.50Q287 658 296 684L345 684Q331 636 303.50 606.50Q276 577 238 577Q200 577 167.50 607.50Q135 638 109 638Q87 638 73.50 622Q60 606 53 580L6 580Q16 630 43.50 658.50Q71 687 112 687Q152 687 184 656Q216 625 240 625Z"  horiz-adv-x="217" vert-adv-y="1000"  />

      
      <glyph glyph-name="uni012A" unicode="&#x012A;" d="M40 0L162 695L234 695L112 0L40 0M95 778L104 831L338 831L329 778L95 778Z"  horiz-adv-x="235" vert-adv-y="1000"  />

      
      <glyph glyph-name="uni012B" unicode="&#x012B;" d="M33 0L116 477L185 477L101 0L33 0M54 600L63 652L297 652L288 600L54 600Z"  horiz-adv-x="217" vert-adv-y="1000"  />

      
      <glyph glyph-name="uni012C" unicode="&#x012C;" d="M40 0L162 695L234 695L112 0L40 0M78 862Q78 869 80 885L129 885L128 872Q128 834 151.50 820.50Q175 807 216 807Q309 807 326 885L381 885Q355 759 213 759Q144 759 111 786Q78 813 78 862Z"  horiz-adv-x="235" vert-adv-y="1000"  />

      
      <glyph glyph-name="uni012D" unicode="&#x012D;" d="M33 0L116 477L185 477L101 0L33 0M51 683Q51 698 52 706L95 706Q95 700 94 690Q94 615 175 615Q259 615 279 706L327 706Q312 642 273.50 606.50Q235 571 172 571Q111 571 81 602Q51 633 51 683Z"  horiz-adv-x="217" vert-adv-y="1000"  />

      
      <glyph glyph-name="uni012E" unicode="&#x012E;" d="M46-172Q70-172 88-165L107-157L100-201Q70-215 38-215Q0-215-21-196.50Q-42-178-42-143Q-42-105-14.50-70.50Q13-36 62 0L35 0L157 695L229 695L107 0Q57-39 32-70Q7-101 7-135Q7-153 17-162.50Q27-172 46-172Z"  horiz-adv-x="245" vert-adv-y="1000"  />

      
      <glyph glyph-name="uni012F" unicode="&#x012F;" d="M210 591L130 591L145 671L225 671L210 591M184 477L101 0Q46-41 20-71Q-6-101-6-135Q-6-172 34-172Q56-172 74-165L95-157L88-201Q56-215 26-215Q-13-215-34-196.50Q-55-178-55-143Q-55-104-26-69.50Q3-35 56 0L32 0L115 477L184 477Z"  horiz-adv-x="224" vert-adv-y="1000"  />

      
      <glyph glyph-name="uni0130" unicode="&#x0130;" d="M40 0L162 695L234 695L112 0L40 0M169 762L184 843L264 843L249 762L169 762Z"  horiz-adv-x="235" vert-adv-y="1000"  />

      
      <glyph glyph-name="uni0131" unicode="&#x0131;" d="M33 0L116 477L185 477L101 0L33 0Z"  horiz-adv-x="217" vert-adv-y="1000"  />

      
      <glyph glyph-name="uni0132" unicode="&#x0132;" d="M40 0L162 695L234 695L112 0L40 0M210 24L220 93Q244 79 285 67Q326 55 372 55Q466 55 514.50 106.50Q563 158 579 253L657 695L729 695L650 247Q628 119 562 53.50Q496-12 371-12Q321-12 279-1Q237 10 210 24Z"  horiz-adv-x="726" vert-adv-y="1000"  />

      
      <glyph glyph-name="uni0133" unicode="&#x0133;" d="M130 591L145 671L225 671L210 591L130 591M32 0L115 477L184 477L101 0L32 0M347 591L361 671L441 671L427 591L347 591M52-237L62-174Q83-181 111-181Q165-181 196.50-145.50Q228-110 241-41L332 477L401 477L308-53Q274-244 114-244Q78-244 52-237Z"  horiz-adv-x="432" vert-adv-y="1000"  />

      
      <glyph glyph-name="uni0134" unicode="&#x0134;" d="M-25 24L-15 93Q9 79 50 67Q91 55 137 55Q231 55 279.50 106.50Q328 158 344 253L422 695L494 695L415 247Q393 119 327 53.50Q261-12 136-12Q86-12 44-1Q2 10-25 24M556 759L487 849L387 759L317 759L474 904L509 904L617 759L556 759Z"  horiz-adv-x="491" vert-adv-y="1000"  />

      
      <glyph glyph-name="uni0135" unicode="&#x0135;" d="M-164-237L-154-174Q-133-181-105-181Q-51-181-19.50-145.50Q12-110 25-41L116 477L185 477L92-53Q58-244-102-244Q-138-244-164-237M251 553L184 660L79 553L14 553L170 717L210 717L312 553L251 553Z"  horiz-adv-x="217" vert-adv-y="1000"  />

      
      <glyph glyph-name="uni0136" unicode="&#x0136;" d="M548 0L454 0L174 347L173 347L112 0L40 0L162 695L234 695L174 354L175 354L565 695L670 695L262 346L548 0M141-231L247-59L323-59L204-231L141-231Z"  horiz-adv-x="599" vert-adv-y="1000"  />

      
      <glyph glyph-name="uni0137" unicode="&#x0137;" d="M147 257L410 477L510 477L232 248L422 0L334 0L146 251L144 251L100 0L32 0L162 738L230 738L145 257L147 257M73-231L179-59L255-59L136-231L73-231Z"  horiz-adv-x="483" vert-adv-y="1000"  />

      
      <glyph glyph-name="uni0138" unicode="&#x0138;" d="M422 0L334 0L146 251L144 251L100 0L32 0L116 477L185 477L145 257L147 257L410 477L510 477L232 248L422 0Z"  horiz-adv-x="483" vert-adv-y="1000"  />

      
      <glyph glyph-name="uni0139" unicode="&#x0139;" d="M488 67L477 0L40 0L162 695L234 695L123 67L488 67M164 757L287 887L369 887L226 757L164 757Z"  horiz-adv-x="525" vert-adv-y="1000"  />

      
      <glyph glyph-name="uni013A" unicode="&#x013A;" d="M32 0L162 738L230 738L100 0L32 0M162 800L285 930L367 930L224 800L162 800Z"  horiz-adv-x="216" vert-adv-y="1000"  />

      
      <glyph glyph-name="uni013B" unicode="&#x013B;" d="M488 67L477 0L40 0L162 695L234 695L123 67L488 67M105-231L211-59L287-59L168-231L105-231Z"  horiz-adv-x="525" vert-adv-y="1000"  />

      
      <glyph glyph-name="uni013C" unicode="&#x013C;" d="M32 0L162 738L230 738L100 0L32 0M-51-231L55-59L131-59L12-231L-51-231Z"  horiz-adv-x="216" vert-adv-y="1000"  />

      
      <glyph glyph-name="uni013D" unicode="&#x013D;" d="M488 67L477 0L40 0L162 695L234 695L123 67L488 67M243 478L332 695L397 695L295 478L243 478Z"  horiz-adv-x="525" vert-adv-y="1000"  />

      
      <glyph glyph-name="uni013E" unicode="&#x013E;" d="M32 0L162 738L230 738L100 0L32 0M240 522L329 739L394 739L292 522L240 522Z"  horiz-adv-x="216" vert-adv-y="1000"  />

      
      <glyph glyph-name="uni013F" unicode="&#x013F;" d="M488 67L477 0L40 0L162 695L234 695L123 67L488 67M343 286L358 366L438 366L423 286L343 286Z"  horiz-adv-x="525" vert-adv-y="1000"  />

      
      <glyph glyph-name="uni0140" unicode="&#x0140;" d="M32 0L162 738L230 738L100 0L32 0M227 298L242 378L322 378L307 298L227 298Z"  horiz-adv-x="296" vert-adv-y="1000"  />

      
      <glyph glyph-name="uni0141" unicode="&#x0141;" d="M371 504L357 428L172 319L127 67L493 67L481 0L45 0L93 276L-11 215L4 291L107 352L167 695L238 695L186 395L371 504Z"  horiz-adv-x="534" vert-adv-y="1000"  />

      
      <glyph glyph-name="uni0142" unicode="&#x0142;" d="M171 360L108 0L39 0L94 315L-5 255L9 332L108 391L169 738L238 738L185 437L286 498L271 421L171 360Z"  horiz-adv-x="230" vert-adv-y="1000"  />

      
      <glyph glyph-name="uni0143" unicode="&#x0143;" d="M571 0L209 566L207 566Q192 467 180 403L110 0L40 0L162 695L213 695L573 127L577 127Q585 184 597 249L675 695L745 695L623 0L571 0M390 757L513 887L595 887L452 757L390 757Z"  horiz-adv-x="746" vert-adv-y="1000"  />

      
      <glyph glyph-name="uni0144" unicode="&#x0144;" d="M481 256L436 0L367 0L412 257L417 288Q421 311 421 331Q421 380 391.50 402.50Q362 425 303 425Q240 425 173 407L101 0L32 0L114 461Q228 489 310 489Q405 489 448.50 453.50Q492 418 492 349Q492 322 481 256M235 560L377 712L458 712L298 560L235 560Z"  horiz-adv-x="547" vert-adv-y="1000"  />

      
      <glyph glyph-name="uni0145" unicode="&#x0145;" d="M571 0L209 566L207 566Q192 467 180 403L110 0L40 0L162 695L213 695L573 127L577 127Q585 184 597 249L675 695L745 695L623 0L571 0M216-231L322-59L398-59L279-231L216-231Z"  horiz-adv-x="746" vert-adv-y="1000"  />

      
      <glyph glyph-name="uni0146" unicode="&#x0146;" d="M481 256L436 0L367 0L412 257L417 288Q421 311 421 331Q421 380 391.50 402.50Q362 425 303 425Q240 425 173 407L101 0L32 0L114 461Q228 489 310 489Q405 489 448.50 453.50Q492 418 492 349Q492 322 481 256M116-231L222-59L298-59L179-231L116-231Z"  horiz-adv-x="547" vert-adv-y="1000"  />

      
      <glyph glyph-name="uni0147" unicode="&#x0147;" d="M571 0L209 566L207 566Q192 467 180 403L110 0L40 0L162 695L213 695L573 127L577 127Q585 184 597 249L675 695L745 695L623 0L571 0M448 758L340 903L401 903L470 813L570 903L640 903L483 758L448 758Z"  horiz-adv-x="746" vert-adv-y="1000"  />

      
      <glyph glyph-name="uni0148" unicode="&#x0148;" d="M481 256L436 0L367 0L412 257L417 288Q421 311 421 331Q421 380 391.50 402.50Q362 425 303 425Q240 425 173 407L101 0L32 0L114 461Q228 489 310 489Q405 489 448.50 453.50Q492 418 492 349Q492 322 481 256M290 553L187 717L248 717L314 610L420 717L485 717L330 553L290 553Z"  horiz-adv-x="547" vert-adv-y="1000"  />

      
      <glyph glyph-name="uni0149" unicode="&#x0149;" d="M507 256L462 0L393 0L438 257L443 288Q447 311 447 331Q447 380 417.50 402.50Q388 425 329 425Q266 425 199 407L127 0L58 0L140 461Q254 489 336 489Q431 489 474.50 453.50Q518 418 518 349Q518 322 507 256M11 427L174 716L251 716L69 427L11 427Z"  horiz-adv-x="574" vert-adv-y="1000"  />

      
      <glyph glyph-name="uni014A" unicode="&#x014A;" d="M223-224L235-156Q256-170 292-181Q328-192 369-192Q448-192 490-150.50Q532-109 547-35L557 20L209 566L207 566Q192 467 180 403L110 0L40 0L162 695L213 695L573 127L577 127Q585 184 597 249L675 695L745 695L616-35Q577-258 370-258Q326-258 286.50-248Q247-238 223-224Z"  horiz-adv-x="746" vert-adv-y="1000"  />

      
      <glyph glyph-name="uni014B" unicode="&#x014B;" d="M481 256L427-53Q394-244 233-244Q198-244 172-237L182-174Q203-181 231-181Q337-181 360-41L412 257L417 288Q421 311 421 331Q421 380 391.50 402.50Q362 425 303 425Q240 425 173 407L101 0L32 0L114 461Q228 489 310 489Q405 489 448.50 453.50Q492 418 492 349Q492 322 481 256Z"  horiz-adv-x="548" vert-adv-y="1000"  />

      
      <glyph glyph-name="uni014C" unicode="&#x014C;" d="M386-12Q245-12 158 73Q71 158 71 308Q71 417 113.50 507.50Q156 598 242 652.50Q328 707 452 707Q601 707 685 622.50Q769 538 769 394Q769 285 726.50 192.50Q684 100 597.50 44Q511-12 386-12M393 58Q532 58 612.50 151Q693 244 693 386Q693 503 628 570Q563 637 447 637Q307 637 227 546Q147 455 147 314Q147 193 214.50 125.50Q282 58 393 58M350 778L359 831L593 831L584 778L350 778Z"  horiz-adv-x="800" vert-adv-y="1000"  />

      
      <glyph glyph-name="uni014D" unicode="&#x014D;" d="M266-14Q167-14 105 45Q43 104 43 214Q43 336 114.50 412.50Q186 489 309 489Q415 489 473 427.50Q531 366 531 270Q531 144 463 65Q395-14 266-14M271 51Q361 51 409.50 111.50Q458 172 458 263Q458 338 416 381Q374 424 304 424Q217 424 166 367Q115 310 115 216Q115 138 157.50 94.50Q200 51 271 51M212 600L221 652L455 652L446 600L212 600Z"  horiz-adv-x="573" vert-adv-y="1000"  />

      
      <glyph glyph-name="uni014E" unicode="&#x014E;" d="M386-12Q245-12 158 73Q71 158 71 308Q71 417 113.50 507.50Q156 598 242 652.50Q328 707 452 707Q601 707 685 622.50Q769 538 769 394Q769 285 726.50 192.50Q684 100 597.50 44Q511-12 386-12M393 58Q532 58 612.50 151Q693 244 693 386Q693 503 628 570Q563 637 447 637Q307 637 227 546Q147 455 147 314Q147 193 214.50 125.50Q282 58 393 58M333 862Q333 869 335 885L384 885L383 872Q383 834 406.50 820.50Q430 807 471 807Q564 807 581 885L636 885Q610 759 468 759Q399 759 366 786Q333 813 333 862Z"  horiz-adv-x="800" vert-adv-y="1000"  />

      
      <glyph glyph-name="uni014F" unicode="&#x014F;" d="M266-14Q167-14 105 45Q43 104 43 214Q43 336 114.50 412.50Q186 489 309 489Q415 489 473 427.50Q531 366 531 270Q531 144 463 65Q395-14 266-14M271 51Q361 51 409.50 111.50Q458 172 458 263Q458 338 416 381Q374 424 304 424Q217 424 166 367Q115 310 115 216Q115 138 157.50 94.50Q200 51 271 51M209 683Q209 698 210 706L253 706Q253 700 252 690Q252 615 333 615Q417 615 437 706L485 706Q470 642 431.50 606.50Q393 571 330 571Q269 571 239 602Q209 633 209 683Z"  horiz-adv-x="573" vert-adv-y="1000"  />

      
      <glyph glyph-name="uni0150" unicode="&#x0150;" d="M386-12Q245-12 158 73Q71 158 71 308Q71 417 113.50 507.50Q156 598 242 652.50Q328 707 452 707Q601 707 685 622.50Q769 538 769 394Q769 285 726.50 192.50Q684 100 597.50 44Q511-12 386-12M393 58Q532 58 612.50 151Q693 244 693 386Q693 503 628 570Q563 637 447 637Q307 637 227 546Q147 455 147 314Q147 193 214.50 125.50Q282 58 393 58M323 757L450 888L530 888L386 757L323 757M476 757L603 888L684 888L540 757L476 757Z"  horiz-adv-x="800" vert-adv-y="1000"  />

      
      <glyph glyph-name="uni0151" unicode="&#x0151;" d="M266-14Q167-14 105 45Q43 104 43 214Q43 336 114.50 412.50Q186 489 309 489Q415 489 473 427.50Q531 366 531 270Q531 144 463 65Q395-14 266-14M271 51Q361 51 409.50 111.50Q458 172 458 263Q458 338 416 381Q374 424 304 424Q217 424 166 367Q115 310 115 216Q115 138 157.50 94.50Q200 51 271 51M160 559L309 714L393 714L223 559L160 559M312 559L460 714L545 714L375 559L312 559Z"  horiz-adv-x="573" vert-adv-y="1000"  />

      
      <glyph glyph-name="uni0152" unicode="&#x0152;" d="M628 695L1053 695L1040 627L687 627L646 387L967 387L955 319L633 319L589 68L958 68L947 0L506 0L510 22Q442-12 361-12Q230-12 150.50 73Q71 158 71 309Q71 418 112.50 508.50Q154 599 238 653Q322 707 443 707Q544 707 622 662L628 695M377 58Q461 58 522 94L610 591Q536 637 442 637Q303 637 225 546Q147 455 147 313Q147 190 208 124Q269 58 377 58Z"  horiz-adv-x="1027" vert-adv-y="1000"  />

      
      <glyph glyph-name="uni0153" unicode="&#x0153;" d="M884 220L525 220Q525 213 524 198Q524 131 564 90Q604 49 684 49Q762 49 838 86L826 17Q791 2 755-6Q719-14 672-14Q596-14 548.50 17Q501 48 481 105Q418-14 266-14Q167-14 105 45Q43 104 43 214Q43 334 113.50 411.50Q184 489 306 489Q383 489 431 456Q479 423 501 368Q531 424 583 456.50Q635 489 706 489Q795 489 847 442Q899 395 899 312Q899 286 894.50 261Q890 236 884 220M824 275Q829 292 829 312Q829 366 797 397.50Q765 429 703 429Q635 429 590.50 386.50Q546 344 532 275L824 275M271 51Q361 51 409.50 111.50Q458 172 458 263Q458 338 416 381Q374 424 304 424Q217 424 166 367Q115 310 115 216Q115 138 157.50 94.50Q200 51 271 51Z"  horiz-adv-x="924" vert-adv-y="1000"  />

      
      <glyph glyph-name="uni0154" unicode="&#x0154;" d="M396 286L556 0L471 0L321 276L160 276L112 0L40 0L162 695L381 695Q493 695 552 647Q611 599 611 511Q611 418 554 359Q497 300 396 286M172 343L340 343Q422 343 478 382Q534 421 534 505Q534 563 494 596Q454 629 370 629L222 629L172 343M314 757L437 887L519 887L376 757L314 757Z"  horiz-adv-x="620" vert-adv-y="1000"  />

      
      <glyph glyph-name="uni0155" unicode="&#x0155;" d="M373 416Q328 425 284 425Q217 425 174 407L101 0L32 0L113 458Q195 489 288 489Q314 489 341.50 485.50Q369 482 384 478L373 416M178 560L320 712L401 712L241 560L178 560Z"  horiz-adv-x="351" vert-adv-y="1000"  />

      
      <glyph glyph-name="uni0156" unicode="&#x0156;" d="M396 286L556 0L471 0L321 276L160 276L112 0L40 0L162 695L381 695Q493 695 552 647Q611 599 611 511Q611 418 554 359Q497 300 396 286M172 343L340 343Q422 343 478 382Q534 421 534 505Q534 563 494 596Q454 629 370 629L222 629L172 343M152-231L258-59L334-59L215-231L152-231Z"  horiz-adv-x="620" vert-adv-y="1000"  />

      
      <glyph glyph-name="uni0157" unicode="&#x0157;" d="M373 416Q328 425 284 425Q217 425 174 407L101 0L32 0L113 458Q195 489 288 489Q314 489 341.50 485.50Q369 482 384 478L373 416M-50-231L56-59L132-59L13-231L-50-231Z"  horiz-adv-x="351" vert-adv-y="1000"  />

      
      <glyph glyph-name="uni0158" unicode="&#x0158;" d="M396 286L556 0L471 0L321 276L160 276L112 0L40 0L162 695L381 695Q493 695 552 647Q611 599 611 511Q611 418 554 359Q497 300 396 286M172 343L340 343Q422 343 478 382Q534 421 534 505Q534 563 494 596Q454 629 370 629L222 629L172 343M372 758L264 903L325 903L394 813L494 903L564 903L407 758L372 758Z"  horiz-adv-x="620" vert-adv-y="1000"  />

      
      <glyph glyph-name="uni0159" unicode="&#x0159;" d="M373 416Q328 425 284 425Q217 425 174 407L101 0L32 0L113 458Q195 489 288 489Q314 489 341.50 485.50Q369 482 384 478L373 416M233 553L130 717L191 717L257 610L363 717L428 717L273 553L233 553Z"  horiz-adv-x="351" vert-adv-y="1000"  />

      
      <glyph glyph-name="uni015A" unicode="&#x015A;" d="M549 604Q462 638 357 638Q267 638 222 602.50Q177 567 177 508Q177 460 210 433.50Q243 407 339 375Q435 343 475 303Q515 263 515 195Q515 104 447 46Q379-12 244-12Q174-12 115 2Q56 16 22 34L33 107Q69 86 125.50 71Q182 56 245 56Q336 56 387 89.50Q438 123 438 189Q438 237 406 264.50Q374 292 276.50 323Q179 354 140 395Q101 436 101 504Q101 596 171 651.50Q241 707 362 707Q424 707 477 697Q530 687 562 675L549 604M292 757L415 887L497 887L354 757L292 757Z"  horiz-adv-x="572" vert-adv-y="1000"  />

      
      <glyph glyph-name="uni015B" unicode="&#x015B;" d="M394 405Q330 430 259 430Q195 430 166.50 407Q138 384 138 347Q138 315 164.50 298.50Q191 282 255.50 259.50Q320 237 347 208.50Q374 180 374 132Q374 66 324.50 27Q275-12 176-12Q127-12 84.50-3Q42 6 17 19L25 83Q52 68 92 57.50Q132 47 175 47Q302 47 302 127Q302 171 250 191Q198 211 163 224.50Q128 238 98 264.50Q68 291 68 344Q68 409 116 449Q164 489 261 489Q303 489 343 482.50Q383 476 405 468L394 405M178 560L320 712L401 712L241 560L178 560Z"  horiz-adv-x="437" vert-adv-y="1000"  />

      
      <glyph glyph-name="uni015C" unicode="&#x015C;" d="M549 604Q462 638 357 638Q267 638 222 602.50Q177 567 177 508Q177 460 210 433.50Q243 407 339 375Q435 343 475 303Q515 263 515 195Q515 104 447 46Q379-12 244-12Q174-12 115 2Q56 16 22 34L33 107Q69 86 125.50 71Q182 56 245 56Q336 56 387 89.50Q438 123 438 189Q438 237 406 264.50Q374 292 276.50 323Q179 354 140 395Q101 436 101 504Q101 596 171 651.50Q241 707 362 707Q424 707 477 697Q530 687 562 675L549 604M454 759L385 849L285 759L215 759L372 904L407 904L515 759L454 759Z"  horiz-adv-x="572" vert-adv-y="1000"  />

      
      <glyph glyph-name="uni015D" unicode="&#x015D;" d="M394 405Q330 430 259 430Q195 430 166.50 407Q138 384 138 347Q138 315 164.50 298.50Q191 282 255.50 259.50Q320 237 347 208.50Q374 180 374 132Q374 66 324.50 27Q275-12 176-12Q127-12 84.50-3Q42 6 17 19L25 83Q52 68 92 57.50Q132 47 175 47Q302 47 302 127Q302 171 250 191Q198 211 163 224.50Q128 238 98 264.50Q68 291 68 344Q68 409 116 449Q164 489 261 489Q303 489 343 482.50Q383 476 405 468L394 405M351 553L284 660L179 553L114 553L270 717L310 717L412 553L351 553Z"  horiz-adv-x="437" vert-adv-y="1000"  />

      
      </font>
</defs>
</svg>
