<?xml version="1.0" standalone="no"?>
  <!DOCTYPE svg PUBLIC "-//W3C//DTD SVG 1.1//EN" "http://www.w3.org/Graphics/SVG/1.1/DTD/svg11.dtd" >
  <svg>
  <metadata>
  Created by font-carrier
  </metadata>
  <defs>
  <font id="EMprint-CondensedBold" horiz-adv-x="925" vert-adv-y="925" >
    <font-face
      
      font-family="EMprint-CondensedBold"
      
      font-weight="400"
      
      font-stretch="normal"
      
      units-per-em="1000"
      
      ascent="960"
      
      descent="-267"
      
    />
      <missing-glyph />

      

      
      <glyph glyph-name="uni21" unicode="&#x21;" d="M43 225L35 695L163 695L156 225L43 225M163 0L33 0L33 148L163 148L163 0Z"  horiz-adv-x="196" vert-adv-y="1000"  />

      
      <glyph glyph-name="uni22" unicode="&#x22;" d="M40 416L30 714L149 714L138 416L40 416M204 416L194 714L313 714L302 416L204 416Z"  horiz-adv-x="343" vert-adv-y="1000"  />

      
      <glyph glyph-name="uni23" unicode="&#x23;" d="M359 281L440 281L440 171L339 171L309 0L218 0L248 171L178 171L148 0L57 0L87 171L15 171L15 281L107 281L130 411L51 411L51 521L149 521L180 695L271 695L240 521L310 521L341 695L432 695L401 521L476 521L476 411L382 411L359 281M221 411L198 281L268 281L291 411L221 411Z"  horiz-adv-x="491" vert-adv-y="1000"  />

      
      <glyph glyph-name="uni24" unicode="&#x24;" d="M40 159Q106 126 185 124L185 291Q107 326 62 373Q17 420 17 493Q17 567 60.50 617Q104 667 185 682L185 788L254 788L254 687Q319 686 384 670L384 547Q319 566 254 568L254 397Q305 374 339.50 350Q374 326 395.50 289Q417 252 417 198Q417 130 375 78.50Q333 27 254 13L254-96L185-96L185 8Q142 9 104 16Q66 23 40 34L40 159M140 497Q140 475 151.50 459Q163 443 185 430L185 559Q140 543 140 497M295 196Q295 216 285 230.50Q275 245 254 257L254 132Q295 147 295 196Z"  horiz-adv-x="445" vert-adv-y="1000"  />

      
      <glyph glyph-name="uni25" unicode="&#x25;" d="M25 528Q25 618 62.50 662.50Q100 707 164 707Q228 707 264 662.50Q300 618 300 528Q300 439 263.50 393.50Q227 348 163 348Q97 348 61 393Q25 438 25 528M69 0L455 695L561 695L175 0L69 0M123 528Q123 480 132.50 459Q142 438 163 438Q182 438 192 459.50Q202 481 202 528Q202 574 192.50 595Q183 616 164 616Q123 616 123 528M330 170Q330 260 367.50 304.50Q405 349 469 349Q533 349 569 304.50Q605 260 605 170Q605 81 568.50 35.50Q532-10 468-10Q402-10 366 35Q330 80 330 170M428 170Q428 122 437.50 101Q447 80 468 80Q487 80 497 101.50Q507 123 507 170Q507 216 497.50 237Q488 258 469 258Q428 258 428 170Z"  horiz-adv-x="630" vert-adv-y="1000"  />

      
      <glyph glyph-name="uni26" unicode="&#x26;" d="M379 66Q354 29 314.50 7.50Q275-14 221-14Q129-14 83.50 39Q38 92 38 182Q38 256 69 306.50Q100 357 163 400Q118 482 118 552Q118 624 161 669Q204 714 291 714Q366 714 405 674.50Q444 635 444 565Q444 460 318 374L382 274Q394 300 421 385L545 385Q495 250 455 171L575 0L422 0L379 66M241 551Q241 525 246 505.50Q251 486 262 462Q291 488 305.50 509Q320 530 320 558Q320 581 309.50 593Q299 605 282 605Q263 605 252 590Q241 575 241 551M235 101Q285 101 313 163L221 304Q168 266 168 191Q168 149 186 125Q204 101 235 101Z"  horiz-adv-x="572" vert-adv-y="1000"  />

      
      <glyph glyph-name="uni27" unicode="&#x27;" d="M40 416L30 714L149 714L138 416L40 416Z"  horiz-adv-x="179" vert-adv-y="1000"  />

      
      <glyph glyph-name="uni28" unicode="&#x28;" d="M133-160Q80-67 50.50 53Q21 173 21 305Q21 436 50.50 555.50Q80 675 133 770L258 770Q203 672 171.50 553Q140 434 140 305Q140 173 172 56Q204-61 258-160L133-160Z"  horiz-adv-x="263" vert-adv-y="1000"  />

      
      <glyph glyph-name="uni29" unicode="&#x29;" d="M242 305Q242 174 212.50 54.50Q183-65 130-160L5-160Q60-62 91.50 57Q123 176 123 305Q123 437 91 554Q59 671 5 770L130 770Q183 677 212.50 557Q242 437 242 305Z"  horiz-adv-x="263" vert-adv-y="1000"  />

      
      <glyph glyph-name="uni2a" unicode="&#x2a;" d="M353 640L384 543L264 519L347 425L261 365L201 474L139 365L52 425L136 519L17 541L48 641L161 591L152 711L250 711L238 591L353 640Z"  horiz-adv-x="400" vert-adv-y="1000"  />

      
      <glyph glyph-name="uni2b" unicode="&#x2b;" d="M421 246L275 246L275 100L169 100L169 246L23 246L23 352L169 352L169 498L275 498L275 352L421 352L421 246Z"  horiz-adv-x="445" vert-adv-y="1000"  />

      
      <glyph glyph-name="uni2c" unicode="&#x2c;" d="M79-134L-29-134L60 148L184 148L79-134Z"  horiz-adv-x="199" vert-adv-y="1000"  />

      
      <glyph glyph-name="uni2d" unicode="&#x2d;" d="M261 331L261 207L33 207L33 331L261 331Z"  horiz-adv-x="294" vert-adv-y="1000"  />

      
      <glyph glyph-name="uni2e" unicode="&#x2e;" d="M164 0L34 0L34 148L164 148L164 0Z"  horiz-adv-x="199" vert-adv-y="1000"  />

      
      <glyph glyph-name="uni2f" unicode="&#x2f;" d="M7-49L253 750L353 750L107-49L7-49Z"  horiz-adv-x="360" vert-adv-y="1000"  />

      
      <glyph glyph-name="uni30" unicode="&#x30;" d="M434 347Q434 172 380 80Q326-12 223-12Q114-12 63 79Q12 170 12 347Q12 523 65.50 615Q119 707 223 707Q332 707 383 617Q434 527 434 347M300 347Q300 465 282 520.50Q264 576 222 576Q182 576 164 520Q146 464 146 348Q146 229 163.50 174Q181 119 222 119Q263 119 281.50 175Q300 231 300 347Z"  horiz-adv-x="445" vert-adv-y="1000"  />

      
      <glyph glyph-name="uni31" unicode="&#x31;" d="M53 592L249 712L325 712L325 0L191 0L191 536L53 444L53 592Z"  horiz-adv-x="445" vert-adv-y="1000"  />

      
      <glyph glyph-name="uni32" unicode="&#x32;" d="M185 310Q226 363 248 407.50Q270 452 270 497Q270 539 247.50 560.50Q225 582 185 582Q148 582 116 571Q84 560 63 546L63 672Q86 685 127 696Q168 707 214 707Q311 707 358 657Q405 607 405 517Q405 442 371.50 377.50Q338 313 269 224L198 132L408 132L408 0L41 0L41 119L185 310Z"  horiz-adv-x="445" vert-adv-y="1000"  />

      
      <glyph glyph-name="uni33" unicode="&#x33;" d="M404 194Q404 103 347 45.50Q290-12 169-12Q130-12 96.50-5.50Q63 1 46 9L46 134Q62 126 92.50 118.50Q123 111 150 111Q261 111 261 200Q261 246 233.50 266.50Q206 287 146 287L105 287L105 415L144 415Q197 415 224 437.50Q251 460 251 502Q251 541 227 561Q203 581 158 581Q127 581 98.50 574Q70 567 54 559L54 684Q77 693 113.50 700Q150 707 196 707Q297 707 344.50 654Q392 601 392 524Q392 459 363 417Q334 375 286 357L286 355Q404 322 404 194Z"  horiz-adv-x="445" vert-adv-y="1000"  />

      
      <glyph glyph-name="uni34" unicode="&#x34;" d="M239 0L239 143L9 143L9 261L214 695L363 695L363 257L442 257L442 143L363 143L363 0L239 0M236 516Q223 472 205 430L128 257L239 257L239 516L236 516Z"  horiz-adv-x="445" vert-adv-y="1000"  />

      
      <glyph glyph-name="uni35" unicode="&#x35;" d="M51 130Q94 111 150 111Q210 111 237.50 141.50Q265 172 265 219Q265 327 149 327Q102 327 64 321L78 695L385 695L385 563L194 563L188 440Q193 441 218 441Q305 441 354.50 386.50Q404 332 404 227Q404 119 341.50 53.50Q279-12 163-12Q130-12 100-7Q70-2 51 7L51 130Z"  horiz-adv-x="445" vert-adv-y="1000"  />

      
      <glyph glyph-name="uni36" unicode="&#x36;" d="M29 215Q29 275 44 333.50Q59 392 92 465L198 695L344 695L218 429L219 428Q237 434 260 434Q333 434 372.50 379Q412 324 412 229Q412 120 363.50 54Q315-12 218-12Q131-12 80 44.50Q29 101 29 215M164 218Q164 111 221 111Q244 111 259.50 136.50Q275 162 275 218Q275 325 220 325Q193 325 178.50 298.50Q164 272 164 218Z"  horiz-adv-x="445" vert-adv-y="1000"  />

      
      <glyph glyph-name="uni37" unicode="&#x37;" d="M67 0L265 565L42 565L42 695L419 695L419 601L212 0L67 0Z"  horiz-adv-x="445" vert-adv-y="1000"  />

      
      <glyph glyph-name="uni38" unicode="&#x38;" d="M416 189Q416 89 364.50 38Q313-13 224-13Q130-13 79.50 39.50Q29 92 29 188Q29 326 125 359L125 361Q89 377 66.50 416.50Q44 456 44 521Q44 605 92 656Q140 707 222 707Q310 707 356.50 656.50Q403 606 403 523Q403 398 317 361L317 359Q367 340 391.50 300Q416 260 416 189M176 507Q176 467 188 446Q200 425 223 425Q246 425 259 446Q272 467 272 507Q272 550 260 569Q248 588 225 588Q176 588 176 507M166 198Q166 106 222 106Q249 106 264.50 128.50Q280 151 280 198Q280 288 223 288Q196 288 181 265.50Q166 243 166 198Z"  horiz-adv-x="445" vert-adv-y="1000"  />

      
      <glyph glyph-name="uni39" unicode="&#x39;" d="M412 480Q412 420 397.50 362Q383 304 349 231L243 0L97 0L223 266L222 267Q204 261 181 261Q107 261 68 316Q29 371 29 466Q29 575 77.50 641Q126 707 223 707Q310 707 361 650.50Q412 594 412 480M277 476Q277 584 220 584Q196 584 181 558.50Q166 533 166 476Q166 370 221 370Q247 370 262 396Q277 422 277 476Z"  horiz-adv-x="445" vert-adv-y="1000"  />

      
      <glyph glyph-name="uni3a" unicode="&#x3a;" d="M164 0L34 0L34 148L164 148L164 0M164 338L34 338L34 486L164 486L164 338Z"  horiz-adv-x="199" vert-adv-y="1000"  />

      
      <glyph glyph-name="uni3b" unicode="&#x3b;" d="M164 338L34 338L34 486L164 486L164 338M79-134L-29-134L60 148L184 148L79-134Z"  horiz-adv-x="199" vert-adv-y="1000"  />

      
      <glyph glyph-name="uni3c" unicode="&#x3c;" d="M163 293L407 190L407 74L38 239L38 351L407 517L407 400L163 296L163 293Z"  horiz-adv-x="445" vert-adv-y="1000"  />

      
      <glyph glyph-name="uni3d" unicode="&#x3d;" d="M23 345L23 451L421 451L421 345L23 345M23 147L23 253L421 253L421 147L23 147Z"  horiz-adv-x="445" vert-adv-y="1000"  />

      
      <glyph glyph-name="uni3e" unicode="&#x3e;" d="M282 298L38 401L38 517L407 352L407 240L38 74L38 191L282 295L282 298Z"  horiz-adv-x="445" vert-adv-y="1000"  />

      
      <glyph glyph-name="uni3f" unicode="&#x3f;" d="M89 344Q147 390 176 426Q205 462 205 508Q205 549 182.50 570.50Q160 592 117 592Q79 592 38 577L38 687Q55 694 85 700.50Q115 707 149 707Q240 707 286.50 658Q333 609 333 525Q333 455 298 399Q263 343 202 288L202 225L89 225L89 344M213 0L83 0L83 148L213 148L213 0Z"  horiz-adv-x="345" vert-adv-y="1000"  />

      
      <glyph glyph-name="uni40" unicode="&#x40;" d="M485-36Q462-43 427-48.50Q392-54 356-54Q198-54 111.50 42Q25 138 25 324Q25 458 70 545.50Q115 633 192.50 673.50Q270 714 368 714Q513 714 590 629Q667 544 667 384Q667 301 642 243Q617 185 574.50 156Q532 127 480 127Q449 127 431 135.50Q413 144 401 159Q370 131 322 131Q270 131 236.50 177Q203 223 203 323Q203 537 375 537Q420 537 477 515L476 252Q476 237 480 229.50Q484 222 494 222Q508 222 524 237.50Q540 253 551.50 288Q563 323 563 379Q563 490 513.50 552Q464 614 363 614Q253 614 191 541Q129 468 129 331Q129 187 187.50 116.50Q246 46 359 46Q426 46 485 62L485-36M358 223Q370 223 382 227L382 445Q374 447 364 447Q333 447 316.50 416Q300 385 300 330Q300 275 315.50 249Q331 223 358 223Z"  horiz-adv-x="692" vert-adv-y="1000"  />

      
      <glyph glyph-name="uni41" unicode="&#x41;" d="M177 159L137 0L1 0L187 695L346 695L526 0L390 0L351 159L177 159M204 276L321 276L263 529L262 529L204 276Z"  horiz-adv-x="527" vert-adv-y="1000"  />

      
      <glyph glyph-name="uni42" unicode="&#x42;" d="M254 695Q349 695 400 650.50Q451 606 451 522Q451 462 423 422.50Q395 383 350 366L350 364Q402 347 432.50 310.50Q463 274 463 201Q463 109 405 54.50Q347 0 247 0L48 0L48 695L254 695M315 497Q315 533 294.50 553Q274 573 236 573L180 573L180 415L231 415Q269 415 292 437.50Q315 460 315 497M327 208Q327 250 302.50 271.50Q278 293 237 293L180 293L180 122L239 122Q281 122 304 144.50Q327 167 327 208Z"  horiz-adv-x="490" vert-adv-y="1000"  />

      
      <glyph glyph-name="uni43" unicode="&#x43;" d="M433 10Q410 1 377.50-6Q345-13 313-13Q177-13 104.50 72Q32 157 32 344Q32 519 109.50 613Q187 707 325 707Q381 707 428 692L428 558Q407 567 386 572Q365 577 333 577Q256 577 214 520.50Q172 464 172 346Q172 215 214.50 166Q257 117 337 117Q388 117 433 137L433 10Z"  horiz-adv-x="462" vert-adv-y="1000"  />

      
      <glyph glyph-name="uni44" unicode="&#x44;" d="M228 695Q364 695 437 612Q510 529 510 356Q510 246 475 166Q440 86 374.50 43Q309 0 221 0L48 0L48 695L228 695M222 129Q295 129 334.50 185Q374 241 374 348Q374 455 336 511Q298 567 222 567L180 567L180 129L222 129Z"  horiz-adv-x="542" vert-adv-y="1000"  />

      
      <glyph glyph-name="uni45" unicode="&#x45;" d="M180 416L373 416L373 288L180 288L180 128L402 128L402 0L48 0L48 695L393 695L393 567L180 567L180 416Z"  horiz-adv-x="431" vert-adv-y="1000"  />

      
      <glyph glyph-name="uni46" unicode="&#x46;" d="M180 393L369 393L369 265L180 265L180 0L48 0L48 695L390 695L390 567L180 567L180 393Z"  horiz-adv-x="403" vert-adv-y="1000"  />

      
      <glyph glyph-name="uni47" unicode="&#x47;" d="M483 29Q454 13 408 0.50Q362-12 307-12Q170-12 101 77.50Q32 167 32 339Q32 515 109 611Q186 707 337 707Q372 707 407.50 702Q443 697 465 688L465 554Q434 566 407 572.50Q380 579 340 579Q172 579 172 344Q172 228 207 170.50Q242 113 310 113Q334 113 354 119L354 268L256 268L256 390L483 390L483 29Z"  horiz-adv-x="525" vert-adv-y="1000"  />

      
      <glyph glyph-name="uni48" unicode="&#x48;" d="M180 0L48 0L48 695L180 695L180 414L366 414L366 695L498 695L498 0L366 0L366 286L180 286L180 0Z"  horiz-adv-x="546" vert-adv-y="1000"  />

      
      <glyph glyph-name="uni49" unicode="&#x49;" d="M180 0L48 0L48 695L180 695L180 0Z"  horiz-adv-x="228" vert-adv-y="1000"  />

      
      <glyph glyph-name="uni4a" unicode="&#x4a;" d="M309 230Q309 112 255.50 50.50Q202-11 97-11Q41-11 4 5L4 133Q41 117 79 117Q177 117 177 234L177 695L309 695L309 230Z"  horiz-adv-x="353" vert-adv-y="1000"  />

      
      <glyph glyph-name="uni4b" unicode="&#x4b;" d="M338 0L181 342L180 342L180 0L48 0L48 695L180 695L180 355L181 355L345 695L500 695L319 352L492 0L338 0Z"  horiz-adv-x="502" vert-adv-y="1000"  />

      
      <glyph glyph-name="uni4c" unicode="&#x4c;" d="M180 130L399 130L399 0L48 0L48 695L180 695L180 130Z"  horiz-adv-x="414" vert-adv-y="1000"  />

      
      <glyph glyph-name="uni4d" unicode="&#x4d;" d="M528 447L386 4L308 4L168 446L167 446L167 0L48 0L48 695L206 695L347 260L349 260L494 695L648 695L648 0L529 0L529 447L528 447Z"  horiz-adv-x="696" vert-adv-y="1000"  />

      
      <glyph glyph-name="uni4e" unicode="&#x4e;" d="M171 420L170 420Q172 387 172 312L172 0L48 0L48 695L175 695L382 274L384 274Q381 322 381 376L381 695L505 695L505 0L386 0L171 420Z"  horiz-adv-x="553" vert-adv-y="1000"  />

      
      <glyph glyph-name="uni4f" unicode="&#x4f;" d="M32 347Q32 517 101 612Q170 707 298 707Q420 707 481.50 612.50Q543 518 543 347Q543 238 512.50 157Q482 76 424.50 32Q367-12 287-12Q159-12 95.50 83.50Q32 179 32 347M168 347Q168 118 286 118Q347 118 377 177.50Q407 237 407 347Q407 460 379.50 518.50Q352 577 291 577Q229 577 198.50 517.50Q168 458 168 347Z"  horiz-adv-x="575" vert-adv-y="1000"  />

      
      <glyph glyph-name="uni50" unicode="&#x50;" d="M222 695Q343 695 401.50 633.50Q460 572 460 461Q460 345 395.50 277Q331 209 219 209L180 209L180 0L48 0L48 695L222 695M218 337Q269 337 292.50 371Q316 405 316 457Q316 511 292 539Q268 567 222 567L180 567L180 337L218 337Z"  horiz-adv-x="492" vert-adv-y="1000"  />

      
      <glyph glyph-name="uni51" unicode="&#x51;" d="M543 347Q543 256 522 184Q501 112 460 65L536-60L435-117L365 0Q331-12 287-12Q159-12 95.50 83.50Q32 179 32 347Q32 517 101 612Q170 707 298 707Q420 707 481.50 612.50Q543 518 543 347M407 347Q407 460 379.50 518.50Q352 577 291 577Q229 577 198.50 517.50Q168 458 168 347Q168 118 283 118L299 118L235 220L329 279L381 188Q393 212 400 255Q407 298 407 347Z"  horiz-adv-x="575" vert-adv-y="1000"  />

      
      <glyph glyph-name="uni52" unicode="&#x52;" d="M180 0L48 0L48 695L229 695Q357 695 409 636.50Q461 578 461 478Q461 405 431 357Q401 309 357 284L479 0L326 0L231 246L180 246L180 0M221 372Q267 372 295 400Q323 428 323 476Q323 524 299 549.50Q275 575 229 575L180 575L180 372L221 372Z"  horiz-adv-x="492" vert-adv-y="1000"  />

      
      <glyph glyph-name="uni53" unicode="&#x53;" d="M37 144Q65 130 102 120Q139 110 178 110Q223 110 246 131Q269 152 269 184Q269 217 249.50 236.50Q230 256 175 289Q127 318 96.50 344Q66 370 47.50 408.50Q29 447 29 501Q29 595 86.50 651Q144 707 252 707Q320 707 378 691L378 560Q318 580 261 580Q216 580 193.50 559.50Q171 539 171 508Q171 483 182 466.50Q193 450 209 438.50Q225 427 265 402Q315 372 343.50 347.50Q372 323 390 284.50Q408 246 408 188Q408 133 384 87.50Q360 42 311.50 14.50Q263-13 192-13Q145-13 104.50-6.50Q64 0 37 12L37 144Z"  horiz-adv-x="426" vert-adv-y="1000"  />

      
      <glyph glyph-name="uni54" unicode="&#x54;" d="M4 695L416 695L416 565L276 565L276 0L144 0L144 565L4 565L4 695Z"  horiz-adv-x="420" vert-adv-y="1000"  />

      
      <glyph glyph-name="uni55" unicode="&#x55;" d="M272-12Q152-12 99 44.50Q46 101 46 228L46 695L178 695L178 234Q178 167 202.50 140.50Q227 114 286 114Q323 114 365 122L365 695L497 695L497 28Q445 10 395.50-1Q346-12 272-12Z"  horiz-adv-x="545" vert-adv-y="1000"  />

      
      <glyph glyph-name="uni56" unicode="&#x56;" d="M1 695L143 695L259 188L260 188L370 695L512 695L331 0L185 0L1 695Z"  horiz-adv-x="513" vert-adv-y="1000"  />

      
      <glyph glyph-name="uni57" unicode="&#x57;" d="M409 314Q393 392 386 454L384 454Q377 384 363 321L293 0L146 0L12 695L145 695L213 317Q219 282 227 201L228 201Q234 246 250 321L334 695L450 695L527 311Q539 249 544 195L546 195Q552 257 563 315L635 695L768 695L614 0L474 0L409 314Z"  horiz-adv-x="780" vert-adv-y="1000"  />

      
      <glyph glyph-name="uni58" unicode="&#x58;" d="M359 0L257 239L156 0L5 0L172 347L5 695L155 695L259 452L362 695L513 695L343 345L511 0L359 0Z"  horiz-adv-x="518" vert-adv-y="1000"  />

      
      <glyph glyph-name="uni59" unicode="&#x59;" d="M148 695L241 382L342 695L485 695L307 226L307 0L174 0L174 223L0 695L148 695Z"  horiz-adv-x="485" vert-adv-y="1000"  />

      
      <glyph glyph-name="uni5a" unicode="&#x5a;" d="M442 589L192 126L450 126L450 0L26 0L26 102L276 569L40 569L40 695L442 695L442 589Z"  horiz-adv-x="482" vert-adv-y="1000"  />

      
      <glyph glyph-name="uni5b" unicode="&#x5b;" d="M138-52L234-52L234-160L28-160L28 770L234 770L234 662L138 662L138-52Z"  horiz-adv-x="240" vert-adv-y="1000"  />

      
      <glyph glyph-name="uni5c" unicode="&#x5c;" d="M107 750L353-49L253-49L7 750L107 750Z"  horiz-adv-x="360" vert-adv-y="1000"  />

      
      <glyph glyph-name="uni5d" unicode="&#x5d;" d="M102 662L6 662L6 770L212 770L212-160L6-160L6-52L102-52L102 662Z"  horiz-adv-x="240" vert-adv-y="1000"  />

      
      <glyph glyph-name="uni5e" unicode="&#x5e;" d="M221 573L137 372L18 372L166 707L280 707L427 372L307 372L223 573L221 573Z"  horiz-adv-x="446" vert-adv-y="1000"  />

      
      <glyph glyph-name="uni5f" unicode="&#x5f;" d="M368-180L-10-180L-10-136L368-136L368-180Z"  horiz-adv-x="358" vert-adv-y="1000"  />

      
      <glyph glyph-name="uni60" unicode="&#x60;" d="M142 560L30 727L153 727L248 560L142 560Z"  horiz-adv-x="278" vert-adv-y="1000"  />

      
      <glyph glyph-name="uni61" unicode="&#x61;" d="M367 21Q286-10 201-10Q111-10 66.50 30Q22 70 22 143Q22 216 66 257.50Q110 299 191 299Q225 299 241 297L241 310Q241 348 221 364.50Q201 381 159 381Q133 381 105 374.50Q77 368 60 360L60 473Q80 481 115.50 488.50Q151 496 191 496Q281 496 324 453.50Q367 411 367 324L367 21M241 205Q229 207 208 207Q146 207 146 149Q146 92 208 92Q229 92 241 95L241 205Z"  horiz-adv-x="408" vert-adv-y="1000"  />

      
      <glyph glyph-name="uni62" unicode="&#x62;" d="M196-10Q153-10 111.50-1Q70 8 44 20L44 738L170 738L170 486Q181 490 201.50 493Q222 496 244 496Q337 496 388 433Q439 370 439 255Q439 138 377.50 64Q316-10 196-10M218 380Q206 380 192 377.50Q178 375 170 372L170 112Q182 106 212 106Q256 106 282.50 140.50Q309 175 309 249Q309 314 285 347Q261 380 218 380Z"  horiz-adv-x="463" vert-adv-y="1000"  />

      
      <glyph glyph-name="uni63" unicode="&#x63;" d="M325 3Q313-2 289.50-6Q266-10 239-10Q144-10 84 50Q24 110 24 237Q24 318 53 376.50Q82 435 133 465.50Q184 496 248 496Q292 496 324 488L324 371Q301 380 265 380Q154 380 154 239Q154 167 182 136.50Q210 106 261 106Q277 106 295.50 109Q314 112 325 116L325 3Z"  horiz-adv-x="341" vert-adv-y="1000"  />

      
      <glyph glyph-name="uni64" unicode="&#x64;" d="M240 498Q273 498 293 492L293 738L419 738L419 29Q332-10 245-10Q133-10 78.50 54Q24 118 24 236Q24 318 52.50 377Q81 436 130 467Q179 498 240 498M254 104Q277 104 293 111L293 378Q275 382 255 382Q204 382 179 346Q154 310 154 242Q154 104 254 104Z"  horiz-adv-x="463" vert-adv-y="1000"  />

      
      <glyph glyph-name="uni65" unicode="&#x65;" d="M379 15Q359 5 322-2.50Q285-10 243-10Q140-10 82 50.50Q24 111 24 243Q24 364 77.50 430Q131 496 224 496Q320 496 362.50 437.50Q405 379 405 271Q405 229 403 203L155 203Q158 151 185.50 126Q213 101 269 101Q300 101 329.50 108Q359 115 379 124L379 15M222 390Q160 390 156 289L282 289Q282 338 267 364Q252 390 222 390Z"  horiz-adv-x="427" vert-adv-y="1000"  />

      
      <glyph glyph-name="uni66" unicode="&#x66;" d="M58 576Q58 657 95.50 701.50Q133 746 208 746Q244 746 274 738L274 626Q257 631 238 631Q211 631 197.50 616Q184 601 184 568L184 486L271 486L271 374L184 374L184 0L58 0L58 374L0 374L0 486L58 486L58 576Z"  horiz-adv-x="279" vert-adv-y="1000"  />

      
      <glyph glyph-name="uni67" unicode="&#x67;" d="M419-24Q419-124 363-186.50Q307-249 189-249Q154-249 116-242Q78-235 57-226L57-101Q77-111 111-118.50Q145-126 179-126Q293-126 293-28L293 0Q283-3 262-6.50Q241-10 220-10Q127-10 75.50 53.50Q24 117 24 231Q24 353 85.50 424.50Q147 496 271 496Q312 496 353.50 487Q395 478 419 466L419-24M249 106Q261 106 274 108.50Q287 111 293 114L293 374Q279 380 255 380Q209 380 181.50 346Q154 312 154 237Q154 106 249 106Z"  horiz-adv-x="463" vert-adv-y="1000"  />

      
      <glyph glyph-name="uni68" unicode="&#x68;" d="M170 479Q184 485 212 490.50Q240 496 268 496Q346 496 381 453Q416 410 416 327L416 0L290 0L290 311Q290 348 274 364Q258 380 227 380Q195 380 170 369L170 0L44 0L44 738L170 738L170 479Z"  horiz-adv-x="458" vert-adv-y="1000"  />

      
      <glyph glyph-name="uni69" unicode="&#x69;" d="M170 589L44 589L44 732L170 732L170 589M170 0L44 0L44 486L170 486L170 0Z"  horiz-adv-x="214" vert-adv-y="1000"  />

      
      <glyph glyph-name="uni6a" unicode="&#x6a;" d="M170 589L44 589L44 732L170 732L170 589M170-58Q170-238 9-238Q-19-238-49-231L-49-115Q-29-120-13-120Q15-120 29.50-105Q44-90 44-58L44 486L170 486L170-58Z"  horiz-adv-x="214" vert-adv-y="1000"  />

      
      <glyph glyph-name="uni6b" unicode="&#x6b;" d="M286 0L171 253L170 253L170 0L44 0L44 738L170 738L170 262L171 262L286 486L429 486L303 260L428 0L286 0Z"  horiz-adv-x="429" vert-adv-y="1000"  />

      
      <glyph glyph-name="uni6c" unicode="&#x6c;" d="M170 0L44 0L44 738L170 738L170 0Z"  horiz-adv-x="214" vert-adv-y="1000"  />

      
      <glyph glyph-name="uni6d" unicode="&#x6d;" d="M44 466Q90 479 131 487.50Q172 496 222 496Q289 496 333 474Q399 496 458 496Q556 496 598 453Q640 410 640 327L640 0L514 0L514 314Q514 348 500.50 364Q487 380 454 380Q431 380 401 372Q405 353 405 327L405 0L279 0L279 314Q279 348 265.50 364Q252 380 219 380Q201 380 170 373L170 0L44 0L44 466Z"  horiz-adv-x="682" vert-adv-y="1000"  />

      
      <glyph glyph-name="uni6e" unicode="&#x6e;" d="M44 464Q135 496 227 496Q329 496 372.50 452.50Q416 409 416 320L416 0L290 0L290 309Q290 345 275 362.50Q260 380 224 380Q194 380 170 372L170 0L44 0L44 464Z"  horiz-adv-x="458" vert-adv-y="1000"  />

      
      <glyph glyph-name="uni6f" unicode="&#x6f;" d="M24 244Q24 371 80 433.50Q136 496 233 496Q330 496 383.50 433.50Q437 371 437 244Q437 118 382 54Q327-10 231-10Q132-10 78 53.50Q24 117 24 244M154 244Q154 170 174.50 138Q195 106 231 106Q307 106 307 244Q307 380 232 380Q197 380 175.50 348Q154 316 154 244Z"  horiz-adv-x="461" vert-adv-y="1000"  />

      
      <glyph glyph-name="uni70" unicode="&#x70;" d="M223-10Q190-10 170-4L170-235L44-235L44 457Q131 496 218 496Q330 496 384.50 431.50Q439 367 439 249Q439 167 410.50 108.50Q382 50 333 20Q284-10 223-10M209 382Q186 382 170 375L170 110Q188 106 208 106Q309 106 309 243Q309 382 209 382Z"  horiz-adv-x="463" vert-adv-y="1000"  />

      
      <glyph glyph-name="uni71" unicode="&#x71;" d="M267 496Q310 496 351.50 487Q393 478 419 466L419-235L293-235L293 0Q282-4 261.50-7Q241-10 219-10Q126-10 75 52.50Q24 115 24 230Q24 352 85 424Q146 496 267 496M245 106Q257 106 271 108.50Q285 111 293 114L293 374Q281 380 251 380Q207 380 180.50 345Q154 310 154 236Q154 171 178 138.50Q202 106 245 106Z"  horiz-adv-x="463" vert-adv-y="1000"  />

      
      <glyph glyph-name="uni72" unicode="&#x72;" d="M289 370Q263 374 231 374Q192 374 169 368L169 0L44 0L44 470Q73 480 119.50 488Q166 496 216 496Q256 496 289 491L289 370Z"  horiz-adv-x="293" vert-adv-y="1000"  />

      
      <glyph glyph-name="uni73" unicode="&#x73;" d="M29 121Q58 109 79.50 103Q101 97 128 97Q188 97 188 135Q188 155 175.50 166Q163 177 125 197Q73 224 47.50 256Q22 288 22 346Q22 415 65.50 455.50Q109 496 193 496Q242 496 292 483L292 371Q266 379 248.50 383Q231 387 209 387Q178 387 163.50 377Q149 367 149 349Q149 334 156.50 324Q164 314 180 304.50Q196 295 215 286Q265 260 289.50 229Q314 198 314 136Q314 73 271.50 31.50Q229-10 148-10Q80-10 29 9L29 121Z"  horiz-adv-x="330" vert-adv-y="1000"  />

      
      <glyph glyph-name="uni74" unicode="&#x74;" d="M56 621L180 621L180 486L278 486L278 372L180 372L180 169Q180 132 194.50 118.50Q209 105 235 105Q253 105 277 111L277 3Q240-10 197-10Q56-10 56 146L56 372L0 372L0 486L56 486L56 621Z"  horiz-adv-x="287" vert-adv-y="1000"  />

      
      <glyph glyph-name="uni75" unicode="&#x75;" d="M231-10Q129-10 85.50 33.50Q42 77 42 166L42 486L168 486L168 177Q168 141 183 123.50Q198 106 234 106Q264 106 288 114L288 486L414 486L414 22Q323-10 231-10Z"  horiz-adv-x="458" vert-adv-y="1000"  />

      
      <glyph glyph-name="uni76" unicode="&#x76;" d="M-1 486L131 486L180 271Q187 239 192 200Q197 161 199 138L201 138Q204 176 224 269L277 486L408 486L275 0L123 0L-1 486Z"  horiz-adv-x="407" vert-adv-y="1000"  />

      
      <glyph glyph-name="uni77" unicode="&#x77;" d="M316 181Q303 241 297 294L296 294Q284 218 275 180L232 0L98 0L3 486L126 486L165 255Q168 241 174 192L178 161L181 161L185 187Q190 226 197 256L252 486L364 486L409 254Q415 218 416 205L423 161L425 161Q435 235 440 260L489 486L614 486L494 0L355 0L316 181Z"  horiz-adv-x="617" vert-adv-y="1000"  />

      
      <glyph glyph-name="uni78" unicode="&#x78;" d="M270 0L204 158L138 0L2 0L117 242L7 486L145 486L205 326L269 486L407 486L292 243L409 0L270 0Z"  horiz-adv-x="411" vert-adv-y="1000"  />

      
      <glyph glyph-name="uni79" unicode="&#x79;" d="M133-21L-1 486L131 486L178 271Q185 238 191 200Q197 162 199 140L201 140Q204 178 226 269L277 486L408 486L196-235L64-235L133-21Z"  horiz-adv-x="407" vert-adv-y="1000"  />

      
      <glyph glyph-name="uni7a" unicode="&#x7a;" d="M345 376L178 116L351 116L351 0L16 0L16 95L190 370L29 370L29 486L345 486L345 376Z"  horiz-adv-x="366" vert-adv-y="1000"  />

      
      <glyph glyph-name="uni7b" unicode="&#x7b;" d="M264 662Q237 662 227.50 644Q218 626 218 584L218 419Q218 330 151 305L151 303Q218 276 218 182L218 20Q218-18 228.50-35Q239-52 264-52L264-160Q178-160 142.50-116.50Q107-73 107 8L107 165Q107 252 32 255L32 354Q107 357 107 438L107 595Q107 682 148 726Q189 770 264 770L264 662Z"  horiz-adv-x="276" vert-adv-y="1000"  />

      
      <glyph glyph-name="uni7c" unicode="&#x7c;" d="M76-251L76 749L146 749L146-251L76-251Z"  horiz-adv-x="222" vert-adv-y="1000"  />

      
      <glyph glyph-name="uni7d" unicode="&#x7d;" d="M58 26L58 191Q58 280 125 305L125 307Q58 334 58 428L58 590Q58 628 47.50 645Q37 662 12 662L12 770Q98 770 133.50 726.50Q169 683 169 602L169 445Q169 358 244 355L244 256Q169 253 169 172L169 15Q169-72 128-116Q87-160 12-160L12-52Q39-52 48.50-34Q58-16 58 26Z"  horiz-adv-x="276" vert-adv-y="1000"  />

      
      <glyph glyph-name="uni7e" unicode="&#x7e;" d="M437 319Q405 274 370 251.50Q335 229 293 229Q249 229 202 262Q186 273 174.50 278.50Q163 284 149 284Q131 284 113 272.50Q95 261 80 236L7 302Q37 347 71.50 369.50Q106 392 150 392Q194 392 241 360Q260 347 270.50 342Q281 337 296 337Q312 337 331 349Q350 361 366 385L437 319Z"  horiz-adv-x="445" vert-adv-y="1000"  />

      
      <glyph glyph-name="unia1" unicode="&#xa1;" d="M153 261L161-209L33-209L40 261L153 261M33 486L163 486L163 338L33 338L33 486Z"  horiz-adv-x="196" vert-adv-y="1000"  />

      
      <glyph glyph-name="unia2" unicode="&#xa2;" d="M255 96Q171 104 119.50 165.50Q68 227 68 345Q68 455 120 522.50Q172 590 255 602L255 714L320 714L320 604Q357 602 377 597L377 483Q369 486 352.50 488.50Q336 491 320 491L320 208Q335 208 352.50 211Q370 214 378 217L378 108Q358 100 320 97L320-14L255-14L255 96M192 347Q192 290 208 257Q224 224 255 213L255 484Q192 458 192 347Z"  horiz-adv-x="445" vert-adv-y="1000"  />

      
      <glyph glyph-name="unia3" unicode="&#xa3;" d="M406 569Q373 580 337 580Q245 580 245 486L245 400L365 400L365 292L245 292L245 240Q245 157 196 121L409 121L409 0L45 0L45 121Q74 122 92.50 149.50Q111 177 111 220L111 292L44 292L44 400L111 400L111 495Q111 705 320 705Q371 705 406 694L406 569Z"  horiz-adv-x="445" vert-adv-y="1000"  />

      
      <glyph glyph-name="unia4" unicode="&#xa4;" d="M461 303Q461 256 440 212L498 154L405 62L346 119Q304 99 256 99Q208 99 166 119L108 62L15 154L72 213Q52 253 52 303Q52 351 72 393L15 452L108 544L165 487Q210 508 256 508Q302 508 346 487L405 544L498 452L440 393Q461 349 461 303M349 304Q349 342 321.50 369Q294 396 256 396Q219 396 191.50 369Q164 342 164 304Q164 266 191 238.50Q218 211 256 211Q294 211 321.50 238.50Q349 266 349 304Z"  horiz-adv-x="513" vert-adv-y="1000"  />

      
      <glyph glyph-name="unia5" unicode="&#xa5;" d="M380 180L380 82L289 82L289 0L160 0L160 82L70 82L70 180L160 180L160 236L70 236L70 334L160 334L160 337L6 695L150 695L225 477L301 695L439 695L289 337L289 334L380 334L380 236L289 236L289 180L380 180Z"  horiz-adv-x="445" vert-adv-y="1000"  />

      
      <glyph glyph-name="unia6" unicode="&#xa6;" d="M76 337L76 752L146 752L146 337L76 337M76-254L76 161L146 161L146-254L76-254Z"  horiz-adv-x="222" vert-adv-y="1000"  />

      
      <glyph glyph-name="unia7" unicode="&#xa7;" d="M294 168Q329 124 329 58Q329-13 287-61.50Q245-110 165-110Q95-110 48-89L48 13Q69 1 97.50-7Q126-15 155-15Q189-15 206.50 4.50Q224 24 224 51Q224 78 206.50 97Q189 116 147 144Q90 181 60 218.50Q30 256 30 310Q30 391 86 435Q49 477 49 543Q49 622 93 668.50Q137 715 218 715Q269 715 313 701L313 600Q267 617 225 617Q191 617 174 598Q157 579 157 552Q157 523 175 504.50Q193 486 234 459Q290 423 319 386Q348 349 348 292Q348 254 333.50 222Q319 190 294 168M160 378Q138 360 138 324Q138 295 156 276.50Q174 258 222 225Q232 236 237.50 250.50Q243 265 243 279Q243 306 225 326.50Q207 347 160 378Z"  horiz-adv-x="375" vert-adv-y="1000"  />

      
      <glyph glyph-name="unia8" unicode="&#xa8;" d="M30 560L30 671L126 671L126 560L30 560M188 560L188 671L283 671L283 560L188 560Z"  horiz-adv-x="313" vert-adv-y="1000"  />

      
      <glyph glyph-name="unia9" unicode="&#xa9;" d="M768 347Q768 248 719 165Q670 82 586.50 33.50Q503-15 404-15Q305-15 221 33.50Q137 82 88 165Q39 248 39 347Q39 446 88 529Q137 612 221 661Q305 710 404 710Q503 710 586.50 661.50Q670 613 719 529.50Q768 446 768 347M680 347Q680 422 643 485.50Q606 549 542.50 586Q479 623 404 623Q329 623 265.50 586Q202 549 165 485.50Q128 422 128 347Q128 272 165 208.50Q202 145 265.50 108Q329 71 404 71Q479 71 542.50 108Q606 145 643 208.50Q680 272 680 347M539 444Q490 465 445 465Q384 465 355.50 434.50Q327 404 327 352Q327 295 358 263Q389 231 446 231Q474 231 501 238.50Q528 246 545 256L545 161Q520 150 494.50 143Q469 136 435 136Q336 136 276.50 193.50Q217 251 217 347Q217 444 273.50 500.50Q330 557 436 557Q489 557 539 539L539 444Z"  horiz-adv-x="808" vert-adv-y="1000"  />

      
      <glyph glyph-name="uniaa" unicode="&#xaa;" d="M245 399Q197 383 135 383Q76 383 47 409.50Q18 436 18 484Q18 533 45.50 559.50Q73 586 125 586L150 585L150 597Q150 630 104 630Q91 630 75 626.50Q59 623 48 619L48 704Q82 717 133 717Q245 717 245 609L245 399M135 517Q124 517 116 509.50Q108 502 108 487Q108 472 117.50 465.50Q127 459 138 459L150 459L150 517L135 517Z"  horiz-adv-x="278" vert-adv-y="1000"  />

      
      <glyph glyph-name="uniab" unicode="&#xab;" d="M124 234L217 55L107 55L15 234L107 413L217 413L124 234M287 234L380 55L270 55L178 234L270 413L380 413L287 234Z"  horiz-adv-x="391" vert-adv-y="1000"  />

      
      <glyph glyph-name="uniac" unicode="&#xac;" d="M23 352L421 352L421 95L315 95L315 246L23 246L23 352Z"  horiz-adv-x="445" vert-adv-y="1000"  />

      
      <glyph glyph-name="uniad" unicode="&#xad;" d="M261 331L261 207L33 207L33 331L261 331Z"  horiz-adv-x="294" vert-adv-y="1000"  />

      
      <glyph glyph-name="uniae" unicode="&#xae;" d="M490 484Q490 422 459.50 370Q429 318 377 287.50Q325 257 263 257Q201 257 148.50 287.50Q96 318 65.50 370Q35 422 35 484Q35 546 65.50 598Q96 650 148.50 681Q201 712 263 712Q324 712 376.50 681Q429 650 459.50 597.50Q490 545 490 484M426 484Q426 527 404 564Q382 601 344.50 623Q307 645 263 645Q218 645 180.50 623Q143 601 121 564Q99 527 99 484Q99 441 121 404Q143 367 180.50 345Q218 323 263 323Q307 323 344.50 345Q382 367 404 404Q426 441 426 484M369 528Q369 501 354 481Q339 461 315 452L366 364L298 364L260 441L235 441L235 364L174 364L174 603L268 603Q369 603 369 528M308 524Q308 552 266 552L235 552L235 494L267 494Q288 494 298 501Q308 508 308 524Z"  horiz-adv-x="525" vert-adv-y="1000"  />

      
      <glyph glyph-name="uniaf" unicode="&#xaf;" d="M30 560L30 652L233 652L233 560L30 560Z"  horiz-adv-x="263" vert-adv-y="1000"  />

      
      <glyph glyph-name="unib0" unicode="&#xb0;" d="M318 576Q318 534 298.50 499.50Q279 465 244.50 445Q210 425 168 425Q126 425 91 445Q56 465 35.50 499.50Q15 534 15 576Q15 618 35 652Q55 686 90 706Q125 726 167 726Q209 726 243.50 706.50Q278 687 298 652.50Q318 618 318 576M240 576Q240 607 218.50 629Q197 651 168 651Q137 651 115 629Q93 607 93 576Q93 545 114.50 523Q136 501 167 501Q197 501 218.50 523Q240 545 240 576Z"  horiz-adv-x="333" vert-adv-y="1000"  />

      
      <glyph glyph-name="unib1" unicode="&#xb1;" d="M421 310L275 310L275 164L169 164L169 310L23 310L23 416L169 416L169 562L275 562L275 416L421 416L421 310M23 106L421 106L421 0L23 0L23 106Z"  horiz-adv-x="445" vert-adv-y="1000"  />

      
      <glyph glyph-name="unib2" unicode="&#xb2;" d="M120 541Q144 572 158.50 599Q173 626 173 654Q173 679 159 691Q145 703 121 703Q95 703 73 695.50Q51 688 39 679L39 773Q54 782 83 789.50Q112 797 144 797Q213 797 245 763.50Q277 730 277 669Q277 618 253.50 575Q230 532 184 477L145 429L279 429L279 330L23 330L23 419L120 541Z"  horiz-adv-x="310" vert-adv-y="1000"  />

      
      <glyph glyph-name="unib3" unicode="&#xb3;" d="M280 458Q280 397 241 358.50Q202 320 116 320Q88 320 65 324Q42 328 31 334L31 427Q41 422 62 417.50Q83 413 101 413Q138 413 154 426Q170 439 170 463Q170 489 153 500.50Q136 512 101 512L72 512L72 608L100 608Q163 608 163 656Q163 678 148 689Q133 700 106 700Q85 700 65 695Q45 690 35 685L35 779Q78 795 137 795Q207 795 239.50 759Q272 723 272 673Q272 630 253 603Q234 576 203 564L203 563Q280 541 280 458Z"  horiz-adv-x="310" vert-adv-y="1000"  />

      
      <glyph glyph-name="unib4" unicode="&#xb4;" d="M30 560L125 727L248 727L136 560L30 560Z"  horiz-adv-x="278" vert-adv-y="1000"  />

      
      <glyph glyph-name="unib5" unicode="&#xb5;" d="M392 19Q357 4 324.50-4.50Q292-13 249-13Q222-13 200.50-7Q179-1 172 5L172-251L44-251L44 486L170 486L170 167Q170 106 230 106Q245 106 266 109L266 486L392 486L392 19Z"  horiz-adv-x="436" vert-adv-y="1000"  />

      
      <glyph glyph-name="unib6" unicode="&#xb6;" d="M287 605L238 605L238-63L160-63L160 379Q99 379 62 420Q25 461 25 533Q25 615 63.50 655Q102 695 167 695L366 695L366-63L287-63L287 605Z"  horiz-adv-x="416" vert-adv-y="1000"  />

      
      <glyph glyph-name="unib7" unicode="&#xb7;" d="M164 241L34 241L34 389L164 389L164 241Z"  horiz-adv-x="199" vert-adv-y="1000"  />

      
      <glyph glyph-name="unib8" unicode="&#xb8;" d="M110-46Q142-46 161.50-68.50Q181-91 181-127Q181-172 154.50-197.50Q128-223 92-223Q59-223 30-211L30-142Q40-146 52.50-149.50Q65-153 79-153Q101-153 108.50-145Q116-137 116-119Q116-105 103-100Q90-95 66-94L48-93L91 0L127 0L110-46Z"  horiz-adv-x="211" vert-adv-y="1000"  />

      
      <glyph glyph-name="unib9" unicode="&#xb9;" d="M30 715L169 797L227 797L227 330L123 330L123 665L30 604L30 715Z"  horiz-adv-x="310" vert-adv-y="1000"  />

      
      <glyph glyph-name="uniba" unicode="&#xba;" d="M19 551Q19 635 56.50 677Q94 719 159 719Q223 719 259.50 677Q296 635 296 551Q296 468 258.50 425Q221 382 157 382Q92 382 55.50 424.50Q19 467 19 551M126 551Q126 508 133.50 491Q141 474 157 474Q173 474 181 491.50Q189 509 189 551Q189 594 181.50 610.50Q174 627 157 627Q126 627 126 551Z"  horiz-adv-x="315" vert-adv-y="1000"  />

      
      <glyph glyph-name="unibb" unicode="&#xbb;" d="M104 234L11 413L121 413L213 234L121 55L11 55L104 234M267 234L174 413L284 413L376 234L284 55L174 55L267 234Z"  horiz-adv-x="391" vert-adv-y="1000"  />

      
      <glyph glyph-name="unibc" unicode="&#xbc;" d="M17 615L156 697L214 697L214 230L110 230L110 565L17 504L17 615M493 695L609 695L237 0L121 0L493 695M571 0L571 87L415 87L415 176L551 455L668 455L668 172L721 172L721 87L668 87L668 0L571 0M569 324Q563 297 549 264L506 172L571 172L571 324L569 324Z"  horiz-adv-x="747" vert-adv-y="1000"  />

      
      <glyph glyph-name="unibd" unicode="&#xbd;" d="M17 615L156 697L214 697L214 230L110 230L110 565L17 504L17 615M493 695L609 695L237 0L121 0L493 695M579 211Q603 242 617.50 269Q632 296 632 324Q632 349 618 361Q604 373 580 373Q554 373 532 365.50Q510 358 498 349L498 443Q513 452 542 459.50Q571 467 603 467Q672 467 704 433.50Q736 400 736 339Q736 288 712.50 245Q689 202 643 147L604 99L738 99L738 0L482 0L482 89L579 211Z"  horiz-adv-x="769" vert-adv-y="1000"  />

      
      <glyph glyph-name="unibe" unicode="&#xbe;" d="M267 358Q267 297 228 258.50Q189 220 103 220Q75 220 52 224Q29 228 18 234L18 327Q28 322 49 317.50Q70 313 88 313Q125 313 141 326Q157 339 157 363Q157 389 140 400.50Q123 412 88 412L59 412L59 508L87 508Q150 508 150 556Q150 578 135 589Q120 600 93 600Q72 600 52 595Q32 590 22 585L22 679Q65 695 124 695Q194 695 226.50 659Q259 623 259 573Q259 530 240 503Q221 476 190 464L190 463Q267 441 267 358M499 695L615 695L243 0L127 0L499 695M582 0L582 87L426 87L426 176L562 455L679 455L679 172L732 172L732 87L679 87L679 0L582 0M580 324Q574 297 560 264L517 172L582 172L582 324L580 324Z"  horiz-adv-x="751" vert-adv-y="1000"  />

      
      <glyph glyph-name="unibf" unicode="&#xbf;" d="M150-22Q150-63 172.50-84.50Q195-106 238-106Q276-106 317-91L317-201Q300-208 270-214.50Q240-221 206-221Q115-221 68.50-172Q22-123 22-39Q22 31 57 87Q92 143 153 198L153 261L266 261L266 142Q208 96 179 60Q150 24 150-22M142 486L272 486L272 338L142 338L142 486Z"  horiz-adv-x="345" vert-adv-y="1000"  />

      
      <glyph glyph-name="unic0" unicode="&#xc0;" d="M177 159L137 0L1 0L187 695L346 695L526 0L390 0L351 159L177 159M204 276L321 276L263 529L262 529L204 276M229 756L123 894L246 894L335 756L229 756Z"  horiz-adv-x="527" vert-adv-y="1000"  />

      
      <glyph glyph-name="unic1" unicode="&#xc1;" d="M177 159L137 0L1 0L187 695L346 695L526 0L390 0L351 159L177 159M204 276L321 276L263 529L262 529L204 276M198 756L287 894L410 894L304 756L198 756Z"  horiz-adv-x="527" vert-adv-y="1000"  />

      
      <glyph glyph-name="unic2" unicode="&#xc2;" d="M177 159L137 0L1 0L187 695L346 695L526 0L390 0L351 159L177 159M204 276L321 276L263 529L262 529L204 276M309 753L264 828L220 753L126 753L225 907L303 907L402 753L309 753Z"  horiz-adv-x="527" vert-adv-y="1000"  />

      
      <glyph glyph-name="unic3" unicode="&#xc3;" d="M177 159L137 0L1 0L187 695L346 695L526 0L390 0L351 159L177 159M204 276L321 276L263 529L262 529L204 276M210 875Q231 875 246.50 867.50Q262 860 276 848Q299 827 316 827Q332 827 339 839Q346 851 348 872L413 872Q407 812 383.50 783.50Q360 755 317 755Q294 755 278 763.50Q262 772 246 786Q243 788 237 793.50Q231 799 225 802Q219 805 212 805Q195 805 187.50 791Q180 777 181 757L114 757Q116 812 139.50 843.50Q163 875 210 875Z"  horiz-adv-x="527" vert-adv-y="1000"  />

      
      <glyph glyph-name="unic4" unicode="&#xc4;" d="M177 159L137 0L1 0L187 695L346 695L526 0L390 0L351 159L177 159M204 276L321 276L263 529L262 529L204 276M139 753L139 864L235 864L235 753L139 753M297 753L297 864L392 864L392 753L297 753Z"  horiz-adv-x="527" vert-adv-y="1000"  />

      
      <glyph glyph-name="unic5" unicode="&#xc5;" d="M177 159L137 0L1 0L187 695L346 695L526 0L390 0L351 159L177 159M204 276L321 276L263 529L262 529L204 276M267 940Q311 940 341.50 909.50Q372 879 372 835Q372 792 341.50 761Q311 730 267 730Q224 730 193 761Q162 792 162 835Q162 879 192.50 909.50Q223 940 267 940M267 880Q248 880 234.50 867.50Q221 855 221 835Q221 817 234.50 803Q248 789 267 789Q287 789 299.50 802.50Q312 816 312 835Q312 855 299.50 867.50Q287 880 267 880Z"  horiz-adv-x="527" vert-adv-y="1000"  />

      
      <glyph glyph-name="unic6" unicode="&#xc6;" d="M497 416L690 416L690 288L497 288L497 128L719 128L719 0L365 0L365 159L206 159L143 0L-6 0L281 695L710 695L710 567L497 567L497 416M253 276L365 276L365 565L362 565L253 276Z"  horiz-adv-x="748" vert-adv-y="1000"  />

      
      <glyph glyph-name="unic7" unicode="&#xc7;" d="M303-13L291-46Q323-46 342.50-68.50Q362-91 362-127Q362-172 335.50-197.50Q309-223 273-223Q240-223 211-211L211-142Q221-146 233.50-149.50Q246-153 260-153Q282-153 289.50-145Q297-137 297-119Q297-105 284-100Q271-95 247-94L229-93L267-10Q32 16 32 344Q32 519 109.50 613Q187 707 325 707Q381 707 428 692L428 558Q407 567 386 572Q365 577 333 577Q256 577 214 520.50Q172 464 172 346Q172 215 214.50 166Q257 117 337 117Q388 117 433 137L433 10Q410 1 377.50-6Q345-13 313-13L303-13Z"  horiz-adv-x="462" vert-adv-y="1000"  />

      
      <glyph glyph-name="unic8" unicode="&#xc8;" d="M180 416L373 416L373 288L180 288L180 128L402 128L402 0L48 0L48 695L393 695L393 567L180 567L180 416M185 756L79 894L202 894L291 756L185 756Z"  horiz-adv-x="431" vert-adv-y="1000"  />

      
      <glyph glyph-name="unic9" unicode="&#xc9;" d="M180 416L373 416L373 288L180 288L180 128L402 128L402 0L48 0L48 695L393 695L393 567L180 567L180 416M154 756L243 894L366 894L260 756L154 756Z"  horiz-adv-x="431" vert-adv-y="1000"  />

      
      <glyph glyph-name="unica" unicode="&#xca;" d="M180 416L373 416L373 288L180 288L180 128L402 128L402 0L48 0L48 695L393 695L393 567L180 567L180 416M265 753L220 828L176 753L82 753L181 907L259 907L358 753L265 753Z"  horiz-adv-x="431" vert-adv-y="1000"  />

      
      <glyph glyph-name="unicb" unicode="&#xcb;" d="M180 416L373 416L373 288L180 288L180 128L402 128L402 0L48 0L48 695L393 695L393 567L180 567L180 416M95 753L95 864L191 864L191 753L95 753M253 753L253 864L348 864L348 753L253 753Z"  horiz-adv-x="431" vert-adv-y="1000"  />

      
      <glyph glyph-name="unicc" unicode="&#xcc;" d="M180 0L48 0L48 695L180 695L180 0M79 756L-27 894L96 894L185 756L79 756Z"  horiz-adv-x="228" vert-adv-y="1000"  />

      
      <glyph glyph-name="unicd" unicode="&#xcd;" d="M180 0L48 0L48 695L180 695L180 0M48 756L137 894L260 894L154 756L48 756Z"  horiz-adv-x="228" vert-adv-y="1000"  />

      
      <glyph glyph-name="unice" unicode="&#xce;" d="M180 0L48 0L48 695L180 695L180 0M159 753L114 828L70 753L-24 753L75 907L153 907L252 753L159 753Z"  horiz-adv-x="228" vert-adv-y="1000"  />

      
      <glyph glyph-name="unicf" unicode="&#xcf;" d="M180 0L48 0L48 695L180 695L180 0M-11 753L-11 864L85 864L85 753L-11 753M147 753L147 864L242 864L242 753L147 753Z"  horiz-adv-x="228" vert-adv-y="1000"  />

      
      <glyph glyph-name="unid0" unicode="&#xd0;" d="M228 695Q364 695 437 612Q510 529 510 356Q510 246 475 166Q440 86 374.50 43Q309 0 221 0L48 0L48 285L-3 285L-3 409L48 409L48 695L228 695M222 129Q295 129 334.50 185Q374 241 374 348Q374 455 336 511Q298 567 222 567L180 567L180 409L276 409L276 285L180 285L180 129L222 129Z"  horiz-adv-x="542" vert-adv-y="1000"  />

      
      <glyph glyph-name="unid1" unicode="&#xd1;" d="M171 420L170 420Q172 387 172 312L172 0L48 0L48 695L175 695L382 274L384 274Q381 322 381 376L381 695L505 695L505 0L386 0L171 420M223 875Q244 875 259.50 867.50Q275 860 289 848Q312 827 329 827Q345 827 352 839Q359 851 361 872L426 872Q420 812 396.50 783.50Q373 755 330 755Q307 755 291 763.50Q275 772 259 786Q256 788 250 793.50Q244 799 238 802Q232 805 225 805Q208 805 200.50 791Q193 777 194 757L127 757Q129 812 152.50 843.50Q176 875 223 875Z"  horiz-adv-x="553" vert-adv-y="1000"  />

      
      <glyph glyph-name="unid2" unicode="&#xd2;" d="M32 347Q32 517 101 612Q170 707 298 707Q420 707 481.50 612.50Q543 518 543 347Q543 238 512.50 157Q482 76 424.50 32Q367-12 287-12Q159-12 95.50 83.50Q32 179 32 347M168 347Q168 118 286 118Q347 118 377 177.50Q407 237 407 347Q407 460 379.50 518.50Q352 577 291 577Q229 577 198.50 517.50Q168 458 168 347M253 756L147 894L270 894L359 756L253 756Z"  horiz-adv-x="575" vert-adv-y="1000"  />

      
      <glyph glyph-name="unid3" unicode="&#xd3;" d="M32 347Q32 517 101 612Q170 707 298 707Q420 707 481.50 612.50Q543 518 543 347Q543 238 512.50 157Q482 76 424.50 32Q367-12 287-12Q159-12 95.50 83.50Q32 179 32 347M168 347Q168 118 286 118Q347 118 377 177.50Q407 237 407 347Q407 460 379.50 518.50Q352 577 291 577Q229 577 198.50 517.50Q168 458 168 347M222 756L311 894L434 894L328 756L222 756Z"  horiz-adv-x="575" vert-adv-y="1000"  />

      
      <glyph glyph-name="unid4" unicode="&#xd4;" d="M32 347Q32 517 101 612Q170 707 298 707Q420 707 481.50 612.50Q543 518 543 347Q543 238 512.50 157Q482 76 424.50 32Q367-12 287-12Q159-12 95.50 83.50Q32 179 32 347M168 347Q168 118 286 118Q347 118 377 177.50Q407 237 407 347Q407 460 379.50 518.50Q352 577 291 577Q229 577 198.50 517.50Q168 458 168 347M333 753L288 828L244 753L150 753L249 907L327 907L426 753L333 753Z"  horiz-adv-x="575" vert-adv-y="1000"  />

      
      <glyph glyph-name="unid5" unicode="&#xd5;" d="M32 347Q32 517 101 612Q170 707 298 707Q420 707 481.50 612.50Q543 518 543 347Q543 238 512.50 157Q482 76 424.50 32Q367-12 287-12Q159-12 95.50 83.50Q32 179 32 347M168 347Q168 118 286 118Q347 118 377 177.50Q407 237 407 347Q407 460 379.50 518.50Q352 577 291 577Q229 577 198.50 517.50Q168 458 168 347M234 875Q255 875 270.50 867.50Q286 860 300 848Q323 827 340 827Q356 827 363 839Q370 851 372 872L437 872Q431 812 407.50 783.50Q384 755 341 755Q318 755 302 763.50Q286 772 270 786Q267 788 261 793.50Q255 799 249 802Q243 805 236 805Q219 805 211.50 791Q204 777 205 757L138 757Q140 812 163.50 843.50Q187 875 234 875Z"  horiz-adv-x="575" vert-adv-y="1000"  />

      
      <glyph glyph-name="unid6" unicode="&#xd6;" d="M32 347Q32 517 101 612Q170 707 298 707Q420 707 481.50 612.50Q543 518 543 347Q543 238 512.50 157Q482 76 424.50 32Q367-12 287-12Q159-12 95.50 83.50Q32 179 32 347M168 347Q168 118 286 118Q347 118 377 177.50Q407 237 407 347Q407 460 379.50 518.50Q352 577 291 577Q229 577 198.50 517.50Q168 458 168 347M163 753L163 864L259 864L259 753L163 753M321 753L321 864L416 864L416 753L321 753Z"  horiz-adv-x="575" vert-adv-y="1000"  />

      
      <glyph glyph-name="unid7" unicode="&#xd7;" d="M421 423L297 299L421 175L346 100L222 224L98 100L23 175L147 299L23 423L98 498L222 374L346 498L421 423Z"  horiz-adv-x="445" vert-adv-y="1000"  />

      
      <glyph glyph-name="unid8" unicode="&#xd8;" d="M32 347Q32 516 99 611.50Q166 707 287 707Q364 707 423 669L491 789L568 746L486 601Q543 508 543 347Q543 238 512.50 157Q482 76 424.50 32Q367-12 287-12Q212-12 158 22L101-79L23-36L93 87Q32 179 32 347M165 347Q165 279 175 233L356 550Q329 577 286 577Q226 577 195.50 517Q165 457 165 347M410 347Q410 407 401 452L224 139Q250 118 286 118Q347 118 378.50 177.50Q410 237 410 347Z"  horiz-adv-x="575" vert-adv-y="1000"  />

      
      <glyph glyph-name="unid9" unicode="&#xd9;" d="M272-12Q152-12 99 44.50Q46 101 46 228L46 695L178 695L178 234Q178 167 202.50 140.50Q227 114 286 114Q323 114 365 122L365 695L497 695L497 28Q445 10 395.50-1Q346-12 272-12M238 756L132 894L255 894L344 756L238 756Z"  horiz-adv-x="545" vert-adv-y="1000"  />

      
      <glyph glyph-name="unida" unicode="&#xda;" d="M272-12Q152-12 99 44.50Q46 101 46 228L46 695L178 695L178 234Q178 167 202.50 140.50Q227 114 286 114Q323 114 365 122L365 695L497 695L497 28Q445 10 395.50-1Q346-12 272-12M207 756L296 894L419 894L313 756L207 756Z"  horiz-adv-x="545" vert-adv-y="1000"  />

      
      <glyph glyph-name="unidb" unicode="&#xdb;" d="M272-12Q152-12 99 44.50Q46 101 46 228L46 695L178 695L178 234Q178 167 202.50 140.50Q227 114 286 114Q323 114 365 122L365 695L497 695L497 28Q445 10 395.50-1Q346-12 272-12M318 753L273 828L229 753L135 753L234 907L312 907L411 753L318 753Z"  horiz-adv-x="545" vert-adv-y="1000"  />

      
      <glyph glyph-name="unidc" unicode="&#xdc;" d="M272-12Q152-12 99 44.50Q46 101 46 228L46 695L178 695L178 234Q178 167 202.50 140.50Q227 114 286 114Q323 114 365 122L365 695L497 695L497 28Q445 10 395.50-1Q346-12 272-12M148 753L148 864L244 864L244 753L148 753M306 753L306 864L401 864L401 753L306 753Z"  horiz-adv-x="545" vert-adv-y="1000"  />

      
      <glyph glyph-name="unidd" unicode="&#xdd;" d="M148 695L241 382L342 695L485 695L307 226L307 0L174 0L174 223L0 695L148 695M177 756L266 894L389 894L283 756L177 756Z"  horiz-adv-x="485" vert-adv-y="1000"  />

      
      <glyph glyph-name="unide" unicode="&#xde;" d="M180 595L222 595Q343 595 401.50 533.50Q460 472 460 361Q460 245 395.50 177Q331 109 219 109L180 109L180 0L48 0L48 695L180 695L180 595M218 237Q269 237 292.50 271Q316 305 316 357Q316 411 292 439Q268 467 222 467L180 467L180 237L218 237Z"  horiz-adv-x="492" vert-adv-y="1000"  />

      
      <glyph glyph-name="unidf" unicode="&#xdf;" d="M187 117Q225 101 250 101Q279 101 295 115Q311 129 311 151Q311 171 300.50 184Q290 197 275 209Q260 221 254 225Q216 255 199 285Q182 315 182 359Q182 418 235 468Q262 494 274.50 516Q287 538 287 568Q287 600 269.50 615.50Q252 631 227 631Q197 631 180.50 611.50Q164 592 164 553L164 0L38 0L38 550Q38 637 85.50 690.50Q133 744 232 744Q313 744 362 699Q411 654 411 574Q411 527 392 492.50Q373 458 335 420Q318 403 311 390.50Q304 378 304 361Q304 334 350 300Q391 270 412.50 235.50Q434 201 434 146Q434 110 416 75Q398 40 360.50 16.50Q323-7 268-7Q219-7 187 9L187 117Z"  horiz-adv-x="450" vert-adv-y="1000"  />

      
      <glyph glyph-name="unie0" unicode="&#xe0;" d="M367 21Q286-10 201-10Q111-10 66.50 30Q22 70 22 143Q22 216 66 257.50Q110 299 191 299Q225 299 241 297L241 310Q241 348 221 364.50Q201 381 159 381Q133 381 105 374.50Q77 368 60 360L60 473Q80 481 115.50 488.50Q151 496 191 496Q281 496 324 453.50Q367 411 367 324L367 21M241 205Q229 207 208 207Q146 207 146 149Q146 92 208 92Q229 92 241 95L241 205M184 560L72 727L195 727L290 560L184 560Z"  horiz-adv-x="408" vert-adv-y="1000"  />

      
      <glyph glyph-name="unie1" unicode="&#xe1;" d="M367 21Q286-10 201-10Q111-10 66.50 30Q22 70 22 143Q22 216 66 257.50Q110 299 191 299Q225 299 241 297L241 310Q241 348 221 364.50Q201 381 159 381Q133 381 105 374.50Q77 368 60 360L60 473Q80 481 115.50 488.50Q151 496 191 496Q281 496 324 453.50Q367 411 367 324L367 21M241 205Q229 207 208 207Q146 207 146 149Q146 92 208 92Q229 92 241 95L241 205M141 560L236 727L359 727L247 560L141 560Z"  horiz-adv-x="408" vert-adv-y="1000"  />

      
      <glyph glyph-name="unie2" unicode="&#xe2;" d="M367 21Q286-10 201-10Q111-10 66.50 30Q22 70 22 143Q22 216 66 257.50Q110 299 191 299Q225 299 241 297L241 310Q241 348 221 364.50Q201 381 159 381Q133 381 105 374.50Q77 368 60 360L60 473Q80 481 115.50 488.50Q151 496 191 496Q281 496 324 453.50Q367 411 367 324L367 21M241 205Q229 207 208 207Q146 207 146 149Q146 92 208 92Q229 92 241 95L241 205M256 560L211 654L167 560L77 560L170 738L255 738L345 560L256 560Z"  horiz-adv-x="408" vert-adv-y="1000"  />

      
      <glyph glyph-name="unie3" unicode="&#xe3;" d="M367 21Q286-10 201-10Q111-10 66.50 30Q22 70 22 143Q22 216 66 257.50Q110 299 191 299Q225 299 241 297L241 310Q241 348 221 364.50Q201 381 159 381Q133 381 105 374.50Q77 368 60 360L60 473Q80 481 115.50 488.50Q151 496 191 496Q281 496 324 453.50Q367 411 367 324L367 21M241 205Q229 207 208 207Q146 207 146 149Q146 92 208 92Q229 92 241 95L241 205M157 678Q178 678 193.50 670.50Q209 663 223 651Q246 630 263 630Q279 630 286 642Q293 654 295 675L360 675Q354 615 330.50 586.50Q307 558 264 558Q241 558 225 566.50Q209 575 193 589Q190 591 184 596.50Q178 602 172 605Q166 608 159 608Q142 608 134.50 594Q127 580 128 560L61 560Q63 615 86.50 646.50Q110 678 157 678Z"  horiz-adv-x="408" vert-adv-y="1000"  />

      
      <glyph glyph-name="unie4" unicode="&#xe4;" d="M367 21Q286-10 201-10Q111-10 66.50 30Q22 70 22 143Q22 216 66 257.50Q110 299 191 299Q225 299 241 297L241 310Q241 348 221 364.50Q201 381 159 381Q133 381 105 374.50Q77 368 60 360L60 473Q80 481 115.50 488.50Q151 496 191 496Q281 496 324 453.50Q367 411 367 324L367 21M241 205Q229 207 208 207Q146 207 146 149Q146 92 208 92Q229 92 241 95L241 205M84 560L84 671L180 671L180 560L84 560M242 560L242 671L337 671L337 560L242 560Z"  horiz-adv-x="408" vert-adv-y="1000"  />

      
      <glyph glyph-name="unie5" unicode="&#xe5;" d="M367 21Q286-10 201-10Q111-10 66.50 30Q22 70 22 143Q22 216 66 257.50Q110 299 191 299Q225 299 241 297L241 310Q241 348 221 364.50Q201 381 159 381Q133 381 105 374.50Q77 368 60 360L60 473Q80 481 115.50 488.50Q151 496 191 496Q281 496 324 453.50Q367 411 367 324L367 21M241 205Q229 207 208 207Q146 207 146 149Q146 92 208 92Q229 92 241 95L241 205M211 784Q259 784 293.50 750Q328 716 328 667Q328 619 293.50 584.50Q259 550 211 550Q163 550 128.50 584.50Q94 619 94 667Q94 716 128.50 750Q163 784 211 784M211 715Q191 715 177 701.50Q163 688 163 667Q163 648 177.50 633.50Q192 619 211 619Q232 619 245.50 633Q259 647 259 667Q259 688 245.50 701.50Q232 715 211 715Z"  horiz-adv-x="408" vert-adv-y="1000"  />

      
      <glyph glyph-name="unie6" unicode="&#xe6;" d="M589 15Q569 5 531.50-2.50Q494-10 453-10Q375-10 324 23Q303 9 268-0.50Q233-10 193-10Q108-10 65 30Q22 70 22 143Q22 216 66 257.50Q110 299 191 299Q211 299 223 298Q235 297 238 297L238 310Q238 346 219.50 363.50Q201 381 159 381Q134 381 105 374.50Q76 368 60 360L60 473Q80 481 115.50 488.50Q151 496 191 496Q233 496 267 485.50Q301 475 318 454Q338 474 371 485Q404 496 437 496Q529 496 572 437Q615 378 615 271Q615 229 613 203L365 203Q368 151 395.50 126Q423 101 479 101Q510 101 539.50 108Q569 115 589 124L589 15M432 390Q370 390 366 289L492 289Q492 338 477 364Q462 390 432 390M208 92Q219 92 235 94.50Q251 97 260 100Q243 139 238 206Q228 207 208 207Q179 207 162.50 192.50Q146 178 146 149Q146 120 162.50 106Q179 92 208 92Z"  horiz-adv-x="637" vert-adv-y="1000"  />

      
      <glyph glyph-name="unie7" unicode="&#xe7;" d="M325 3Q315-2 292.50-5.50Q270-9 243-10L230-46Q262-46 281.50-68.50Q301-91 301-127Q301-172 274.50-197.50Q248-223 212-223Q179-223 150-211L150-142Q160-146 172.50-149.50Q185-153 199-153Q221-153 228.50-145Q236-137 236-119Q236-105 223-100Q210-95 186-94L168-93L207-8Q125 1 74.50 61Q24 121 24 237Q24 318 53 376.50Q82 435 133 465.50Q184 496 248 496Q292 496 324 488L324 371Q301 380 265 380Q154 380 154 239Q154 167 182 136.50Q210 106 261 106Q277 106 295.50 109Q314 112 325 116L325 3Z"  horiz-adv-x="341" vert-adv-y="1000"  />

      
      <glyph glyph-name="unie8" unicode="&#xe8;" d="M379 15Q359 5 322-2.50Q285-10 243-10Q140-10 82 50.50Q24 111 24 243Q24 364 77.50 430Q131 496 224 496Q320 496 362.50 437.50Q405 379 405 271Q405 229 403 203L155 203Q158 151 185.50 126Q213 101 269 101Q300 101 329.50 108Q359 115 379 124L379 15M222 390Q160 390 156 289L282 289Q282 338 267 364Q252 390 222 390M195 560L83 727L206 727L301 560L195 560Z"  horiz-adv-x="427" vert-adv-y="1000"  />

      
      <glyph glyph-name="unie9" unicode="&#xe9;" d="M379 15Q359 5 322-2.50Q285-10 243-10Q140-10 82 50.50Q24 111 24 243Q24 364 77.50 430Q131 496 224 496Q320 496 362.50 437.50Q405 379 405 271Q405 229 403 203L155 203Q158 151 185.50 126Q213 101 269 101Q300 101 329.50 108Q359 115 379 124L379 15M222 390Q160 390 156 289L282 289Q282 338 267 364Q252 390 222 390M152 560L247 727L370 727L258 560L152 560Z"  horiz-adv-x="427" vert-adv-y="1000"  />

      
      <glyph glyph-name="uniea" unicode="&#xea;" d="M379 15Q359 5 322-2.50Q285-10 243-10Q140-10 82 50.50Q24 111 24 243Q24 364 77.50 430Q131 496 224 496Q320 496 362.50 437.50Q405 379 405 271Q405 229 403 203L155 203Q158 151 185.50 126Q213 101 269 101Q300 101 329.50 108Q359 115 379 124L379 15M222 390Q160 390 156 289L282 289Q282 338 267 364Q252 390 222 390M267 560L222 654L178 560L88 560L181 738L266 738L356 560L267 560Z"  horiz-adv-x="427" vert-adv-y="1000"  />

      
      <glyph glyph-name="unieb" unicode="&#xeb;" d="M379 15Q359 5 322-2.50Q285-10 243-10Q140-10 82 50.50Q24 111 24 243Q24 364 77.50 430Q131 496 224 496Q320 496 362.50 437.50Q405 379 405 271Q405 229 403 203L155 203Q158 151 185.50 126Q213 101 269 101Q300 101 329.50 108Q359 115 379 124L379 15M222 390Q160 390 156 289L282 289Q282 338 267 364Q252 390 222 390M95 560L95 671L191 671L191 560L95 560M253 560L253 671L348 671L348 560L253 560Z"  horiz-adv-x="427" vert-adv-y="1000"  />

      
      <glyph glyph-name="uniec" unicode="&#xec;" d="M170 0L44 0L44 486L170 486L170 0M80 560L-32 727L91 727L186 560L80 560Z"  horiz-adv-x="214" vert-adv-y="1000"  />

      
      <glyph glyph-name="unied" unicode="&#xed;" d="M170 0L44 0L44 486L170 486L170 0M37 560L132 727L255 727L143 560L37 560Z"  horiz-adv-x="214" vert-adv-y="1000"  />

      
      <glyph glyph-name="uniee" unicode="&#xee;" d="M170 0L44 0L44 486L170 486L170 0M152 560L107 654L63 560L-27 560L66 738L151 738L241 560L152 560Z"  horiz-adv-x="214" vert-adv-y="1000"  />

      
      <glyph glyph-name="unief" unicode="&#xef;" d="M170 0L44 0L44 486L170 486L170 0M-20 560L-20 671L76 671L76 560L-20 560M138 560L138 671L233 671L233 560L138 560Z"  horiz-adv-x="214" vert-adv-y="1000"  />

      
      <glyph glyph-name="unif0" unicode="&#xf0;" d="M437 271Q437 130 384 60Q331-10 231-10Q133-10 78.50 51Q24 112 24 232Q24 361 73.50 423Q123 485 203 485Q256 485 288 453L290 454Q284 487 266 525.50Q248 564 227 587L154 528L97 595L168 651Q154 665 132 681.50Q110 698 92 708L163 790Q183 779 212 757Q241 735 255 720L326 777L384 708L315 655Q371 592 404 493.50Q437 395 437 271M307 239Q307 311 288 340.50Q269 370 231 370Q196 370 175 338Q154 306 154 238Q154 170 175 139Q196 108 231 108Q265 108 286 141Q307 174 307 239Z"  horiz-adv-x="461" vert-adv-y="1000"  />

      
      <glyph glyph-name="unif1" unicode="&#xf1;" d="M44 464Q135 496 227 496Q329 496 372.50 452.50Q416 409 416 320L416 0L290 0L290 309Q290 345 275 362.50Q260 380 224 380Q194 380 170 372L170 0L44 0L44 464M178 678Q199 678 214.50 670.50Q230 663 244 651Q267 630 284 630Q300 630 307 642Q314 654 316 675L381 675Q375 615 351.50 586.50Q328 558 285 558Q262 558 246 566.50Q230 575 214 589Q211 591 205 596.50Q199 602 193 605Q187 608 180 608Q163 608 155.50 594Q148 580 149 560L82 560Q84 615 107.50 646.50Q131 678 178 678Z"  horiz-adv-x="458" vert-adv-y="1000"  />

      
      <glyph glyph-name="unif2" unicode="&#xf2;" d="M24 244Q24 371 80 433.50Q136 496 233 496Q330 496 383.50 433.50Q437 371 437 244Q437 118 382 54Q327-10 231-10Q132-10 78 53.50Q24 117 24 244M154 244Q154 170 174.50 138Q195 106 231 106Q307 106 307 244Q307 380 232 380Q197 380 175.50 348Q154 316 154 244M204 560L92 727L215 727L310 560L204 560Z"  horiz-adv-x="461" vert-adv-y="1000"  />

      
      <glyph glyph-name="unif3" unicode="&#xf3;" d="M24 244Q24 371 80 433.50Q136 496 233 496Q330 496 383.50 433.50Q437 371 437 244Q437 118 382 54Q327-10 231-10Q132-10 78 53.50Q24 117 24 244M154 244Q154 170 174.50 138Q195 106 231 106Q307 106 307 244Q307 380 232 380Q197 380 175.50 348Q154 316 154 244M161 560L256 727L379 727L267 560L161 560Z"  horiz-adv-x="461" vert-adv-y="1000"  />

      
      <glyph glyph-name="unif4" unicode="&#xf4;" d="M24 244Q24 371 80 433.50Q136 496 233 496Q330 496 383.50 433.50Q437 371 437 244Q437 118 382 54Q327-10 231-10Q132-10 78 53.50Q24 117 24 244M154 244Q154 170 174.50 138Q195 106 231 106Q307 106 307 244Q307 380 232 380Q197 380 175.50 348Q154 316 154 244M276 560L231 654L187 560L97 560L190 738L275 738L365 560L276 560Z"  horiz-adv-x="461" vert-adv-y="1000"  />

      
      <glyph glyph-name="unif5" unicode="&#xf5;" d="M24 244Q24 371 80 433.50Q136 496 233 496Q330 496 383.50 433.50Q437 371 437 244Q437 118 382 54Q327-10 231-10Q132-10 78 53.50Q24 117 24 244M154 244Q154 170 174.50 138Q195 106 231 106Q307 106 307 244Q307 380 232 380Q197 380 175.50 348Q154 316 154 244M177 678Q198 678 213.50 670.50Q229 663 243 651Q266 630 283 630Q299 630 306 642Q313 654 315 675L380 675Q374 615 350.50 586.50Q327 558 284 558Q261 558 245 566.50Q229 575 213 589Q210 591 204 596.50Q198 602 192 605Q186 608 179 608Q162 608 154.50 594Q147 580 148 560L81 560Q83 615 106.50 646.50Q130 678 177 678Z"  horiz-adv-x="461" vert-adv-y="1000"  />

      
      <glyph glyph-name="unif6" unicode="&#xf6;" d="M24 244Q24 371 80 433.50Q136 496 233 496Q330 496 383.50 433.50Q437 371 437 244Q437 118 382 54Q327-10 231-10Q132-10 78 53.50Q24 117 24 244M154 244Q154 170 174.50 138Q195 106 231 106Q307 106 307 244Q307 380 232 380Q197 380 175.50 348Q154 316 154 244M104 560L104 671L200 671L200 560L104 560M262 560L262 671L357 671L357 560L262 560Z"  horiz-adv-x="461" vert-adv-y="1000"  />

      
      <glyph glyph-name="unif7" unicode="&#xf7;" d="M281 402L163 402L163 520L281 520L281 402M23 352L421 352L421 246L23 246L23 352M281 78L163 78L163 196L281 196L281 78Z"  horiz-adv-x="445" vert-adv-y="1000"  />

      
      <glyph glyph-name="unif8" unicode="&#xf8;" d="M389 426Q437 363 437 244Q437 118 382 54Q327-10 231-10Q178-10 137 8L89-71L17-32L73 60Q24 124 24 244Q24 371 80 433.50Q136 496 233 496Q285 496 325 478L379 567L451 529L389 426M232 383Q195 383 172 350Q149 317 149 244Q149 215 152 192L263 376Q247 383 232 383M198 110Q212 103 231 103Q312 103 312 244Q312 272 309 293L198 110Z"  horiz-adv-x="461" vert-adv-y="1000"  />

      
      <glyph glyph-name="unif9" unicode="&#xf9;" d="M231-10Q129-10 85.50 33.50Q42 77 42 166L42 486L168 486L168 177Q168 141 183 123.50Q198 106 234 106Q264 106 288 114L288 486L414 486L414 22Q323-10 231-10M222 560L110 727L233 727L328 560L222 560Z"  horiz-adv-x="458" vert-adv-y="1000"  />

      
      <glyph glyph-name="unifa" unicode="&#xfa;" d="M231-10Q129-10 85.50 33.50Q42 77 42 166L42 486L168 486L168 177Q168 141 183 123.50Q198 106 234 106Q264 106 288 114L288 486L414 486L414 22Q323-10 231-10M141 560L236 727L359 727L247 560L141 560Z"  horiz-adv-x="458" vert-adv-y="1000"  />

      
      <glyph glyph-name="unifb" unicode="&#xfb;" d="M231-10Q129-10 85.50 33.50Q42 77 42 166L42 486L168 486L168 177Q168 141 183 123.50Q198 106 234 106Q264 106 288 114L288 486L414 486L414 22Q323-10 231-10M280 560L235 654L191 560L101 560L194 738L279 738L369 560L280 560Z"  horiz-adv-x="458" vert-adv-y="1000"  />

      
      <glyph glyph-name="unifc" unicode="&#xfc;" d="M231-10Q129-10 85.50 33.50Q42 77 42 166L42 486L168 486L168 177Q168 141 183 123.50Q198 106 234 106Q264 106 288 114L288 486L414 486L414 22Q323-10 231-10M120 560L120 671L216 671L216 560L120 560M278 560L278 671L373 671L373 560L278 560Z"  horiz-adv-x="458" vert-adv-y="1000"  />

      
      <glyph glyph-name="unifd" unicode="&#xfd;" d="M133-21L-1 486L131 486L178 271Q185 238 191 200Q197 162 199 140L201 140Q204 178 226 269L277 486L408 486L196-235L64-235L133-21M134 560L229 727L352 727L240 560L134 560Z"  horiz-adv-x="407" vert-adv-y="1000"  />

      
      <glyph glyph-name="unife" unicode="&#xfe;" d="M170 486Q181 490 201.50 493Q222 496 244 496Q337 496 388 432.50Q439 369 439 252Q439 169 410.50 110Q382 51 333 20.50Q284-10 223-10Q190-10 170-4L170-235L44-235L44 738L170 738L170 486M218 380Q206 380 192 377.50Q178 375 170 372L170 110Q188 106 208 106Q259 106 284 141Q309 176 309 246Q309 313 285 346.50Q261 380 218 380Z"  horiz-adv-x="463" vert-adv-y="1000"  />

      
      <glyph glyph-name="uniff" unicode="&#xff;" d="M133-21L-1 486L131 486L178 271Q185 238 191 200Q197 162 199 140L201 140Q204 178 226 269L277 486L408 486L196-235L64-235L133-21M77 560L77 671L173 671L173 560L77 560M235 560L235 671L330 671L330 560L235 560Z"  horiz-adv-x="407" vert-adv-y="1000"  />

      
      <glyph glyph-name="uni0100" unicode="&#x0100;" d="M177 159L137 0L1 0L187 695L346 695L526 0L390 0L351 159L177 159M204 276L321 276L263 529L262 529L204 276M162 765L162 857L365 857L365 765L162 765Z"  horiz-adv-x="527" vert-adv-y="1000"  />

      
      <glyph glyph-name="uni0101" unicode="&#x0101;" d="M367 21Q286-10 201-10Q111-10 66.50 30Q22 70 22 143Q22 216 66 257.50Q110 299 191 299Q225 299 241 297L241 310Q241 348 221 364.50Q201 381 159 381Q133 381 105 374.50Q77 368 60 360L60 473Q80 481 115.50 488.50Q151 496 191 496Q281 496 324 453.50Q367 411 367 324L367 21M241 205Q229 207 208 207Q146 207 146 149Q146 92 208 92Q229 92 241 95L241 205M109 560L109 652L312 652L312 560L109 560Z"  horiz-adv-x="408" vert-adv-y="1000"  />

      
      <glyph glyph-name="uni0102" unicode="&#x0102;" d="M177 159L137 0L1 0L187 695L346 695L526 0L390 0L351 159L177 159M204 276L321 276L263 529L262 529L204 276M383 891Q380 826 348 789Q316 752 264 752Q212 752 179.50 789Q147 826 144 891L216 891Q219 862 232.50 845Q246 828 264 828Q282 828 295.50 845Q309 862 311 891L383 891Z"  horiz-adv-x="527" vert-adv-y="1000"  />

      
      <glyph glyph-name="uni0103" unicode="&#x0103;" d="M367 21Q286-10 201-10Q111-10 66.50 30Q22 70 22 143Q22 216 66 257.50Q110 299 191 299Q225 299 241 297L241 310Q241 348 221 364.50Q201 381 159 381Q133 381 105 374.50Q77 368 60 360L60 473Q80 481 115.50 488.50Q151 496 191 496Q281 496 324 453.50Q367 411 367 324L367 21M241 205Q229 207 208 207Q146 207 146 149Q146 92 208 92Q229 92 241 95L241 205M332 697Q328 633 296.50 596.50Q265 560 211 560Q156 560 125 596Q94 632 90 697L167 697Q172 633 211 633Q230 633 240.50 649.50Q251 666 253 697L332 697Z"  horiz-adv-x="408" vert-adv-y="1000"  />

      
      <glyph glyph-name="uni0104" unicode="&#x0104;" d="M177 159L137 0L1 0L187 695L346 695L526 0L390 0L351 159L177 159M204 276L321 276L263 529L262 529L204 276M526 0Q487-51 470.50-83.50Q454-116 454-145Q454-185 491-185Q508-185 518-180L518-247Q498-255 468-255Q420-255 397.50-229Q375-203 375-163Q375-121 397-83.50Q419-46 464 0L526 0Z"  horiz-adv-x="527" vert-adv-y="1000"  />

      
      <glyph glyph-name="uni0105" unicode="&#x0105;" d="M367 21Q328-39 311.50-75.50Q295-112 295-145Q295-185 332-185Q349-185 359-180L359-247Q339-255 309-255Q261-255 238.50-229Q216-203 216-163Q216-121 235.50-82.50Q255-44 293-1Q246-10 201-10Q111-10 66.50 30Q22 70 22 143Q22 216 66 257.50Q110 299 191 299Q225 299 241 297L241 310Q241 348 221 364.50Q201 381 159 381Q133 381 105 374.50Q77 368 60 360L60 473Q80 481 115.50 488.50Q151 496 191 496Q281 496 324 453.50Q367 411 367 324L367 21M241 205Q229 207 208 207Q146 207 146 149Q146 92 208 92Q229 92 241 95L241 205Z"  horiz-adv-x="408" vert-adv-y="1000"  />

      
      <glyph glyph-name="uni0106" unicode="&#x0106;" d="M433 10Q410 1 377.50-6Q345-13 313-13Q177-13 104.50 72Q32 157 32 344Q32 519 109.50 613Q187 707 325 707Q381 707 428 692L428 558Q407 567 386 572Q365 577 333 577Q256 577 214 520.50Q172 464 172 346Q172 215 214.50 166Q257 117 337 117Q388 117 433 137L433 10M210 756L299 894L422 894L316 756L210 756Z"  horiz-adv-x="462" vert-adv-y="1000"  />

      
      <glyph glyph-name="uni0107" unicode="&#x0107;" d="M325 3Q313-2 289.50-6Q266-10 239-10Q144-10 84 50Q24 110 24 237Q24 318 53 376.50Q82 435 133 465.50Q184 496 248 496Q292 496 324 488L324 371Q301 380 265 380Q154 380 154 239Q154 167 182 136.50Q210 106 261 106Q277 106 295.50 109Q314 112 325 116L325 3M138 560L233 727L356 727L244 560L138 560Z"  horiz-adv-x="341" vert-adv-y="1000"  />

      
      <glyph glyph-name="uni0108" unicode="&#x0108;" d="M433 10Q410 1 377.50-6Q345-13 313-13Q177-13 104.50 72Q32 157 32 344Q32 519 109.50 613Q187 707 325 707Q381 707 428 692L428 558Q407 567 386 572Q365 577 333 577Q256 577 214 520.50Q172 464 172 346Q172 215 214.50 166Q257 117 337 117Q388 117 433 137L433 10M321 753L276 828L232 753L138 753L237 907L315 907L414 753L321 753Z"  horiz-adv-x="462" vert-adv-y="1000"  />

      
      <glyph glyph-name="uni0109" unicode="&#x0109;" d="M325 3Q313-2 289.50-6Q266-10 239-10Q144-10 84 50Q24 110 24 237Q24 318 53 376.50Q82 435 133 465.50Q184 496 248 496Q292 496 324 488L324 371Q301 380 265 380Q154 380 154 239Q154 167 182 136.50Q210 106 261 106Q277 106 295.50 109Q314 112 325 116L325 3M253 560L208 654L164 560L74 560L167 738L252 738L342 560L253 560Z"  horiz-adv-x="341" vert-adv-y="1000"  />

      
      <glyph glyph-name="uni010A" unicode="&#x010A;" d="M433 10Q410 1 377.50-6Q345-13 313-13Q177-13 104.50 72Q32 157 32 344Q32 519 109.50 613Q187 707 325 707Q381 707 428 692L428 558Q407 567 386 572Q365 577 333 577Q256 577 214 520.50Q172 464 172 346Q172 215 214.50 166Q257 117 337 117Q388 117 433 137L433 10M212 753L212 896L339 896L339 753L212 753Z"  horiz-adv-x="462" vert-adv-y="1000"  />

      
      <glyph glyph-name="uni010B" unicode="&#x010B;" d="M325 3Q313-2 289.50-6Q266-10 239-10Q144-10 84 50Q24 110 24 237Q24 318 53 376.50Q82 435 133 465.50Q184 496 248 496Q292 496 324 488L324 371Q301 380 265 380Q154 380 154 239Q154 167 182 136.50Q210 106 261 106Q277 106 295.50 109Q314 112 325 116L325 3M144 560L144 703L271 703L271 560L144 560Z"  horiz-adv-x="341" vert-adv-y="1000"  />

      
      <glyph glyph-name="uni010C" unicode="&#x010C;" d="M433 10Q410 1 377.50-6Q345-13 313-13Q177-13 104.50 72Q32 157 32 344Q32 519 109.50 613Q187 707 325 707Q381 707 428 692L428 558Q407 567 386 572Q365 577 333 577Q256 577 214 520.50Q172 464 172 346Q172 215 214.50 166Q257 117 337 117Q388 117 433 137L433 10M237 753L138 907L231 907L276 832L320 907L414 907L315 753L237 753Z"  horiz-adv-x="462" vert-adv-y="1000"  />

      
      <glyph glyph-name="uni010D" unicode="&#x010D;" d="M325 3Q313-2 289.50-6Q266-10 239-10Q144-10 84 50Q24 110 24 237Q24 318 53 376.50Q82 435 133 465.50Q184 496 248 496Q292 496 324 488L324 371Q301 380 265 380Q154 380 154 239Q154 167 182 136.50Q210 106 261 106Q277 106 295.50 109Q314 112 325 116L325 3M164 555L74 733L163 733L208 639L252 733L342 733L249 555L164 555Z"  horiz-adv-x="341" vert-adv-y="1000"  />

      
      <glyph glyph-name="uni010E" unicode="&#x010E;" d="M228 695Q364 695 437 612Q510 529 510 356Q510 246 475 166Q440 86 374.50 43Q309 0 221 0L48 0L48 695L228 695M222 129Q295 129 334.50 185Q374 241 374 348Q374 455 336 511Q298 567 222 567L180 567L180 129L222 129M225 753L126 907L219 907L264 832L308 907L402 907L303 753L225 753Z"  horiz-adv-x="542" vert-adv-y="1000"  />

      
      <glyph glyph-name="uni010F" unicode="&#x010F;" d="M240 498Q273 498 293 492L293 738L419 738L419 29Q332-10 245-10Q133-10 78.50 54Q24 118 24 236Q24 318 52.50 377Q81 436 130 467Q179 498 240 498M254 104Q277 104 293 111L293 378Q275 382 255 382Q204 382 179 346Q154 310 154 242Q154 104 254 104M447 512L490 738L600 738L537 512L447 512Z"  horiz-adv-x="463" vert-adv-y="1000"  />

      
      <glyph glyph-name="uni0110" unicode="&#x0110;" d="M228 695Q364 695 437 612Q510 529 510 356Q510 246 475 166Q440 86 374.50 43Q309 0 221 0L48 0L48 285L-3 285L-3 409L48 409L48 695L228 695M222 129Q295 129 334.50 185Q374 241 374 348Q374 455 336 511Q298 567 222 567L180 567L180 409L276 409L276 285L180 285L180 129L222 129Z"  horiz-adv-x="542" vert-adv-y="1000"  />

      
      <glyph glyph-name="uni0111" unicode="&#x0111;" d="M419 558L419 29Q332-10 245-10Q133-10 78.50 54Q24 118 24 236Q24 318 52.50 377Q81 436 130 467Q179 498 240 498Q273 498 293 492L293 558L167 558L167 669L293 669L293 738L419 738L419 669L463 669L463 558L419 558M293 378Q275 382 255 382Q204 382 179 346Q154 310 154 242Q154 104 254 104Q277 104 293 111L293 378Z"  horiz-adv-x="463" vert-adv-y="1000"  />

      
      <glyph glyph-name="uni0112" unicode="&#x0112;" d="M180 416L373 416L373 288L180 288L180 128L402 128L402 0L48 0L48 695L393 695L393 567L180 567L180 416M118 765L118 857L321 857L321 765L118 765Z"  horiz-adv-x="431" vert-adv-y="1000"  />

      
      <glyph glyph-name="uni0113" unicode="&#x0113;" d="M379 15Q359 5 322-2.50Q285-10 243-10Q140-10 82 50.50Q24 111 24 243Q24 364 77.50 430Q131 496 224 496Q320 496 362.50 437.50Q405 379 405 271Q405 229 403 203L155 203Q158 151 185.50 126Q213 101 269 101Q300 101 329.50 108Q359 115 379 124L379 15M222 390Q160 390 156 289L282 289Q282 338 267 364Q252 390 222 390M120 560L120 652L323 652L323 560L120 560Z"  horiz-adv-x="427" vert-adv-y="1000"  />

      
      <glyph glyph-name="uni0114" unicode="&#x0114;" d="M180 416L373 416L373 288L180 288L180 128L402 128L402 0L48 0L48 695L393 695L393 567L180 567L180 416M339 891Q336 826 304 789Q272 752 220 752Q168 752 135.50 789Q103 826 100 891L172 891Q175 862 188.50 845Q202 828 220 828Q238 828 251.50 845Q265 862 267 891L339 891Z"  horiz-adv-x="431" vert-adv-y="1000"  />

      
      <glyph glyph-name="uni0115" unicode="&#x0115;" d="M379 15Q359 5 322-2.50Q285-10 243-10Q140-10 82 50.50Q24 111 24 243Q24 364 77.50 430Q131 496 224 496Q320 496 362.50 437.50Q405 379 405 271Q405 229 403 203L155 203Q158 151 185.50 126Q213 101 269 101Q300 101 329.50 108Q359 115 379 124L379 15M222 390Q160 390 156 289L282 289Q282 338 267 364Q252 390 222 390M343 697Q339 633 307.50 596.50Q276 560 222 560Q167 560 136 596Q105 632 101 697L178 697Q183 633 222 633Q241 633 251.50 649.50Q262 666 264 697L343 697Z"  horiz-adv-x="427" vert-adv-y="1000"  />

      
      <glyph glyph-name="uni0116" unicode="&#x0116;" d="M180 416L373 416L373 288L180 288L180 128L402 128L402 0L48 0L48 695L393 695L393 567L180 567L180 416M156 753L156 896L283 896L283 753L156 753Z"  horiz-adv-x="431" vert-adv-y="1000"  />

      
      <glyph glyph-name="uni0117" unicode="&#x0117;" d="M379 15Q359 5 322-2.50Q285-10 243-10Q140-10 82 50.50Q24 111 24 243Q24 364 77.50 430Q131 496 224 496Q320 496 362.50 437.50Q405 379 405 271Q405 229 403 203L155 203Q158 151 185.50 126Q213 101 269 101Q300 101 329.50 108Q359 115 379 124L379 15M222 390Q160 390 156 289L282 289Q282 338 267 364Q252 390 222 390M158 560L158 703L285 703L285 560L158 560Z"  horiz-adv-x="427" vert-adv-y="1000"  />

      
      <glyph glyph-name="uni0118" unicode="&#x0118;" d="M180 416L373 416L373 288L180 288L180 128L402 128L402 0L48 0L48 695L393 695L393 567L180 567L180 416M402 0Q363-51 346.50-83.50Q330-116 330-145Q330-185 367-185Q384-185 394-180L394-247Q374-255 344-255Q296-255 273.50-229Q251-203 251-163Q251-121 273-83.50Q295-46 340 0L402 0Z"  horiz-adv-x="431" vert-adv-y="1000"  />

      
      <glyph glyph-name="uni0119" unicode="&#x0119;" d="M405 271Q405 229 403 203L155 203Q158 151 185.50 126Q213 101 269 101Q300 101 329.50 108Q359 115 379 124L379 15Q340-42 323.50-77.50Q307-113 307-145Q307-185 344-185Q361-185 371-180L371-247Q351-255 321-255Q273-255 250.50-229Q228-203 228-163Q228-122 247.50-84.50Q267-47 306-5Q274-10 243-10Q140-10 82 50.50Q24 111 24 243Q24 364 77.50 430Q131 496 224 496Q320 496 362.50 437.50Q405 379 405 271M282 289Q282 338 267 364Q252 390 222 390Q160 390 156 289L282 289Z"  horiz-adv-x="427" vert-adv-y="1000"  />

      
      <glyph glyph-name="uni011A" unicode="&#x011A;" d="M180 416L373 416L373 288L180 288L180 128L402 128L402 0L48 0L48 695L393 695L393 567L180 567L180 416M181 753L82 907L175 907L220 832L264 907L358 907L259 753L181 753Z"  horiz-adv-x="431" vert-adv-y="1000"  />

      
      <glyph glyph-name="uni011B" unicode="&#x011B;" d="M379 15Q359 5 322-2.50Q285-10 243-10Q140-10 82 50.50Q24 111 24 243Q24 364 77.50 430Q131 496 224 496Q320 496 362.50 437.50Q405 379 405 271Q405 229 403 203L155 203Q158 151 185.50 126Q213 101 269 101Q300 101 329.50 108Q359 115 379 124L379 15M222 390Q160 390 156 289L282 289Q282 338 267 364Q252 390 222 390M178 555L88 733L177 733L222 639L266 733L356 733L263 555L178 555Z"  horiz-adv-x="427" vert-adv-y="1000"  />

      
      <glyph glyph-name="uni011C" unicode="&#x011C;" d="M483 29Q454 13 408 0.50Q362-12 307-12Q170-12 101 77.50Q32 167 32 339Q32 515 109 611Q186 707 337 707Q372 707 407.50 702Q443 697 465 688L465 554Q434 566 407 572.50Q380 579 340 579Q172 579 172 344Q172 228 207 170.50Q242 113 310 113Q334 113 354 119L354 268L256 268L256 390L483 390L483 29M349 753L304 828L260 753L166 753L265 907L343 907L442 753L349 753Z"  horiz-adv-x="525" vert-adv-y="1000"  />

      
      <glyph glyph-name="uni011D" unicode="&#x011D;" d="M419-24Q419-124 363-186.50Q307-249 189-249Q154-249 116-242Q78-235 57-226L57-101Q77-111 111-118.50Q145-126 179-126Q293-126 293-28L293 0Q283-3 262-6.50Q241-10 220-10Q127-10 75.50 53.50Q24 117 24 231Q24 353 85.50 424.50Q147 496 271 496Q312 496 353.50 487Q395 478 419 466L419-24M249 106Q261 106 274 108.50Q287 111 293 114L293 374Q279 380 255 380Q209 380 181.50 346Q154 312 154 237Q154 106 249 106M286 560L241 654L197 560L107 560L200 738L285 738L375 560L286 560Z"  horiz-adv-x="463" vert-adv-y="1000"  />

      
      <glyph glyph-name="uni011E" unicode="&#x011E;" d="M483 29Q454 13 408 0.50Q362-12 307-12Q170-12 101 77.50Q32 167 32 339Q32 515 109 611Q186 707 337 707Q372 707 407.50 702Q443 697 465 688L465 554Q434 566 407 572.50Q380 579 340 579Q172 579 172 344Q172 228 207 170.50Q242 113 310 113Q334 113 354 119L354 268L256 268L256 390L483 390L483 29M423 891Q420 826 388 789Q356 752 304 752Q252 752 219.50 789Q187 826 184 891L256 891Q259 862 272.50 845Q286 828 304 828Q322 828 335.50 845Q349 862 351 891L423 891Z"  horiz-adv-x="525" vert-adv-y="1000"  />

      
      <glyph glyph-name="uni011F" unicode="&#x011F;" d="M419-24Q419-124 363-186.50Q307-249 189-249Q154-249 116-242Q78-235 57-226L57-101Q77-111 111-118.50Q145-126 179-126Q293-126 293-28L293 0Q283-3 262-6.50Q241-10 220-10Q127-10 75.50 53.50Q24 117 24 231Q24 353 85.50 424.50Q147 496 271 496Q312 496 353.50 487Q395 478 419 466L419-24M249 106Q261 106 274 108.50Q287 111 293 114L293 374Q279 380 255 380Q209 380 181.50 346Q154 312 154 237Q154 106 249 106M362 697Q358 633 326.50 596.50Q295 560 241 560Q186 560 155 596Q124 632 120 697L197 697Q202 633 241 633Q260 633 270.50 649.50Q281 666 283 697L362 697Z"  horiz-adv-x="463" vert-adv-y="1000"  />

      
      <glyph glyph-name="uni0120" unicode="&#x0120;" d="M483 29Q454 13 408 0.50Q362-12 307-12Q170-12 101 77.50Q32 167 32 339Q32 515 109 611Q186 707 337 707Q372 707 407.50 702Q443 697 465 688L465 554Q434 566 407 572.50Q380 579 340 579Q172 579 172 344Q172 228 207 170.50Q242 113 310 113Q334 113 354 119L354 268L256 268L256 390L483 390L483 29M240 753L240 896L367 896L367 753L240 753Z"  horiz-adv-x="525" vert-adv-y="1000"  />

      
      <glyph glyph-name="uni0121" unicode="&#x0121;" d="M419-24Q419-124 363-186.50Q307-249 189-249Q154-249 116-242Q78-235 57-226L57-101Q77-111 111-118.50Q145-126 179-126Q293-126 293-28L293 0Q283-3 262-6.50Q241-10 220-10Q127-10 75.50 53.50Q24 117 24 231Q24 353 85.50 424.50Q147 496 271 496Q312 496 353.50 487Q395 478 419 466L419-24M249 106Q261 106 274 108.50Q287 111 293 114L293 374Q279 380 255 380Q209 380 181.50 346Q154 312 154 237Q154 106 249 106M177 560L177 703L304 703L304 560L177 560Z"  horiz-adv-x="463" vert-adv-y="1000"  />

      
      <glyph glyph-name="uni0122" unicode="&#x0122;" d="M483 29Q454 13 408 0.50Q362-12 307-12Q170-12 101 77.50Q32 167 32 339Q32 515 109 611Q186 707 337 707Q372 707 407.50 702Q443 697 465 688L465 554Q434 566 407 572.50Q380 579 340 579Q172 579 172 344Q172 228 207 170.50Q242 113 310 113Q334 113 354 119L354 268L256 268L256 390L483 390L483 29M206-237L273-52L389-52L306-237L206-237Z"  horiz-adv-x="525" vert-adv-y="1000"  />

      
      <glyph glyph-name="uni0123" unicode="&#x0123;" d="M419-24Q419-124 363-186.50Q307-249 189-249Q154-249 116-242Q78-235 57-226L57-101Q77-111 111-118.50Q145-126 179-126Q293-126 293-28L293 0Q283-3 262-6.50Q241-10 220-10Q127-10 75.50 53.50Q24 117 24 231Q24 353 85.50 424.50Q147 496 271 496Q312 496 353.50 487Q395 478 419 466L419-24M249 106Q261 106 274 108.50Q287 111 293 114L293 374Q279 380 255 380Q209 380 181.50 346Q154 312 154 237Q154 106 249 106M160 561L244 746L343 746L276 561L160 561Z"  horiz-adv-x="463" vert-adv-y="1000"  />

      
      <glyph glyph-name="uni0124" unicode="&#x0124;" d="M180 0L48 0L48 695L180 695L180 414L366 414L366 695L498 695L498 0L366 0L366 286L180 286L180 0M318 753L273 828L229 753L135 753L234 907L312 907L411 753L318 753Z"  horiz-adv-x="546" vert-adv-y="1000"  />

      
      <glyph glyph-name="uni0125" unicode="&#x0125;" d="M170 479Q184 485 212 490.50Q240 496 268 496Q346 496 381 453Q416 410 416 327L416 0L290 0L290 311Q290 348 274 364Q258 380 227 380Q195 380 170 369L170 0L44 0L44 738L170 738L170 479M267 796L222 871L178 796L84 796L183 950L261 950L360 796L267 796Z"  horiz-adv-x="458" vert-adv-y="1000"  />

      
      <glyph glyph-name="uni0126" unicode="&#x0126;" d="M180 0L48 0L48 496L-2 496L-2 593L48 593L48 695L180 695L180 593L366 593L366 695L498 695L498 593L548 593L548 496L498 496L498 0L366 0L366 273L180 273L180 0M180 496L180 401L366 401L366 496L180 496Z"  horiz-adv-x="546" vert-adv-y="1000"  />

      
      <glyph glyph-name="uni0127" unicode="&#x0127;" d="M268 496Q346 496 381 453Q416 410 416 327L416 0L290 0L290 311Q290 348 274 364Q258 380 227 380Q195 380 170 369L170 0L44 0L44 558L0 558L0 669L44 669L44 738L170 738L170 669L296 669L296 558L170 558L170 479Q184 485 212 490.50Q240 496 268 496Z"  horiz-adv-x="458" vert-adv-y="1000"  />

      
      <glyph glyph-name="uni0128" unicode="&#x0128;" d="M180 0L48 0L48 695L180 695L180 0M60 875Q81 875 96.50 867.50Q112 860 126 848Q149 827 166 827Q182 827 189 839Q196 851 198 872L263 872Q257 812 233.50 783.50Q210 755 167 755Q144 755 128 763.50Q112 772 96 786Q93 788 87 793.50Q81 799 75 802Q69 805 62 805Q45 805 37.50 791Q30 777 31 757L-36 757Q-34 812-10.50 843.50Q13 875 60 875Z"  horiz-adv-x="228" vert-adv-y="1000"  />

      
      <glyph glyph-name="uni0129" unicode="&#x0129;" d="M170 0L44 0L44 486L170 486L170 0M53 678Q74 678 89.50 670.50Q105 663 119 651Q142 630 159 630Q175 630 182 642Q189 654 191 675L256 675Q250 615 226.50 586.50Q203 558 160 558Q137 558 121 566.50Q105 575 89 589Q86 591 80 596.50Q74 602 68 605Q62 608 55 608Q38 608 30.50 594Q23 580 24 560L-43 560Q-41 615-17.50 646.50Q6 678 53 678Z"  horiz-adv-x="214" vert-adv-y="1000"  />

      
      <glyph glyph-name="uni012A" unicode="&#x012A;" d="M180 0L48 0L48 695L180 695L180 0M12 765L12 857L215 857L215 765L12 765Z"  horiz-adv-x="228" vert-adv-y="1000"  />

      
      <glyph glyph-name="uni012B" unicode="&#x012B;" d="M170 0L44 0L44 486L170 486L170 0M5 560L5 652L208 652L208 560L5 560Z"  horiz-adv-x="214" vert-adv-y="1000"  />

      
      <glyph glyph-name="uni012C" unicode="&#x012C;" d="M180 0L48 0L48 695L180 695L180 0M233 891Q230 826 198 789Q166 752 114 752Q62 752 29.50 789Q-3 826-6 891L66 891Q69 862 82.50 845Q96 828 114 828Q132 828 145.50 845Q159 862 161 891L233 891Z"  horiz-adv-x="228" vert-adv-y="1000"  />

      
      <glyph glyph-name="uni012D" unicode="&#x012D;" d="M170 0L44 0L44 486L170 486L170 0M228 697Q224 633 192.50 596.50Q161 560 107 560Q52 560 21 596Q-10 632-14 697L63 697Q68 633 107 633Q126 633 136.50 649.50Q147 666 149 697L228 697Z"  horiz-adv-x="214" vert-adv-y="1000"  />

      
      <glyph glyph-name="uni012E" unicode="&#x012E;" d="M180 0Q141-51 124.50-83.50Q108-116 108-145Q108-185 145-185Q162-185 172-180L172-247Q152-255 122-255Q74-255 51.50-229Q29-203 29-163Q29-121 51-83.50Q73-46 118 0L48 0L48 695L180 695L180 0Z"  horiz-adv-x="228" vert-adv-y="1000"  />

      
      <glyph glyph-name="uni012F" unicode="&#x012F;" d="M170 589L44 589L44 732L170 732L170 589M170 486L170 0Q131-51 114.50-83.50Q98-116 98-145Q98-185 135-185Q152-185 162-180L162-247Q142-255 112-255Q64-255 41.50-229Q19-203 19-163Q19-121 41-83.50Q63-46 108 0L44 0L44 486L170 486Z"  horiz-adv-x="214" vert-adv-y="1000"  />

      
      <glyph glyph-name="uni0130" unicode="&#x0130;" d="M180 0L48 0L48 695L180 695L180 0M50 753L50 896L177 896L177 753L50 753Z"  horiz-adv-x="228" vert-adv-y="1000"  />

      
      <glyph glyph-name="uni0131" unicode="&#x0131;" d="M170 0L44 0L44 486L170 486L170 0Z"  horiz-adv-x="214" vert-adv-y="1000"  />

      
      <glyph glyph-name="uni0132" unicode="&#x0132;" d="M180 0L48 0L48 695L180 695L180 0M537 230Q537 112 483.50 50.50Q430-11 325-11Q269-11 232 5L232 133Q269 117 307 117Q405 117 405 234L405 695L537 695L537 230Z"  horiz-adv-x="581" vert-adv-y="1000"  />

      
      <glyph glyph-name="uni0133" unicode="&#x0133;" d="M170 589L44 589L44 732L170 732L170 589M170 0L44 0L44 486L170 486L170 0M384 589L258 589L258 732L384 732L384 589M384-58Q384-238 223-238Q195-238 165-231L165-115Q185-120 201-120Q229-120 243.50-105Q258-90 258-58L258 486L384 486L384-58Z"  horiz-adv-x="428" vert-adv-y="1000"  />

      
      <glyph glyph-name="uni0134" unicode="&#x0134;" d="M309 230Q309 112 255.50 50.50Q202-11 97-11Q41-11 4 5L4 133Q41 117 79 117Q177 117 177 234L177 695L309 695L309 230M285 753L240 828L196 753L102 753L201 907L279 907L378 753L285 753Z"  horiz-adv-x="353" vert-adv-y="1000"  />

      
      <glyph glyph-name="uni0135" unicode="&#x0135;" d="M169-58Q169-238 8-238Q-20-238-50-231L-50-115Q-30-120-14-120Q14-120 28.50-105Q43-90 43-58L43 486L169 486L169-58M151 560L106 654L62 560L-28 560L65 738L150 738L240 560L151 560Z"  horiz-adv-x="212" vert-adv-y="1000"  />

      
      <glyph glyph-name="uni0136" unicode="&#x0136;" d="M338 0L181 342L180 342L180 0L48 0L48 695L180 695L180 355L181 355L345 695L500 695L319 352L492 0L338 0M156-237L223-52L339-52L256-237L156-237Z"  horiz-adv-x="502" vert-adv-y="1000"  />

      
      <glyph glyph-name="uni0137" unicode="&#x0137;" d="M286 0L171 253L170 253L170 0L44 0L44 738L170 738L170 262L171 262L286 486L429 486L303 260L428 0L286 0M123-237L190-52L306-52L223-237L123-237Z"  horiz-adv-x="429" vert-adv-y="1000"  />

      
      <glyph glyph-name="uni0138" unicode="&#x0138;" d="M286 0L171 253L170 253L170 0L44 0L44 486L170 486L170 262L171 262L286 486L429 486L303 260L428 0L286 0Z"  horiz-adv-x="429" vert-adv-y="1000"  />

      
      <glyph glyph-name="uni0139" unicode="&#x0139;" d="M180 130L399 130L399 0L48 0L48 695L180 695L180 130M47 756L136 894L259 894L153 756L47 756Z"  horiz-adv-x="414" vert-adv-y="1000"  />

      
      <glyph glyph-name="uni013A" unicode="&#x013A;" d="M170 0L44 0L44 738L170 738L170 0M41 799L130 937L253 937L147 799L41 799Z"  horiz-adv-x="214" vert-adv-y="1000"  />

      
      <glyph glyph-name="uni013B" unicode="&#x013B;" d="M180 130L399 130L399 0L48 0L48 695L180 695L180 130M114-237L181-52L297-52L214-237L114-237Z"  horiz-adv-x="414" vert-adv-y="1000"  />

      
      <glyph glyph-name="uni013C" unicode="&#x013C;" d="M170 0L44 0L44 738L170 738L170 0M-1-237L66-52L182-52L99-237L-1-237Z"  horiz-adv-x="214" vert-adv-y="1000"  />

      
      <glyph glyph-name="uni013D" unicode="&#x013D;" d="M180 130L399 130L399 0L48 0L48 695L180 695L180 130M245 469L288 695L398 695L335 469L245 469Z"  horiz-adv-x="414" vert-adv-y="1000"  />

      
      <glyph glyph-name="uni013E" unicode="&#x013E;" d="M170 0L44 0L44 738L170 738L170 0M204 512L247 738L357 738L294 512L204 512Z"  horiz-adv-x="214" vert-adv-y="1000"  />

      
      <glyph glyph-name="uni013F" unicode="&#x013F;" d="M180 130L399 130L399 0L48 0L48 695L180 695L180 130M254 318L254 461L381 461L381 318L254 318Z"  horiz-adv-x="414" vert-adv-y="1000"  />

      
      <glyph glyph-name="uni0140" unicode="&#x0140;" d="M170 0L44 0L44 738L170 738L170 0M199 293L199 436L326 436L326 293L199 293Z"  horiz-adv-x="311" vert-adv-y="1000"  />

      
      <glyph glyph-name="uni0141" unicode="&#x0141;" d="M399 0L48 0L48 238L-1 202L-1 330L48 366L48 695L180 695L180 463L284 539L284 411L180 335L180 130L399 130L399 0Z"  horiz-adv-x="414" vert-adv-y="1000"  />

      
      <glyph glyph-name="uni0142" unicode="&#x0142;" d="M225 396L172 350L172 0L46 0L46 271L-7 225L-7 353L46 399L46 738L172 738L172 479L225 525L225 396Z"  horiz-adv-x="218" vert-adv-y="1000"  />

      
      <glyph glyph-name="uni0143" unicode="&#x0143;" d="M171 420L170 420Q172 387 172 312L172 0L48 0L48 695L175 695L382 274L384 274Q381 322 381 376L381 695L505 695L505 0L386 0L171 420M211 756L300 894L423 894L317 756L211 756Z"  horiz-adv-x="553" vert-adv-y="1000"  />

      
      <glyph glyph-name="uni0144" unicode="&#x0144;" d="M44 464Q135 496 227 496Q329 496 372.50 452.50Q416 409 416 320L416 0L290 0L290 309Q290 345 275 362.50Q260 380 224 380Q194 380 170 372L170 0L44 0L44 464M162 560L257 727L380 727L268 560L162 560Z"  horiz-adv-x="458" vert-adv-y="1000"  />

      
      <glyph glyph-name="uni0145" unicode="&#x0145;" d="M171 420L170 420Q172 387 172 312L172 0L48 0L48 695L175 695L382 274L384 274Q381 322 381 376L381 695L505 695L505 0L386 0L171 420M180-237L247-52L363-52L280-237L180-237Z"  horiz-adv-x="553" vert-adv-y="1000"  />

      
      <glyph glyph-name="uni0146" unicode="&#x0146;" d="M44 464Q135 496 227 496Q329 496 372.50 452.50Q416 409 416 320L416 0L290 0L290 309Q290 345 275 362.50Q260 380 224 380Q194 380 170 372L170 0L44 0L44 464M132-237L199-52L315-52L232-237L132-237Z"  horiz-adv-x="458" vert-adv-y="1000"  />

      
      <glyph glyph-name="uni0147" unicode="&#x0147;" d="M171 420L170 420Q172 387 172 312L172 0L48 0L48 695L175 695L382 274L384 274Q381 322 381 376L381 695L505 695L505 0L386 0L171 420M238 753L139 907L232 907L277 832L321 907L415 907L316 753L238 753Z"  horiz-adv-x="553" vert-adv-y="1000"  />

      
      <glyph glyph-name="uni0148" unicode="&#x0148;" d="M44 464Q135 496 227 496Q329 496 372.50 452.50Q416 409 416 320L416 0L290 0L290 309Q290 345 275 362.50Q260 380 224 380Q194 380 170 372L170 0L44 0L44 464M188 555L98 733L187 733L232 639L276 733L366 733L273 555L188 555Z"  horiz-adv-x="458" vert-adv-y="1000"  />

      
      <glyph glyph-name="uni0149" unicode="&#x0149;" d="M68 417L-29 417L41 714L165 714L68 417M126 464Q217 496 309 496Q411 496 454.50 452.50Q498 409 498 320L498 0L372 0L372 309Q372 345 357 362.50Q342 380 306 380Q276 380 252 372L252 0L126 0L126 464Z"  horiz-adv-x="540" vert-adv-y="1000"  />

      
      <glyph glyph-name="uni014A" unicode="&#x014A;" d="M505-12Q505-130 451.50-191.50Q398-253 293-253Q237-253 200-237L200-109Q237-125 275-125Q324-125 351-96Q378-67 378-8L378 10L174 417L173 417Q175 384 175 309L175 0L48 0L48 695L178 695L379 277L381 277Q378 325 378 379L378 695L505 695L505-12Z"  horiz-adv-x="553" vert-adv-y="1000"  />

      
      <glyph glyph-name="uni014B" unicode="&#x014B;" d="M416-58Q416-238 255-238Q227-238 197-231L197-115Q217-120 233-120Q261-120 275.50-105Q290-90 290-58L290 309Q290 345 275 362.50Q260 380 224 380Q194 380 170 372L170 0L44 0L44 464Q135 496 227 496Q329 496 372.50 452.50Q416 409 416 320L416-58Z"  horiz-adv-x="458" vert-adv-y="1000"  />

      
      <glyph glyph-name="uni014C" unicode="&#x014C;" d="M32 347Q32 517 101 612Q170 707 298 707Q420 707 481.50 612.50Q543 518 543 347Q543 238 512.50 157Q482 76 424.50 32Q367-12 287-12Q159-12 95.50 83.50Q32 179 32 347M168 347Q168 118 286 118Q347 118 377 177.50Q407 237 407 347Q407 460 379.50 518.50Q352 577 291 577Q229 577 198.50 517.50Q168 458 168 347M186 765L186 857L389 857L389 765L186 765Z"  horiz-adv-x="575" vert-adv-y="1000"  />

      
      <glyph glyph-name="uni014D" unicode="&#x014D;" d="M24 244Q24 371 80 433.50Q136 496 233 496Q330 496 383.50 433.50Q437 371 437 244Q437 118 382 54Q327-10 231-10Q132-10 78 53.50Q24 117 24 244M154 244Q154 170 174.50 138Q195 106 231 106Q307 106 307 244Q307 380 232 380Q197 380 175.50 348Q154 316 154 244M129 560L129 652L332 652L332 560L129 560Z"  horiz-adv-x="461" vert-adv-y="1000"  />

      
      <glyph glyph-name="uni014E" unicode="&#x014E;" d="M32 347Q32 517 101 612Q170 707 298 707Q420 707 481.50 612.50Q543 518 543 347Q543 238 512.50 157Q482 76 424.50 32Q367-12 287-12Q159-12 95.50 83.50Q32 179 32 347M168 347Q168 118 286 118Q347 118 377 177.50Q407 237 407 347Q407 460 379.50 518.50Q352 577 291 577Q229 577 198.50 517.50Q168 458 168 347M407 891Q404 826 372 789Q340 752 288 752Q236 752 203.50 789Q171 826 168 891L240 891Q243 862 256.50 845Q270 828 288 828Q306 828 319.50 845Q333 862 335 891L407 891Z"  horiz-adv-x="575" vert-adv-y="1000"  />

      
      <glyph glyph-name="uni014F" unicode="&#x014F;" d="M24 244Q24 371 80 433.50Q136 496 233 496Q330 496 383.50 433.50Q437 371 437 244Q437 118 382 54Q327-10 231-10Q132-10 78 53.50Q24 117 24 244M154 244Q154 170 174.50 138Q195 106 231 106Q307 106 307 244Q307 380 232 380Q197 380 175.50 348Q154 316 154 244M352 697Q348 633 316.50 596.50Q285 560 231 560Q176 560 145 596Q114 632 110 697L187 697Q192 633 231 633Q250 633 260.50 649.50Q271 666 273 697L352 697Z"  horiz-adv-x="461" vert-adv-y="1000"  />

      
      <glyph glyph-name="uni0150" unicode="&#x0150;" d="M32 347Q32 517 101 612Q170 707 298 707Q420 707 481.50 612.50Q543 518 543 347Q543 238 512.50 157Q482 76 424.50 32Q367-12 287-12Q159-12 95.50 83.50Q32 179 32 347M168 347Q168 118 286 118Q347 118 377 177.50Q407 237 407 347Q407 460 379.50 518.50Q352 577 291 577Q229 577 198.50 517.50Q168 458 168 347M135 756L229 899L353 899L242 756L135 756M311 756L405 899L529 899L418 756L311 756Z"  horiz-adv-x="575" vert-adv-y="1000"  />

      
      <glyph glyph-name="uni0151" unicode="&#x0151;" d="M24 244Q24 371 80 433.50Q136 496 233 496Q330 496 383.50 433.50Q437 371 437 244Q437 118 382 54Q327-10 231-10Q132-10 78 53.50Q24 117 24 244M154 244Q154 170 174.50 138Q195 106 231 106Q307 106 307 244Q307 380 232 380Q197 380 175.50 348Q154 316 154 244M101 560L183 728L291 728L193 560L101 560M256 560L338 728L445 728L347 560L256 560Z"  horiz-adv-x="461" vert-adv-y="1000"  />

      
      <glyph glyph-name="uni0152" unicode="&#x0152;" d="M497 416L690 416L690 288L497 288L497 128L719 128L719 0L365 0L365 13Q315-12 263-12Q151-12 91.50 84.50Q32 181 32 347Q32 458 61 539.50Q90 621 144 664Q198 707 271 707Q318 707 365 682L365 695L710 695L710 567L497 567L497 416M294 118Q333 118 365 135L365 565Q332 577 294 577Q168 577 168 347Q168 234 198 176Q228 118 294 118Z"  horiz-adv-x="748" vert-adv-y="1000"  />

      
      <glyph glyph-name="uni0153" unicode="&#x0153;" d="M657 15Q637 5 600-2.50Q563-10 521-10Q422-10 370 48Q318-10 231-10Q132-10 78 53.50Q24 117 24 244Q24 371 80 433.50Q136 496 233 496Q320 496 371 439Q422 496 502 496Q598 496 640.50 437.50Q683 379 683 271Q683 229 681 203L433 203Q436 151 463.50 126Q491 101 547 101Q578 101 607.50 108Q637 115 657 124L657 15M500 390Q438 390 434 289L560 289Q560 338 545 364Q530 390 500 390M154 244Q154 108 231 108Q307 108 307 244Q307 378 232 378Q197 378 175.50 346Q154 314 154 244Z"  horiz-adv-x="705" vert-adv-y="1000"  />

      
      <glyph glyph-name="uni0154" unicode="&#x0154;" d="M180 0L48 0L48 695L229 695Q357 695 409 636.50Q461 578 461 478Q461 405 431 357Q401 309 357 284L479 0L326 0L231 246L180 246L180 0M221 372Q267 372 295 400Q323 428 323 476Q323 524 299 549.50Q275 575 229 575L180 575L180 372L221 372M180 756L269 894L392 894L286 756L180 756Z"  horiz-adv-x="492" vert-adv-y="1000"  />

      
      <glyph glyph-name="uni0155" unicode="&#x0155;" d="M289 370Q263 374 231 374Q192 374 169 368L169 0L44 0L44 470Q73 480 119.50 488Q166 496 216 496Q256 496 289 491L289 370M98 560L193 727L316 727L204 560L98 560Z"  horiz-adv-x="293" vert-adv-y="1000"  />

      
      <glyph glyph-name="uni0156" unicode="&#x0156;" d="M180 0L48 0L48 695L229 695Q357 695 409 636.50Q461 578 461 478Q461 405 431 357Q401 309 357 284L479 0L326 0L231 246L180 246L180 0M221 372Q267 372 295 400Q323 428 323 476Q323 524 299 549.50Q275 575 229 575L180 575L180 372L221 372M143-237L210-52L326-52L243-237L143-237Z"  horiz-adv-x="492" vert-adv-y="1000"  />

      
      <glyph glyph-name="uni0157" unicode="&#x0157;" d="M289 370Q263 374 231 374Q192 374 169 368L169 0L44 0L44 470Q73 480 119.50 488Q166 496 216 496Q256 496 289 491L289 370M-4-237L63-52L179-52L96-237L-4-237Z"  horiz-adv-x="293" vert-adv-y="1000"  />

      
      <glyph glyph-name="uni0158" unicode="&#x0158;" d="M180 0L48 0L48 695L229 695Q357 695 409 636.50Q461 578 461 478Q461 405 431 357Q401 309 357 284L479 0L326 0L231 246L180 246L180 0M221 372Q267 372 295 400Q323 428 323 476Q323 524 299 549.50Q275 575 229 575L180 575L180 372L221 372M207 753L108 907L201 907L246 832L290 907L384 907L285 753L207 753Z"  horiz-adv-x="492" vert-adv-y="1000"  />

      
      <glyph glyph-name="uni0159" unicode="&#x0159;" d="M289 370Q263 374 231 374Q192 374 169 368L169 0L44 0L44 470Q73 480 119.50 488Q166 496 216 496Q256 496 289 491L289 370M124 555L34 733L123 733L168 639L212 733L302 733L209 555L124 555Z"  horiz-adv-x="293" vert-adv-y="1000"  />

      
      <glyph glyph-name="uni015A" unicode="&#x015A;" d="M37 144Q65 130 102 120Q139 110 178 110Q223 110 246 131Q269 152 269 184Q269 217 249.50 236.50Q230 256 175 289Q127 318 96.50 344Q66 370 47.50 408.50Q29 447 29 501Q29 595 86.50 651Q144 707 252 707Q320 707 378 691L378 560Q318 580 261 580Q216 580 193.50 559.50Q171 539 171 508Q171 483 182 466.50Q193 450 209 438.50Q225 427 265 402Q315 372 343.50 347.50Q372 323 390 284.50Q408 246 408 188Q408 133 384 87.50Q360 42 311.50 14.50Q263-13 192-13Q145-13 104.50-6.50Q64 0 37 12L37 144M165 756L254 894L377 894L271 756L165 756Z"  horiz-adv-x="426" vert-adv-y="1000"  />

      
      <glyph glyph-name="uni015B" unicode="&#x015B;" d="M29 121Q58 109 79.50 103Q101 97 128 97Q188 97 188 135Q188 155 175.50 166Q163 177 125 197Q73 224 47.50 256Q22 288 22 346Q22 415 65.50 455.50Q109 496 193 496Q242 496 292 483L292 371Q266 379 248.50 383Q231 387 209 387Q178 387 163.50 377Q149 367 149 349Q149 334 156.50 324Q164 314 180 304.50Q196 295 215 286Q265 260 289.50 229Q314 198 314 136Q314 73 271.50 31.50Q229-10 148-10Q80-10 29 9L29 121M105 560L200 727L323 727L211 560L105 560Z"  horiz-adv-x="330" vert-adv-y="1000"  />

      
      <glyph glyph-name="uni015C" unicode="&#x015C;" d="M37 144Q65 130 102 120Q139 110 178 110Q223 110 246 131Q269 152 269 184Q269 217 249.50 236.50Q230 256 175 289Q127 318 96.50 344Q66 370 47.50 408.50Q29 447 29 501Q29 595 86.50 651Q144 707 252 707Q320 707 378 691L378 560Q318 580 261 580Q216 580 193.50 559.50Q171 539 171 508Q171 483 182 466.50Q193 450 209 438.50Q225 427 265 402Q315 372 343.50 347.50Q372 323 390 284.50Q408 246 408 188Q408 133 384 87.50Q360 42 311.50 14.50Q263-13 192-13Q145-13 104.50-6.50Q64 0 37 12L37 144M276 753L231 828L187 753L93 753L192 907L270 907L369 753L276 753Z"  horiz-adv-x="426" vert-adv-y="1000"  />

      
      <glyph glyph-name="uni015D" unicode="&#x015D;" d="M29 121Q58 109 79.50 103Q101 97 128 97Q188 97 188 135Q188 155 175.50 166Q163 177 125 197Q73 224 47.50 256Q22 288 22 346Q22 415 65.50 455.50Q109 496 193 496Q242 496 292 483L292 371Q266 379 248.50 383Q231 387 209 387Q178 387 163.50 377Q149 367 149 349Q149 334 156.50 324Q164 314 180 304.50Q196 295 215 286Q265 260 289.50 229Q314 198 314 136Q314 73 271.50 31.50Q229-10 148-10Q80-10 29 9L29 121M220 560L175 654L131 560L41 560L134 738L219 738L309 560L220 560Z"  horiz-adv-x="330" vert-adv-y="1000"  />

      
      <glyph glyph-name="uni015E" unicode="&#x015E;" d="M408 188Q408 109 360 53Q312-3 221-12L208-46Q240-46 259.50-68.50Q279-91 279-127Q279-172 252.50-197.50Q226-223 190-223Q157-223 128-211L128-142Q138-146 150.50-149.50Q163-153 177-153Q199-153 206.50-145Q214-137 214-119Q214-105 201-100Q188-95 164-94L146-93L183-13Q139-12 100.50-5.50Q62 1 37 12L37 144Q65 130 102 120Q139 110 178 110Q223 110 246 131Q269 152 269 184Q269 217 249.50 236.50Q230 256 175 289Q127 318 96.50 344Q66 370 47.50 408.50Q29 447 29 501Q29 595 86.50 651Q144 707 252 707Q320 707 378 691L378 560Q318 580 261 580Q216 580 193.50 559.50Q171 539 171 508Q171 483 182 466.50Q193 450 209 438.50Q225 427 265 402Q315 372 343.50 347.50Q372 323 390 284.50Q408 246 408 188Z"  horiz-adv-x="426" vert-adv-y="1000"  />

      
      <glyph glyph-name="uni015F" unicode="&#x015F;" d="M314 136Q314 78 277.50 37.50Q241-3 171-9L157-46Q189-46 208.50-68.50Q228-91 228-127Q228-172 201.50-197.50Q175-223 139-223Q106-223 77-211L77-142Q87-146 99.50-149.50Q112-153 126-153Q148-153 155.50-145Q163-137 163-119Q163-105 150-100Q137-95 113-94L95-93L133-10Q72-7 29 9L29 121Q58 109 79.50 103Q101 97 128 97Q188 97 188 135Q188 155 175.50 166Q163 177 125 197Q73 224 47.50 256Q22 288 22 346Q22 415 65.50 455.50Q109 496 193 496Q242 496 292 483L292 371Q266 379 248.50 383Q231 387 209 387Q178 387 163.50 377Q149 367 149 349Q149 334 156.50 324Q164 314 180 304.50Q196 295 215 286Q265 260 289.50 229Q314 198 314 136Z"  horiz-adv-x="330" vert-adv-y="1000"  />

      
      <glyph glyph-name="uni0160" unicode="&#x0160;" d="M37 144Q65 130 102 120Q139 110 178 110Q223 110 246 131Q269 152 269 184Q269 217 249.50 236.50Q230 256 175 289Q127 318 96.50 344Q66 370 47.50 408.50Q29 447 29 501Q29 595 86.50 651Q144 707 252 707Q320 707 378 691L378 560Q318 580 261 580Q216 580 193.50 559.50Q171 539 171 508Q171 483 182 466.50Q193 450 209 438.50Q225 427 265 402Q315 372 343.50 347.50Q372 323 390 284.50Q408 246 408 188Q408 133 384 87.50Q360 42 311.50 14.50Q263-13 192-13Q145-13 104.50-6.50Q64 0 37 12L37 144M192 753L93 907L186 907L231 832L275 907L369 907L270 753L192 753Z"  horiz-adv-x="426" vert-adv-y="1000"  />

      
      <glyph glyph-name="uni0161" unicode="&#x0161;" d="M29 121Q58 109 79.50 103Q101 97 128 97Q188 97 188 135Q188 155 175.50 166Q163 177 125 197Q73 224 47.50 256Q22 288 22 346Q22 415 65.50 455.50Q109 496 193 496Q242 496 292 483L292 371Q266 379 248.50 383Q231 387 209 387Q178 387 163.50 377Q149 367 149 349Q149 334 156.50 324Q164 314 180 304.50Q196 295 215 286Q265 260 289.50 229Q314 198 314 136Q314 73 271.50 31.50Q229-10 148-10Q80-10 29 9L29 121M131 555L41 733L130 733L175 639L219 733L309 733L216 555L131 555Z"  horiz-adv-x="330" vert-adv-y="1000"  />

      
      </font>
</defs>
</svg>
